<?xml version="1.0" standalone="no"?>
<!DOCTYPE svg PUBLIC "-//W3C//DTD SVG 1.1//EN" "http://www.w3.org/Graphics/SVG/1.1/DTD/svg11.dtd" >
<svg xmlns="http://www.w3.org/2000/svg" xmlns:xlink="http://www.w3.org/1999/xlink" version="1.1">
<metadata>
Created by FontForge 20200427 at Sat Feb 27 16:21:09 2021
 By www
Copyright 2020 The Tektur Project Authors (https://www.github.com/hyvyys/Tektur)
</metadata>
<defs>
<font id="Tektur-SemiBold" horiz-adv-x="600" >
  <font-face 
    font-family="Tektur SBold"
    font-weight="600"
    font-stretch="normal"
    units-per-em="1000"
    panose-1="0 0 0 0 0 0 0 0 0 0"
    ascent="800"
    descent="-200"
    x-height="560"
    cap-height="700"
    bbox="-235 -250 1230 1000"
    underline-thickness="50"
    underline-position="-125"
    unicode-range="U+000D-FB04"
  />
<missing-glyph horiz-adv-x="580" 
d="M30 0v700h520v-700h-520zM290 413l145 207h-290zM120 170l126 180l-126 181v-361zM460 170v361l-126 -181zM145 80h290l-145 208z" />
    <glyph glyph-name="I_J.loclNLD" unicode="IJ" horiz-adv-x="924" 
d="M45 -4v114l77 5v470l-77 5v114l148 -8l148 8v-114l-77 -5v-470l77 -5v-114l-148 8zM396 110v210h138v-192h198v448h-310v124h452v-586l-114 -114h-254z" />
    <glyph glyph-name="Iacute_J.loclNLD" unicode="I&#x301;J" horiz-adv-x="924" 
d="M45 -4v114l77 5v470l-77 5v114l148 -8l148 8v-114l-77 -5v-470l77 -5v-114l-148 8zM396 110v210h138v-192h198v448h-310v124h452v-586l-114 -114h-254zM50 764v76l320 27v-103h-320zM520 764v76l320 27v-103h-320z" />
    <glyph glyph-name="gamma_gamma" unicode="&#x3b3;&#x3b3;" horiz-adv-x="1106" 
d="M215 -9l-206 569h144l130 -414h16l130 414h250l130 -414h16l130 414h142l-206 -569v-131h-150v131l-188 532l-188 -532v-131h-150v131z" />
    <glyph glyph-name="lambda_lambda" unicode="&#x3bb;&#x3bb;" horiz-adv-x="1156" 
d="M128 700h266l184 -656l128 436h174l-32 108h-164v112h266l197 -700h-143l-98 368h-96l-101 -368h-261l-98 368h-96l-101 -368h-144l141 480h174l-32 108h-164v112z" />
    <glyph glyph-name="uni0457_uni0457" unicode="&#x457;&#x457;" horiz-adv-x="492" 
d="M-6 618v100h96v-100h-96zM130 618v100h96v-100h-96zM266 618v100h96v-100h-96zM402 618v100h96v-100h-96zM52 0v560h142v-560h-142zM298 0v560h142v-560h-142z" />
    <glyph glyph-name=".notdef" horiz-adv-x="580" 
d="M30 0v700h520v-700h-520zM290 413l145 207h-290zM120 170l126 180l-126 181v-361zM460 170v361l-126 -181zM145 80h290l-145 208z" />
    <glyph glyph-name="NULL" horiz-adv-x="0" 
 />
    <glyph glyph-name="CR" unicode="&#xd;" horiz-adv-x="0" 
 />
    <glyph glyph-name="space" unicode=" " horiz-adv-x="260" 
 />
    <glyph glyph-name="A" unicode="A" horiz-adv-x="654" 
d="M14 0l163 700h300l163 -700h-149l-35 160h-258l-35 -160h-149zM219 267h216l-70 318h-76z" />
    <glyph glyph-name="A.ss01" horiz-adv-x="660" 
d="M608 592v-592h-142v200h-272v-200h-142v592l108 108h340zM194 572v-252h272v252h-272z" />
    <glyph glyph-name="B" unicode="B" horiz-adv-x="648" 
d="M596 596v-177l-55 -47l75 -64v-204l-104 -104h-460v700h440zM194 413h258v171h-258v-171zM194 116h276v193h-276v-193z" />
    <glyph glyph-name="C" unicode="C" horiz-adv-x="554" 
d="M50 108v484l108 108h358v-129h-320v-442h330v-129h-368z" />
    <glyph glyph-name="C.ss02" horiz-adv-x="642" 
d="M158 0l-108 108v484l108 108h432v-264h-128v140h-266v-452h266v140h128v-264h-432z" />
    <glyph glyph-name="C.ss03" horiz-adv-x="656" 
d="M50 104v492l104 104h360l92 -92v-168h-140v136h-270v-452h270v136h140v-168l-92 -92h-360z" />
    <glyph glyph-name="D" unicode="D" horiz-adv-x="635" 
d="M52 0v700h425l108 -108v-484l-108 -108h-425zM194 124h249v452h-249v-452z" />
    <glyph glyph-name="E" unicode="E" horiz-adv-x="580" 
d="M52 0v700h488v-120h-346v-164h296v-116h-296v-180h356v-120h-498z" />
    <glyph glyph-name="F" unicode="F" horiz-adv-x="562" 
d="M52 0v700h480v-128h-338v-216h318v-124h-318v-232h-142z" />
    <glyph glyph-name="G" unicode="G" horiz-adv-x="646" 
d="M50 108v484l108 108h400v-124h-366v-452h276v178h-168v115h296v-417h-438z" />
    <glyph glyph-name="G.ss02" horiz-adv-x="648" 
d="M50 108v484l108 108h438v-232h-128v108h-276v-452h272v159h-164v105h296v-388h-438z" />
    <glyph glyph-name="G.ss03" horiz-adv-x="650" 
d="M50 108v484l108 108h350l92 -92v-140h-138v108h-270v-452h276v159h-168v105h300v-388h-442z" />
    <glyph glyph-name="H" unicode="H" horiz-adv-x="662" 
d="M52 0v700h142v-276h274v276h142v-700h-142v296h-274v-296h-142z" />
    <glyph glyph-name="I" unicode="I" horiz-adv-x="430" 
d="M45 -4v114l99 5v470l-99 5v114l170 -8l170 8v-114l-99 -5v-470l99 -5v-114l-170 8z" />
    <glyph glyph-name="J" unicode="J" 
d="M30 114v206h142v-192h236v448h-350v124h492v-586l-114 -114h-292z" />
    <glyph glyph-name="K" unicode="K" horiz-adv-x="646" 
d="M52 0v700h142v-283h121l153 283h159l-186 -330l201 -370h-159l-157 293h-132v-293h-142z" />
    <glyph glyph-name="L" unicode="L" horiz-adv-x="586" 
d="M52 0v700h142v-580h236v160h128v-280h-506z" />
    <glyph glyph-name="L.ss05" horiz-adv-x="530" 
d="M52 0v700h142v-572h308v-128h-450z" />
    <glyph glyph-name="M" unicode="M" horiz-adv-x="780" 
d="M52 0v700h172l166 -324l166 324h172v-700h-139v521l-165 -317h-68l-165 317v-521h-139z" />
    <glyph glyph-name="M.ss04" horiz-adv-x="872" 
d="M52 0v700h230l154 -462l154 462h230v-700h-138v558h-15l-167 -486h-128l-167 486h-15v-558h-138z" />
    <glyph glyph-name="N" unicode="N" horiz-adv-x="680" 
d="M52 0v700h149l293 -495v495h134v-700h-149l-293 495v-495h-134z" />
    <glyph glyph-name="O" unicode="O" horiz-adv-x="680" 
d="M50 108v484l108 108h364l108 -108v-484l-108 -108h-364zM196 576v-452h288v452h-288z" />
    <glyph glyph-name="P" unicode="P" horiz-adv-x="624" 
d="M592 592v-334l-108 -108h-290v-150h-142v700h432zM194 266h256v318h-256v-318z" />
    <glyph glyph-name="Q" unicode="Q" horiz-adv-x="680" 
d="M50 108v484l108 108h364l108 -108v-473l-90 -62l118 -20v-131l-500 94zM196 117l288 -50v509h-288v-459z" />
    <glyph glyph-name="R" unicode="R" horiz-adv-x="654" 
d="M606 592v-269l-76 -76l121 -247h-157l-97 212h-203v-212h-142v700h446zM194 328h270v256h-270v-256z" />
    <glyph glyph-name="S" unicode="S" horiz-adv-x="640" 
d="M60 0v124h388v162l-398 33v277l104 104h426v-124h-388v-152l398 -33v-287l-104 -104h-426z" />
    <glyph glyph-name="S.ss02" horiz-adv-x="657" 
d="M54 0v212h128v-92h283v166l-415 33v277l104 104h440v-212h-128v92h-274v-156l415 -33v-287l-104 -104h-449z" />
    <glyph glyph-name="S.ss03" horiz-adv-x="653" 
d="M50 100v116h136v-96h275v168l-411 33v279l100 100h353l100 -100v-116h-136v96h-275v-158l411 -33v-289l-100 -100h-353z" />
    <glyph glyph-name="T" unicode="T" horiz-adv-x="568" 
d="M213 0v576h-193v124h528v-124h-193v-576h-142z" />
    <glyph glyph-name="U" unicode="U" horiz-adv-x="650" 
d="M52 108v592h142v-572h262v572h142v-592l-108 -108h-330z" />
    <glyph glyph-name="V" unicode="V" horiz-adv-x="654" 
d="M177 0l-163 700h152l123 -572h76l123 572h152l-163 -700h-300z" />
    <glyph glyph-name="W" unicode="W" horiz-adv-x="856" 
d="M124 0l-112 700h149l81 -556h42l82 446h124l82 -446h42l81 556h149l-112 -700h-229l-75 412l-75 -412h-229z" />
    <glyph glyph-name="X" unicode="X" horiz-adv-x="660" 
d="M12 0l164 370l-149 330h153l114 -276h72l114 276h153l-149 -330l164 -370h-154l-120 296h-88l-120 -296h-154z" />
    <glyph glyph-name="Y" unicode="Y" horiz-adv-x="640" 
d="M249 0v210h-86l-146 490h151l100 -367h104l100 367h151l-146 -490h-86v-210h-142z" />
    <glyph glyph-name="Z" unicode="Z" horiz-adv-x="562" 
d="M38 0v106l323 474h-321v120h482v-106l-323 -474h325v-120h-486z" />
    <glyph glyph-name="a" unicode="a" 
d="M42 110v210l364 10v110h-344v120h376l110 -110v-450h-396zM184 232v-116h222v136z" />
    <glyph glyph-name="b" unicode="b" horiz-adv-x="620" 
d="M52 0v700h142v-140h267l114 -114v-332l-114 -114h-409zM194 120h239v320h-239v-320z" />
    <glyph glyph-name="c" unicode="c" horiz-adv-x="535" 
d="M45 106v348l106 106h358v-128h-322v-304h322v-128h-358z" />
    <glyph glyph-name="d" unicode="d" horiz-adv-x="620" 
d="M568 700v-700h-409l-114 114v332l114 114h267v140h142zM187 120h239v320h-239v-320z" />
    <glyph glyph-name="e" unicode="e" horiz-adv-x="590" 
d="M45 106v348l106 106h394v-314h-358v-126h338v-120h-374zM187 324l234 10v114h-234v-124z" />
    <glyph glyph-name="f" unicode="f" horiz-adv-x="426" 
d="M52 0v594l106 106h248v-124h-212v-146h212v-120h-212v-310h-142z" />
    <glyph glyph-name="g" unicode="g" horiz-adv-x="610" 
d="M78 -140v120h338v100h-265l-106 106v268l112 106h401v-578l-122 -122h-358zM187 440v-244h229v244h-229z" />
    <glyph glyph-name="h" unicode="h" horiz-adv-x="620" 
d="M52 0v700h142v-140h264l110 -110v-450h-142v440h-232v-440h-142z" />
    <glyph glyph-name="i" unicode="i" horiz-adv-x="246" 
d="M52 618v100h142v-100h-142zM52 0v560h142v-560h-142z" />
    <glyph glyph-name="j" unicode="j" horiz-adv-x="246" 
d="M52 618v100h142v-100h-142zM52 -140v700h142v-700h-142z" />
    <glyph glyph-name="k" unicode="k" horiz-adv-x="608" 
d="M52 0v700h142v-349h123l115 209h161l-158 -258l167 -302h-160l-118 231h-130v-231h-142z" />
    <glyph glyph-name="l" unicode="l" horiz-adv-x="246" 
d="M52 0v700h142v-700h-142z" />
    <glyph glyph-name="m" unicode="m" horiz-adv-x="920" 
d="M52 560h700l116 -116v-444h-140v442h-199v-442h-138v442h-199v-442h-140v560z" />
    <glyph glyph-name="n" unicode="n" horiz-adv-x="620" 
d="M52 0v560h406l110 -110v-450h-142v436h-232v-436h-142z" />
    <glyph glyph-name="o" unicode="o" 
d="M45 106v348l106 106h298l106 -106v-348l-106 -106h-298zM187 116h226v328h-226v-328z" />
    <glyph glyph-name="p" unicode="p" horiz-adv-x="620" 
d="M52 -140v700h409l114 -114v-332l-114 -114h-267v-140h-142zM433 440h-239v-320h239v320z" />
    <glyph glyph-name="q" unicode="q" horiz-adv-x="620" 
d="M568 560v-700h-142v140h-267l-114 114v332l114 114h409zM426 440h-239v-320h239v320z" />
    <glyph glyph-name="r" unicode="r" horiz-adv-x="470" 
d="M52 0v450l110 110h288v-128h-256v-432h-142z" />
    <glyph glyph-name="s" unicode="s" horiz-adv-x="592" 
d="M45 0v116h360v123h-360v215l106 106h396v-116h-360v-117h360v-224l-103 -103h-399z" />
    <glyph glyph-name="t" unicode="t" horiz-adv-x="430" 
d="M52 650l142 50v-160h216v-120h-216v-300h216v-120h-248l-110 110v540z" />
    <glyph glyph-name="u" unicode="u" horiz-adv-x="620" 
d="M568 560v-560h-406l-110 110v450h142v-436h232v436h142z" />
    <glyph glyph-name="v" unicode="v" horiz-adv-x="580" 
d="M145 0l-136 560h144l96 -440h84l96 440h142l-136 -560h-290z" />
    <glyph glyph-name="w" unicode="w" horiz-adv-x="840" 
d="M117 0l-87 560h143l60 -440h37l78 386h144l78 -386h37l60 440h143l-87 -560h-228l-75 360l-75 -360h-228z" />
    <glyph glyph-name="x" unicode="x" horiz-adv-x="630" 
d="M19 0l144 296l-133 264h159l92 -214h68l92 214h159l-133 -264l144 -296h-160l-94 226h-84l-94 -226h-160z" />
    <glyph glyph-name="y" unicode="y" 
d="M41 -140v120h253l29 100h-173l-141 480h144l102 -364h95l98 364h143l-197 -700h-353z" />
    <glyph glyph-name="z" unicode="z" horiz-adv-x="530" 
d="M26 0v100l300 340h-296v120h471v-100l-300 -340h303v-120h-478z" />
    <glyph glyph-name="Aacute" unicode="&#xc1;" horiz-adv-x="654" 
d="M14 0l163 700h300l163 -700h-149l-35 160h-258l-35 -160h-149zM219 267h216l-70 318h-76zM197 764v76l320 27v-103h-320z" />
    <glyph glyph-name="Aacute.ss01" horiz-adv-x="660" 
d="M608 592v-592h-142v200h-272v-200h-142v592l108 108h340zM194 572v-252h272v252h-272zM200 764v76l320 27v-103h-320z" />
    <glyph glyph-name="aacute" unicode="&#xe1;" 
d="M42 110v210l364 10v110h-344v120h376l110 -110v-450h-396zM184 232v-116h222v136zM153 624v76l320 27v-103h-320z" />
    <glyph glyph-name="Agrave" unicode="&#xc0;" horiz-adv-x="654" 
d="M14 0l163 700h300l163 -700h-149l-35 160h-258l-35 -160h-149zM219 267h216l-70 318h-76zM457 764h-320v103l320 -27v-76z" />
    <glyph glyph-name="Agrave.ss01" horiz-adv-x="660" 
d="M608 592v-592h-142v200h-272v-200h-142v592l108 108h340zM194 572v-252h272v252h-272zM460 764h-320v103l320 -27v-76z" />
    <glyph glyph-name="agrave" unicode="&#xe0;" 
d="M42 110v210l364 10v110h-344v120h376l110 -110v-450h-396zM184 232v-116h222v136zM413 624h-320v103l320 -27v-76z" />
    <glyph glyph-name="Abreve" unicode="&#x102;" horiz-adv-x="654" 
d="M14 0l163 700h300l163 -700h-149l-35 160h-258l-35 -160h-149zM219 267h216l-70 318h-76zM412 886h123l-82 -132h-252l-82 132h123l20 -57h130z" />
    <glyph glyph-name="Abreve.ss01" horiz-adv-x="660" 
d="M608 592v-592h-142v200h-272v-200h-142v592l108 108h340zM194 572v-252h272v252h-272zM415 886h123l-82 -132h-252l-82 132h123l20 -57h130z" />
    <glyph glyph-name="uni01CD.ss01" horiz-adv-x="660" 
d="M608 592v-592h-142v200h-272v-200h-142v592l108 108h340zM194 572v-252h272v252h-272zM520 907v-96l-190 -66l-190 66v96l190 -66z" />
    <glyph glyph-name="abreve" unicode="&#x103;" 
d="M42 110v210l364 10v110h-344v120h376l110 -110v-450h-396zM184 232v-116h222v136zM368 746h123l-82 -132h-252l-82 132h123l20 -57h130z" />
    <glyph glyph-name="Acircumflex" unicode="&#xc2;" horiz-adv-x="654" 
d="M14 0l163 700h300l163 -700h-149l-35 160h-258l-35 -160h-149zM219 267h216l-70 318h-76zM137 745v96l190 66l190 -66v-96l-190 66z" />
    <glyph glyph-name="Acircumflex.ss01" horiz-adv-x="660" 
d="M608 592v-592h-142v200h-272v-200h-142v592l108 108h340zM194 572v-252h272v252h-272zM140 745v96l190 66l190 -66v-96l-190 66z" />
    <glyph glyph-name="acircumflex" unicode="&#xe2;" 
d="M42 110v210l364 10v110h-344v120h376l110 -110v-450h-396zM184 232v-116h222v136zM93 605v96l190 66l190 -66v-96l-190 66z" />
    <glyph glyph-name="uni01CD" unicode="&#x1cd;" horiz-adv-x="654" 
d="M14 0l163 700h300l163 -700h-149l-35 160h-258l-35 -160h-149zM219 267h216l-70 318h-76zM517 907v-96l-190 -66l-190 66v96l190 -66z" />
    <glyph glyph-name="uni01CE" unicode="&#x1ce;" 
d="M42 110v210l364 10v110h-344v120h376l110 -110v-450h-396zM184 232v-116h222v136zM473 767v-96l-190 -66l-190 66v96l190 -66z" />
    <glyph glyph-name="Aring" unicode="&#xc5;" horiz-adv-x="654" 
d="M14 0l163 700h300l163 -700h-149l-35 160h-258l-35 -160h-149zM219 267h216l-70 318h-76zM191 781v98l67 55h138l67 -55v-98l-67 -55h-138zM269 796h116v68h-116v-68z" />
    <glyph glyph-name="Aring.ss01" horiz-adv-x="660" 
d="M608 592v-592h-142v200h-272v-200h-142v592l108 108h340zM194 572v-252h272v252h-272zM194 781v98l67 55h138l67 -55v-98l-67 -55h-138zM272 796h116v68h-116v-68z" />
    <glyph glyph-name="aring" unicode="&#xe5;" 
d="M42 110v210l364 10v110h-344v120h376l110 -110v-450h-396zM184 232v-116h222v136zM147 641v98l67 55h138l67 -55v-98l-67 -55h-138zM225 656h116v68h-116v-68z" />
    <glyph glyph-name="Aringacute" unicode="&#x1fa;" horiz-adv-x="654" 
d="M14 0l163 700h300l163 -700h-149l-35 160h-258l-35 -160h-149zM219 267h216l-70 318h-76zM486 884l-35 26l22 70h99zM191 781v98l67 55h138l67 -55v-98l-67 -55h-138zM269 796h116v68h-116v-68z" />
    <glyph glyph-name="Aringacute.ss01" horiz-adv-x="660" 
d="M608 592v-592h-142v200h-272v-200h-142v592l108 108h340zM194 572v-252h272v252h-272zM489 884l-35 26l22 70h99zM194 781v98l67 55h138l67 -55v-98l-67 -55h-138zM272 796h116v68h-116v-68z" />
    <glyph glyph-name="aringacute" unicode="&#x1fb;" 
d="M42 110v210l364 10v110h-344v120h376l110 -110v-450h-396zM184 232v-116h222v136zM442 744l-35 26l22 70h99zM147 641v98l67 55h138l67 -55v-98l-67 -55h-138zM225 656h116v68h-116v-68z" />
    <glyph glyph-name="Adieresis" unicode="&#xc4;" horiz-adv-x="654" 
d="M14 0l163 700h300l163 -700h-149l-35 160h-258l-35 -160h-149zM219 267h216l-70 318h-76zM142 758v100h134v-100h-134zM378 758v100h134v-100h-134z" />
    <glyph glyph-name="Adieresis.ss01" horiz-adv-x="660" 
d="M608 592v-592h-142v200h-272v-200h-142v592l108 108h340zM194 572v-252h272v252h-272zM145 758v100h134v-100h-134zM381 758v100h134v-100h-134z" />
    <glyph glyph-name="adieresis" unicode="&#xe4;" 
d="M42 110v210l364 10v110h-344v120h376l110 -110v-450h-396zM184 232v-116h222v136zM98 618v100h134v-100h-134zM334 618v100h134v-100h-134z" />
    <glyph glyph-name="uni01DE" unicode="&#x1de;" horiz-adv-x="654" 
d="M14 0l163 700h300l163 -700h-149l-35 160h-258l-35 -160h-149zM219 267h216l-70 318h-76zM142 758v100h134v-100h-134zM378 758v100h134v-100h-134zM157 900v66h340v-66h-340z" />
    <glyph glyph-name="uni01DE.1" horiz-adv-x="660" 
d="M608 592v-592h-142v200h-272v-200h-142v592l108 108h340zM194 572v-252h272v252h-272zM145 758v100h134v-100h-134zM381 758v100h134v-100h-134zM160 900v66h340v-66h-340z" />
    <glyph glyph-name="uni01DF" unicode="&#x1df;" 
d="M42 110v210l364 10v110h-344v120h376l110 -110v-450h-396zM184 232v-116h222v136zM98 618v100h134v-100h-134zM334 618v100h134v-100h-134zM113 760v66h340v-66h-340z" />
    <glyph glyph-name="Atilde" unicode="&#xc3;" horiz-adv-x="654" 
d="M14 0l163 700h300l163 -700h-149l-35 160h-258l-35 -160h-149zM219 267h216l-70 318h-76zM137 740l-20 85l100 66l204 -52l96 51l20 -85l-100 -66l-204 52z" />
    <glyph glyph-name="Atilde.ss01" horiz-adv-x="660" 
d="M608 592v-592h-142v200h-272v-200h-142v592l108 108h340zM194 572v-252h272v252h-272zM140 740l-20 85l100 66l204 -52l96 51l20 -85l-100 -66l-204 52z" />
    <glyph glyph-name="atilde" unicode="&#xe3;" 
d="M42 110v210l364 10v110h-344v120h376l110 -110v-450h-396zM184 232v-116h222v136zM93 600l-20 85l100 66l204 -52l96 51l20 -85l-100 -66l-204 52z" />
    <glyph glyph-name="Aogonek" unicode="&#x104;" horiz-adv-x="654" 
d="M14 0l163 700h300l163 -700h-149l-35 160h-258l-35 -160h-149zM219 267h216l-70 318h-76zM628 -52l-40 -148h-134l70 148h104z" />
    <glyph glyph-name="Aogonek.ss01" horiz-adv-x="660" 
d="M608 592v-592h-142v200h-272v-200h-142v592l108 108h340zM194 572v-252h272v252h-272zM608 -52l-40 -148h-134l70 148h104z" />
    <glyph glyph-name="aogonek" unicode="&#x105;" 
d="M42 110v210l364 10v110h-344v120h376l110 -110v-450h-396zM184 232v-116h222v136zM530 -52l-40 -148h-134l70 148h104z" />
    <glyph glyph-name="Amacron" unicode="&#x100;" horiz-adv-x="654" 
d="M14 0l163 700h300l163 -700h-149l-35 160h-258l-35 -160h-149zM219 267h216l-70 318h-76zM157 772v98h340v-98h-340z" />
    <glyph glyph-name="Amacron.ss01" horiz-adv-x="660" 
d="M608 592v-592h-142v200h-272v-200h-142v592l108 108h340zM194 572v-252h272v252h-272zM160 772v98h340v-98h-340z" />
    <glyph glyph-name="amacron" unicode="&#x101;" 
d="M42 110v210l364 10v110h-344v120h376l110 -110v-450h-396zM184 232v-116h222v136zM113 632v98h340v-98h-340z" />
    <glyph glyph-name="uni0200" unicode="&#x200;" horiz-adv-x="654" 
d="M14 0l163 700h300l163 -700h-149l-35 160h-258l-35 -160h-149zM219 267h216l-70 318h-76zM421 870l40 -128h-93l-71 128h124zM248 870l60 -128h-96l-88 128h124z" />
    <glyph glyph-name="uni0200.ss01" horiz-adv-x="660" 
d="M608 592v-592h-142v200h-272v-200h-142v592l108 108h340zM194 572v-252h272v252h-272zM424 870l40 -128h-93l-71 128h124zM251 870l60 -128h-96l-88 128h124z" />
    <glyph glyph-name="uni0201" unicode="&#x201;" 
d="M42 110v210l364 10v110h-344v120h376l110 -110v-450h-396zM184 232v-116h222v136zM377 730l40 -128h-93l-71 128h124zM204 730l60 -128h-96l-88 128h124z" />
    <glyph glyph-name="uni0202" unicode="&#x202;" horiz-adv-x="654" 
d="M14 0l163 700h300l163 -700h-149l-35 160h-258l-35 -160h-149zM219 267h216l-70 318h-76zM242 746h-123l82 132h252l82 -132h-123l-20 57h-130z" />
    <glyph glyph-name="uni0202.ss01" horiz-adv-x="660" 
d="M608 592v-592h-142v200h-272v-200h-142v592l108 108h340zM194 572v-252h272v252h-272zM245 746h-123l82 132h252l82 -132h-123l-20 57h-130z" />
    <glyph glyph-name="uni0203" unicode="&#x203;" 
d="M42 110v210l364 10v110h-344v120h376l110 -110v-450h-396zM184 232v-116h222v136zM198 606h-123l82 132h252l82 -132h-123l-20 57h-130z" />
    <glyph glyph-name="AE" unicode="&#xc6;" horiz-adv-x="902" 
d="M14 0l186 700h662v-120h-300v-164h250v-116h-250v-180h310v-120h-448v160h-221l-40 -160h-149zM225 267h200v318h-119z" />
    <glyph glyph-name="AE.ss01" horiz-adv-x="894" 
d="M14 0v592l108 108h732v-120h-308v-164h258v-116h-258v-180h318v-120h-460v204h-248v-204h-142zM156 320h248v260h-248v-260z" />
    <glyph glyph-name="ae" unicode="&#xe6;" horiz-adv-x="915" 
d="M42 110v210l346 10v110h-326v120h328l69 -69l69 69h342v-314h-340v-130h320v-116h-698zM530 324l214 10v114h-214v-124zM184 232v-120h204v140z" />
    <glyph glyph-name="AEacute" unicode="&#x1fc;" horiz-adv-x="902" 
d="M14 0l186 700h662v-120h-300v-164h250v-116h-250v-180h310v-120h-448v160h-221l-40 -160h-149zM225 267h200v318h-119zM406 764v76l320 27v-103h-320z" />
    <glyph glyph-name="AEacute.ss01" horiz-adv-x="894" 
d="M14 0v592l108 108h732v-120h-308v-164h258v-116h-258v-180h318v-120h-460v204h-248v-204h-142zM156 320h248v260h-248v-260zM317 764v76l320 27v-103h-320z" />
    <glyph glyph-name="aeacute" unicode="&#x1fd;" horiz-adv-x="915" 
d="M42 110v210l346 10v110h-326v120h328l69 -69l69 69h342v-314h-340v-130h320v-116h-698zM530 324l214 10v114h-214v-124zM184 232v-120h204v140zM328 624v76l320 27v-103h-320z" />
    <glyph glyph-name="uni1E02" unicode="&#x1e02;" horiz-adv-x="648" 
d="M596 596v-177l-55 -47l75 -64v-204l-104 -104h-460v700h440zM194 413h258v171h-258v-171zM194 116h276v193h-276v-193zM227 758v100h142v-100h-142z" />
    <glyph glyph-name="uni1E03" unicode="&#x1e03;" horiz-adv-x="620" 
d="M52 0v700h142v-140h267l114 -114v-332l-114 -114h-409zM194 120h239v320h-239v-320zM201 758v100h142v-100h-142z" />
    <glyph glyph-name="uni0181" unicode="&#x181;" horiz-adv-x="805" 
d="M134 584v-146h-124v160l102 102h537l104 -104v-177l-55 -47l75 -64v-204l-104 -104h-456v584h-79zM355 413h254v171h-254v-171zM355 116h272v193h-272v-193z" />
    <glyph glyph-name="uni0253" unicode="&#x253;" horiz-adv-x="620" 
d="M52 0v594l106 106h164v-112h-128v-70h267l114 -114v-290l-114 -114h-409zM194 120h239v290h-239v-290z" />
    <glyph glyph-name="Cacute" unicode="&#x106;" horiz-adv-x="554" 
d="M50 108v484l108 108h358v-129h-320v-442h330v-129h-368zM196 764v76l320 27v-103h-320z" />
    <glyph glyph-name="cacute" unicode="&#x107;" horiz-adv-x="535" 
d="M45 106v348l106 106h358v-128h-322v-304h322v-128h-358zM195 624v76l320 27v-103h-320z" />
    <glyph glyph-name="Ccircumflex" unicode="&#x108;" horiz-adv-x="554" 
d="M50 108v484l108 108h358v-129h-320v-442h330v-129h-368zM136 745v96l190 66l190 -66v-96l-190 66z" />
    <glyph glyph-name="ccircumflex" unicode="&#x109;" horiz-adv-x="535" 
d="M45 106v348l106 106h358v-128h-322v-304h322v-128h-358zM135 605v96l190 66l190 -66v-96l-190 66z" />
    <glyph glyph-name="Ccaron" unicode="&#x10c;" horiz-adv-x="554" 
d="M50 108v484l108 108h358v-129h-320v-442h330v-129h-368zM516 907v-96l-190 -66l-190 66v96l190 -66z" />
    <glyph glyph-name="ccaron" unicode="&#x10d;" horiz-adv-x="535" 
d="M45 106v348l106 106h358v-128h-322v-304h322v-128h-358zM515 767v-96l-190 -66l-190 66v96l190 -66z" />
    <glyph glyph-name="Cdotaccent" unicode="&#x10a;" horiz-adv-x="554" 
d="M50 108v484l108 108h358v-129h-320v-442h330v-129h-368zM255 758v100h142v-100h-142z" />
    <glyph glyph-name="cdotaccent" unicode="&#x10b;" horiz-adv-x="535" 
d="M45 106v348l106 106h358v-128h-322v-304h322v-128h-358zM254 618v100h142v-100h-142z" />
    <glyph glyph-name="Ccedilla" unicode="&#xc7;" horiz-adv-x="554" 
d="M50 108v484l108 108h358v-129h-320v-442h330v-129h-368zM227 -200l47 144h134l-77 -144h-104z" />
    <glyph glyph-name="ccedilla" unicode="&#xe7;" horiz-adv-x="535" 
d="M45 106v348l106 106h358v-128h-322v-304h322v-128h-358zM226 -200l47 144h134l-77 -144h-104z" />
    <glyph glyph-name="Dcaron" unicode="&#x10e;" horiz-adv-x="635" 
d="M52 0v700h425l108 -108v-484l-108 -108h-425zM194 124h249v452h-249v-452zM486 907v-96l-190 -66l-190 66v96l190 -66z" />
    <glyph glyph-name="dcaron" unicode="&#x10f;" horiz-adv-x="680" 
d="M568 700v-700h-409l-114 114v332l114 114h267v140h142zM187 120h239v320h-239v-320zM620 472v228h60v-228h-60z" />
    <glyph glyph-name="uni1E0A" unicode="&#x1e0a;" horiz-adv-x="635" 
d="M52 0v700h425l108 -108v-484l-108 -108h-425zM194 124h249v452h-249v-452zM225 758v100h142v-100h-142z" />
    <glyph glyph-name="uni1E0B" unicode="&#x1e0b;" horiz-adv-x="620" 
d="M568 700v-700h-409l-114 114v332l114 114h267v140h142zM187 120h239v320h-239v-320zM277 758v100h142v-100h-142z" />
    <glyph glyph-name="uni1E10" unicode="&#x1e10;" horiz-adv-x="635" 
d="M52 0v700h425l108 -108v-484l-108 -108h-425zM194 124h249v452h-249v-452zM197 -200l47 144h134l-77 -144h-104z" />
    <glyph glyph-name="uni1E11" unicode="&#x1e11;" horiz-adv-x="620" 
d="M568 700v-700h-409l-114 114v332l114 114h267v140h142zM187 120h239v320h-239v-320zM249 -200l47 144h134l-77 -144h-104z" />
    <glyph glyph-name="Dcroat" unicode="&#x110;" horiz-adv-x="639" 
d="M56 0v700h425l108 -108v-484l-108 -108h-425zM198 124h249v452h-249v-452z" />
    <glyph glyph-name="dcroat" unicode="&#x111;" horiz-adv-x="620" 
d="M187 556v72h239v72h142v-700h-409l-114 114v264l114 114h267v64h-239zM187 120h239v252h-239v-252z" />
    <glyph glyph-name="uni1E0C" unicode="&#x1e0c;" horiz-adv-x="635" 
d="M52 0v700h425l108 -108v-484l-108 -108h-425zM194 124h249v452h-249v-452zM225 -172v100h142v-100h-142z" />
    <glyph glyph-name="uni1E0D" unicode="&#x1e0d;" horiz-adv-x="620" 
d="M568 700v-700h-409l-114 114v332l114 114h267v140h142zM187 120h239v320h-239v-320zM277 -172v100h142v-100h-142z" />
    <glyph glyph-name="Eth" unicode="&#xd0;" horiz-adv-x="639" 
d="M56 0v298h-46v104h46v298h425l108 -108v-484l-108 -108h-425zM198 124h249v452h-249v-174h130v-104h-130v-174z" />
    <glyph glyph-name="eth" unicode="&#xf0;" horiz-adv-x="630" 
d="M155 0l-110 110v272l354 74l-109 94l-195 -52v84l120 32l-100 86h188l55 -48l181 48v-84l-108 -29l154 -135v-342l-110 -110h-320zM443 378l-256 -58v-200h256v258z" />
    <glyph glyph-name="uni0189" unicode="&#x189;" horiz-adv-x="639" 
d="M56 0v700h425l108 -108v-484l-108 -108h-425zM198 124h249v452h-249v-452z" />
    <glyph glyph-name="uni0256" unicode="&#x256;" horiz-adv-x="620" 
d="M568 -16h58v-124h-110l-90 90v50h-267l-114 114v332l114 114h267v140h142v-716zM187 440v-320h239v320h-239z" />
    <glyph glyph-name="uni018A" unicode="&#x18a;" horiz-adv-x="796" 
d="M134 584v-146h-124v160l102 102h526l108 -108v-484l-108 -108h-425v584h-79zM355 124h249v452h-249v-452z" />
    <glyph glyph-name="uni0257" unicode="&#x257;" horiz-adv-x="620" 
d="M45 114v332l114 114h267v60l80 80h132v-112h-70v-588h-409zM187 120h239v320h-239v-320z" />
    <glyph glyph-name="Eacute" unicode="&#xc9;" horiz-adv-x="580" 
d="M52 0v700h488v-120h-346v-164h296v-116h-296v-180h356v-120h-498zM171 764v76l320 27v-103h-320z" />
    <glyph glyph-name="eacute" unicode="&#xe9;" horiz-adv-x="590" 
d="M45 106v348l106 106h394v-314h-358v-126h338v-120h-374zM187 324l234 10v114h-234v-124zM180 624v76l320 27v-103h-320z" />
    <glyph glyph-name="Egrave" unicode="&#xc8;" horiz-adv-x="580" 
d="M52 0v700h488v-120h-346v-164h296v-116h-296v-180h356v-120h-498zM431 764h-320v103l320 -27v-76z" />
    <glyph glyph-name="egrave" unicode="&#xe8;" horiz-adv-x="590" 
d="M45 106v348l106 106h394v-314h-358v-126h338v-120h-374zM187 324l234 10v114h-234v-124zM440 624h-320v103l320 -27v-76z" />
    <glyph glyph-name="Ebreve" unicode="&#x114;" horiz-adv-x="580" 
d="M52 0v700h488v-120h-346v-164h296v-116h-296v-180h356v-120h-498zM386 886h123l-82 -132h-252l-82 132h123l20 -57h130z" />
    <glyph glyph-name="ebreve" unicode="&#x115;" horiz-adv-x="590" 
d="M45 106v348l106 106h394v-314h-358v-126h338v-120h-374zM187 324l234 10v114h-234v-124zM395 746h123l-82 -132h-252l-82 132h123l20 -57h130z" />
    <glyph glyph-name="Ecircumflex" unicode="&#xca;" horiz-adv-x="580" 
d="M52 0v700h488v-120h-346v-164h296v-116h-296v-180h356v-120h-498zM111 745v96l190 66l190 -66v-96l-190 66z" />
    <glyph glyph-name="ecircumflex" unicode="&#xea;" horiz-adv-x="590" 
d="M45 106v348l106 106h394v-314h-358v-126h338v-120h-374zM187 324l234 10v114h-234v-124zM120 605v96l190 66l190 -66v-96l-190 66z" />
    <glyph glyph-name="Ecaron" unicode="&#x11a;" horiz-adv-x="580" 
d="M52 0v700h488v-120h-346v-164h296v-116h-296v-180h356v-120h-498zM491 907v-96l-190 -66l-190 66v96l190 -66z" />
    <glyph glyph-name="ecaron" unicode="&#x11b;" horiz-adv-x="590" 
d="M45 106v348l106 106h394v-314h-358v-126h338v-120h-374zM187 324l234 10v114h-234v-124zM500 767v-96l-190 -66l-190 66v96l190 -66z" />
    <glyph glyph-name="Edieresis" unicode="&#xcb;" horiz-adv-x="580" 
d="M52 0v700h488v-120h-346v-164h296v-116h-296v-180h356v-120h-498zM116 758v100h134v-100h-134zM352 758v100h134v-100h-134z" />
    <glyph glyph-name="edieresis" unicode="&#xeb;" horiz-adv-x="590" 
d="M45 106v348l106 106h394v-314h-358v-126h338v-120h-374zM187 324l234 10v114h-234v-124zM125 618v100h134v-100h-134zM361 618v100h134v-100h-134z" />
    <glyph glyph-name="Edotaccent" unicode="&#x116;" horiz-adv-x="580" 
d="M52 0v700h488v-120h-346v-164h296v-116h-296v-180h356v-120h-498zM230 758v100h142v-100h-142z" />
    <glyph glyph-name="edotaccent" unicode="&#x117;" horiz-adv-x="590" 
d="M45 106v348l106 106h394v-314h-358v-126h338v-120h-374zM187 324l234 10v114h-234v-124zM239 618v100h142v-100h-142z" />
    <glyph glyph-name="Eogonek" unicode="&#x118;" horiz-adv-x="580" 
d="M52 0v700h488v-120h-346v-164h296v-116h-296v-180h356v-120h-498zM488 -52l-40 -148h-134l70 148h104z" />
    <glyph glyph-name="eogonek" unicode="&#x119;" horiz-adv-x="590" 
d="M45 106v348l106 106h394v-314h-358v-126h338v-120h-374zM187 324l234 10v114h-234v-124zM495 -52l-40 -148h-134l70 148h104z" />
    <glyph glyph-name="Emacron" unicode="&#x112;" horiz-adv-x="580" 
d="M52 0v700h488v-120h-346v-164h296v-116h-296v-180h356v-120h-498zM131 772v98h340v-98h-340z" />
    <glyph glyph-name="emacron" unicode="&#x113;" horiz-adv-x="590" 
d="M45 106v348l106 106h394v-314h-358v-126h338v-120h-374zM187 324l234 10v114h-234v-124zM140 632v98h340v-98h-340z" />
    <glyph glyph-name="uni0204" unicode="&#x204;" horiz-adv-x="580" 
d="M52 0v700h488v-120h-346v-164h296v-116h-296v-180h356v-120h-498zM395 870l40 -128h-93l-71 128h124zM222 870l60 -128h-96l-88 128h124z" />
    <glyph glyph-name="uni0205" unicode="&#x205;" horiz-adv-x="590" 
d="M45 106v348l106 106h394v-314h-358v-126h338v-120h-374zM187 324l234 10v114h-234v-124zM404 730l40 -128h-93l-71 128h124zM231 730l60 -128h-96l-88 128h124z" />
    <glyph glyph-name="uni0206" unicode="&#x206;" horiz-adv-x="580" 
d="M52 0v700h488v-120h-346v-164h296v-116h-296v-180h356v-120h-498zM216 746h-123l82 132h252l82 -132h-123l-20 57h-130z" />
    <glyph glyph-name="uni0207" unicode="&#x207;" horiz-adv-x="590" 
d="M45 106v348l106 106h394v-314h-358v-126h338v-120h-374zM187 324l234 10v114h-234v-124zM225 606h-123l82 132h252l82 -132h-123l-20 57h-130z" />
    <glyph glyph-name="uni018F" unicode="&#x18f;" horiz-adv-x="650" 
d="M600 591v-482l-109 -109h-332l-109 109v313h408v158h-388v120h421zM458 328l-266 -10v-198h266v208z" />
    <glyph glyph-name="uni0259" unicode="&#x259;" horiz-adv-x="590" 
d="M545 451v-342l-109 -109h-282l-109 109v205h358v126h-338v120h371zM403 236l-228 -10v-114h228v124z" />
    <glyph glyph-name="uni0190" unicode="&#x190;" horiz-adv-x="618" 
d="M136 0h452v120h-411v180h351v116h-331v164h381v120h-422l-104 -104v-183l61 -47l-81 -64v-198z" />
    <glyph glyph-name="uni025B" unicode="&#x25b;" horiz-adv-x="586" 
d="M133 0l-92 92v138l81 64l-61 47v131l88 88h394v-112h-336v-114h300v-100h-320v-122h366v-112h-420z" />
    <glyph glyph-name="uni1E1E" unicode="&#x1e1e;" horiz-adv-x="562" 
d="M52 0v700h480v-128h-338v-216h318v-124h-318v-232h-142zM210 758v100h142v-100h-142z" />
    <glyph glyph-name="uni1E1F" unicode="&#x1e1f;" horiz-adv-x="426" 
d="M52 0v594l106 106h248v-124h-212v-146h212v-120h-212v-310h-142zM161 758v100h142v-100h-142z" />
    <glyph glyph-name="uni0191" unicode="&#x191;" horiz-adv-x="562" 
d="M-6 0v124h58v576h480v-128h-338v-208h318v-124h-318v-148l-92 -92h-108z" />
    <glyph glyph-name="uni0192" unicode="&#x192;" horiz-adv-x="426" 
d="M-22 -140v124h58v610l106 106h264v-124h-228v-174h228v-120h-228v-316l-106 -106h-94z" />
    <glyph glyph-name="uni01F4" unicode="&#x1f4;" horiz-adv-x="646" 
d="M50 108v484l108 108h400v-124h-366v-452h276v178h-168v115h296v-417h-438zM210 764v76l320 27v-103h-320z" />
    <glyph glyph-name="uni01F5" unicode="&#x1f5;" horiz-adv-x="610" 
d="M78 -140v120h338v100h-265l-106 106v268l112 106h401v-578l-122 -122h-358zM187 440v-244h229v244h-229zM187 624v76l320 27v-103h-320z" />
    <glyph glyph-name="Gbreve" unicode="&#x11e;" horiz-adv-x="646" 
d="M50 108v484l108 108h400v-124h-366v-452h276v178h-168v115h296v-417h-438zM425 886h123l-82 -132h-252l-82 132h123l20 -57h130z" />
    <glyph glyph-name="gbreve" unicode="&#x11f;" horiz-adv-x="610" 
d="M78 -140v120h338v100h-265l-106 106v268l112 106h401v-578l-122 -122h-358zM187 440v-244h229v244h-229zM402 746h123l-82 -132h-252l-82 132h123l20 -57h130z" />
    <glyph glyph-name="Gcircumflex" unicode="&#x11c;" horiz-adv-x="646" 
d="M50 108v484l108 108h400v-124h-366v-452h276v178h-168v115h296v-417h-438zM150 745v96l190 66l190 -66v-96l-190 66z" />
    <glyph glyph-name="gcircumflex" unicode="&#x11d;" horiz-adv-x="610" 
d="M78 -140v120h338v100h-265l-106 106v268l112 106h401v-578l-122 -122h-358zM187 440v-244h229v244h-229zM127 605v96l190 66l190 -66v-96l-190 66z" />
    <glyph glyph-name="Gcaron" unicode="&#x1e6;" horiz-adv-x="646" 
d="M50 108v484l108 108h400v-124h-366v-452h276v178h-168v115h296v-417h-438zM530 907v-96l-190 -66l-190 66v96l190 -66z" />
    <glyph glyph-name="gcaron" unicode="&#x1e7;" horiz-adv-x="610" 
d="M78 -140v120h338v100h-265l-106 106v268l112 106h401v-578l-122 -122h-358zM187 440v-244h229v244h-229zM507 767v-96l-190 -66l-190 66v96l190 -66z" />
    <glyph glyph-name="Gdotaccent" unicode="&#x120;" horiz-adv-x="646" 
d="M50 108v484l108 108h400v-124h-366v-452h276v178h-168v115h296v-417h-438zM269 758v100h142v-100h-142z" />
    <glyph glyph-name="gdotaccent" unicode="&#x121;" horiz-adv-x="610" 
d="M78 -140v120h338v100h-265l-106 106v268l112 106h401v-578l-122 -122h-358zM187 440v-244h229v244h-229zM246 618v100h142v-100h-142z" />
    <glyph glyph-name="uni0122" unicode="&#x122;" horiz-adv-x="646" 
d="M50 108v484l108 108h400v-124h-366v-452h276v178h-168v115h296v-417h-438zM241 -200l47 144h134l-77 -144h-104z" />
    <glyph glyph-name="uni0123" unicode="&#x123;" horiz-adv-x="610" 
d="M78 -140v120h338v100h-265l-106 106v268l112 106h401v-578l-122 -122h-358zM187 440v-244h229v244h-229zM413 756l-47 -144h-134l77 144h104z" />
    <glyph glyph-name="uni01E4" unicode="&#x1e4;" horiz-adv-x="640" 
d="M50 108v484l108 108h388v-128h-354v-448h268v78h-164v76h164v43h-164v96h294v-139h39v-76h-39v-202h-432z" />
    <glyph glyph-name="uni01E5" unicode="&#x1e5;" horiz-adv-x="610" 
d="M111 24v72h305v45h-295l-76 76v237l112 106h401v-464h47v-72h-47v-42l-122 -122h-358v116h338v48h-305zM187 440v-210h229v210h-229z" />
    <glyph glyph-name="uni0193" unicode="&#x193;" horiz-adv-x="640" 
d="M158 0l-108 108v484l108 108h262v58l84 84h110v-124h-68v-146h-354v-444h268v173h-160v116h290v-417h-432z" />
    <glyph glyph-name="uni0260" unicode="&#x260;" horiz-adv-x="610" 
d="M78 -140v120h338v100h-265l-106 106v268l112 106h259v60l80 80h128v-112h-70v-606l-122 -122h-354zM187 196h229v244h-229v-244z" />
    <glyph glyph-name="uni0194" unicode="&#x194;" horiz-adv-x="632" 
d="M161 0l-106 106v179l159 149l-209 266h175l132 -201h8l132 201h175l-209 -266l159 -149v-179l-106 -106h-310zM193 120h246v135l-123 114l-123 -114v-135z" />
    <glyph glyph-name="uni0263" unicode="&#x263;" horiz-adv-x="602" 
d="M176 -140l-106 106v178l130 150l-198 266h173l122 -201h8l122 201h173l-198 -266l130 -150v-178l-106 -106h-250zM208 -20h186v139l-93 110l-93 -110v-139z" />
    <glyph glyph-name="Hcircumflex" unicode="&#x124;" horiz-adv-x="662" 
d="M52 0v700h142v-276h274v276h142v-700h-142v296h-274v-296h-142zM141 745v96l190 66l190 -66v-96l-190 66z" />
    <glyph glyph-name="hcircumflex" unicode="&#x125;" horiz-adv-x="620" 
d="M52 0v700h142v-140h264l110 -110v-450h-142v440h-232v-440h-142zM58 745v96l190 66l190 -66v-96l-190 66z" />
    <glyph glyph-name="uni021E" unicode="&#x21e;" horiz-adv-x="662" 
d="M52 0v700h142v-276h274v276h142v-700h-142v296h-274v-296h-142zM521 907v-96l-190 -66l-190 66v96l190 -66z" />
    <glyph glyph-name="uni021F" unicode="&#x21f;" horiz-adv-x="620" 
d="M52 0v700h142v-140h264l110 -110v-450h-142v440h-232v-440h-142zM438 907v-96l-190 -66l-190 66v96l190 -66z" />
    <glyph glyph-name="Hbar" unicode="&#x126;" horiz-adv-x="650" 
d="M52 0v526h-47v76h47v98h142v-98h274v98h142v-98h35v-76h-35v-526h-142v296h-274v-296h-142zM194 424h274v102h-274v-102z" />
    <glyph glyph-name="hbar" unicode="&#x127;" horiz-adv-x="620" 
d="M52 0v700h142v-72h239v-72h-239v-64h264l110 -110v-382h-142v372h-232v-372h-142z" />
    <glyph glyph-name="uni1E24" unicode="&#x1e24;" horiz-adv-x="662" 
d="M52 0v700h142v-276h274v276h142v-700h-142v296h-274v-296h-142zM260 -172v100h142v-100h-142z" />
    <glyph glyph-name="uni1E25" unicode="&#x1e25;" horiz-adv-x="620" 
d="M52 0v700h142v-140h264l110 -110v-450h-142v440h-232v-440h-142zM239 -172v100h142v-100h-142z" />
    <glyph glyph-name="Iacute" unicode="&#xcd;" horiz-adv-x="430" 
d="M45 -4v114l99 5v470l-99 5v114l170 -8l170 8v-114l-99 -5v-470l99 -5v-114l-170 8zM85 764v76l320 27v-103h-320z" />
    <glyph glyph-name="iacute" unicode="&#xed;" horiz-adv-x="246" 
d="M52 0v560h142v-560h-142zM43 602v77l196 48v-103z" />
    <glyph glyph-name="Igrave" unicode="&#xcc;" horiz-adv-x="430" 
d="M45 -4v114l99 5v470l-99 5v114l170 -8l170 8v-114l-99 -5v-470l99 -5v-114l-170 8zM345 764h-320v103l320 -27v-76z" />
    <glyph glyph-name="igrave" unicode="&#xec;" horiz-adv-x="246" 
d="M52 0v560h142v-560h-142zM203 602l-196 22v103l196 -48v-77z" />
    <glyph glyph-name="Ibreve" unicode="&#x12c;" horiz-adv-x="430" 
d="M45 -4v114l99 5v470l-99 5v114l170 -8l170 8v-114l-99 -5v-470l99 -5v-114l-170 8zM300 886h123l-82 -132h-252l-82 132h123l20 -57h130z" />
    <glyph glyph-name="ibreve" unicode="&#x12d;" horiz-adv-x="246" 
d="M52 0v560h142v-560h-142zM208 746h123l-82 -132h-252l-82 132h123l20 -57h130z" />
    <glyph glyph-name="Icircumflex" unicode="&#xce;" horiz-adv-x="430" 
d="M45 -4v114l99 5v470l-99 5v114l170 -8l170 8v-114l-99 -5v-470l99 -5v-114l-170 8zM25 745v96l190 66l190 -66v-96l-190 66z" />
    <glyph glyph-name="icircumflex" unicode="&#xee;" horiz-adv-x="246" 
d="M52 0v560h142v-560h-142zM-67 605v96l190 66l190 -66v-96l-190 66z" />
    <glyph glyph-name="uni01CF" unicode="&#x1cf;" horiz-adv-x="430" 
d="M45 -4v114l99 5v470l-99 5v114l170 -8l170 8v-114l-99 -5v-470l99 -5v-114l-170 8zM405 907v-96l-190 -66l-190 66v96l190 -66z" />
    <glyph glyph-name="uni01D0" unicode="&#x1d0;" horiz-adv-x="246" 
d="M52 0v560h142v-560h-142zM313 767v-96l-190 -66l-190 66v96l190 -66z" />
    <glyph glyph-name="Idieresis" unicode="&#xcf;" horiz-adv-x="430" 
d="M45 -4v114l99 5v470l-99 5v114l170 -8l170 8v-114l-99 -5v-470l99 -5v-114l-170 8zM30 758v100h134v-100h-134zM266 758v100h134v-100h-134z" />
    <glyph glyph-name="idieresis" unicode="&#xef;" horiz-adv-x="246" 
d="M52 0v560h142v-560h-142zM-16 618v100h110v-100h-110zM152 618v100h110v-100h-110z" />
    <glyph glyph-name="Itilde" unicode="&#x128;" horiz-adv-x="430" 
d="M45 -4v114l99 5v470l-99 5v114l170 -8l170 8v-114l-99 -5v-470l99 -5v-114l-170 8zM25 740l-20 85l100 66l204 -52l96 51l20 -85l-100 -66l-204 52z" />
    <glyph glyph-name="itilde" unicode="&#x129;" horiz-adv-x="246" 
d="M-13 594v92l74 59l133 -52l71 51v-92l-74 -59l-133 52zM52 0v560h142v-560h-142z" />
    <glyph glyph-name="Idotaccent" unicode="&#x130;" horiz-adv-x="430" 
d="M45 -4v114l99 5v470l-99 5v114l170 -8l170 8v-114l-99 -5v-470l99 -5v-114l-170 8zM144 758v100h142v-100h-142z" />
    <glyph glyph-name="dotlessi" unicode="&#x131;" horiz-adv-x="246" 
d="M52 0v560h142v-560h-142z" />
    <glyph glyph-name="Iogonek" unicode="&#x12e;" horiz-adv-x="430" 
d="M45 -4v114l99 5v470l-99 5v114l170 -8l170 8v-114l-99 -5v-470l99 -5v-114l-170 8zM283 -52l-40 -148h-134l70 148h104z" />
    <glyph glyph-name="iogonek" unicode="&#x12f;" horiz-adv-x="246" 
d="M52 618v100h142v-100h-142zM52 0v560h142v-560h-142zM191 -52l-40 -148h-134l70 148h104z" />
    <glyph glyph-name="iogonek.dotless" horiz-adv-x="246" 
d="M52 0v560h142v-560h-142zM191 -52l-40 -148h-134l70 148h104z" />
    <glyph glyph-name="Imacron" unicode="&#x12a;" horiz-adv-x="430" 
d="M45 -4v114l99 5v470l-99 5v114l170 -8l170 8v-114l-99 -5v-470l99 -5v-114l-170 8zM45 772v98h340v-98h-340z" />
    <glyph glyph-name="imacron" unicode="&#x12b;" horiz-adv-x="246" 
d="M-7 632v98h260v-98h-260zM52 0v560h142v-560h-142z" />
    <glyph glyph-name="uni0208" unicode="&#x208;" horiz-adv-x="430" 
d="M45 -4v114l99 5v470l-99 5v114l170 -8l170 8v-114l-99 -5v-470l99 -5v-114l-170 8zM309 870l40 -128h-93l-71 128h124zM136 870l60 -128h-96l-88 128h124z" />
    <glyph glyph-name="uni0209" unicode="&#x209;" horiz-adv-x="246" 
d="M52 0v560h142v-560h-142zM217 730l40 -128h-93l-71 128h124zM44 730l60 -128h-96l-88 128h124z" />
    <glyph glyph-name="uni020A" unicode="&#x20a;" horiz-adv-x="430" 
d="M45 -4v114l99 5v470l-99 5v114l170 -8l170 8v-114l-99 -5v-470l99 -5v-114l-170 8zM130 746h-123l82 132h252l82 -132h-123l-20 57h-130z" />
    <glyph glyph-name="uni020B" unicode="&#x20b;" horiz-adv-x="246" 
d="M52 0v560h142v-560h-142zM38 606h-123l82 132h252l82 -132h-123l-20 57h-130z" />
    <glyph glyph-name="IJ" unicode="&#x132;" horiz-adv-x="924" 
d="M45 -4v114l77 5v470l-77 5v114l148 -8l148 8v-114l-77 -5v-470l77 -5v-114l-148 8zM396 110v210h138v-192h198v448h-310v124h452v-586l-114 -114h-254z" />
    <glyph glyph-name="ij" unicode="&#x133;" horiz-adv-x="492" 
d="M52 618v100h142v-100h-142zM52 0v560h142v-560h-142zM298 618v100h142v-100h-142zM298 -140v700h142v-700h-142z" />
    <glyph glyph-name="uni0197" unicode="&#x197;" horiz-adv-x="430" 
d="M45 -4v114l99 5v190h-89v90h89v190l-99 5v114l170 -8l170 8v-114l-99 -5v-190h89v-90h-89v-190l99 -5v-114l-170 8z" />
    <glyph glyph-name="uni0268" unicode="&#x268;" horiz-adv-x="246" 
d="M52 618v100h142v-100h-142zM52 0v260h-42v90h42v210h142v-210h42v-90h-42v-260h-142z" />
    <glyph glyph-name="Jacute" 
d="M30 114v206h142v-192h236v448h-350v124h492v-586l-114 -114h-292zM164 764v76l320 27v-103h-320z" />
    <glyph glyph-name="jacute" horiz-adv-x="246" 
d="M52 -140v700h142v-700h-142zM43 602v77l196 48v-103z" />
    <glyph glyph-name="Jcircumflex" unicode="&#x134;" 
d="M30 114v206h142v-192h236v448h-350v124h492v-586l-114 -114h-292zM104 745v96l190 66l190 -66v-96l-190 66z" />
    <glyph glyph-name="jcircumflex" unicode="&#x135;" horiz-adv-x="246" 
d="M52 -140v700h142v-700h-142zM-67 605v96l190 66l190 -66v-96l-190 66z" />
    <glyph glyph-name="uni0237" unicode="&#x237;" horiz-adv-x="246" 
d="M52 -140v700h142v-700h-142z" />
    <glyph glyph-name="uni01E8" unicode="&#x1e8;" horiz-adv-x="646" 
d="M52 0v700h142v-283h121l153 283h159l-186 -330l201 -370h-159l-157 293h-132v-293h-142zM509 907v-96l-190 -66l-190 66v96l190 -66z" />
    <glyph glyph-name="uni01E9" unicode="&#x1e9;" horiz-adv-x="608" 
d="M52 0v700h142v-349h123l115 209h161l-158 -258l167 -302h-160l-118 231h-130v-231h-142zM462 907v-96l-190 -66l-190 66v96l190 -66z" />
    <glyph glyph-name="uni0136" unicode="&#x136;" horiz-adv-x="646" 
d="M52 0v700h142v-283h121l153 283h159l-186 -330l201 -370h-159l-157 293h-132v-293h-142zM220 -200l47 144h134l-77 -144h-104z" />
    <glyph glyph-name="uni0137" unicode="&#x137;" horiz-adv-x="608" 
d="M52 0v700h142v-349h123l115 209h161l-158 -258l167 -302h-160l-118 231h-130v-231h-142zM203 -200l47 144h134l-77 -144h-104z" />
    <glyph glyph-name="uni0198" unicode="&#x198;" horiz-adv-x="654" 
d="M52 0v606l94 94h172v-112h-124v-171h153l128 283h160l-159 -330l174 -370h-162l-131 293h-163v-293h-142z" />
    <glyph glyph-name="uni0199" unicode="&#x199;" horiz-adv-x="620" 
d="M52 0v594l106 106h164v-112h-128v-237h132l120 209h161l-160 -258l167 -302h-160l-118 231h-142v-231h-142z" />
    <glyph glyph-name="Lacute" unicode="&#x139;" horiz-adv-x="586" 
d="M52 0v700h142v-580h236v160h128v-280h-506zM52 764v76l320 27v-103h-320z" />
    <glyph glyph-name="lacute" unicode="&#x13a;" horiz-adv-x="246" 
d="M52 0v700h142v-700h-142zM43 742v77l196 48v-103z" />
    <glyph glyph-name="Lcaron" unicode="&#x13d;" horiz-adv-x="592" 
d="M52 0v700h142v-580h236v160h128v-280h-506zM292 472v228h60v-228h-60z" />
    <glyph glyph-name="lcaron" unicode="&#x13e;" horiz-adv-x="306" 
d="M52 0v700h142v-700h-142zM246 472v228h60v-228h-60z" />
    <glyph glyph-name="uni013B" unicode="&#x13b;" horiz-adv-x="586" 
d="M52 0v700h142v-580h236v160h128v-280h-506zM208 -200l47 144h134l-77 -144h-104z" />
    <glyph glyph-name="uni013C" unicode="&#x13c;" horiz-adv-x="246" 
d="M52 0v700h142v-700h-142zM24 -200l47 144h134l-77 -144h-104z" />
    <glyph glyph-name="Lslash" unicode="&#x141;" horiz-adv-x="586" 
d="M52 0v700h142v-270l265 108v-120l-265 -108v-190h236v160h128v-280h-506z" />
    <glyph glyph-name="lslash" unicode="&#x142;" horiz-adv-x="322" 
d="M90 0v255l-73 -41v133l73 40v313h142v-234l73 41v-133l-73 -40v-334h-142z" />
    <glyph glyph-name="uni1E36" unicode="&#x1e36;" horiz-adv-x="586" 
d="M52 0v700h142v-580h236v160h128v-280h-506zM236 -172v100h142v-100h-142z" />
    <glyph glyph-name="uni1E37" unicode="&#x1e37;" horiz-adv-x="246" 
d="M52 0v700h142v-700h-142zM52 -172v100h142v-100h-142z" />
    <glyph glyph-name="uni1E3A" unicode="&#x1e3a;" horiz-adv-x="586" 
d="M52 0v700h142v-580h236v160h128v-280h-506zM137 -170v98h340v-98h-340z" />
    <glyph glyph-name="uni1E3B" unicode="&#x1e3b;" horiz-adv-x="246" 
d="M52 0v700h142v-700h-142zM-47 -170v98h340v-98h-340z" />
    <glyph glyph-name="Ldot" unicode="&#x13f;" horiz-adv-x="586" 
d="M52 0v700h142v-580h236v160h128v-280h-506zM351 380v134h130v-134h-130z" />
    <glyph glyph-name="ldot" unicode="&#x140;" horiz-adv-x="336" 
d="M52 0v700h142v-700h-142zM243 290v134h96v-134h-96z" />
    <glyph glyph-name="uni1E3E" unicode="&#x1e3e;" horiz-adv-x="780" 
d="M52 0v700h172l166 -324l166 324h172v-700h-139v521l-165 -317h-68l-165 317v-521h-139zM260 764v76l320 27v-103h-320z" />
    <glyph glyph-name="uni1E3F" unicode="&#x1e3f;" horiz-adv-x="920" 
d="M52 560h700l116 -116v-444h-140v442h-199v-442h-138v442h-199v-442h-140v560zM330 624v76l320 27v-103h-320z" />
    <glyph glyph-name="uni1E40" unicode="&#x1e40;" horiz-adv-x="780" 
d="M52 0v700h172l166 -324l166 324h172v-700h-139v521l-165 -317h-68l-165 317v-521h-139zM319 758v100h142v-100h-142z" />
    <glyph glyph-name="uni1E41" unicode="&#x1e41;" horiz-adv-x="920" 
d="M52 560h700l116 -116v-444h-140v442h-199v-442h-138v442h-199v-442h-140v560zM389 618v100h142v-100h-142z" />
    <glyph glyph-name="Nacute" unicode="&#x143;" horiz-adv-x="680" 
d="M52 0v700h149l293 -495v495h134v-700h-149l-293 495v-495h-134zM210 764v76l320 27v-103h-320z" />
    <glyph glyph-name="nacute" unicode="&#x144;" horiz-adv-x="620" 
d="M52 0v560h406l110 -110v-450h-142v436h-232v-436h-142zM180 624v76l320 27v-103h-320z" />
    <glyph glyph-name="uni01F8" unicode="&#x1f8;" horiz-adv-x="680" 
d="M52 0v700h149l293 -495v495h134v-700h-149l-293 495v-495h-134zM470 764h-320v103l320 -27v-76z" />
    <glyph glyph-name="uni01F9" unicode="&#x1f9;" horiz-adv-x="620" 
d="M52 0v560h406l110 -110v-450h-142v436h-232v-436h-142zM440 624h-320v103l320 -27v-76z" />
    <glyph glyph-name="Ncaron" unicode="&#x147;" horiz-adv-x="680" 
d="M52 0v700h149l293 -495v495h134v-700h-149l-293 495v-495h-134zM530 907v-96l-190 -66l-190 66v96l190 -66z" />
    <glyph glyph-name="ncaron" unicode="&#x148;" horiz-adv-x="620" 
d="M52 0v560h406l110 -110v-450h-142v436h-232v-436h-142zM500 767v-96l-190 -66l-190 66v96l190 -66z" />
    <glyph glyph-name="Ntilde" unicode="&#xd1;" horiz-adv-x="680" 
d="M52 0v700h149l293 -495v495h134v-700h-149l-293 495v-495h-134zM150 740l-20 85l100 66l204 -52l96 51l20 -85l-100 -66l-204 52z" />
    <glyph glyph-name="ntilde" unicode="&#xf1;" horiz-adv-x="620" 
d="M52 0v560h406l110 -110v-450h-142v436h-232v-436h-142zM120 600l-20 85l100 66l204 -52l96 51l20 -85l-100 -66l-204 52z" />
    <glyph glyph-name="uni1E44" unicode="&#x1e44;" horiz-adv-x="680" 
d="M52 0v700h149l293 -495v495h134v-700h-149l-293 495v-495h-134zM269 758v100h142v-100h-142z" />
    <glyph glyph-name="uni1E45" unicode="&#x1e45;" horiz-adv-x="620" 
d="M52 0v560h406l110 -110v-450h-142v436h-232v-436h-142zM239 618v100h142v-100h-142z" />
    <glyph glyph-name="uni0145" unicode="&#x145;" horiz-adv-x="680" 
d="M52 0v700h149l293 -495v495h134v-700h-149l-293 495v-495h-134zM241 -200l47 144h134l-77 -144h-104z" />
    <glyph glyph-name="uni0146" unicode="&#x146;" horiz-adv-x="620" 
d="M52 0v560h406l110 -110v-450h-142v436h-232v-436h-142zM211 -200l47 144h134l-77 -144h-104z" />
    <glyph glyph-name="uni1E48" unicode="&#x1e48;" horiz-adv-x="680" 
d="M52 0v700h149l293 -495v495h134v-700h-149l-293 495v-495h-134zM170 -170v98h340v-98h-340z" />
    <glyph glyph-name="uni1E49" unicode="&#x1e49;" horiz-adv-x="620" 
d="M52 0v560h406l110 -110v-450h-142v436h-232v-436h-142zM140 -170v98h340v-98h-340z" />
    <glyph glyph-name="uni019D" unicode="&#x19d;" horiz-adv-x="680" 
d="M-6 0v124h58v576h149l293 -495v495h134v-700h-149l-293 495v-411l-84 -84h-108z" />
    <glyph glyph-name="uni0272" unicode="&#x272;" horiz-adv-x="620" 
d="M-6 -140v124h58v576h406l110 -110v-450h-142v436h-232v-470l-106 -106h-94z" />
    <glyph glyph-name="Eng" unicode="&#x14a;" horiz-adv-x="680" 
d="M52 0v700h148l294 -479v479h134v-748l-100 -100h-122v108h91v28l-311 507v-495h-134z" />
    <glyph glyph-name="eng" unicode="&#x14b;" horiz-adv-x="620" 
d="M52 0v560h406l110 -110v-510l-100 -100h-122v108h80v488h-232v-436h-142z" />
    <glyph glyph-name="Oacute" unicode="&#xd3;" horiz-adv-x="680" 
d="M50 108v484l108 108h364l108 -108v-484l-108 -108h-364zM196 576v-452h288v452h-288zM210 764v76l320 27v-103h-320z" />
    <glyph glyph-name="oacute" unicode="&#xf3;" 
d="M45 106v348l106 106h298l106 -106v-348l-106 -106h-298zM187 116h226v328h-226v-328zM170 624v76l320 27v-103h-320z" />
    <glyph glyph-name="Ograve" unicode="&#xd2;" horiz-adv-x="680" 
d="M50 108v484l108 108h364l108 -108v-484l-108 -108h-364zM196 576v-452h288v452h-288zM470 764h-320v103l320 -27v-76z" />
    <glyph glyph-name="ograve" unicode="&#xf2;" 
d="M45 106v348l106 106h298l106 -106v-348l-106 -106h-298zM187 116h226v328h-226v-328zM430 624h-320v103l320 -27v-76z" />
    <glyph glyph-name="Obreve" unicode="&#x14e;" horiz-adv-x="680" 
d="M50 108v484l108 108h364l108 -108v-484l-108 -108h-364zM196 576v-452h288v452h-288zM425 886h123l-82 -132h-252l-82 132h123l20 -57h130z" />
    <glyph glyph-name="obreve" unicode="&#x14f;" 
d="M45 106v348l106 106h298l106 -106v-348l-106 -106h-298zM187 116h226v328h-226v-328zM385 746h123l-82 -132h-252l-82 132h123l20 -57h130z" />
    <glyph glyph-name="Ocircumflex" unicode="&#xd4;" horiz-adv-x="680" 
d="M50 108v484l108 108h364l108 -108v-484l-108 -108h-364zM196 576v-452h288v452h-288zM150 745v96l190 66l190 -66v-96l-190 66z" />
    <glyph glyph-name="ocircumflex" unicode="&#xf4;" 
d="M45 106v348l106 106h298l106 -106v-348l-106 -106h-298zM187 116h226v328h-226v-328zM110 605v96l190 66l190 -66v-96l-190 66z" />
    <glyph glyph-name="uni01D1" unicode="&#x1d1;" horiz-adv-x="680" 
d="M50 108v484l108 108h364l108 -108v-484l-108 -108h-364zM196 576v-452h288v452h-288zM530 907v-96l-190 -66l-190 66v96l190 -66z" />
    <glyph glyph-name="uni01D2" unicode="&#x1d2;" 
d="M45 106v348l106 106h298l106 -106v-348l-106 -106h-298zM187 116h226v328h-226v-328zM490 767v-96l-190 -66l-190 66v96l190 -66z" />
    <glyph glyph-name="Odieresis" unicode="&#xd6;" horiz-adv-x="680" 
d="M50 108v484l108 108h364l108 -108v-484l-108 -108h-364zM196 576v-452h288v452h-288zM155 758v100h134v-100h-134zM391 758v100h134v-100h-134z" />
    <glyph glyph-name="odieresis" unicode="&#xf6;" 
d="M45 106v348l106 106h298l106 -106v-348l-106 -106h-298zM187 116h226v328h-226v-328zM115 618v100h134v-100h-134zM351 618v100h134v-100h-134z" />
    <glyph glyph-name="uni022A" unicode="&#x22a;" horiz-adv-x="680" 
d="M50 108v484l108 108h364l108 -108v-484l-108 -108h-364zM196 576v-452h288v452h-288zM155 758v100h134v-100h-134zM391 758v100h134v-100h-134zM170 900v66h340v-66h-340z" />
    <glyph glyph-name="uni022B" unicode="&#x22b;" 
d="M45 106v348l106 106h298l106 -106v-348l-106 -106h-298zM187 116h226v328h-226v-328zM115 618v100h134v-100h-134zM351 618v100h134v-100h-134zM130 760v66h340v-66h-340z" />
    <glyph glyph-name="Ohungarumlaut" unicode="&#x150;" horiz-adv-x="680" 
d="M50 108v484l108 108h364l108 -108v-484l-108 -108h-364zM196 576v-452h288v452h-288zM206 742l40 128h124l-71 -128h-93zM359 742l60 128h124l-88 -128h-96z" />
    <glyph glyph-name="ohungarumlaut" unicode="&#x151;" 
d="M45 106v348l106 106h298l106 -106v-348l-106 -106h-298zM187 116h226v328h-226v-328zM166 602l40 128h124l-71 -128h-93zM319 602l60 128h124l-88 -128h-96z" />
    <glyph glyph-name="Otilde" unicode="&#xd5;" horiz-adv-x="680" 
d="M50 108v484l108 108h364l108 -108v-484l-108 -108h-364zM196 576v-452h288v452h-288zM150 740l-20 85l100 66l204 -52l96 51l20 -85l-100 -66l-204 52z" />
    <glyph glyph-name="otilde" unicode="&#xf5;" 
d="M45 106v348l106 106h298l106 -106v-348l-106 -106h-298zM187 116h226v328h-226v-328zM110 600l-20 85l100 66l204 -52l96 51l20 -85l-100 -66l-204 52z" />
    <glyph glyph-name="uni022C" unicode="&#x22c;" horiz-adv-x="680" 
d="M50 108v484l108 108h364l108 -108v-484l-108 -108h-364zM196 576v-452h288v452h-288zM150 740l-20 85l100 66l204 -52l96 51l20 -85l-100 -66l-204 52zM170 912v66h340v-66h-340z" />
    <glyph glyph-name="uni022D" unicode="&#x22d;" 
d="M45 106v348l106 106h298l106 -106v-348l-106 -106h-298zM187 116h226v328h-226v-328zM110 600l-20 85l100 66l204 -52l96 51l20 -85l-100 -66l-204 52zM130 772v66h340v-66h-340z" />
    <glyph glyph-name="uni022E" unicode="&#x22e;" horiz-adv-x="680" 
d="M50 108v484l108 108h364l108 -108v-484l-108 -108h-364zM196 576v-452h288v452h-288zM269 758v100h142v-100h-142z" />
    <glyph glyph-name="uni022F" unicode="&#x22f;" 
d="M45 106v348l106 106h298l106 -106v-348l-106 -106h-298zM187 116h226v328h-226v-328zM229 618v100h142v-100h-142z" />
    <glyph glyph-name="uni0230" unicode="&#x230;" horiz-adv-x="680" 
d="M50 108v484l108 108h364l108 -108v-484l-108 -108h-364zM196 576v-452h288v452h-288zM269 758v100h142v-100h-142zM170 900v66h340v-66h-340z" />
    <glyph glyph-name="uni0231" unicode="&#x231;" 
d="M45 106v348l106 106h298l106 -106v-348l-106 -106h-298zM187 116h226v328h-226v-328zM229 618v100h142v-100h-142zM130 760v66h340v-66h-340z" />
    <glyph glyph-name="Oslash" unicode="&#xd8;" horiz-adv-x="680" 
d="M38 0l57 75l-45 45v472l108 108h352l34 -34l26 34h72l-57 -75l45 -45v-472l-108 -108h-352l-34 34l-26 -34h-72zM191 577v-375l285 375h-285zM489 123v375l-285 -375h285z" />
    <glyph glyph-name="oslash" unicode="&#xf8;" 
d="M30 0l58 69l-43 43v342l106 106h292l28 -28l24 28h75l-58 -69l43 -43v-342l-106 -106h-292l-28 28l-24 -28h-75zM183 449v-265l220 265h-220zM417 111v265l-220 -265h220z" />
    <glyph glyph-name="Oslashacute" unicode="&#x1fe;" horiz-adv-x="680" 
d="M38 0l57 75l-45 45v472l108 108h352l34 -34l26 34h72l-57 -75l45 -45v-472l-108 -108h-352l-34 34l-26 -34h-72zM191 577v-375l285 375h-285zM489 123v375l-285 -375h285zM210 764v76l320 27v-103h-320z" />
    <glyph glyph-name="oslashacute" unicode="&#x1ff;" 
d="M30 0l58 69l-43 43v342l106 106h292l28 -28l24 28h75l-58 -69l43 -43v-342l-106 -106h-292l-28 28l-24 -28h-75zM183 449v-265l220 265h-220zM417 111v265l-220 -265h220zM170 624v76l320 27v-103h-320z" />
    <glyph glyph-name="uni01EA" unicode="&#x1ea;" horiz-adv-x="680" 
d="M50 108v484l108 108h364l108 -108v-484l-108 -108h-364zM196 576v-452h288v452h-288zM408 -52l-40 -148h-134l70 148h104z" />
    <glyph glyph-name="uni01EB" unicode="&#x1eb;" 
d="M45 106v348l106 106h298l106 -106v-348l-106 -106h-298zM187 116h226v328h-226v-328zM368 -52l-40 -148h-134l70 148h104z" />
    <glyph glyph-name="Omacron" unicode="&#x14c;" horiz-adv-x="680" 
d="M50 108v484l108 108h364l108 -108v-484l-108 -108h-364zM196 576v-452h288v452h-288zM170 772v98h340v-98h-340z" />
    <glyph glyph-name="omacron" unicode="&#x14d;" 
d="M45 106v348l106 106h298l106 -106v-348l-106 -106h-298zM187 116h226v328h-226v-328zM130 632v98h340v-98h-340z" />
    <glyph glyph-name="uni020C" unicode="&#x20c;" horiz-adv-x="680" 
d="M50 108v484l108 108h364l108 -108v-484l-108 -108h-364zM196 576v-452h288v452h-288zM434 870l40 -128h-93l-71 128h124zM261 870l60 -128h-96l-88 128h124z" />
    <glyph glyph-name="uni020D" unicode="&#x20d;" 
d="M45 106v348l106 106h298l106 -106v-348l-106 -106h-298zM187 116h226v328h-226v-328zM394 730l40 -128h-93l-71 128h124zM221 730l60 -128h-96l-88 128h124z" />
    <glyph glyph-name="uni020E" unicode="&#x20e;" horiz-adv-x="680" 
d="M50 108v484l108 108h364l108 -108v-484l-108 -108h-364zM196 576v-452h288v452h-288zM255 746h-123l82 132h252l82 -132h-123l-20 57h-130z" />
    <glyph glyph-name="uni020F" unicode="&#x20f;" 
d="M45 106v348l106 106h298l106 -106v-348l-106 -106h-298zM187 116h226v328h-226v-328zM215 606h-123l82 132h252l82 -132h-123l-20 57h-130z" />
    <glyph glyph-name="OE" unicode="&#x152;" horiz-adv-x="918" 
d="M50 108v484l108 108h720v-120h-308v-164h258v-116h-258v-180h318v-120h-730zM192 572v-444h236v444h-236z" />
    <glyph glyph-name="oe" unicode="&#x153;" horiz-adv-x="922" 
d="M45 110v340l110 110h260l51 -51l51 51h360v-314h-340v-126h320v-120h-340l-51 51l-51 -51h-260zM537 324l214 10v114h-214v-124zM187 116h208v328h-208v-328z" />
    <glyph glyph-name="uni0186" unicode="&#x186;" horiz-adv-x="554" 
d="M504 592v-484l-108 -108h-358v129h320v442h-330v129h368z" />
    <glyph glyph-name="uni0254" unicode="&#x254;" horiz-adv-x="535" 
d="M509 454v-348l-106 -106h-358v128h322v304h-322v128h358z" />
    <glyph glyph-name="uni1E56" unicode="&#x1e56;" horiz-adv-x="624" 
d="M592 592v-334l-108 -108h-290v-150h-142v700h432zM194 266h256v318h-256v-318zM221 758v100h142v-100h-142z" />
    <glyph glyph-name="uni1E57" unicode="&#x1e57;" horiz-adv-x="620" 
d="M52 -140v700h409l114 -114v-332l-114 -114h-267v-140h-142zM433 440h-239v-320h239v320zM221 618v100h142v-100h-142z" />
    <glyph glyph-name="kgreenlandic" unicode="&#x138;" horiz-adv-x="620" 
d="M52 0v560h142v-209h132l120 209h161l-160 -258l167 -302h-160l-118 231h-142v-231h-142z" />
    <glyph glyph-name="Racute" unicode="&#x154;" horiz-adv-x="654" 
d="M606 592v-269l-76 -76l121 -247h-157l-97 212h-203v-212h-142v700h446zM194 328h270v256h-270v-256zM182 764v76l320 27v-103h-320z" />
    <glyph glyph-name="racute" unicode="&#x155;" horiz-adv-x="470" 
d="M52 0v450l110 110h288v-128h-256v-432h-142zM126 624v76l320 27v-103h-320z" />
    <glyph glyph-name="Rcaron" unicode="&#x158;" horiz-adv-x="654" 
d="M606 592v-269l-76 -76l121 -247h-157l-97 212h-203v-212h-142v700h446zM194 328h270v256h-270v-256zM502 907v-96l-190 -66l-190 66v96l190 -66z" />
    <glyph glyph-name="rcaron" unicode="&#x159;" horiz-adv-x="470" 
d="M52 0v450l110 110h288v-128h-256v-432h-142zM446 767v-96l-190 -66l-190 66v96l190 -66z" />
    <glyph glyph-name="uni0156" unicode="&#x156;" horiz-adv-x="654" 
d="M606 592v-269l-76 -76l121 -247h-157l-97 212h-203v-212h-142v700h446zM194 328h270v256h-270v-256zM230 -200l47 144h134l-77 -144h-104z" />
    <glyph glyph-name="uni0157" unicode="&#x157;" horiz-adv-x="470" 
d="M52 0v450l110 110h288v-128h-256v-432h-142zM24 -200l47 144h134l-77 -144h-104z" />
    <glyph glyph-name="uni0210" unicode="&#x210;" horiz-adv-x="654" 
d="M606 592v-269l-76 -76l121 -247h-157l-97 212h-203v-212h-142v700h446zM194 328h270v256h-270v-256zM406 870l40 -128h-93l-71 128h124zM233 870l60 -128h-96l-88 128h124z" />
    <glyph glyph-name="uni0211" unicode="&#x211;" horiz-adv-x="470" 
d="M52 0v450l110 110h288v-128h-256v-432h-142zM350 730l40 -128h-93l-71 128h124zM177 730l60 -128h-96l-88 128h124z" />
    <glyph glyph-name="uni0212" unicode="&#x212;" horiz-adv-x="654" 
d="M606 592v-269l-76 -76l121 -247h-157l-97 212h-203v-212h-142v700h446zM194 328h270v256h-270v-256zM227 746h-123l82 132h252l82 -132h-123l-20 57h-130z" />
    <glyph glyph-name="uni0213" unicode="&#x213;" horiz-adv-x="470" 
d="M52 0v450l110 110h288v-128h-256v-432h-142zM171 606h-123l82 132h252l82 -132h-123l-20 57h-130z" />
    <glyph glyph-name="uni1E5A" unicode="&#x1e5a;" horiz-adv-x="654" 
d="M606 592v-269l-76 -76l121 -247h-157l-97 212h-203v-212h-142v700h446zM194 328h270v256h-270v-256zM258 -172v100h142v-100h-142z" />
    <glyph glyph-name="uni1E5B" unicode="&#x1e5b;" horiz-adv-x="470" 
d="M52 0v450l110 110h288v-128h-256v-432h-142zM52 -172v100h142v-100h-142z" />
    <glyph glyph-name="Sacute" unicode="&#x15a;" horiz-adv-x="640" 
d="M60 0v124h388v162l-398 33v277l104 104h426v-124h-388v-152l398 -33v-287l-104 -104h-426zM207 764v76l320 27v-103h-320z" />
    <glyph glyph-name="sacute" unicode="&#x15b;" horiz-adv-x="592" 
d="M45 0v116h360v123h-360v215l106 106h396v-116h-360v-117h360v-224l-103 -103h-399zM186 624v76l320 27v-103h-320z" />
    <glyph glyph-name="Scircumflex" unicode="&#x15c;" horiz-adv-x="640" 
d="M60 0v124h388v162l-398 33v277l104 104h426v-124h-388v-152l398 -33v-287l-104 -104h-426zM147 745v96l190 66l190 -66v-96l-190 66z" />
    <glyph glyph-name="scircumflex" unicode="&#x15d;" horiz-adv-x="592" 
d="M45 0v116h360v123h-360v215l106 106h396v-116h-360v-117h360v-224l-103 -103h-399zM126 605v96l190 66l190 -66v-96l-190 66z" />
    <glyph glyph-name="Scaron" unicode="&#x160;" horiz-adv-x="640" 
d="M60 0v124h388v162l-398 33v277l104 104h426v-124h-388v-152l398 -33v-287l-104 -104h-426zM527 907v-96l-190 -66l-190 66v96l190 -66z" />
    <glyph glyph-name="scaron" unicode="&#x161;" horiz-adv-x="592" 
d="M45 0v116h360v123h-360v215l106 106h396v-116h-360v-117h360v-224l-103 -103h-399zM506 767v-96l-190 -66l-190 66v96l190 -66z" />
    <glyph glyph-name="uni1E60" unicode="&#x1e60;" horiz-adv-x="640" 
d="M60 0v124h388v162l-398 33v277l104 104h426v-124h-388v-152l398 -33v-287l-104 -104h-426zM266 758v100h142v-100h-142z" />
    <glyph glyph-name="uni1E61" unicode="&#x1e61;" horiz-adv-x="592" 
d="M45 0v116h360v123h-360v215l106 106h396v-116h-360v-117h360v-224l-103 -103h-399zM245 618v100h142v-100h-142z" />
    <glyph glyph-name="Scedilla" unicode="&#x15e;" horiz-adv-x="640" 
d="M60 0v124h388v162l-398 33v277l104 104h426v-124h-388v-152l398 -33v-287l-104 -104h-426zM204 -200l47 144h134l-77 -144h-104z" />
    <glyph glyph-name="scedilla" unicode="&#x15f;" horiz-adv-x="592" 
d="M45 0v116h360v123h-360v215l106 106h396v-116h-360v-117h360v-224l-103 -103h-399zM177 -200l47 144h134l-77 -144h-104z" />
    <glyph glyph-name="uni1E62" unicode="&#x1e62;" horiz-adv-x="640" 
d="M60 0v124h388v162l-398 33v277l104 104h426v-124h-388v-152l398 -33v-287l-104 -104h-426zM232 -172v100h142v-100h-142z" />
    <glyph glyph-name="uni1E63" unicode="&#x1e63;" horiz-adv-x="592" 
d="M45 0v116h360v123h-360v215l106 106h396v-116h-360v-117h360v-224l-103 -103h-399zM205 -172v100h142v-100h-142z" />
    <glyph glyph-name="uni0218" unicode="&#x218;" horiz-adv-x="640" 
d="M60 0v124h388v162l-398 33v277l104 104h426v-124h-388v-152l398 -33v-287l-104 -104h-426zM204 -200l47 144h134l-77 -144h-104z" />
    <glyph glyph-name="uni0219" unicode="&#x219;" horiz-adv-x="592" 
d="M45 0v116h360v123h-360v215l106 106h396v-116h-360v-117h360v-224l-103 -103h-399zM177 -200l47 144h134l-77 -144h-104z" />
    <glyph glyph-name="longs" unicode="&#x17f;" horiz-adv-x="442" 
d="M52 0v594l106 106h264v-124h-228v-576h-142z" />
    <glyph glyph-name="Germandbls" unicode="&#x1e9e;" horiz-adv-x="700" 
d="M643 700v-261l-56 -53l81 -63v-209l-114 -114h-258v124h230v191h-178v104h155v161h-309v-580h-142v590l110 110h481z" />
    <glyph glyph-name="germandbls" unicode="&#xdf;" horiz-adv-x="630" 
d="M575 586v-151l-62 -57l85 -68v-204l-106 -106h-194v116h158v199h-152v104h131v165h-241v-584h-142v586l114 114h295z" />
    <glyph glyph-name="Tcaron" unicode="&#x164;" horiz-adv-x="568" 
d="M213 0v576h-193v124h528v-124h-193v-576h-142zM474 907v-96l-190 -66l-190 66v96l190 -66z" />
    <glyph glyph-name="tcaron" unicode="&#x165;" horiz-adv-x="430" 
d="M349 580v190h60v-190h-60zM52 650l142 50v-160h216v-120h-216v-300h216v-120h-248l-110 110v540z" />
    <glyph glyph-name="uni1E6A" unicode="&#x1e6a;" horiz-adv-x="568" 
d="M213 0v576h-193v124h528v-124h-193v-576h-142zM213 758v100h142v-100h-142z" />
    <glyph glyph-name="uni1E6B" unicode="&#x1e6b;" horiz-adv-x="430" 
d="M52 650l142 50v-160h216v-120h-216v-300h216v-120h-248l-110 110v540zM185 758v100h142v-100h-142z" />
    <glyph glyph-name="uni0162" unicode="&#x162;" horiz-adv-x="568" 
d="M213 0v576h-193v124h528v-124h-193v-576h-142zM185 -200l47 144h134l-77 -144h-104z" />
    <glyph glyph-name="uni0163" unicode="&#x163;" horiz-adv-x="430" 
d="M52 650l142 50v-160h216v-120h-216v-300h216v-120h-248l-110 110v540zM153 -200l47 144h134l-77 -144h-104z" />
    <glyph glyph-name="uni1E6C" unicode="&#x1e6c;" horiz-adv-x="568" 
d="M213 0v576h-193v124h528v-124h-193v-576h-142zM213 -172v100h142v-100h-142z" />
    <glyph glyph-name="uni1E6D" unicode="&#x1e6d;" horiz-adv-x="430" 
d="M52 650l142 50v-160h216v-120h-216v-300h216v-120h-248l-110 110v540zM181 -172v100h142v-100h-142z" />
    <glyph glyph-name="uni021A" unicode="&#x21a;" horiz-adv-x="568" 
d="M213 0v576h-193v124h528v-124h-193v-576h-142zM185 -200l47 144h134l-77 -144h-104z" />
    <glyph glyph-name="uni021B" unicode="&#x21b;" horiz-adv-x="430" 
d="M52 650l142 50v-160h216v-120h-216v-300h216v-120h-248l-110 110v540zM153 -200l47 144h134l-77 -144h-104z" />
    <glyph glyph-name="Tbar" unicode="&#x166;" horiz-adv-x="560" 
d="M209 0v270h-137v106h137v200h-193v124h528v-124h-193v-200h137v-106h-137v-270h-142z" />
    <glyph glyph-name="tbar" unicode="&#x167;" horiz-adv-x="430" 
d="M11 266v76h41v308l142 50v-160h216v-116h-216v-82h216v-76h-216v-146h216v-120h-248l-110 110v156h-41z" />
    <glyph glyph-name="Uacute" unicode="&#xda;" horiz-adv-x="650" 
d="M52 108v592h142v-572h262v572h142v-592l-108 -108h-330zM195 764v76l320 27v-103h-320z" />
    <glyph glyph-name="uacute" unicode="&#xfa;" horiz-adv-x="620" 
d="M568 560v-560h-406l-110 110v450h142v-436h232v436h142zM180 624v76l320 27v-103h-320z" />
    <glyph glyph-name="Ugrave" unicode="&#xd9;" horiz-adv-x="650" 
d="M52 108v592h142v-572h262v572h142v-592l-108 -108h-330zM455 764h-320v103l320 -27v-76z" />
    <glyph glyph-name="ugrave" unicode="&#xf9;" horiz-adv-x="620" 
d="M568 560v-560h-406l-110 110v450h142v-436h232v436h142zM440 624h-320v103l320 -27v-76z" />
    <glyph glyph-name="Ubreve" unicode="&#x16c;" horiz-adv-x="650" 
d="M52 108v592h142v-572h262v572h142v-592l-108 -108h-330zM410 886h123l-82 -132h-252l-82 132h123l20 -57h130z" />
    <glyph glyph-name="ubreve" unicode="&#x16d;" horiz-adv-x="620" 
d="M568 560v-560h-406l-110 110v450h142v-436h232v436h142zM395 746h123l-82 -132h-252l-82 132h123l20 -57h130z" />
    <glyph glyph-name="Ucircumflex" unicode="&#xdb;" horiz-adv-x="650" 
d="M52 108v592h142v-572h262v572h142v-592l-108 -108h-330zM135 745v96l190 66l190 -66v-96l-190 66z" />
    <glyph glyph-name="ucircumflex" unicode="&#xfb;" horiz-adv-x="620" 
d="M568 560v-560h-406l-110 110v450h142v-436h232v436h142zM120 605v96l190 66l190 -66v-96l-190 66z" />
    <glyph glyph-name="uni01D3" unicode="&#x1d3;" horiz-adv-x="650" 
d="M52 108v592h142v-572h262v572h142v-592l-108 -108h-330zM515 907v-96l-190 -66l-190 66v96l190 -66z" />
    <glyph glyph-name="uni01D4" unicode="&#x1d4;" horiz-adv-x="620" 
d="M568 560v-560h-406l-110 110v450h142v-436h232v436h142zM500 767v-96l-190 -66l-190 66v96l190 -66z" />
    <glyph glyph-name="Uring" unicode="&#x16e;" horiz-adv-x="650" 
d="M52 108v592h142v-572h262v572h142v-592l-108 -108h-330zM189 781v98l67 55h138l67 -55v-98l-67 -55h-138zM267 796h116v68h-116v-68z" />
    <glyph glyph-name="uring" unicode="&#x16f;" horiz-adv-x="620" 
d="M568 560v-560h-406l-110 110v450h142v-436h232v436h142zM174 641v98l67 55h138l67 -55v-98l-67 -55h-138zM252 656h116v68h-116v-68z" />
    <glyph glyph-name="Udieresis" unicode="&#xdc;" horiz-adv-x="650" 
d="M52 108v592h142v-572h262v572h142v-592l-108 -108h-330zM140 758v100h134v-100h-134zM376 758v100h134v-100h-134z" />
    <glyph glyph-name="udieresis" unicode="&#xfc;" horiz-adv-x="620" 
d="M568 560v-560h-406l-110 110v450h142v-436h232v436h142zM125 618v100h134v-100h-134zM361 618v100h134v-100h-134z" />
    <glyph glyph-name="uni01D7" unicode="&#x1d7;" horiz-adv-x="650" 
d="M52 108v592h142v-572h262v572h142v-592l-108 -108h-330zM140 746v84h134v-84h-134zM376 746v84h134v-84h-134zM195 894v76l320 27v-103h-320z" />
    <glyph glyph-name="uni01D8" unicode="&#x1d8;" horiz-adv-x="620" 
d="M568 560v-560h-406l-110 110v450h142v-436h232v436h142zM125 606v84h134v-84h-134zM361 606v84h134v-84h-134zM180 754v76l320 27v-103h-320z" />
    <glyph glyph-name="uni01DB" unicode="&#x1db;" horiz-adv-x="650" 
d="M52 108v592h142v-572h262v572h142v-592l-108 -108h-330zM140 746v84h134v-84h-134zM376 746v84h134v-84h-134zM455 894h-320v103l320 -27v-76z" />
    <glyph glyph-name="uni01DC" unicode="&#x1dc;" horiz-adv-x="620" 
d="M568 560v-560h-406l-110 110v450h142v-436h232v436h142zM125 606v84h134v-84h-134zM361 606v84h134v-84h-134zM440 754h-320v103l320 -27v-76z" />
    <glyph glyph-name="uni01D9" unicode="&#x1d9;" horiz-adv-x="650" 
d="M52 108v592h142v-572h262v572h142v-592l-108 -108h-330zM140 746v84h134v-84h-134zM376 746v84h134v-84h-134zM515 1000v-81l-190 -66l-190 66v81l190 -66z" />
    <glyph glyph-name="uni01DA" unicode="&#x1da;" horiz-adv-x="620" 
d="M568 560v-560h-406l-110 110v450h142v-436h232v436h142zM125 606v84h134v-84h-134zM361 606v84h134v-84h-134zM500 860v-81l-190 -66l-190 66v81l190 -66z" />
    <glyph glyph-name="uni01D5" unicode="&#x1d5;" horiz-adv-x="650" 
d="M52 108v592h142v-572h262v572h142v-592l-108 -108h-330zM140 746v84h134v-84h-134zM376 746v84h134v-84h-134zM155 872v66h340v-66h-340z" />
    <glyph glyph-name="uni01D6" unicode="&#x1d6;" horiz-adv-x="620" 
d="M568 560v-560h-406l-110 110v450h142v-436h232v436h142zM125 606v84h134v-84h-134zM361 606v84h134v-84h-134zM140 732v66h340v-66h-340z" />
    <glyph glyph-name="Uhungarumlaut" unicode="&#x170;" horiz-adv-x="650" 
d="M52 108v592h142v-572h262v572h142v-592l-108 -108h-330zM191 742l40 128h124l-71 -128h-93zM344 742l60 128h124l-88 -128h-96z" />
    <glyph glyph-name="uhungarumlaut" unicode="&#x171;" horiz-adv-x="620" 
d="M568 560v-560h-406l-110 110v450h142v-436h232v436h142zM176 602l40 128h124l-71 -128h-93zM329 602l60 128h124l-88 -128h-96z" />
    <glyph glyph-name="Utilde" unicode="&#x168;" horiz-adv-x="650" 
d="M52 108v592h142v-572h262v572h142v-592l-108 -108h-330zM135 740l-20 85l100 66l204 -52l96 51l20 -85l-100 -66l-204 52z" />
    <glyph glyph-name="utilde" unicode="&#x169;" horiz-adv-x="620" 
d="M568 560v-560h-406l-110 110v450h142v-436h232v436h142zM120 600l-20 85l100 66l204 -52l96 51l20 -85l-100 -66l-204 52z" />
    <glyph glyph-name="Uogonek" unicode="&#x172;" horiz-adv-x="650" 
d="M52 108v592h142v-572h262v572h142v-592l-108 -108h-330zM434 -52l-40 -148h-134l70 148h104z" />
    <glyph glyph-name="uogonek" unicode="&#x173;" horiz-adv-x="620" 
d="M568 560v-560h-406l-110 110v450h142v-436h232v436h142zM539 -52l-40 -148h-134l70 148h104z" />
    <glyph glyph-name="Umacron" unicode="&#x16a;" horiz-adv-x="650" 
d="M52 108v592h142v-572h262v572h142v-592l-108 -108h-330zM155 772v98h340v-98h-340z" />
    <glyph glyph-name="umacron" unicode="&#x16b;" horiz-adv-x="620" 
d="M568 560v-560h-406l-110 110v450h142v-436h232v436h142zM140 632v98h340v-98h-340z" />
    <glyph glyph-name="uni0214" unicode="&#x214;" horiz-adv-x="650" 
d="M52 108v592h142v-572h262v572h142v-592l-108 -108h-330zM419 870l40 -128h-93l-71 128h124zM246 870l60 -128h-96l-88 128h124z" />
    <glyph glyph-name="uni0215" unicode="&#x215;" horiz-adv-x="620" 
d="M568 560v-560h-406l-110 110v450h142v-436h232v436h142zM404 730l40 -128h-93l-71 128h124zM231 730l60 -128h-96l-88 128h124z" />
    <glyph glyph-name="uni0216" unicode="&#x216;" horiz-adv-x="650" 
d="M52 108v592h142v-572h262v572h142v-592l-108 -108h-330zM240 746h-123l82 132h252l82 -132h-123l-20 57h-130z" />
    <glyph glyph-name="uni0217" unicode="&#x217;" horiz-adv-x="620" 
d="M568 560v-560h-406l-110 110v450h142v-436h232v436h142zM225 606h-123l82 132h252l82 -132h-123l-20 57h-130z" />
    <glyph glyph-name="uni0244" unicode="&#x244;" horiz-adv-x="650" 
d="M52 108v223h-47v91h47v278h142v-278h262v278h142v-278h47v-91h-47v-223l-108 -108h-330zM194 128h262v203h-262v-203z" />
    <glyph glyph-name="uni0289" unicode="&#x289;" horiz-adv-x="620" 
d="M8 280v90h44v190h142v-190h232v190h142v-190h44v-90h-44v-280h-406l-110 110v170h-44zM194 124h232v156h-232v-156z" />
    <glyph glyph-name="uni1E7C" unicode="&#x1e7c;" horiz-adv-x="654" 
d="M177 0l-163 700h152l123 -572h76l123 572h152l-163 -700h-300zM137 740l-20 85l100 66l204 -52l96 51l20 -85l-100 -66l-204 52z" />
    <glyph glyph-name="uni1E7D" unicode="&#x1e7d;" horiz-adv-x="580" 
d="M145 0l-136 560h144l96 -440h84l96 440h142l-136 -560h-290zM100 600l-20 85l100 66l204 -52l96 51l20 -85l-100 -66l-204 52z" />
    <glyph glyph-name="uni01B2" unicode="&#x1b2;" horiz-adv-x="650" 
d="M160 0l-108 108v592h142v-572h262v448h-154v124h198l98 -98v-494l-108 -108h-330z" />
    <glyph glyph-name="uni028B" unicode="&#x28b;" horiz-adv-x="620" 
d="M156 0l-104 104v456h142v-436h232v316h-124v120h168l98 -98v-358l-104 -104h-308z" />
    <glyph glyph-name="Wacute" unicode="&#x1e82;" horiz-adv-x="856" 
d="M124 0l-112 700h149l81 -556h42l82 446h124l82 -446h42l81 556h149l-112 -700h-229l-75 412l-75 -412h-229zM298 764v76l320 27v-103h-320z" />
    <glyph glyph-name="wacute" unicode="&#x1e83;" horiz-adv-x="840" 
d="M117 0l-87 560h143l60 -440h37l78 386h144l78 -386h37l60 440h143l-87 -560h-228l-75 360l-75 -360h-228zM290 624v76l320 27v-103h-320z" />
    <glyph glyph-name="Wgrave" unicode="&#x1e80;" horiz-adv-x="856" 
d="M124 0l-112 700h149l81 -556h42l82 446h124l82 -446h42l81 556h149l-112 -700h-229l-75 412l-75 -412h-229zM558 764h-320v103l320 -27v-76z" />
    <glyph glyph-name="wgrave" unicode="&#x1e81;" horiz-adv-x="840" 
d="M117 0l-87 560h143l60 -440h37l78 386h144l78 -386h37l60 440h143l-87 -560h-228l-75 360l-75 -360h-228zM550 624h-320v103l320 -27v-76z" />
    <glyph glyph-name="Wcircumflex" unicode="&#x174;" horiz-adv-x="856" 
d="M124 0l-112 700h149l81 -556h42l82 446h124l82 -446h42l81 556h149l-112 -700h-229l-75 412l-75 -412h-229zM238 745v96l190 66l190 -66v-96l-190 66z" />
    <glyph glyph-name="wcircumflex" unicode="&#x175;" horiz-adv-x="840" 
d="M117 0l-87 560h143l60 -440h37l78 386h144l78 -386h37l60 440h143l-87 -560h-228l-75 360l-75 -360h-228zM230 605v96l190 66l190 -66v-96l-190 66z" />
    <glyph glyph-name="Wdieresis" unicode="&#x1e84;" horiz-adv-x="856" 
d="M124 0l-112 700h149l81 -556h42l82 446h124l82 -446h42l81 556h149l-112 -700h-229l-75 412l-75 -412h-229zM243 758v100h134v-100h-134zM479 758v100h134v-100h-134z" />
    <glyph glyph-name="wdieresis" unicode="&#x1e85;" horiz-adv-x="840" 
d="M117 0l-87 560h143l60 -440h37l78 386h144l78 -386h37l60 440h143l-87 -560h-228l-75 360l-75 -360h-228zM235 618v100h134v-100h-134zM471 618v100h134v-100h-134z" />
    <glyph glyph-name="Yacute" unicode="&#xdd;" horiz-adv-x="640" 
d="M249 0v210h-86l-146 490h151l100 -367h104l100 367h151l-146 -490h-86v-210h-142zM190 764v76l320 27v-103h-320z" />
    <glyph glyph-name="yacute" unicode="&#xfd;" 
d="M41 -140v120h253l29 100h-173l-141 480h144l102 -364h95l98 364h143l-197 -700h-353zM170 624v76l320 27v-103h-320z" />
    <glyph glyph-name="Ygrave" unicode="&#x1ef2;" horiz-adv-x="640" 
d="M249 0v210h-86l-146 490h151l100 -367h104l100 367h151l-146 -490h-86v-210h-142zM450 764h-320v103l320 -27v-76z" />
    <glyph glyph-name="ygrave" unicode="&#x1ef3;" 
d="M41 -140v120h253l29 100h-173l-141 480h144l102 -364h95l98 364h143l-197 -700h-353zM430 624h-320v103l320 -27v-76z" />
    <glyph glyph-name="Ycircumflex" unicode="&#x176;" horiz-adv-x="640" 
d="M249 0v210h-86l-146 490h151l100 -367h104l100 367h151l-146 -490h-86v-210h-142zM130 745v96l190 66l190 -66v-96l-190 66z" />
    <glyph glyph-name="ycircumflex" unicode="&#x177;" 
d="M41 -140v120h253l29 100h-173l-141 480h144l102 -364h95l98 364h143l-197 -700h-353zM110 605v96l190 66l190 -66v-96l-190 66z" />
    <glyph glyph-name="Ydieresis" unicode="&#x178;" horiz-adv-x="640" 
d="M249 0v210h-86l-146 490h151l100 -367h104l100 367h151l-146 -490h-86v-210h-142zM135 758v100h134v-100h-134zM371 758v100h134v-100h-134z" />
    <glyph glyph-name="ydieresis" unicode="&#xff;" 
d="M41 -140v120h253l29 100h-173l-141 480h144l102 -364h95l98 364h143l-197 -700h-353zM115 618v100h134v-100h-134zM351 618v100h134v-100h-134z" />
    <glyph glyph-name="uni1EF8" unicode="&#x1ef8;" horiz-adv-x="640" 
d="M249 0v210h-86l-146 490h151l100 -367h104l100 367h151l-146 -490h-86v-210h-142zM130 740l-20 85l100 66l204 -52l96 51l20 -85l-100 -66l-204 52z" />
    <glyph glyph-name="uni1EF9" unicode="&#x1ef9;" 
d="M41 -140v120h253l29 100h-173l-141 480h144l102 -364h95l98 364h143l-197 -700h-353zM110 600l-20 85l100 66l204 -52l96 51l20 -85l-100 -66l-204 52z" />
    <glyph glyph-name="uni0232" unicode="&#x232;" horiz-adv-x="640" 
d="M249 0v210h-86l-146 490h151l100 -367h104l100 367h151l-146 -490h-86v-210h-142zM150 772v98h340v-98h-340z" />
    <glyph glyph-name="uni0233" unicode="&#x233;" 
d="M41 -140v120h253l29 100h-173l-141 480h144l102 -364h95l98 364h143l-197 -700h-353zM130 632v98h340v-98h-340z" />
    <glyph glyph-name="uni01B3" unicode="&#x1b3;" horiz-adv-x="644" 
d="M249 0v210h-86l-146 490h151l100 -367h104l71 301l66 66h130v-124h-66l-96 -366h-86v-210h-142z" />
    <glyph glyph-name="uni01B4" unicode="&#x1b4;" 
d="M41 -140v120h258l23 100h-172l-141 480h144l102 -364h90l84 434l70 70h119v-112h-66l-148 -728h-363z" />
    <glyph glyph-name="Zacute" unicode="&#x179;" horiz-adv-x="562" 
d="M38 0v106l323 474h-321v120h482v-106l-323 -474h325v-120h-486zM151 764v76l320 27v-103h-320z" />
    <glyph glyph-name="zacute" unicode="&#x17a;" horiz-adv-x="530" 
d="M26 0v100l300 340h-296v120h471v-100l-300 -340h303v-120h-478zM135 624v76l320 27v-103h-320z" />
    <glyph glyph-name="Zcaron" unicode="&#x17d;" horiz-adv-x="562" 
d="M38 0v106l323 474h-321v120h482v-106l-323 -474h325v-120h-486zM471 907v-96l-190 -66l-190 66v96l190 -66z" />
    <glyph glyph-name="zcaron" unicode="&#x17e;" horiz-adv-x="530" 
d="M26 0v100l300 340h-296v120h471v-100l-300 -340h303v-120h-478zM455 767v-96l-190 -66l-190 66v96l190 -66z" />
    <glyph glyph-name="Zdotaccent" unicode="&#x17b;" horiz-adv-x="562" 
d="M38 0v106l323 474h-321v120h482v-106l-323 -474h325v-120h-486zM210 758v100h142v-100h-142z" />
    <glyph glyph-name="zdotaccent" unicode="&#x17c;" horiz-adv-x="530" 
d="M26 0v100l300 340h-296v120h471v-100l-300 -340h303v-120h-478zM194 618v100h142v-100h-142z" />
    <glyph glyph-name="uni1E92" unicode="&#x1e92;" horiz-adv-x="562" 
d="M38 0v106l323 474h-321v120h482v-106l-323 -474h325v-120h-486zM210 -172v100h142v-100h-142z" />
    <glyph glyph-name="uni1E93" unicode="&#x1e93;" horiz-adv-x="530" 
d="M26 0v100l300 340h-296v120h471v-100l-300 -340h303v-120h-478zM194 -172v100h142v-100h-142z" />
    <glyph glyph-name="uni01B7" unicode="&#x1b7;" horiz-adv-x="610" 
d="M474 0h-446v120h406v184h-295v100l229 176h-327v120h518v-98l-267 -194h208l78 -78v-226z" />
    <glyph glyph-name="uni0292" unicode="&#x292;" horiz-adv-x="592" 
d="M456 -140h-428v120h388v174h-295v100l229 186h-309v120h500v-98l-267 -204h208l78 -78v-216z" />
    <glyph glyph-name="uni01EE" unicode="&#x1ee;" horiz-adv-x="610" 
d="M474 0h-446v120h406v184h-295v100l229 176h-327v120h518v-98l-267 -194h208l78 -78v-226zM495 907v-96l-190 -66l-190 66v96l190 -66z" />
    <glyph glyph-name="uni01EF" unicode="&#x1ef;" horiz-adv-x="592" 
d="M456 -140h-428v120h388v174h-295v100l229 186h-309v120h500v-98l-267 -204h208l78 -78v-216zM486 767v-96l-190 -66l-190 66v96l190 -66z" />
    <glyph glyph-name="Thorn" unicode="&#xde;" horiz-adv-x="640" 
d="M52 0v700h142v-80h306l108 -108v-314l-108 -108h-306v-90h-142zM194 206h272v298h-272v-298z" />
    <glyph glyph-name="thorn" unicode="&#xfe;" horiz-adv-x="620" 
d="M52 -140v840h142v-140h267l114 -114v-332l-114 -114h-267v-140h-142zM194 120h239v320h-239v-320z" />
    <glyph glyph-name="uni0294" unicode="&#x294;" horiz-adv-x="554" 
d="M262 0h-134v374l277 70v132h-390v124h414l110 -110v-231l-277 -75v-284z" />
    <glyph glyph-name="uniA78B" unicode="&#xa78b;" horiz-adv-x="258" 
d="M74 200l-27 500h164l-27 -500h-110z" />
    <glyph glyph-name="uniA78C" unicode="&#xa78c;" horiz-adv-x="230" 
d="M60 300l-23 400h156l-23 -400h-110z" />
    <glyph glyph-name="uni01C0" unicode="&#x1c0;" horiz-adv-x="248" 
d="M60 -30v760h128v-760h-128z" />
    <glyph glyph-name="uni01C1" unicode="&#x1c1;" horiz-adv-x="452" 
d="M58 -30v760h128v-760h-128zM266 -30v760h128v-760h-128z" />
    <glyph glyph-name="uni01C2" unicode="&#x1c2;" 
d="M236 -30v213h-196v116h196v102h-196v116h196v213h128v-213h196v-116h-196v-102h196v-116h-196v-213h-128z" />
    <glyph glyph-name="uni01C3" unicode="&#x1c3;" horiz-adv-x="282" 
d="M86 232l-27 468h164l-27 -468h-110zM74 0v140h134v-140h-134z" />
    <glyph glyph-name="uni1EA0" unicode="&#x1ea0;" horiz-adv-x="654" 
d="M14 0l163 700h300l163 -700h-149l-35 160h-258l-35 -160h-149zM219 267h216l-70 318h-76zM256 -172v100h142v-100h-142z" />
    <glyph glyph-name="uni1EA0.ss01" horiz-adv-x="660" 
d="M608 592v-592h-142v200h-272v-200h-142v592l108 108h340zM194 572v-252h272v252h-272zM259 -172v100h142v-100h-142z" />
    <glyph glyph-name="uni1EA1" unicode="&#x1ea1;" 
d="M42 110v210l364 10v110h-344v120h376l110 -110v-450h-396zM184 232v-116h222v136zM212 -172v100h142v-100h-142z" />
    <glyph glyph-name="uni1EA2" unicode="&#x1ea2;" horiz-adv-x="654" 
d="M14 0l163 700h300l163 -700h-149l-35 160h-258l-35 -160h-149zM219 267h216l-70 318h-76zM233 806v64h200v-64l-70 -76h-95l70 76h-105z" />
    <glyph glyph-name="uni1EA2.ss01" horiz-adv-x="660" 
d="M608 592v-592h-142v200h-272v-200h-142v592l108 108h340zM194 572v-252h272v252h-272zM236 806v64h200v-64l-70 -76h-95l70 76h-105z" />
    <glyph glyph-name="uni1EA3" unicode="&#x1ea3;" 
d="M42 110v210l364 10v110h-344v120h376l110 -110v-450h-396zM184 232v-116h222v136zM189 666v64h200v-64l-70 -76h-95l70 76h-105z" />
    <glyph glyph-name="uni1EA4" unicode="&#x1ea4;" horiz-adv-x="654" 
d="M14 0l163 700h300l163 -700h-149l-35 160h-258l-35 -160h-149zM219 267h216l-70 318h-76zM365 902v55l164 43v-81zM137 737v96l190 64l190 -64v-96l-190 64z" />
    <glyph glyph-name="uni1EA4.ss01" horiz-adv-x="660" 
d="M608 592v-592h-142v200h-272v-200h-142v592l108 108h340zM194 572v-252h272v252h-272zM368 902v55l164 43v-81zM140 737v96l190 64l190 -64v-96l-190 64z" />
    <glyph glyph-name="uni1EA5" unicode="&#x1ea5;" 
d="M42 110v210l364 10v110h-344v120h376l110 -110v-450h-396zM184 232v-116h222v136zM321 762v55l164 43v-81zM93 597v96l190 64l190 -64v-96l-190 64z" />
    <glyph glyph-name="uni1EA6" unicode="&#x1ea6;" horiz-adv-x="654" 
d="M14 0l163 700h300l163 -700h-149l-35 160h-258l-35 -160h-149zM219 267h216l-70 318h-76zM525 893l-164 27v80l164 -49v-58zM137 737v96l190 66l190 -66v-96l-190 66z" />
    <glyph glyph-name="uni1EA6.ss01" horiz-adv-x="660" 
d="M608 592v-592h-142v200h-272v-200h-142v592l108 108h340zM194 572v-252h272v252h-272zM528 893l-164 27v80l164 -49v-58zM140 737v96l190 66l190 -66v-96l-190 66z" />
    <glyph glyph-name="uni1EA7" unicode="&#x1ea7;" 
d="M42 110v210l364 10v110h-344v120h376l110 -110v-450h-396zM184 232v-116h222v136zM481 753l-164 27v80l164 -49v-58zM93 597v96l190 66l190 -66v-96l-190 66z" />
    <glyph glyph-name="uni1EA8" unicode="&#x1ea8;" horiz-adv-x="654" 
d="M14 0l163 700h300l163 -700h-149l-35 160h-258l-35 -160h-149zM219 267h216l-70 318h-76zM414 942v58h108l48 -50l-65 -77l-64 21l44 48h-71zM137 737v96l190 66l190 -66v-96l-190 66z" />
    <glyph glyph-name="uni1EA8.ss01" horiz-adv-x="660" 
d="M608 592v-592h-142v200h-272v-200h-142v592l108 108h340zM194 572v-252h272v252h-272zM417 942v58h108l48 -50l-65 -77l-64 21l44 48h-71zM140 737v96l190 66l190 -66v-96l-190 66z" />
    <glyph glyph-name="uni1EA9" unicode="&#x1ea9;" 
d="M42 110v210l364 10v110h-344v120h376l110 -110v-450h-396zM184 232v-116h222v136zM370 802v58h108l48 -50l-65 -77l-64 21l44 48h-71zM93 597v96l190 66l190 -66v-96l-190 66z" />
    <glyph glyph-name="uni1EAA" unicode="&#x1eaa;" horiz-adv-x="654" 
d="M14 0l163 700h300l163 -700h-149l-35 160h-258l-35 -160h-149zM219 267h216l-70 318h-76zM179 888l-20 58l94 54l142 -38l80 38l20 -58l-94 -54l-142 38zM137 730v89l190 58l190 -58v-89l-190 55z" />
    <glyph glyph-name="uni1EAA.ss01" horiz-adv-x="660" 
d="M608 592v-592h-142v200h-272v-200h-142v592l108 108h340zM194 572v-252h272v252h-272zM182 888l-20 58l94 54l142 -38l80 38l20 -58l-94 -54l-142 38zM140 730v89l190 58l190 -58v-89l-190 55z" />
    <glyph glyph-name="uni1EAB" unicode="&#x1eab;" 
d="M42 110v210l364 10v110h-344v120h376l110 -110v-450h-396zM184 232v-116h222v136zM135 748l-20 58l94 54l142 -38l80 38l20 -58l-94 -54l-142 38zM93 590v89l190 58l190 -58v-89l-190 55z" />
    <glyph glyph-name="uni1EAC" unicode="&#x1eac;" horiz-adv-x="654" 
d="M14 0l163 700h300l163 -700h-149l-35 160h-258l-35 -160h-149zM219 267h216l-70 318h-76zM256 -172v100h142v-100h-142zM137 745v96l190 66l190 -66v-96l-190 66z" />
    <glyph glyph-name="uni1EAC.ss01" horiz-adv-x="660" 
d="M608 592v-592h-142v200h-272v-200h-142v592l108 108h340zM194 572v-252h272v252h-272zM259 -172v100h142v-100h-142zM140 745v96l190 66l190 -66v-96l-190 66z" />
    <glyph glyph-name="uni1EAD" unicode="&#x1ead;" 
d="M42 110v210l364 10v110h-344v120h376l110 -110v-450h-396zM184 232v-116h222v136zM212 -172v100h142v-100h-142zM93 605v96l190 66l190 -66v-96l-190 66z" />
    <glyph glyph-name="uni1EAE" unicode="&#x1eae;" horiz-adv-x="654" 
d="M14 0l163 700h300l163 -700h-149l-35 160h-258l-35 -160h-149zM219 267h216l-70 318h-76zM301 900v57l164 43v-81zM414 886h121l-82 -132h-252l-82 132h121l20 -57h134z" />
    <glyph glyph-name="uni1EAE.ss01" horiz-adv-x="660" 
d="M608 592v-592h-142v200h-272v-200h-142v592l108 108h340zM194 572v-252h272v252h-272zM304 900v57l164 43v-81zM417 886h121l-82 -132h-252l-82 132h121l20 -57h134z" />
    <glyph glyph-name="uni1EAF" unicode="&#x1eaf;" 
d="M42 110v210l364 10v110h-344v120h376l110 -110v-450h-396zM184 232v-116h222v136zM257 760v57l164 43v-81zM370 746h121l-82 -132h-252l-82 132h121l20 -57h134z" />
    <glyph glyph-name="uni1EB0" unicode="&#x1eb0;" horiz-adv-x="654" 
d="M14 0l163 700h300l163 -700h-149l-35 160h-258l-35 -160h-149zM219 267h216l-70 318h-76zM353 893l-164 27v80l164 -49v-58zM414 886h121l-82 -132h-252l-82 132h121l20 -57h134z" />
    <glyph glyph-name="uni1EB0.ss01" horiz-adv-x="660" 
d="M608 592v-592h-142v200h-272v-200h-142v592l108 108h340zM194 572v-252h272v252h-272zM356 893l-164 27v80l164 -49v-58zM417 886h121l-82 -132h-252l-82 132h121l20 -57h134z" />
    <glyph glyph-name="uni1EB1" unicode="&#x1eb1;" 
d="M42 110v210l364 10v110h-344v120h376l110 -110v-450h-396zM184 232v-116h222v136zM309 753l-164 27v80l164 -49v-58zM370 746h121l-82 -132h-252l-82 132h121l20 -57h134z" />
    <glyph glyph-name="uni1EB2" unicode="&#x1eb2;" horiz-adv-x="654" 
d="M14 0l163 700h300l163 -700h-149l-35 160h-258l-35 -160h-149zM219 267h216l-70 318h-76zM266 942v58h108l48 -50l-65 -77l-64 21l44 48h-71zM414 886h121l-82 -132h-252l-82 132h121l20 -57h134z" />
    <glyph glyph-name="uni1EB2.ss01" horiz-adv-x="660" 
d="M608 592v-592h-142v200h-272v-200h-142v592l108 108h340zM194 572v-252h272v252h-272zM269 942v58h108l48 -50l-65 -77l-64 21l44 48h-71zM417 886h121l-82 -132h-252l-82 132h121l20 -57h134z" />
    <glyph glyph-name="uni1EB3" unicode="&#x1eb3;" 
d="M42 110v210l364 10v110h-344v120h376l110 -110v-450h-396zM184 232v-116h222v136zM222 802v58h108l48 -50l-65 -77l-64 21l44 48h-71zM370 746h121l-82 -132h-252l-82 132h121l20 -57h134z" />
    <glyph glyph-name="uni1EB4" unicode="&#x1eb4;" horiz-adv-x="654" 
d="M14 0l163 700h300l163 -700h-149l-35 160h-258l-35 -160h-149zM219 267h216l-70 318h-76zM191 892l-20 58l82 50l142 -38l68 38l20 -58l-82 -54l-142 38zM418 875h120l-82 -124h-258l-82 124h120l20 -49h142z" />
    <glyph glyph-name="uni1EB4.ss01" horiz-adv-x="660" 
d="M608 592v-592h-142v200h-272v-200h-142v592l108 108h340zM194 572v-252h272v252h-272zM194 892l-20 58l82 50l142 -38l68 38l20 -58l-82 -54l-142 38zM421 875h120l-82 -124h-258l-82 124h120l20 -49h142z" />
    <glyph glyph-name="uni1EB5" unicode="&#x1eb5;" 
d="M42 110v210l364 10v110h-344v120h376l110 -110v-450h-396zM184 232v-116h222v136zM147 752l-20 58l82 50l142 -38l68 38l20 -58l-82 -54l-142 38zM374 735h120l-82 -124h-258l-82 124h120l20 -49h142z" />
    <glyph glyph-name="uni1EB6" unicode="&#x1eb6;" horiz-adv-x="654" 
d="M14 0l163 700h300l163 -700h-149l-35 160h-258l-35 -160h-149zM219 267h216l-70 318h-76zM256 -172v100h142v-100h-142zM412 886h123l-82 -132h-252l-82 132h123l20 -57h130z" />
    <glyph glyph-name="uni1EB6.ss01" horiz-adv-x="660" 
d="M608 592v-592h-142v200h-272v-200h-142v592l108 108h340zM194 572v-252h272v252h-272zM259 -172v100h142v-100h-142zM415 886h123l-82 -132h-252l-82 132h123l20 -57h130z" />
    <glyph glyph-name="uni1EB7" unicode="&#x1eb7;" 
d="M42 110v210l364 10v110h-344v120h376l110 -110v-450h-396zM184 232v-116h222v136zM212 -172v100h142v-100h-142zM368 746h123l-82 -132h-252l-82 132h123l20 -57h130z" />
    <glyph glyph-name="uni1EB8" unicode="&#x1eb8;" horiz-adv-x="580" 
d="M52 0v700h488v-120h-346v-164h296v-116h-296v-180h356v-120h-498zM230 -172v100h142v-100h-142z" />
    <glyph glyph-name="uni1EB9" unicode="&#x1eb9;" horiz-adv-x="590" 
d="M45 106v348l106 106h394v-314h-358v-126h338v-120h-374zM187 324l234 10v114h-234v-124zM239 -172v100h142v-100h-142z" />
    <glyph glyph-name="uni1EBA" unicode="&#x1eba;" horiz-adv-x="580" 
d="M52 0v700h488v-120h-346v-164h296v-116h-296v-180h356v-120h-498zM207 806v64h200v-64l-70 -76h-95l70 76h-105z" />
    <glyph glyph-name="uni1EBB" unicode="&#x1ebb;" horiz-adv-x="590" 
d="M45 106v348l106 106h394v-314h-358v-126h338v-120h-374zM187 324l234 10v114h-234v-124zM216 666v64h200v-64l-70 -76h-95l70 76h-105z" />
    <glyph glyph-name="uni1EBC" unicode="&#x1ebc;" horiz-adv-x="580" 
d="M52 0v700h488v-120h-346v-164h296v-116h-296v-180h356v-120h-498zM111 740l-20 85l100 66l204 -52l96 51l20 -85l-100 -66l-204 52z" />
    <glyph glyph-name="uni1EBD" unicode="&#x1ebd;" horiz-adv-x="590" 
d="M45 106v348l106 106h394v-314h-358v-126h338v-120h-374zM187 324l234 10v114h-234v-124zM120 600l-20 85l100 66l204 -52l96 51l20 -85l-100 -66l-204 52z" />
    <glyph glyph-name="uni1EBE" unicode="&#x1ebe;" horiz-adv-x="580" 
d="M52 0v700h488v-120h-346v-164h296v-116h-296v-180h356v-120h-498zM339 902v55l164 43v-81zM111 737v96l190 64l190 -64v-96l-190 64z" />
    <glyph glyph-name="uni1EBF" unicode="&#x1ebf;" horiz-adv-x="590" 
d="M45 106v348l106 106h394v-314h-358v-126h338v-120h-374zM187 324l234 10v114h-234v-124zM348 762v55l164 43v-81zM120 597v96l190 64l190 -64v-96l-190 64z" />
    <glyph glyph-name="uni1EC0" unicode="&#x1ec0;" horiz-adv-x="580" 
d="M52 0v700h488v-120h-346v-164h296v-116h-296v-180h356v-120h-498zM499 893l-164 27v80l164 -49v-58zM111 737v96l190 66l190 -66v-96l-190 66z" />
    <glyph glyph-name="uni1EC1" unicode="&#x1ec1;" horiz-adv-x="590" 
d="M45 106v348l106 106h394v-314h-358v-126h338v-120h-374zM187 324l234 10v114h-234v-124zM508 753l-164 27v80l164 -49v-58zM120 597v96l190 66l190 -66v-96l-190 66z" />
    <glyph glyph-name="uni1EC2" unicode="&#x1ec2;" horiz-adv-x="580" 
d="M52 0v700h488v-120h-346v-164h296v-116h-296v-180h356v-120h-498zM388 942v58h108l48 -50l-65 -77l-64 21l44 48h-71zM111 737v96l190 66l190 -66v-96l-190 66z" />
    <glyph glyph-name="uni1EC3" unicode="&#x1ec3;" horiz-adv-x="590" 
d="M45 106v348l106 106h394v-314h-358v-126h338v-120h-374zM187 324l234 10v114h-234v-124zM397 802v58h108l48 -50l-65 -77l-64 21l44 48h-71zM120 597v96l190 66l190 -66v-96l-190 66z" />
    <glyph glyph-name="uni1EC4" unicode="&#x1ec4;" horiz-adv-x="580" 
d="M52 0v700h488v-120h-346v-164h296v-116h-296v-180h356v-120h-498zM153 888l-20 58l94 54l142 -38l80 38l20 -58l-94 -54l-142 38zM111 730v89l190 58l190 -58v-89l-190 55z" />
    <glyph glyph-name="uni1EC5" unicode="&#x1ec5;" horiz-adv-x="590" 
d="M45 106v348l106 106h394v-314h-358v-126h338v-120h-374zM187 324l234 10v114h-234v-124zM162 748l-20 58l94 54l142 -38l80 38l20 -58l-94 -54l-142 38zM120 590v89l190 58l190 -58v-89l-190 55z" />
    <glyph glyph-name="uni1EC6" unicode="&#x1ec6;" horiz-adv-x="580" 
d="M52 0v700h488v-120h-346v-164h296v-116h-296v-180h356v-120h-498zM230 -172v100h142v-100h-142zM111 745v96l190 66l190 -66v-96l-190 66z" />
    <glyph glyph-name="uni1EC7" unicode="&#x1ec7;" horiz-adv-x="590" 
d="M45 106v348l106 106h394v-314h-358v-126h338v-120h-374zM187 324l234 10v114h-234v-124zM239 -172v100h142v-100h-142zM120 605v96l190 66l190 -66v-96l-190 66z" />
    <glyph glyph-name="uni1EC8" unicode="&#x1ec8;" horiz-adv-x="430" 
d="M45 -4v114l99 5v470l-99 5v114l170 -8l170 8v-114l-99 -5v-470l99 -5v-114l-170 8zM121 806v64h200v-64l-70 -76h-95l70 76h-105z" />
    <glyph glyph-name="uni1EC9" unicode="&#x1ec9;" horiz-adv-x="246" 
d="M52 0v560h142v-560h-142zM29 666v64h200v-64l-70 -76h-95l70 76h-105z" />
    <glyph glyph-name="uni1ECA" unicode="&#x1eca;" horiz-adv-x="430" 
d="M45 -4v114l99 5v470l-99 5v114l170 -8l170 8v-114l-99 -5v-470l99 -5v-114l-170 8zM144 -172v100h142v-100h-142z" />
    <glyph glyph-name="uni1ECB" unicode="&#x1ecb;" horiz-adv-x="246" 
d="M52 618v100h142v-100h-142zM52 0v560h142v-560h-142zM52 -172v100h142v-100h-142z" />
    <glyph glyph-name="uni1ECC" unicode="&#x1ecc;" horiz-adv-x="680" 
d="M50 108v484l108 108h364l108 -108v-484l-108 -108h-364zM196 576v-452h288v452h-288zM269 -172v100h142v-100h-142z" />
    <glyph glyph-name="uni1ECD" unicode="&#x1ecd;" 
d="M45 106v348l106 106h298l106 -106v-348l-106 -106h-298zM187 116h226v328h-226v-328zM229 -172v100h142v-100h-142z" />
    <glyph glyph-name="uni1ECE" unicode="&#x1ece;" horiz-adv-x="680" 
d="M50 108v484l108 108h364l108 -108v-484l-108 -108h-364zM196 576v-452h288v452h-288zM246 806v64h200v-64l-70 -76h-95l70 76h-105z" />
    <glyph glyph-name="uni1ECF" unicode="&#x1ecf;" 
d="M45 106v348l106 106h298l106 -106v-348l-106 -106h-298zM187 116h226v328h-226v-328zM206 666v64h200v-64l-70 -76h-95l70 76h-105z" />
    <glyph glyph-name="uni1ED0" unicode="&#x1ed0;" horiz-adv-x="680" 
d="M50 108v484l108 108h364l108 -108v-484l-108 -108h-364zM196 576v-452h288v452h-288zM378 902v55l164 43v-81zM150 737v96l190 64l190 -64v-96l-190 64z" />
    <glyph glyph-name="uni1ED1" unicode="&#x1ed1;" 
d="M45 106v348l106 106h298l106 -106v-348l-106 -106h-298zM187 116h226v328h-226v-328zM338 762v55l164 43v-81zM110 597v96l190 64l190 -64v-96l-190 64z" />
    <glyph glyph-name="uni1ED2" unicode="&#x1ed2;" horiz-adv-x="680" 
d="M50 108v484l108 108h364l108 -108v-484l-108 -108h-364zM196 576v-452h288v452h-288zM538 893l-164 27v80l164 -49v-58zM150 737v96l190 66l190 -66v-96l-190 66z" />
    <glyph glyph-name="uni1ED3" unicode="&#x1ed3;" 
d="M45 106v348l106 106h298l106 -106v-348l-106 -106h-298zM187 116h226v328h-226v-328zM498 753l-164 27v80l164 -49v-58zM110 597v96l190 66l190 -66v-96l-190 66z" />
    <glyph glyph-name="uni1ED4" unicode="&#x1ed4;" horiz-adv-x="680" 
d="M50 108v484l108 108h364l108 -108v-484l-108 -108h-364zM196 576v-452h288v452h-288zM427 942v58h108l48 -50l-65 -77l-64 21l44 48h-71zM150 737v96l190 66l190 -66v-96l-190 66z" />
    <glyph glyph-name="uni1ED5" unicode="&#x1ed5;" 
d="M45 106v348l106 106h298l106 -106v-348l-106 -106h-298zM187 116h226v328h-226v-328zM387 802v58h108l48 -50l-65 -77l-64 21l44 48h-71zM110 597v96l190 66l190 -66v-96l-190 66z" />
    <glyph glyph-name="uni1ED6" unicode="&#x1ed6;" horiz-adv-x="680" 
d="M50 108v484l108 108h364l108 -108v-484l-108 -108h-364zM196 576v-452h288v452h-288zM192 888l-20 58l94 54l142 -38l80 38l20 -58l-94 -54l-142 38zM150 730v89l190 58l190 -58v-89l-190 55z" />
    <glyph glyph-name="uni1ED7" unicode="&#x1ed7;" 
d="M45 106v348l106 106h298l106 -106v-348l-106 -106h-298zM187 116h226v328h-226v-328zM152 748l-20 58l94 54l142 -38l80 38l20 -58l-94 -54l-142 38zM110 590v89l190 58l190 -58v-89l-190 55z" />
    <glyph glyph-name="uni1ED8" unicode="&#x1ed8;" horiz-adv-x="680" 
d="M50 108v484l108 108h364l108 -108v-484l-108 -108h-364zM196 576v-452h288v452h-288zM269 -172v100h142v-100h-142zM150 745v96l190 66l190 -66v-96l-190 66z" />
    <glyph glyph-name="uni1ED9" unicode="&#x1ed9;" 
d="M45 106v348l106 106h298l106 -106v-348l-106 -106h-298zM187 116h226v328h-226v-328zM229 -172v100h142v-100h-142zM110 605v96l190 66l190 -66v-96l-190 66z" />
    <glyph glyph-name="Ohorn" unicode="&#x1a0;" horiz-adv-x="680" 
d="M50 108v484l108 108h432v80h112v-104l-72 -72v-496l-108 -108h-364zM196 576v-452h288v452h-288z" />
    <glyph glyph-name="ohorn" unicode="&#x1a1;" horiz-adv-x="618" 
d="M45 106v348l106 106h367v80h114v-104l-77 -77v-353l-106 -106h-298zM187 116h226v328h-226v-328z" />
    <glyph glyph-name="uni1EDA" unicode="&#x1eda;" horiz-adv-x="680" 
d="M50 108v484l108 108h432v80h112v-104l-72 -72v-496l-108 -108h-364zM196 576v-452h288v452h-288zM208 764v76l320 27v-103h-320z" />
    <glyph glyph-name="uni1EDB" unicode="&#x1edb;" horiz-adv-x="618" 
d="M45 106v348l106 106h367v80h114v-104l-77 -77v-353l-106 -106h-298zM187 116h226v328h-226v-328zM159 624v76l320 27v-103h-320z" />
    <glyph glyph-name="uni1EDC" unicode="&#x1edc;" horiz-adv-x="680" 
d="M50 108v484l108 108h432v80h112v-104l-72 -72v-496l-108 -108h-364zM196 576v-452h288v452h-288zM468 764h-320v103l320 -27v-76z" />
    <glyph glyph-name="uni1EDD" unicode="&#x1edd;" horiz-adv-x="618" 
d="M45 106v348l106 106h367v80h114v-104l-77 -77v-353l-106 -106h-298zM187 116h226v328h-226v-328zM419 624h-320v103l320 -27v-76z" />
    <glyph glyph-name="uni1EDE" unicode="&#x1ede;" horiz-adv-x="680" 
d="M50 108v484l108 108h432v80h112v-104l-72 -72v-496l-108 -108h-364zM196 576v-452h288v452h-288zM244 806v64h200v-64l-70 -76h-95l70 76h-105z" />
    <glyph glyph-name="uni1EDF" unicode="&#x1edf;" horiz-adv-x="618" 
d="M45 106v348l106 106h367v80h114v-104l-77 -77v-353l-106 -106h-298zM187 116h226v328h-226v-328zM195 666v64h200v-64l-70 -76h-95l70 76h-105z" />
    <glyph glyph-name="uni1EE0" unicode="&#x1ee0;" horiz-adv-x="680" 
d="M50 108v484l108 108h432v80h112v-104l-72 -72v-496l-108 -108h-364zM196 576v-452h288v452h-288zM148 740l-20 85l100 66l204 -52l96 51l20 -85l-100 -66l-204 52z" />
    <glyph glyph-name="uni1EE1" unicode="&#x1ee1;" horiz-adv-x="618" 
d="M45 106v348l106 106h367v80h114v-104l-77 -77v-353l-106 -106h-298zM187 116h226v328h-226v-328zM99 600l-20 85l100 66l204 -52l96 51l20 -85l-100 -66l-204 52z" />
    <glyph glyph-name="uni1EE2" unicode="&#x1ee2;" horiz-adv-x="680" 
d="M50 108v484l108 108h432v80h112v-104l-72 -72v-496l-108 -108h-364zM196 576v-452h288v452h-288zM269 -172v100h142v-100h-142z" />
    <glyph glyph-name="uni1EE3" unicode="&#x1ee3;" horiz-adv-x="618" 
d="M45 106v348l106 106h367v80h114v-104l-77 -77v-353l-106 -106h-298zM187 116h226v328h-226v-328zM229 -172v100h142v-100h-142z" />
    <glyph glyph-name="uni1EE4" unicode="&#x1ee4;" horiz-adv-x="650" 
d="M52 108v592h142v-572h262v572h142v-592l-108 -108h-330zM254 -172v100h142v-100h-142z" />
    <glyph glyph-name="uni1EE5" unicode="&#x1ee5;" horiz-adv-x="620" 
d="M568 560v-560h-406l-110 110v450h142v-436h232v436h142zM239 -172v100h142v-100h-142z" />
    <glyph glyph-name="uni1EE6" unicode="&#x1ee6;" horiz-adv-x="650" 
d="M52 108v592h142v-572h262v572h142v-592l-108 -108h-330zM231 806v64h200v-64l-70 -76h-95l70 76h-105z" />
    <glyph glyph-name="uni1EE7" unicode="&#x1ee7;" horiz-adv-x="620" 
d="M568 560v-560h-406l-110 110v450h142v-436h232v436h142zM216 666v64h200v-64l-70 -76h-95l70 76h-105z" />
    <glyph glyph-name="Uhorn" unicode="&#x1af;" horiz-adv-x="650" 
d="M52 108v592h142v-572h262v572h118v80h112v-104l-88 -88v-480l-108 -108h-330z" />
    <glyph glyph-name="uhorn" unicode="&#x1b0;" horiz-adv-x="624" 
d="M52 110v450h142v-436h232v436h108v80h114v-104l-80 -80v-456h-406z" />
    <glyph glyph-name="uni1EE8" unicode="&#x1ee8;" horiz-adv-x="650" 
d="M52 108v592h142v-572h262v572h118v80h112v-104l-88 -88v-480l-108 -108h-330zM195 764v76l320 27v-103h-320z" />
    <glyph glyph-name="uni1EE9" unicode="&#x1ee9;" horiz-adv-x="624" 
d="M52 110v450h142v-436h232v436h108v80h114v-104l-80 -80v-456h-406zM182 624v76l320 27v-103h-320z" />
    <glyph glyph-name="uni1EEA" unicode="&#x1eea;" horiz-adv-x="650" 
d="M52 108v592h142v-572h262v572h118v80h112v-104l-88 -88v-480l-108 -108h-330zM455 764h-320v103l320 -27v-76z" />
    <glyph glyph-name="uni1EEB" unicode="&#x1eeb;" horiz-adv-x="624" 
d="M52 110v450h142v-436h232v436h108v80h114v-104l-80 -80v-456h-406zM442 624h-320v103l320 -27v-76z" />
    <glyph glyph-name="uni1EEC" unicode="&#x1eec;" horiz-adv-x="650" 
d="M52 108v592h142v-572h262v572h118v80h112v-104l-88 -88v-480l-108 -108h-330zM231 806v64h200v-64l-70 -76h-95l70 76h-105z" />
    <glyph glyph-name="uni1EED" unicode="&#x1eed;" horiz-adv-x="624" 
d="M52 110v450h142v-436h232v436h108v80h114v-104l-80 -80v-456h-406zM218 666v64h200v-64l-70 -76h-95l70 76h-105z" />
    <glyph glyph-name="uni1EEE" unicode="&#x1eee;" horiz-adv-x="650" 
d="M52 108v592h142v-572h262v572h118v80h112v-104l-88 -88v-480l-108 -108h-330zM135 740l-20 85l100 66l204 -52l96 51l20 -85l-100 -66l-204 52z" />
    <glyph glyph-name="uni1EEF" unicode="&#x1eef;" horiz-adv-x="624" 
d="M52 110v450h142v-436h232v436h108v80h114v-104l-80 -80v-456h-406zM122 600l-20 85l100 66l204 -52l96 51l20 -85l-100 -66l-204 52z" />
    <glyph glyph-name="uni1EF0" unicode="&#x1ef0;" horiz-adv-x="650" 
d="M52 108v592h142v-572h262v572h118v80h112v-104l-88 -88v-480l-108 -108h-330zM254 -172v100h142v-100h-142z" />
    <glyph glyph-name="uni1EF1" unicode="&#x1ef1;" horiz-adv-x="624" 
d="M52 110v450h142v-436h232v436h108v80h114v-104l-80 -80v-456h-406zM241 -172v100h142v-100h-142z" />
    <glyph glyph-name="uni1EF4" unicode="&#x1ef4;" horiz-adv-x="640" 
d="M249 0v210h-86l-146 490h151l100 -367h104l100 367h151l-146 -490h-86v-210h-142zM249 -172v100h142v-100h-142z" />
    <glyph glyph-name="uni1EF5" unicode="&#x1ef5;" 
d="M41 -102v116h259l22 74h-174l-139 472h143l100 -360h99l98 360h142l-193 -662h-357zM167 -250v92h142v-92h-142z" />
    <glyph glyph-name="uni1EF6" unicode="&#x1ef6;" horiz-adv-x="640" 
d="M249 0v210h-86l-146 490h151l100 -367h104l100 367h151l-146 -490h-86v-210h-142zM226 806v64h200v-64l-70 -76h-95l70 76h-105z" />
    <glyph glyph-name="uni1EF7" unicode="&#x1ef7;" 
d="M41 -140v120h253l29 100h-173l-141 480h144l102 -364h95l98 364h143l-197 -700h-353zM206 666v64h200v-64l-70 -76h-95l70 76h-105z" />
    <glyph glyph-name="uni01C4" unicode="&#x1c4;" horiz-adv-x="1197" 
d="M52 0v700h425l108 -108v-484l-108 -108h-425zM194 124h249v452h-249v-452zM673 0v106l323 474h-321v120h482v-106l-323 -474h325v-120h-486zM1106 907v-96l-190 -66l-190 66v96l190 -66z" />
    <glyph glyph-name="uni01C5" unicode="&#x1c5;" horiz-adv-x="1165" 
d="M52 0v700h425l108 -108v-484l-108 -108h-425zM194 124h249v452h-249v-452zM661 0v100l300 340h-296v120h471v-100l-300 -340h303v-120h-478zM1090 767v-96l-190 -66l-190 66v96l190 -66z" />
    <glyph glyph-name="uni01C6" unicode="&#x1c6;" horiz-adv-x="1150" 
d="M568 700v-700h-409l-114 114v332l114 114h267v140h142zM187 120h239v320h-239v-320zM646 0v100l300 340h-296v120h471v-100l-300 -340h303v-120h-478zM1075 767v-96l-190 -66l-190 66v96l190 -66z" />
    <glyph glyph-name="uni01C7" unicode="&#x1c7;" horiz-adv-x="1186" 
d="M52 0v700h142v-580h236v160h128v-280h-506zM616 114v206h142v-192h236v448h-350v124h492v-586l-114 -114h-292z" />
    <glyph glyph-name="uni01C8" unicode="&#x1c8;" horiz-adv-x="832" 
d="M52 0v700h142v-580h236v160h128v-280h-506zM638 618v100h142v-100h-142zM638 -140v700h142v-700h-142z" />
    <glyph glyph-name="uni01C9" unicode="&#x1c9;" horiz-adv-x="492" 
d="M52 0v700h142v-700h-142zM298 618v100h142v-100h-142zM298 -140v700h142v-700h-142z" />
    <glyph glyph-name="uni01CA" unicode="&#x1ca;" horiz-adv-x="1280" 
d="M52 0v700h149l293 -495v495h134v-700h-149l-293 495v-495h-134zM710 114v206h142v-192h236v448h-350v124h492v-586l-114 -114h-292z" />
    <glyph glyph-name="uni01CB" unicode="&#x1cb;" horiz-adv-x="926" 
d="M52 0v700h149l293 -495v495h134v-700h-149l-293 495v-495h-134zM732 618v100h142v-100h-142zM732 -140v700h142v-700h-142z" />
    <glyph glyph-name="uni01CC" unicode="&#x1cc;" horiz-adv-x="866" 
d="M52 0v560h406l110 -110v-450h-142v436h-232v-436h-142zM672 618v100h142v-100h-142zM672 -140v700h142v-700h-142z" />
    <glyph glyph-name="uni00A0" unicode="&#xa0;" horiz-adv-x="260" 
 />
    <glyph glyph-name="uni2007" unicode="&#x2007;" horiz-adv-x="650" 
 />
    <glyph glyph-name="uni2008" unicode="&#x2008;" horiz-adv-x="262" 
 />
    <glyph glyph-name="uni2009" unicode="&#x2009;" horiz-adv-x="150" 
 />
    <glyph glyph-name="uni200A" unicode="&#x200a;" horiz-adv-x="100" 
 />
    <glyph glyph-name="period" unicode="." horiz-adv-x="262" 
d="M64 0v140h134v-140h-134z" />
    <glyph glyph-name="comma" unicode="," horiz-adv-x="262" 
d="M74 0v140h136v-140l-94 -140h-93l95 140h-44z" />
    <glyph glyph-name="colon" unicode=":" horiz-adv-x="262" 
d="M64 0v140h134v-140h-134zM64 360v140h134v-140h-134z" />
    <glyph glyph-name="semicolon" unicode=";" horiz-adv-x="262" 
d="M62 0v140h136v-140l-94 -140h-93l95 140h-44zM52 360v140h134v-140h-134z" />
    <glyph glyph-name="ellipsis" unicode="&#x2026;" horiz-adv-x="786" 
d="M64 0v140h134v-140h-134zM326 0v140h134v-140h-134zM588 0v140h134v-140h-134z" />
    <glyph glyph-name="exclam" unicode="!" horiz-adv-x="282" 
d="M86 232l-27 468h164l-27 -468h-110zM74 0v140h134v-140h-134z" />
    <glyph glyph-name="exclamdown" unicode="&#xa1;" horiz-adv-x="282" 
d="M196 328l27 -468h-164l27 468h110zM208 560v-140h-134v140h134z" />
    <glyph glyph-name="question" unicode="?" horiz-adv-x="554" 
d="M262 224h-134v150l277 70v132h-390v124h414l110 -110v-231l-277 -75v-60zM128 0v140h134v-140h-134z" />
    <glyph glyph-name="questiondown" unicode="&#xbf;" horiz-adv-x="554" 
d="M292 336h134v-150l-277 -70v-132h390v-124h-414l-110 110v231l277 75v60zM426 560v-140h-134v140h134z" />
    <glyph glyph-name="quotesingle" unicode="'" horiz-adv-x="220" 
d="M60 460l-20 240h140l-20 -240h-100z" />
    <glyph glyph-name="quotedbl" unicode="&#x22;" horiz-adv-x="424" 
d="M64 460l-20 240h140l-20 -240h-100zM260 460l-20 240h140l-20 -240h-100z" />
    <glyph glyph-name="quoteleft" unicode="&#x2018;" horiz-adv-x="262" 
d="M188 560v-140h-136v140l94 140h93l-95 -140h44z" />
    <glyph glyph-name="quoteright" unicode="&#x2019;" horiz-adv-x="262" 
d="M74 560v140h136v-140l-94 -140h-93l95 140h-44z" />
    <glyph glyph-name="quotesinglbase" unicode="&#x201a;" horiz-adv-x="262" 
d="M74 0v140h136v-140l-94 -140h-93l95 140h-44z" />
    <glyph glyph-name="quotedblleft" unicode="&#x201c;" horiz-adv-x="476" 
d="M402 560v-140h-136v140l94 140h93l-95 -140h44zM188 560v-140h-136v140l94 140h93l-95 -140h44z" />
    <glyph glyph-name="quotedblright" unicode="&#x201d;" horiz-adv-x="476" 
d="M74 560v140h136v-140l-94 -140h-93l95 140h-44zM288 560v140h136v-140l-94 -140h-93l95 140h-44z" />
    <glyph glyph-name="quotedblbase" unicode="&#x201e;" horiz-adv-x="476" 
d="M74 0v140h136v-140l-94 -140h-93l95 140h-44zM288 0v140h136v-140l-94 -140h-93l95 140h-44z" />
    <glyph glyph-name="guilsinglleft" unicode="&#x2039;" horiz-adv-x="450" 
d="M20 269v22l236 269h168l-241 -280l241 -280h-168z" />
    <glyph glyph-name="guilsinglright" unicode="&#x203a;" horiz-adv-x="450" 
d="M430 291v-22l-236 -269h-168l241 280l-241 280h168z" />
    <glyph glyph-name="guillemotleft" unicode="&#xab;" horiz-adv-x="714" 
d="M20 269v22l236 269h168l-241 -280l241 -280h-168zM284 269v22l236 269h168l-241 -280l241 -280h-168z" />
    <glyph glyph-name="guillemotright" unicode="&#xbb;" horiz-adv-x="714" 
d="M694 291v-22l-236 -269h-168l241 280l-241 280h168zM430 291v-22l-236 -269h-168l241 280l-241 280h168z" />
    <glyph glyph-name="parenleft" unicode="(" horiz-adv-x="344" 
d="M52 -32v674l108 108h164v-118h-130v-654h130v-118h-164z" />
    <glyph glyph-name="parenright" unicode=")" horiz-adv-x="344" 
d="M292 642v-674l-108 -108h-164v118h130v654h-130v118h164z" />
    <glyph glyph-name="bracketleft" unicode="[" horiz-adv-x="344" 
d="M52 -140v890h272v-114h-134v-662h134v-114h-272z" />
    <glyph glyph-name="bracketright" unicode="]" horiz-adv-x="344" 
d="M292 750v-890h-272v114h134v662h-134v114h272z" />
    <glyph glyph-name="braceleft" unicode="{" horiz-adv-x="404" 
d="M112 -32v279h-92v116h92v279l108 108h164v-118h-130v-259l-68 -68l68 -68v-259h130v-118h-164z" />
    <glyph glyph-name="braceright" unicode="}" horiz-adv-x="404" 
d="M292 642v-279h92v-116h-92v-279l-108 -108h-164v118h130v259l68 68l-68 68v259h-130v118h164z" />
    <glyph glyph-name="slash" unicode="/" horiz-adv-x="440" 
d="M10 0l274 700h146l-274 -700h-146z" />
    <glyph glyph-name="backslash" unicode="\" horiz-adv-x="440" 
d="M430 0l-274 700h-146l274 -700h146z" />
    <glyph glyph-name="brokenbar" unicode="&#xa6;" horiz-adv-x="254" 
d="M60 350v450h134v-450h-134zM60 -200v450h134v-450h-134z" />
    <glyph glyph-name="bar" unicode="|" horiz-adv-x="254" 
d="M60 -140v900h134v-900h-134z" />
    <glyph glyph-name="underscore" unicode="_" horiz-adv-x="624" 
d="M52 -128v128h520v-128h-520z" />
    <glyph glyph-name="hyphen" unicode="-" horiz-adv-x="340" 
d="M40 253v134h260v-134h-260z" />
    <glyph glyph-name="hyphen" unicode="&#x2011;" horiz-adv-x="340" 
d="M40 253v134h260v-134h-260z" />
    <glyph glyph-name="hyphen" unicode="&#x2010;" horiz-adv-x="340" 
d="M40 253v134h260v-134h-260z" />
    <glyph glyph-name="hyphen" unicode="&#xad;" horiz-adv-x="340" 
d="M40 253v134h260v-134h-260z" />
    <glyph glyph-name="endash" unicode="&#x2013;" horiz-adv-x="400" 
d="M40 258v124h320v-124h-320z" />
    <glyph glyph-name="emdash" unicode="&#x2014;" 
d="M40 258v124h520v-124h-520z" />
    <glyph glyph-name="uni2015" unicode="&#x2015;" 
d="M-10 258v124h620v-124h-620z" />
    <glyph glyph-name="figuredash" unicode="&#x2012;" horiz-adv-x="650" 
d="M40 258v124h570v-124h-570z" />
    <glyph glyph-name="periodcentered" unicode="&#xb7;" horiz-adv-x="214" 
d="M40 256v140h134v-140h-134z" />
    <glyph glyph-name="asciitilde" unicode="~" 
d="M40 220l-20 123l130 117l290 -119l120 95l20 -123l-130 -117l-290 119z" />
    <glyph glyph-name="bullet" unicode="&#x2022;" horiz-adv-x="500" 
d="M48 200v200l98 98h208l98 -98v-200l-98 -98h-208z" />
    <glyph glyph-name="ordfeminine" unicode="&#xaa;" horiz-adv-x="504" 
d="M42 344v169l282 10v75h-262v102h296l94 -94v-356h-316zM170 435v-87h154v107z" />
    <glyph glyph-name="ordmasculine" unicode="&#xba;" horiz-adv-x="508" 
d="M45 348v254l98 98h222l98 -98v-254l-98 -98h-222zM175 358h158v234h-158v-234z" />
    <glyph glyph-name="degree" unicode="&#xb0;" horiz-adv-x="314" 
d="M16 494v132l76 74h130l76 -74v-132l-76 -74h-130zM104 502h107v116h-107v-116z" />
    <glyph glyph-name="grave" unicode="`" horiz-adv-x="400" 
d="M360 624h-320v103l320 -27v-76z" />
    <glyph glyph-name="asciicircum" unicode="^" horiz-adv-x="520" 
d="M6 350l177 350h154l177 -350h-149l-105 241l-105 -241h-149z" />
    <glyph glyph-name="asterisk" unicode="*" horiz-adv-x="528" 
d="M319 232h-110v139l-132 -79l-55 95l133 79l-133 79l55 95l132 -79v139h110v-139l132 79l55 -95l-133 -79l133 -79l-55 -95l-132 79v-139z" />
    <glyph glyph-name="dagger" unicode="&#x2020;" horiz-adv-x="612" 
d="M52 379v134h187v187h134v-187h187v-134h-187v-379h-134v379h-187z" />
    <glyph glyph-name="daggerdbl" unicode="&#x2021;" horiz-adv-x="612" 
d="M52 379v134h187v187h134v-187h187v-134h-187v-198h187v-134h-187v-187h-134v187h-187v134h187v198h-187z" />
    <glyph glyph-name="numbersign" unicode="#" horiz-adv-x="804" 
d="M182 0v130h-130v115h130v210h-130v115h130v130h129v-130h176v130h129v-130h136v-115h-136v-210h136v-115h-136v-130h-129v130h-176v-130h-129zM311 245h176v210h-176v-210z" />
    <glyph glyph-name="section" unicode="&#xa7;" horiz-adv-x="640" 
d="M64 -97v112h389v121h-306l-98 98v360l106 106h416v-112h-384v-121h306l98 -98v-361l-105 -105h-422zM187 232h266v139h-266v-139z" />
    <glyph glyph-name="paragraph" unicode="&#xb6;" horiz-adv-x="680" 
d="M628 -140h-130v724h-72v-724h-130v290h-140l-124 124v294l132 132h464v-840z" />
    <glyph glyph-name="ampersand" unicode="&#x26;" horiz-adv-x="775" 
d="M598 0l-88 120l-87 -120h-286l-92 92v272l92 92h123l-128 172l72 72h414v-114h-298l193 -260l94 134h149l-169 -233l169 -227h-158zM364 116l73 102l-94 126h-156v-228h177z" />
    <glyph glyph-name="at" unicode="@" horiz-adv-x="800" 
d="M52 -36v632l104 104h482l110 -110v-402l-94 -94h-256l-98 94v259l315 14v128h-430v-618h563v-111h-592zM433 201h182v192l-182 -20v-172z" />
    <glyph glyph-name="copyright" unicode="&#xa9;" horiz-adv-x="900" 
d="M44 8v624l108 108h596l108 -108v-624l-108 -108h-596zM158 640v-640h584v640h-584zM238 186v268l106 106h318v-128h-286v-224h286v-128h-318z" />
    <glyph glyph-name="registered" unicode="&#xae;" horiz-adv-x="400" 
d="M200 370q-52 0 -93 22t-64 60.5t-23 87.5t23 87.5t64 60.5t93 22q53 0 93.5 -22t63.5 -60.5t23 -87.5t-23 -87.5t-63.5 -60.5t-93.5 -22zM66 540q0 -58 36.5 -93.5t97.5 -35.5t97.5 35.5t36.5 93.5q0 59 -36.5 94t-97.5 35t-97.5 -35t-36.5 -94zM130 453v177h75
q36 0 57 -17t21 -46q0 -20 -10 -34.5t-25 -20.5l43 -59h-59l-26 53h-29v-53h-47zM177 541h28q29 0 29 25q0 26 -29 26h-28v-51z" />
    <glyph glyph-name="trademark" unicode="&#x2122;" 
d="M99 420v220h-79v60h230v-60h-79v-220h-72zM280 700h63l77 -105l77 105h63v-280h-68v197l-72 -97l-72 97v-197h-68v280z" />
    <glyph glyph-name="zero" unicode="0" horiz-adv-x="650" 
d="M50 108v484l108 108h334l108 -108v-484l-108 -108h-334zM192 572v-444h266v444h-266z" />
    <glyph glyph-name="one" unicode="1" horiz-adv-x="430" 
d="M45 -4v114l105 5v439l-99 -9v115l241 40v-585l93 -5v-114l-170 8z" />
    <glyph glyph-name="two" unicode="2" horiz-adv-x="640" 
d="M590 124v-124h-540v367l398 50v159h-392v124h426l108 -108v-275l-398 -50v-143h398z" />
    <glyph glyph-name="three" unicode="3" horiz-adv-x="618" 
d="M482 0h-452v120h411v180h-351v116h331v164h-381v120h422l104 -104v-183l-61 -47l81 -64v-198z" />
    <glyph glyph-name="four" unicode="4" horiz-adv-x="640" 
d="M40 180l28 520h140l-26 -392h264v392h142v-700h-142v180h-406z" />
    <glyph glyph-name="five" unicode="5" horiz-adv-x="640" 
d="M590 576h-398v-143l398 -32v-293l-108 -108h-426v124h392v173l-398 32v371h540v-124z" />
    <glyph glyph-name="six" unicode="6" horiz-adv-x="650" 
d="M154 0l-104 104v492l104 104h408v-124h-370v-132h336l72 -72v-268l-104 -104h-342zM192 120h266v220h-266v-220z" />
    <glyph glyph-name="seven" unicode="7" horiz-adv-x="604" 
d="M104 0l324 462v118h-256v-128h-138v248h536v-262l-296 -438h-170z" />
    <glyph glyph-name="eight" unicode="8" horiz-adv-x="662" 
d="M146 0l-108 108v190l85 68l-65 51v175l108 108h330l108 -108v-175l-65 -51l85 -68v-190l-108 -108h-370zM208 413h246v171h-246v-171zM192 116h284v193h-284v-193z" />
    <glyph glyph-name="nine" unicode="9" horiz-adv-x="650" 
d="M496 700l104 -104v-492l-104 -104h-408v124h370v132h-336l-72 72v268l104 104h342zM458 580h-266v-220h266v220z" />
    <glyph glyph-name="zero.tnum" horiz-adv-x="650" 
d="M50 108v484l108 108h334l108 -108v-484l-108 -108h-334zM192 572v-444h266v444h-266z" />
    <glyph glyph-name="one.tnum" horiz-adv-x="650" 
d="M57 -4v114l213 5v439l-193 -9v115l335 40v-585l193 -5v-114l-270 8z" />
    <glyph glyph-name="two.tnum" horiz-adv-x="650" 
d="M600 124v-124h-550v367l408 50v159h-402v124h436l108 -108v-275l-408 -50v-143h408z" />
    <glyph glyph-name="three.tnum" horiz-adv-x="650" 
d="M498 0h-468v120h432v180h-372v116h352v164h-402v120h438l108 -108v-175l-65 -51l85 -68v-190z" />
    <glyph glyph-name="four.tnum" horiz-adv-x="650" 
d="M42 180l28 520h140l-26 -392h272v392h142v-700h-142v180h-414z" />
    <glyph glyph-name="five.tnum" horiz-adv-x="650" 
d="M598 576h-404v-143l404 -32v-293l-108 -108h-432v124h398v173l-404 32v371h546v-124z" />
    <glyph glyph-name="six.tnum" horiz-adv-x="650" 
d="M145 0l-104 104v492l104 104h408v-124h-370v-132h336l72 -72v-268l-104 -104h-342zM183 120h266v220h-266v-220z" />
    <glyph glyph-name="seven.tnum" horiz-adv-x="650" 
d="M106 0l366 460v120h-298v-144h-138v264h578v-262l-332 -438h-176z" />
    <glyph glyph-name="eight.tnum" horiz-adv-x="650" 
d="M142 0l-108 108v190l85 68l-65 51v175l108 108h326l108 -108v-175l-65 -51l85 -68v-190l-108 -108h-366zM200 413h250v171h-250v-171zM184 116h288v193h-288v-193z" />
    <glyph glyph-name="nine.tnum" horiz-adv-x="650" 
d="M505 700l104 -104v-492l-104 -104h-408v124h370v132h-336l-72 72v268l104 104h342zM467 580h-266v-220h266v220z" />
    <glyph glyph-name="uni2070" unicode="&#x2070;" horiz-adv-x="492" 
d="M42 382v236l91 82h226l91 -82v-236l-91 -82h-226zM165 612v-224h162v224h-162z" />
    <glyph glyph-name="onesuperior" unicode="&#xb9;" horiz-adv-x="398" 
d="M44 299v78l97 6v212l-91 -7v79l213 33v-317l90 -6v-78l-154 7z" />
    <glyph glyph-name="twosuperior" unicode="&#xb2;" horiz-adv-x="482" 
d="M436 389v-89h-390v207l268 41v63h-262v89h293l91 -82v-137l-268 -42v-50h268z" />
    <glyph glyph-name="threesuperior" unicode="&#xb3;" horiz-adv-x="466" 
d="M363 300h-327v88h265v76h-222v81h208v67h-244v88h306l65 -58v-104l-47 -29l61 -39v-112z" />
    <glyph glyph-name="uni2074" unicode="&#x2074;" horiz-adv-x="482" 
d="M34 409l20 291h116l-19 -203h170v203h115v-400h-115v109h-287z" />
    <glyph glyph-name="uni2075" unicode="&#x2075;" horiz-adv-x="482" 
d="M433 612h-268v-59l271 -18v-173l-77 -62h-310v88h268v75l-271 18v219h387v-88z" />
    <glyph glyph-name="uni2076" unicode="&#x2076;" horiz-adv-x="494" 
d="M118 300l-74 60v280l74 60h304v-88h-259v-59h235l52 -41v-152l-75 -60h-257zM163 388h168v93h-168v-93z" />
    <glyph glyph-name="uni2077" unicode="&#x2077;" horiz-adv-x="448" 
d="M73 300l226 263v54h-165v-83h-105v166h390v-159l-195 -241h-151z" />
    <glyph glyph-name="uni2078" unicode="&#x2078;" horiz-adv-x="491" 
d="M103 300l-65 58v112l57 39l-43 29v104l65 58h257l65 -58v-104l-43 -29l57 -39v-112l-65 -58h-285zM169 542h153v76h-153v-76zM153 382h185v88h-185v-88z" />
    <glyph glyph-name="uni2079" unicode="&#x2079;" horiz-adv-x="494" 
d="M375 700l75 -60v-280l-75 -60h-304v88h260v59h-236l-51 41v152l74 60h257zM331 612h-168v-93h168v93z" />
    <glyph glyph-name="uni2080" unicode="&#x2080;" horiz-adv-x="492" 
d="M42 -18v236l91 82h226l91 -82v-236l-91 -82h-226zM165 212v-224h162v224h-162z" />
    <glyph glyph-name="uni2081" unicode="&#x2081;" horiz-adv-x="398" 
d="M44 -100v78l97 6v212l-91 -7v79l213 33v-317l90 -6v-78l-154 7z" />
    <glyph glyph-name="uni2082" unicode="&#x2082;" horiz-adv-x="482" 
d="M436 -11v-89h-390v207l268 41v63h-262v89h293l91 -82v-137l-268 -42v-50h268z" />
    <glyph glyph-name="uni2083" unicode="&#x2083;" horiz-adv-x="466" 
d="M363 -100h-327v88h265v76h-222v81h208v67h-244v88h306l65 -58v-104l-47 -29l61 -39v-112z" />
    <glyph glyph-name="uni2084" unicode="&#x2084;" horiz-adv-x="482" 
d="M34 9l20 291h116l-19 -203h170v203h115v-400h-115v109h-287z" />
    <glyph glyph-name="uni2085" unicode="&#x2085;" horiz-adv-x="482" 
d="M433 212h-268v-59l271 -18v-173l-77 -62h-310v88h268v75l-271 18v219h387v-88z" />
    <glyph glyph-name="uni2086" unicode="&#x2086;" horiz-adv-x="494" 
d="M118 -100l-74 60v280l74 60h304v-88h-259v-59h235l52 -41v-152l-75 -60h-257zM163 -12h168v93h-168v-93z" />
    <glyph glyph-name="uni2087" unicode="&#x2087;" horiz-adv-x="448" 
d="M73 -100l226 263v54h-165v-83h-105v166h390v-159l-195 -241h-151z" />
    <glyph glyph-name="uni2088" unicode="&#x2088;" horiz-adv-x="491" 
d="M103 -100l-65 58v112l57 39l-43 29v104l65 58h257l65 -58v-104l-43 -29l57 -39v-112l-65 -58h-285zM169 142h153v76h-153v-76zM153 -18h185v88h-185v-88z" />
    <glyph glyph-name="uni2089" unicode="&#x2089;" horiz-adv-x="494" 
d="M375 300l75 -60v-280l-75 -60h-304v88h260v59h-236l-51 41v152l74 60h257zM331 212h-168v-93h168v93z" />
    <glyph glyph-name="zero.zero" horiz-adv-x="650" 
d="M50 108v484l108 108h334l108 -108v-484l-108 -108h-334zM190 576v-289l270 214v75h-270zM190 124h270v289l-270 -214v-75z" />
    <glyph glyph-name="zero.tnum.zero" horiz-adv-x="650" 
d="M50 108v484l108 108h334l108 -108v-484l-108 -108h-334zM190 576v-289l270 214v75h-270zM190 124h270v289l-270 -214v-75z" />
    <glyph glyph-name="uni2070.zero" horiz-adv-x="492" 
d="M42 382v236l91 82h226l91 -82v-236l-91 -82h-226zM163 614v-137l166 99v38h-166zM163 386h166v137l-166 -99v-38z" />
    <glyph glyph-name="uni2080.zero" horiz-adv-x="492" 
d="M42 -18v236l91 82h226l91 -82v-236l-91 -82h-226zM163 214v-137l166 99v38h-166zM163 -14h166v137l-166 -99v-38z" />
    <glyph glyph-name="fraction" unicode="&#x2044;" horiz-adv-x="210" 
d="M-150 0l387 700h123l-387 -700h-123z" />
    <glyph glyph-name="onequarter" unicode="&#xbc;" horiz-adv-x="1090" 
d="M44 299v78l97 6v212l-91 -7v79l213 33v-317l90 -6v-78l-154 7zM248 0l387 700h123l-387 -700h-123zM642 109l20 291h116l-19 -203h170v203h115v-400h-115v109h-287z" />
    <glyph glyph-name="onehalf" unicode="&#xbd;" horiz-adv-x="1090" 
d="M44 299v78l97 6v212l-91 -7v79l213 33v-317l90 -6v-78l-154 7zM248 0l387 700h123l-387 -700h-123zM1044 89v-89h-390v207l268 41v63h-262v89h293l91 -82v-137l-268 -42v-50h268z" />
    <glyph glyph-name="threequarters" unicode="&#xbe;" horiz-adv-x="1158" 
d="M363 300h-327v88h265v76h-222v81h208v67h-244v88h306l65 -58v-104l-47 -29l61 -39v-112zM316 0l387 700h123l-387 -700h-123zM710 109l20 291h116l-19 -203h170v203h115v-400h-115v109h-287z" />
    <glyph glyph-name="percent" unicode="%" 
d="M22 0l415 700h141l-415 -700h-141zM40 548v152h134v-152h-134zM426 0v152h134v-152h-134z" />
    <glyph glyph-name="perthousand" unicode="&#x2030;" horiz-adv-x="748" 
d="M22 0l415 700h141l-415 -700h-141zM40 548v152h134v-152h-134zM372 0v152h134v-152h-134zM592 0v152h134v-152h-134z" />
    <glyph glyph-name="minute" unicode="&#x2032;" horiz-adv-x="216" 
d="M45 452v248h136l-40 -248h-96z" />
    <glyph glyph-name="second" unicode="&#x2033;" horiz-adv-x="394" 
d="M45 452v248h136l-40 -248h-96zM223 452v248h136l-40 -248h-96z" />
    <glyph glyph-name="plus" unicode="+" 
d="M40 258v124h194v198h132v-198h194v-124h-194v-198h-132v198h-194z" />
    <glyph glyph-name="minus" unicode="&#x2212;" 
d="M40 258v124h520v-124h-520z" />
    <glyph glyph-name="multiply" unicode="&#xd7;" 
d="M50 157l163 163l-163 163l87 87l163 -163l163 163l87 -87l-163 -163l163 -163l-87 -87l-163 163l-163 -163z" />
    <glyph glyph-name="divide" unicode="&#xf7;" 
d="M233 458v128h134v-128h-134zM40 258v124h520v-124h-520zM233 54v128h134v-128h-134z" />
    <glyph glyph-name="equal" unicode="=" 
d="M40 371v116h520v-116h-520zM40 153v116h520v-116h-520z" />
    <glyph glyph-name="less" unicode="&#x3c;" 
d="M30 215v130l530 215v-132l-379 -148l379 -148v-132z" />
    <glyph glyph-name="greater" unicode="&#x3e;" 
d="M570 345v-130l-530 -215v132l379 148l-379 148v132z" />
    <glyph glyph-name="lessequal" unicode="&#x2264;" 
d="M30 345v130l530 181v-132l-379 -114l379 -114v-132zM40 0v112h520v-112h-520z" />
    <glyph glyph-name="greaterequal" unicode="&#x2265;" 
d="M570 345v130l-530 181v-132l379 -114l-379 -114v-132zM560 0v112h-520v-112h520z" />
    <glyph glyph-name="plusminus" unicode="&#xb1;" 
d="M40 362v116h194v190h132v-190h194v-116h-194v-190h-132v190h-194zM40 0v116h520v-116h-520z" />
    <glyph glyph-name="notequal" unicode="&#x2260;" 
d="M134 0l51 153h-145v122h186l31 90h-217v122h258l51 153h117l-51 -153h145v-122h-186l-31 -90h217v-122h-258l-51 -153h-117z" />
    <glyph glyph-name="approxequal" unicode="&#x2248;" 
d="M40 332l-20 107l130 117l290 -119l120 95l20 -107l-138 -117l-282 119zM40 120l-20 107l138 117l282 -119l120 95l20 -107l-130 -117l-290 119z" />
    <glyph glyph-name="uni2215" unicode="&#x2215;" 
d="M30 0l387 700h153l-387 -700h-153z" />
    <glyph glyph-name="uni2219" unicode="&#x2219;" horiz-adv-x="340" 
d="M103 258v136h134v-136h-134z" />
    <glyph glyph-name="uni2052" unicode="&#x2052;" 
d="M22 0l415 700h141l-415 -700h-141zM40 548v152h134v-152h-134zM426 0v152h134v-152h-134z" />
    <glyph glyph-name="logicalnot" unicode="&#xac;" 
d="M40 253v134h520v-304h-134v170h-386z" />
    <glyph glyph-name="uni00B5" unicode="&#xb5;" horiz-adv-x="620" 
d="M568 560v-560h-374v-160h-142v720h142v-436h232v436h142z" />
    <glyph glyph-name="radical" unicode="&#x221a;" horiz-adv-x="725" 
d="M250 0l-84 436h-126v124h252l69 -440h53l145 580h152l-179 -700h-282z" />
    <glyph glyph-name="infinity" unicode="&#x221e;" horiz-adv-x="872" 
d="M827 174l-108 -108h-219l-81 81l-61 -61h-205l-108 108v312l108 108h205l61 -61l81 81h219l108 -108v-352zM693 194v318h-203v-318h203zM358 210v280h-179v-280h179z" />
    <glyph glyph-name="integral" unicode="&#x222b;" horiz-adv-x="400" 
d="M0 -140v124h178l-126 610l106 106h214v-124h-178l126 -610l-106 -106h-214z" />
    <glyph glyph-name="partialdiff" unicode="&#x2202;" horiz-adv-x="650" 
d="M496 0h-342l-104 104v268l72 72h336v132h-370v124h408l104 -104v-492zM458 120v220h-266v-220h266z" />
    <glyph glyph-name="lozenge" unicode="&#x25ca;" horiz-adv-x="640" 
d="M235 -140l-230 460l230 460h170l230 -460l-230 -460h-170zM307 -20h28l160 340l-162 340h-28l-160 -340z" />
    <glyph glyph-name="product" unicode="&#x220f;" horiz-adv-x="658" 
d="M52 -140v840h554v-840h-142v716h-270v-716h-142z" />
    <glyph glyph-name="summation" unicode="&#x2211;" horiz-adv-x="582" 
d="M38 -140v106l232 316l-227 312v106h496v-120h-320l208 -298l-219 -302h336v-120h-506z" />
    <glyph glyph-name="uni2116" unicode="&#x2116;" horiz-adv-x="1188" 
d="M52 0v700h149l293 -495v495h134v-700h-149l-293 495v-495h-134zM725 198v254l98 98h222l98 -98v-254l-98 -98h-222zM855 208h158v234h-158v-234z" />
    <glyph glyph-name="currency" unicode="&#xa4;" horiz-adv-x="646" 
d="M114 252v196l51 51l-135 201h159l88 -160h92l88 160h159l-135 -201l51 -51v-196l-51 -51l135 -201h-159l-88 160h-92l-88 -160h-159l135 201zM248 258h150v184h-150v-184z" />
    <glyph glyph-name="dollar" unicode="$" horiz-adv-x="660" 
d="M57 42v116h411v139l-418 13v238l110 110h117v102h138v-102h179v-116h-402v-129l418 -13v-250l-108 -108h-113v-102h-138v102h-194z" />
    <glyph glyph-name="cent" unicode="&#xa2;" horiz-adv-x="535" 
d="M45 176v348l106 106h98v110h118v-110h142v-128h-322v-304h322v-128h-142v-110h-118v110h-98z" />
    <glyph glyph-name="sterling" unicode="&#xa3;" horiz-adv-x="646" 
d="M476 280h-166v-160h310v-120h-590v120h138v160h-98v116h98v224l80 80h342v-212h-116v96h-164v-188h166v-116z" />
    <glyph glyph-name="Euro" unicode="&#x20ac;" horiz-adv-x="634" 
d="M100 108v135h-84v80h84v64h-84v80h84v125l108 108h388v-120h-346v-113h294l-30 -80h-264v-64h242l-30 -80h-212v-123h356v-120h-398z" />
    <glyph glyph-name="yen" unicode="&#xa5;" horiz-adv-x="640" 
d="M249 0v103h-213v95h213v63h-213v95h111l-130 344h151l116 -344h72l116 344h151l-130 -344h111v-95h-213v-63h213v-95h-213v-103h-142z" />
    <glyph glyph-name="franc" unicode="&#x20a3;" horiz-adv-x="562" 
d="M52 0v112h-42v76h42v512h480v-128h-338v-190h318v-124h-318v-70h196v-76h-196v-112h-142z" />
    <glyph glyph-name="uni20BD" unicode="&#x20bd;" horiz-adv-x="640" 
d="M608 592v-278l-108 -108h-274v-54h232v-76h-232v-76h-142v76h-74v76h74v54h-74v110h74v384h416zM226 316h240v268h-240v-268z" />
    <glyph glyph-name="uni20BF" unicode="&#x20bf;" horiz-adv-x="644" 
d="M52 42v616h132v102h85v-102h76v102h85v-102h70l92 -92v-147l-55 -47l75 -64v-174l-92 -92h-90v-102h-85v102h-76v-102h-85v102h-132zM194 413h254v131h-254v-131zM194 156h272v153h-272v-153z" />
    <glyph glyph-name="uni20AE" unicode="&#x20ae;" horiz-adv-x="560" 
d="M72 118v98l137 27v82l-137 -27v98l137 27v157h-189v120h520v-120h-189v-129l137 27v-98l-137 -27v-82l137 27v-98l-137 -27v-173h-142v145z" />
    <glyph glyph-name="uni20B4" unicode="&#x20b4;" horiz-adv-x="640" 
d="M48 318h176l55 64h-231v74h294l103 120h-385v124h416l114 -114l-111 -130h113v-74h-176l-55 -64h231v-74h-294l-103 -120h385v-124h-416l-114 114l111 130h-113v74z" />
    <glyph glyph-name="uni20B8" unicode="&#x20b8;" horiz-adv-x="560" 
d="M20 593v107h520v-107h-520zM209 0v415h-189v107h520v-107h-189v-415h-142z" />
    <glyph glyph-name="uni058F" unicode="&#x58f;" horiz-adv-x="620" 
d="M570 0h-142v102h-308v96h308v62h-308v96h308v216h-236v-158h-142v178l108 108h304l108 -108v-592z" />
    <glyph glyph-name="acute" unicode="&#xb4;" horiz-adv-x="400" 
d="M40 624v76l320 27v-103h-320z" />
    <glyph glyph-name="circumflex" unicode="&#x2c6;" horiz-adv-x="460" 
d="M40 605v96l190 66l190 -66v-96l-190 66z" />
    <glyph glyph-name="caron" unicode="&#x2c7;" horiz-adv-x="460" 
d="M420 767v-96l-190 -66l-190 66v96l190 -66z" />
    <glyph glyph-name="breve" unicode="&#x2d8;" horiz-adv-x="496" 
d="M333 746h123l-82 -132h-252l-82 132h123l20 -57h130z" />
    <glyph glyph-name="tilde" unicode="&#x2dc;" horiz-adv-x="500" 
d="M60 600l-20 85l100 66l204 -52l96 51l20 -85l-100 -66l-204 52z" />
    <glyph glyph-name="dieresis" unicode="&#xa8;" horiz-adv-x="450" 
d="M40 618v100h134v-100h-134zM276 618v100h134v-100h-134z" />
    <glyph glyph-name="dotaccent" unicode="&#x2d9;" horiz-adv-x="222" 
d="M40 618v100h142v-100h-142z" />
    <glyph glyph-name="ring" unicode="&#x2da;" horiz-adv-x="352" 
d="M40 641v98l67 55h138l67 -55v-98l-67 -55h-138zM118 656h116v68h-116v-68z" />
    <glyph glyph-name="macron" unicode="&#xaf;" horiz-adv-x="420" 
d="M40 632v98h340v-98h-340z" />
    <glyph glyph-name="hungarumlaut" unicode="&#x2dd;" horiz-adv-x="417" 
d="M40 602l40 128h124l-71 -128h-93zM193 602l60 128h124l-88 -128h-96z" />
    <glyph glyph-name="cedilla" unicode="&#xb8;" horiz-adv-x="261" 
d="M40 -200l47 144h134l-77 -144h-104z" />
    <glyph glyph-name="ogonek" unicode="&#x2db;" horiz-adv-x="254" 
d="M214 -52l-40 -148h-134l70 148h104z" />
    <glyph glyph-name="uni02B9" unicode="&#x2b9;" horiz-adv-x="216" 
d="M45 452v248h136l-40 -248h-96z" />
    <glyph glyph-name="uni02BA" unicode="&#x2ba;" horiz-adv-x="394" 
d="M45 452v248h136l-40 -248h-96zM223 452v248h136l-40 -248h-96z" />
    <glyph glyph-name="uni02BB" unicode="&#x2bb;" horiz-adv-x="262" 
d="M188 560v-140h-136v140l94 140h93l-95 -140h44z" />
    <glyph glyph-name="uni02BC" unicode="&#x2bc;" horiz-adv-x="262" 
d="M74 560v140h136v-140l-94 -140h-93l95 140h-44z" />
    <glyph glyph-name="gravecomb" unicode="&#x300;" horiz-adv-x="0" 
d="M130 624h-320v103l320 -27v-76z" />
    <glyph glyph-name="acutecomb" unicode="&#x301;" horiz-adv-x="0" 
d="M-130 624v76l320 27v-103h-320z" />
    <glyph glyph-name="uni0302" unicode="&#x302;" horiz-adv-x="0" 
d="M-190 605v96l190 66l190 -66v-96l-190 66z" />
    <glyph glyph-name="uni030C" unicode="&#x30c;" horiz-adv-x="0" 
d="M190 767v-96l-190 -66l-190 66v96l190 -66z" />
    <glyph glyph-name="uni0311" unicode="&#x311;" horiz-adv-x="0" 
d="M-85 606h-123l82 132h252l82 -132h-123l-20 57h-130z" />
    <glyph glyph-name="uni0306" unicode="&#x306;" horiz-adv-x="0" 
d="M85 746h123l-82 -132h-252l-82 132h123l20 -57h130z" />
    <glyph glyph-name="tildecomb" unicode="&#x303;" horiz-adv-x="0" 
d="M-190 600l-20 85l100 66l204 -52l96 51l20 -85l-100 -66l-204 52z" />
    <glyph glyph-name="uni0308" unicode="&#x308;" horiz-adv-x="0" 
d="M-185 618v100h134v-100h-134zM51 618v100h134v-100h-134z" />
    <glyph glyph-name="uni0307" unicode="&#x307;" horiz-adv-x="0" 
d="M-71 618v100h142v-100h-142z" />
    <glyph glyph-name="uni030A" unicode="&#x30a;" horiz-adv-x="0" 
d="M-136 641v98l67 55h138l67 -55v-98l-67 -55h-138zM-58 656h116v68h-116v-68z" />
    <glyph glyph-name="uni030B" unicode="&#x30b;" horiz-adv-x="0" 
d="M-134 602l40 128h124l-71 -128h-93zM19 602l60 128h124l-88 -128h-96z" />
    <glyph glyph-name="uni030F" unicode="&#x30f;" horiz-adv-x="0" 
d="M94 730l40 -128h-93l-71 128h124zM-79 730l60 -128h-96l-88 128h124z" />
    <glyph glyph-name="uni0304" unicode="&#x304;" horiz-adv-x="0" 
d="M-170 632v98h340v-98h-340z" />
    <glyph glyph-name="uni0312" unicode="&#x312;" horiz-adv-x="0" 
d="M96 756l-47 -144h-134l77 144h104z" />
    <glyph glyph-name="hookabovecomb" unicode="&#x309;" horiz-adv-x="0" 
d="M-94 666v64h200v-64l-70 -76h-95l70 76h-105z" />
    <glyph glyph-name="uni031B" unicode="&#x31b;" horiz-adv-x="0" 
d="M-78 700v80h114v-104l-88 -88h-113v112h87z" />
    <glyph glyph-name="uni0315" unicode="&#x315;" horiz-adv-x="60" 
d="M0 472v228h60v-228h-60z" />
    <glyph glyph-name="uni0326" unicode="&#x326;" horiz-adv-x="0" 
d="M-99 -200l47 144h134l-77 -144h-104z" />
    <glyph glyph-name="uni0327" unicode="&#x327;" horiz-adv-x="0" 
d="M-99 -200l47 144h134l-77 -144h-104z" />
    <glyph glyph-name="uni0328" unicode="&#x328;" horiz-adv-x="0" 
d="M68 -52l-40 -148h-134l70 148h104z" />
    <glyph glyph-name="dotbelowcomb" unicode="&#x323;" horiz-adv-x="0" 
d="M-71 -172v100h142v-100h-142z" />
    <glyph glyph-name="uni0329" unicode="&#x329;" horiz-adv-x="0" 
d="M-59 -220v160h118v-160h-118z" />
    <glyph glyph-name="uni0331" unicode="&#x331;" horiz-adv-x="0" 
d="M-170 -170v98h340v-98h-340z" />
    <glyph glyph-name="gravecomb.i" horiz-adv-x="0" 
d="M80 602l-196 22v103l196 -48v-77z" />
    <glyph glyph-name="acutecomb.i" horiz-adv-x="0" 
d="M-80 602v77l196 48v-103z" />
    <glyph glyph-name="uni0308.i" horiz-adv-x="0" 
d="M-139 618v100h110v-100h-110zM29 618v100h110v-100h-110z" />
    <glyph glyph-name="periodcentered.loclCAT" horiz-adv-x="90" 
d="M-3 290v134h96v-134h-96z" />
    <glyph glyph-name="periodcentered.loclCAT.cap" horiz-adv-x="0" 
d="M-235 380v134h130v-134h-130z" />
    <glyph glyph-name="uni0302_acutecomb" horiz-adv-x="0" 
d="M38 762v55l164 43v-81zM-190 597v96l190 64l190 -64v-96l-190 64z" />
    <glyph glyph-name="uni0302_gravecomb" horiz-adv-x="0" 
d="M198 753l-164 27v80l164 -49v-58zM-190 597v96l190 66l190 -66v-96l-190 66z" />
    <glyph glyph-name="uni0302_hookabovecomb" horiz-adv-x="0" 
d="M87 802v58h108l48 -50l-65 -77l-64 21l44 48h-71zM-190 597v96l190 66l190 -66v-96l-190 66z" />
    <glyph glyph-name="uni0302_tildecomb" horiz-adv-x="0" 
d="M-148 748l-20 58l94 54l142 -38l80 38l20 -58l-94 -54l-142 38zM-190 590v89l190 58l190 -58v-89l-190 55z" />
    <glyph glyph-name="uni0306_acutecomb" horiz-adv-x="0" 
d="M-26 760v57l164 43v-81zM87 746h121l-82 -132h-252l-82 132h121l20 -57h134z" />
    <glyph glyph-name="uni0306_gravecomb" horiz-adv-x="0" 
d="M26 753l-164 27v80l164 -49v-58zM87 746h121l-82 -132h-252l-82 132h121l20 -57h134z" />
    <glyph glyph-name="uni0306_hookabovecomb" horiz-adv-x="0" 
d="M-61 802v58h108l48 -50l-65 -77l-64 21l44 48h-71zM87 746h121l-82 -132h-252l-82 132h121l20 -57h134z" />
    <glyph glyph-name="uni0306_tildecomb" horiz-adv-x="0" 
d="M-136 752l-20 58l82 50l142 -38l68 38l20 -58l-82 -54l-142 38zM91 735h120l-82 -124h-258l-82 124h120l20 -49h142z" />
    <glyph glyph-name="uni030C.stack" horiz-adv-x="0" 
d="M190 730v-81l-190 -66l-190 66v81l190 -66z" />
    <glyph glyph-name="uni0308.stack" horiz-adv-x="0" 
d="M-185 606v84h134v-84h-134zM51 606v84h134v-84h-134z" />
    <glyph glyph-name="uni0304.stack" horiz-adv-x="0" 
d="M-170 602v66h340v-66h-340z" />
    <glyph glyph-name="uni030A_acutecomb" horiz-adv-x="0" 
d="M159 744l-35 26l22 70h99zM-136 641v98l67 55h138l67 -55v-98l-67 -55h-138zM-58 656h116v68h-116v-68z" />
    <glyph glyph-name="arrowleft" unicode="&#x2190;" horiz-adv-x="840" 
d="M20 269v22l248 269h164l-214 -218h602v-124h-602l214 -218h-164z" />
    <glyph glyph-name="arrowup" unicode="&#x2191;" 
d="M289 750h22l269 -248v-164l-218 214v-602h-124v602l-218 -214v164z" />
    <glyph glyph-name="arrowright" unicode="&#x2192;" horiz-adv-x="840" 
d="M820 291v-22l-248 -269h-164l214 218h-602v124h602l-214 218h164z" />
    <glyph glyph-name="arrowdown" unicode="&#x2193;" 
d="M289 -50l-269 248v164l218 -214v602h124v-602l218 214v-164l-269 -248h-22z" />
    <glyph glyph-name="arrowboth" unicode="&#x2194;" horiz-adv-x="1100" 
d="M20 291l248 269h164l-214 -218h664l-214 218h164l248 -269v-22l-248 -269h-164l214 218h-664l214 -218h-164l-248 269v22z" />
    <glyph glyph-name="arrowupdn" unicode="&#x2195;" 
d="M20 62v164l218 -214v664l-218 -214v164l269 248h22l269 -248v-164l-218 214v-664l218 214v-164l-269 -248h-22z" />
    <glyph glyph-name="uni2196" unicode="&#x2196;" horiz-adv-x="732" 
d="M68 559l16 15l365 15l116 -115l-305 -3l425 -426l-87 -88l-427 426l-2 -305l-116 115z" />
    <glyph glyph-name="uni2197" unicode="&#x2197;" horiz-adv-x="732" 
d="M649 574l15 -15l15 -366l-116 -115l-2 305l-427 -426l-87 88l426 426l-306 3l116 115z" />
    <glyph glyph-name="uni2198" unicode="&#x2198;" horiz-adv-x="732" 
d="M649 -5l-366 -16l-116 116l306 3l-426 426l87 87l427 -426l2 306l116 -116l-15 -365z" />
    <glyph glyph-name="uni2199" unicode="&#x2199;" horiz-adv-x="732" 
d="M68 10l-15 365l116 116l2 -306l427 426l87 -87l-425 -426l305 -3l-116 -116l-365 16z" />
    <glyph glyph-name="fi" unicode="&#xfb01;" horiz-adv-x="672" 
d="M52 0v594l106 106h248v-124h-212v-146h212v-120h-212v-310h-142zM478 618v100h142v-100h-142zM478 0v560h142v-560h-142z" />
    <glyph glyph-name="fl" unicode="&#xfb02;" horiz-adv-x="672" 
d="M52 0v594l106 106h248v-124h-212v-146h212v-120h-212v-310h-142zM478 0v700h142v-700h-142z" />
    <glyph glyph-name="f_f" unicode="&#xfb00;" horiz-adv-x="852" 
d="M52 0v594l106 106h248v-124h-212v-146h212v-120h-212v-310h-142zM478 0v594l106 106h248v-124h-212v-146h212v-120h-212v-310h-142z" />
    <glyph glyph-name="f_f_i" unicode="&#xfb03;" horiz-adv-x="1098" 
d="M52 0v594l106 106h248v-124h-212v-146h212v-120h-212v-310h-142zM478 0v594l106 106h248v-124h-212v-146h212v-120h-212v-310h-142zM904 618v100h142v-100h-142zM904 0v560h142v-560h-142z" />
    <glyph glyph-name="f_f_l" unicode="&#xfb04;" horiz-adv-x="1098" 
d="M52 0v594l106 106h248v-124h-212v-146h212v-120h-212v-310h-142zM478 0v594l106 106h248v-124h-212v-146h212v-120h-212v-310h-142zM904 0v700h142v-700h-142z" />
    <glyph glyph-name="Alpha" unicode="&#x391;" horiz-adv-x="654" 
d="M14 0l163 700h300l163 -700h-149l-35 160h-258l-35 -160h-149zM219 267h216l-70 318h-76z" />
    <glyph glyph-name="Beta" unicode="&#x392;" horiz-adv-x="648" 
d="M596 596v-177l-55 -47l75 -64v-204l-104 -104h-460v700h440zM194 413h258v171h-258v-171zM194 116h276v193h-276v-193z" />
    <glyph glyph-name="Gamma" unicode="&#x393;" horiz-adv-x="510" 
d="M52 0v700h448v-128h-306v-572h-142z" />
    <glyph glyph-name="uni0394" unicode="&#x394;" horiz-adv-x="688" 
d="M493 700l184 -700h-666l184 700h298zM305 580l-112 -460h302l-112 460h-78z" />
    <glyph glyph-name="Epsilon" unicode="&#x395;" horiz-adv-x="580" 
d="M52 0v700h488v-120h-346v-164h296v-116h-296v-180h356v-120h-498z" />
    <glyph glyph-name="Zeta" unicode="&#x396;" horiz-adv-x="562" 
d="M38 0v106l323 474h-321v120h482v-106l-323 -474h325v-120h-486z" />
    <glyph glyph-name="Eta" unicode="&#x397;" horiz-adv-x="662" 
d="M52 0v700h142v-276h274v276h142v-700h-142v296h-274v-296h-142z" />
    <glyph glyph-name="Theta" unicode="&#x398;" horiz-adv-x="650" 
d="M50 108v484l108 108h334l108 -108v-484l-108 -108h-334zM192 580v-178h266v178h-266zM192 120h266v178h-266v-178z" />
    <glyph glyph-name="Iota" unicode="&#x399;" horiz-adv-x="430" 
d="M45 -4v114l99 5v470l-99 5v114l170 -8l170 8v-114l-99 -5v-470l99 -5v-114l-170 8z" />
    <glyph glyph-name="Kappa" unicode="&#x39a;" horiz-adv-x="646" 
d="M52 0v700h142v-283h121l153 283h159l-186 -330l201 -370h-159l-157 293h-132v-293h-142z" />
    <glyph glyph-name="Lambda" unicode="&#x39b;" horiz-adv-x="646" 
d="M473 700l159 -700h-150l-121 572h-76l-121 -572h-150l159 700h300z" />
    <glyph glyph-name="Mu" unicode="&#x39c;" horiz-adv-x="780" 
d="M52 0v700h172l166 -324l166 324h172v-700h-139v521l-165 -317h-68l-165 317v-521h-139z" />
    <glyph glyph-name="Nu" unicode="&#x39d;" horiz-adv-x="680" 
d="M52 0v700h149l293 -495v495h134v-700h-149l-293 495v-495h-134z" />
    <glyph glyph-name="Xi" unicode="&#x39e;" horiz-adv-x="660" 
d="M30 0v120h230v180h-170v116h170v164h-220v120h580v-120h-220v-164h170v-116h-170v-180h230v-120h-600z" />
    <glyph glyph-name="Omicron" unicode="&#x39f;" horiz-adv-x="680" 
d="M50 108v484l108 108h364l108 -108v-484l-108 -108h-364zM196 576v-452h288v452h-288z" />
    <glyph glyph-name="Pi" unicode="&#x3a0;" horiz-adv-x="650" 
d="M52 0v700h546v-700h-142v576h-262v-576h-142z" />
    <glyph glyph-name="Rho" unicode="&#x3a1;" horiz-adv-x="624" 
d="M592 592v-334l-108 -108h-290v-150h-142v700h432zM194 266h256v318h-256v-318z" />
    <glyph glyph-name="Sigma" unicode="&#x3a3;" horiz-adv-x="562" 
d="M38 0v106l232 244l-227 244v106h476v-120h-297l208 -230l-219 -230h313v-120h-486z" />
    <glyph glyph-name="Tau" unicode="&#x3a4;" horiz-adv-x="568" 
d="M213 0v576h-193v124h528v-124h-193v-576h-142z" />
    <glyph glyph-name="Upsilon" unicode="&#x3a5;" horiz-adv-x="640" 
d="M249 0v210h-86l-146 490h151l100 -367h104l100 367h151l-146 -490h-86v-210h-142z" />
    <glyph glyph-name="Phi" unicode="&#x3a6;" horiz-adv-x="828" 
d="M50 170v360l104 104h193v66h134v-66h193l104 -104v-360l-104 -104h-193v-66h-134v66h-193zM188 518v-336h159v336h-159zM640 518h-159v-336h159v336z" />
    <glyph glyph-name="Chi" unicode="&#x3a7;" horiz-adv-x="660" 
d="M12 0l164 370l-149 330h153l114 -276h72l114 276h153l-149 -330l164 -370h-154l-120 296h-88l-120 -296h-154z" />
    <glyph glyph-name="Psi" unicode="&#x3a8;" horiz-adv-x="828" 
d="M158 172l-108 108v420h138v-412h159v412h134v-412h159v412h138v-420l-108 -108h-189v-172h-134v172h-189z" />
    <glyph glyph-name="uni03A9" unicode="&#x3a9;" horiz-adv-x="658" 
d="M22 0v128h114l-90 90v374l108 108h350l108 -108v-374l-90 -90h114v-128h-254v128l84 84v360h-274v-360l84 -84v-128h-254z" />
    <glyph glyph-name="uni03A9" unicode="&#x2126;" horiz-adv-x="658" 
d="M22 0v128h114l-90 90v374l108 108h350l108 -108v-374l-90 -90h114v-128h-254v128l84 84v360h-274v-360l84 -84v-128h-254z" />
    <glyph glyph-name="Alphatonos" unicode="&#x386;" horiz-adv-x="870" 
d="M45 452v248h136l-40 -248h-96zM142 0l163 700h300l163 -700h-149l-35 160h-258l-35 -160h-149zM347 267h216l-70 318h-76z" />
    <glyph glyph-name="Epsilontonos" unicode="&#x388;" horiz-adv-x="796" 
d="M45 452v248h136l-40 -248h-96zM268 0v700h488v-120h-346v-164h296v-116h-296v-180h356v-120h-498z" />
    <glyph glyph-name="Etatonos" unicode="&#x389;" horiz-adv-x="878" 
d="M45 452v248h136l-40 -248h-96zM268 0v700h142v-276h274v276h142v-700h-142v296h-274v-296h-142z" />
    <glyph glyph-name="Iotatonos" unicode="&#x38a;" horiz-adv-x="646" 
d="M45 452v248h136l-40 -248h-96zM261 -4v114l99 5v470l-99 5v114l170 -8l170 8v-114l-99 -5v-470l99 -5v-114l-170 8z" />
    <glyph glyph-name="Iotadieresis" unicode="&#x3aa;" horiz-adv-x="430" 
d="M45 -4v114l99 5v470l-99 5v114l170 -8l170 8v-114l-99 -5v-470l99 -5v-114l-170 8zM30 758v100h134v-100h-134zM266 758v100h134v-100h-134z" />
    <glyph glyph-name="Omicrontonos" unicode="&#x38c;" horiz-adv-x="896" 
d="M45 452v248h136l-40 -248h-96zM236 108v484l108 108h364l108 -108v-484l-108 -108h-364zM382 576v-452h288v452h-288z" />
    <glyph glyph-name="Upsilontonos" unicode="&#x38e;" horiz-adv-x="856" 
d="M45 452v248h136l-40 -248h-96zM465 0v210h-86l-146 490h151l100 -367h104l100 367h151l-146 -490h-86v-210h-142z" />
    <glyph glyph-name="Upsilondieresis" unicode="&#x3ab;" horiz-adv-x="640" 
d="M249 0v210h-86l-146 490h151l100 -367h104l100 367h151l-146 -490h-86v-210h-142zM135 758v100h134v-100h-134zM371 758v100h134v-100h-134z" />
    <glyph glyph-name="Omegatonos" unicode="&#x38f;" horiz-adv-x="874" 
d="M45 452v248h136l-40 -248h-96zM208 0v128h114l-90 90v374l108 108h350l108 -108v-374l-90 -90h114v-128h-254v128l84 84v360h-274v-360l84 -84v-128h-254z" />
    <glyph glyph-name="alpha" unicode="&#x3b1;" horiz-adv-x="622" 
d="M140 0l-92 92v376l92 92h222l65 -77l8 77h144l-31 -280l31 -280h-144l-8 77l-65 -77h-222zM190 118h237v324h-237v-324z" />
    <glyph glyph-name="beta" unicode="&#x3b2;" horiz-adv-x="630" 
d="M575 586v-151l-62 -57l85 -68v-204l-106 -106h-298v-100h-142v686l114 114h295zM435 584h-241v-468h262v199h-186v104h165v165z" />
    <glyph glyph-name="gamma" unicode="&#x3b3;" horiz-adv-x="580" 
d="M215 -9l-206 569h144l130 -414h16l130 414h142l-206 -569v-131h-150v131z" />
    <glyph glyph-name="delta" unicode="&#x3b4;" horiz-adv-x="636" 
d="M158 0l-110 110v350l181 67l-126 63v110h450v-104h-286l321 -126v-360l-110 -110h-320zM190 120h256v298l-121 61l-135 -68v-291z" />
    <glyph glyph-name="epsilon" unicode="&#x3b5;" horiz-adv-x="586" 
d="M130 0l-92 92v138l81 64l-61 47v131l88 88h394v-112h-336v-114h300v-100h-320v-122h366v-112h-420z" />
    <glyph glyph-name="zeta" unicode="&#x3b6;" horiz-adv-x="528" 
d="M145 0l-100 100v298l288 188h-288v114h447v-112l-305 -220v-241h324v-271h-124v144h-242z" />
    <glyph glyph-name="eta" unicode="&#x3b7;" horiz-adv-x="620" 
d="M52 0v560h406l110 -110v-450h-142v436h-232v-436h-142z" />
    <glyph glyph-name="theta" unicode="&#x3b8;" horiz-adv-x="624" 
d="M50 108v484l108 108h308l108 -108v-484l-108 -108h-308zM188 584v-182h248v182h-248zM188 116h248v182h-248v-182z" />
    <glyph glyph-name="iota" unicode="&#x3b9;" horiz-adv-x="322" 
d="M58 560h142v-435h102v-125h-152l-92 92v468z" />
    <glyph glyph-name="kappa" unicode="&#x3ba;" horiz-adv-x="626" 
d="M58 0v560h142v-209h132l120 209h161l-160 -258l167 -302h-160l-118 231h-142v-231h-142z" />
    <glyph glyph-name="lambda" unicode="&#x3bb;" 
d="M128 700h266l197 -700h-143l-98 368h-96l-101 -368h-144l141 480h174l-32 108h-164v112z" />
    <glyph glyph-name="uni03BC" unicode="&#x3bc;" horiz-adv-x="690" 
d="M58 -160v720h138v-436h230v436h142v-435h102v-125h-161l-61 61l-61 -61h-191v-160h-138z" />
    <glyph glyph-name="nu" unicode="&#x3bd;" horiz-adv-x="580" 
d="M157 0l-148 560h144l107 -440h61l108 440h142l-148 -560h-266z" />
    <glyph glyph-name="xi" unicode="&#x3be;" horiz-adv-x="540" 
d="M126 0l-88 88v214l81 64l-61 47v199l88 88h359v-119h-309v-170h295v-115h-313v-177h332v-263h-134v144h-250z" />
    <glyph glyph-name="omicron" unicode="&#x3bf;" horiz-adv-x="606" 
d="M48 106v348l106 106h298l106 -106v-348l-106 -106h-298zM190 116h226v328h-226v-328z" />
    <glyph glyph-name="pi" unicode="&#x3c0;" horiz-adv-x="626" 
d="M55 0v560h516v-560h-142v436h-232v-436h-142z" />
    <glyph glyph-name="rho" unicode="&#x3c1;" horiz-adv-x="629" 
d="M58 -140v586l114 114h295l114 -114v-332l-114 -114h-267v-140h-142zM439 440h-239v-320h239v320z" />
    <glyph glyph-name="uni03C2" unicode="&#x3c2;" horiz-adv-x="538" 
d="M154 0l-106 106v348l106 106h358v-128h-322v-304h322v-272h-134v144h-224z" />
    <glyph glyph-name="sigma" unicode="&#x3c3;" horiz-adv-x="615" 
d="M48 106v348l106 106h438v-114h-120l86 -66v-274l-106 -106h-298zM190 116h226v328h-226v-328z" />
    <glyph glyph-name="tau" unicode="&#x3c4;" horiz-adv-x="520" 
d="M120 96v344h-100v86l34 34h440v-120h-232v-320h232v-120h-278z" />
    <glyph glyph-name="upsilon" unicode="&#x3c5;" horiz-adv-x="632" 
d="M574 560v-450l-110 -110h-296l-110 110v450h142v-436h232v436h142z" />
    <glyph glyph-name="phi" unicode="&#x3c6;" horiz-adv-x="808" 
d="M48 104v356l104 104h189v136h126v-136h189l104 -104v-356l-104 -104h-189v-140h-126v140h-189zM186 446v-328h155v328h-155zM622 446h-155v-328h155v328z" />
    <glyph glyph-name="chi" unicode="&#x3c7;" horiz-adv-x="630" 
d="M19 0l144 296l-133 264h159l92 -214h68l92 214h159l-133 -264l144 -296h-160l-94 226h-84l-94 -226h-160z" />
    <glyph glyph-name="psi" unicode="&#x3c8;" horiz-adv-x="820" 
d="M156 0l-104 104v456h138v-444h153v504h134v-504h153v444h138v-456l-104 -104h-187v-140h-134v140h-187z" />
    <glyph glyph-name="omega" unicode="&#x3c9;" horiz-adv-x="936" 
d="M539 484v-360h202v436h142v-450l-110 -110h-250l-55 75l-55 -75h-250l-110 110v450h142v-436h202v360h142z" />
    <glyph glyph-name="alphatonos" unicode="&#x3ac;" horiz-adv-x="622" 
d="M140 0l-92 92v376l92 92h222l65 -77l8 77h144l-31 -280l31 -280h-144l-8 77l-65 -77h-222zM190 118h237v324h-237v-324zM258 602v128h136l-40 -128h-96z" />
    <glyph glyph-name="epsilontonos" unicode="&#x3ad;" horiz-adv-x="586" 
d="M130 0l-92 92v138l81 64l-61 47v131l88 88h394v-112h-336v-114h300v-100h-320v-122h366v-112h-420zM284 602v128h136l-40 -128h-96z" />
    <glyph glyph-name="etatonos" unicode="&#x3ae;" horiz-adv-x="620" 
d="M52 0v560h406l110 -110v-450h-142v436h-232v-436h-142zM257 602v128h136l-40 -128h-96z" />
    <glyph glyph-name="iotatonos" unicode="&#x3af;" horiz-adv-x="322" 
d="M58 560h142v-435h102v-125h-152l-92 92v468zM76 602v128h136l-40 -128h-96z" />
    <glyph glyph-name="iotadieresis" unicode="&#x3ca;" horiz-adv-x="322" 
d="M58 560h142v-435h102v-125h-152l-92 92v468zM-56 618v100h134v-100h-134zM180 618v100h134v-100h-134z" />
    <glyph glyph-name="iotadieresistonos" unicode="&#x390;" horiz-adv-x="322" 
d="M58 560h142v-435h102v-125h-152l-92 92v468zM-56 618v100h134v-100h-134zM180 618v100h134v-100h-134zM76 760v128h136l-40 -128h-96z" />
    <glyph glyph-name="omicrontonos" unicode="&#x3cc;" horiz-adv-x="606" 
d="M48 106v348l106 106h298l106 -106v-348l-106 -106h-298zM190 116h226v328h-226v-328zM250 602v128h136l-40 -128h-96z" />
    <glyph glyph-name="upsilontonos" unicode="&#x3cd;" horiz-adv-x="632" 
d="M574 560v-450l-110 -110h-296l-110 110v450h142v-436h232v436h142zM263 602v128h136l-40 -128h-96z" />
    <glyph glyph-name="upsilondieresis" unicode="&#x3cb;" horiz-adv-x="632" 
d="M574 560v-450l-110 -110h-296l-110 110v450h142v-436h232v436h142zM131 618v100h134v-100h-134zM367 618v100h134v-100h-134z" />
    <glyph glyph-name="upsilondieresistonos" unicode="&#x3b0;" horiz-adv-x="632" 
d="M574 560v-450l-110 -110h-296l-110 110v450h142v-436h232v436h142zM131 618v100h134v-100h-134zM367 618v100h134v-100h-134zM263 760v128h136l-40 -128h-96z" />
    <glyph glyph-name="omegatonos" unicode="&#x3ce;" horiz-adv-x="936" 
d="M539 484v-360h202v436h142v-450l-110 -110h-250l-55 75l-55 -75h-250l-110 110v450h142v-436h202v360h142zM415 602v128h136l-40 -128h-96z" />
    <glyph glyph-name="uni03CF" unicode="&#x3cf;" horiz-adv-x="646" 
d="M52 0v700h142v-283h121l153 283h159l-186 -330l201 -370h-159l-157 293h-132v-293h-142zM587 -52l-40 -148h-134l70 148h104z" />
    <glyph glyph-name="uni03D7" unicode="&#x3d7;" horiz-adv-x="626" 
d="M58 0v560h142v-209h132l120 209h161l-160 -258l167 -302h-160l-118 231h-142v-231h-142zM573 -52l-40 -148h-134l70 148h104z" />
    <glyph glyph-name="Omicron_Upsilon" horiz-adv-x="652" 
d="M45 102v262l70 70l-96 266h151l71 -234h170l71 234h151l-96 -266l70 -70v-262l-102 -102h-358zM187 116h278v236h-278v-236z" />
    <glyph glyph-name="uni0374" unicode="&#x374;" horiz-adv-x="216" 
d="M45 452v248h136l-40 -248h-96z" />
    <glyph glyph-name="uni0375" unicode="&#x375;" horiz-adv-x="216" 
d="M171 100v-248h-136l40 248h96z" />
    <glyph glyph-name="uni037E" unicode="&#x37e;" horiz-adv-x="262" 
d="M62 0v140h136v-140l-94 -140h-93l95 140h-44zM52 360v140h134v-140h-134z" />
    <glyph glyph-name="anoteleia" unicode="&#x387;" horiz-adv-x="262" 
d="M64 360v140h134v-140h-134z" />
    <glyph glyph-name="tonos" unicode="&#x384;" horiz-adv-x="216" 
d="M45 452v248h136l-40 -248h-96z" />
    <glyph glyph-name="tonoscomb" horiz-adv-x="0" 
d="M-53 602v128h136l-40 -128h-96z" />
    <glyph glyph-name="dieresistonos" unicode="&#x385;" horiz-adv-x="450" 
d="M40 618v100h134v-100h-134zM276 618v100h134v-100h-134zM172 760v128h136l-40 -128h-96z" />
    <glyph glyph-name="uni0410" unicode="&#x410;" horiz-adv-x="654" 
d="M14 0l163 700h300l163 -700h-149l-35 160h-258l-35 -160h-149zM219 267h216l-70 318h-76z" />
    <glyph glyph-name="uni0411" unicode="&#x411;" horiz-adv-x="644" 
d="M52 0v700h512v-116h-370v-156h314l104 -104v-220l-104 -104h-456zM194 116h272v200h-272v-200z" />
    <glyph glyph-name="uni0412" unicode="&#x412;" horiz-adv-x="648" 
d="M596 596v-177l-55 -47l75 -64v-204l-104 -104h-460v700h440zM194 413h258v171h-258v-171zM194 116h276v193h-276v-193z" />
    <glyph glyph-name="uni0413" unicode="&#x413;" horiz-adv-x="510" 
d="M52 0v700h448v-128h-306v-572h-142z" />
    <glyph glyph-name="uni0414" unicode="&#x414;" horiz-adv-x="720" 
d="M15 -140v264h67l137 576h425v-576h61v-264h-118v140h-454v-140h-118zM225 116h277v468h-175z" />
    <glyph glyph-name="uni0415" unicode="&#x415;" horiz-adv-x="580" 
d="M52 0v700h488v-120h-346v-164h296v-116h-296v-180h356v-120h-498z" />
    <glyph glyph-name="uni0416" unicode="&#x416;" horiz-adv-x="925" 
d="M534 0h-142v293h-103l-124 -293h-161l166 370l-151 330h159l121 -283h93v283h142v-283h93l120 283h160l-151 -330l166 -370h-162l-124 293h-102v-293z" />
    <glyph glyph-name="uni0417" unicode="&#x417;" horiz-adv-x="618" 
d="M482 0h-455v120h413v180h-318v116h298v164h-380v120h422l104 -104v-183l-61 -47l81 -64v-198z" />
    <glyph glyph-name="uni0418" unicode="&#x418;" horiz-adv-x="680" 
d="M628 0h-140v510l-287 -510h-149v700h140v-510l287 510h149v-700z" />
    <glyph glyph-name="uni0419" unicode="&#x419;" horiz-adv-x="680" 
d="M628 0h-140v510l-287 -510h-149v700h140v-510l287 510h149v-700zM405 886h143l-70 -132h-276l-70 132h143l8 -65h114z" />
    <glyph glyph-name="uni041A" unicode="&#x41a;" horiz-adv-x="646" 
d="M52 0v700h142v-283h121l153 283h159l-186 -330l201 -370h-159l-157 293h-132v-293h-142z" />
    <glyph glyph-name="uni041B" unicode="&#x41b;" horiz-adv-x="672" 
d="M620 700v-700h-142v574h-190l-125 -574h-149l159 700h447z" />
    <glyph glyph-name="uni041C" unicode="&#x41c;" horiz-adv-x="780" 
d="M52 0v700h172l166 -324l166 324h172v-700h-139v521l-165 -317h-68l-165 317v-521h-139z" />
    <glyph glyph-name="uni041D" unicode="&#x41d;" horiz-adv-x="662" 
d="M52 0v700h142v-276h274v276h142v-700h-142v296h-274v-296h-142z" />
    <glyph glyph-name="uni041E" unicode="&#x41e;" horiz-adv-x="680" 
d="M50 108v484l108 108h364l108 -108v-484l-108 -108h-364zM196 576v-452h288v452h-288z" />
    <glyph glyph-name="uni041F" unicode="&#x41f;" horiz-adv-x="650" 
d="M52 0v700h546v-700h-142v576h-262v-576h-142z" />
    <glyph glyph-name="uni0420" unicode="&#x420;" horiz-adv-x="624" 
d="M592 592v-334l-108 -108h-290v-150h-142v700h432zM194 266h256v318h-256v-318z" />
    <glyph glyph-name="uni0421" unicode="&#x421;" horiz-adv-x="554" 
d="M50 108v484l108 108h358v-129h-320v-442h330v-129h-368z" />
    <glyph glyph-name="uni0422" unicode="&#x422;" horiz-adv-x="568" 
d="M213 0v576h-193v124h528v-124h-193v-576h-142z" />
    <glyph glyph-name="uni0423" unicode="&#x423;" 
d="M41 0v120h253l29 100h-173l-141 480h144l102 -364h95l98 364h143l-197 -700h-353z" />
    <glyph glyph-name="uni0424" unicode="&#x424;" horiz-adv-x="828" 
d="M50 170v360l104 104h193v66h134v-66h193l104 -104v-360l-104 -104h-193v-66h-134v66h-193zM188 518v-336h159v336h-159zM640 518h-159v-336h159v336z" />
    <glyph glyph-name="uni0425" unicode="&#x425;" horiz-adv-x="660" 
d="M12 0l164 370l-149 330h153l114 -276h72l114 276h153l-149 -330l164 -370h-154l-120 296h-88l-120 -296h-154z" />
    <glyph glyph-name="uni0426" unicode="&#x426;" horiz-adv-x="677" 
d="M598 700v-576h69v-264h-118v140h-497v700h142v-576h262v576h142z" />
    <glyph glyph-name="uni0427" unicode="&#x427;" horiz-adv-x="640" 
d="M588 700v-700h-142v140h-284l-110 110v450h142v-440h252v440h142z" />
    <glyph glyph-name="uni0428" unicode="&#x428;" horiz-adv-x="950" 
d="M546 700v-576h210v576h142v-700h-846v700h142v-576h210v576h142z" />
    <glyph glyph-name="uni0429" unicode="&#x429;" horiz-adv-x="977" 
d="M546 700v-576h210v576h142v-576h69v-264h-118v140h-797v700h142v-576h210v576h142z" />
    <glyph glyph-name="uni042A" unicode="&#x42a;" horiz-adv-x="720" 
d="M688 442v-334l-108 -108h-448v542l34 34h-146v124h254v-150h306zM546 434h-272v-318h272v318z" />
    <glyph glyph-name="uni042B" unicode="&#x42b;" horiz-adv-x="886" 
d="M608 442v-334l-108 -108h-448v700h142v-150h306zM692 0v700h142v-700h-142zM466 434h-272v-318h272v318z" />
    <glyph glyph-name="uni042C" unicode="&#x42c;" horiz-adv-x="640" 
d="M608 442v-334l-108 -108h-448v700h142v-150h306zM466 434h-272v-318h272v318z" />
    <glyph glyph-name="uni042D" unicode="&#x42d;" horiz-adv-x="604" 
d="M554 114v472l-114 114h-402v-123h372v-169h-271v-116h271v-169h-382v-123h412z" />
    <glyph glyph-name="uni042E" unicode="&#x42e;" horiz-adv-x="958" 
d="M52 0v700h142v-288h166v180l108 108h332l108 -108v-484l-108 -108h-332l-108 108v180h-166v-288h-142zM500 572v-444h266v444h-266z" />
    <glyph glyph-name="uni042F" unicode="&#x42f;" horiz-adv-x="654" 
d="M48 592v-269l76 -76l-121 -247h157l97 212h203v-212h142v700h-446zM460 328h-270v256h270v-256z" />
    <glyph glyph-name="uni0430" unicode="&#x430;" 
d="M42 110v210l364 10v110h-344v120h376l110 -110v-450h-396zM184 232v-116h222v136z" />
    <glyph glyph-name="uni0431" unicode="&#x431;" horiz-adv-x="620" 
d="M162 0l-110 110v484l106 106h396v-116h-360v-86h297l84 -84v-304l-110 -110h-303zM194 120h239v270h-239v-270z" />
    <glyph glyph-name="uni0432" unicode="&#x432;" horiz-adv-x="610" 
d="M52 560h416l84 -84v-138l-57 -44l77 -63v-147l-84 -84h-436v560zM192 334h222v118h-222v-118zM192 108h238v126h-238v-126z" />
    <glyph glyph-name="uni0433" unicode="&#x433;" horiz-adv-x="470" 
d="M52 0v560h398v-128h-256v-432h-142z" />
    <glyph glyph-name="uni0434" unicode="&#x434;" horiz-adv-x="610" 
d="M78 -140v120h338v100h-265l-106 106v268l112 106h401v-578l-122 -122h-358zM187 440v-244h229v244h-229z" />
    <glyph glyph-name="uni0435" unicode="&#x435;" horiz-adv-x="590" 
d="M45 106v348l106 106h394v-314h-358v-126h338v-120h-374zM187 324l234 10v114h-234v-124z" />
    <glyph glyph-name="uni0436" unicode="&#x436;" horiz-adv-x="946" 
d="M544 0h-142v231h-118l-118 -231h-160l167 302l-158 258h161l115 -209h111v209h142v-209h111l115 209h161l-158 -258l167 -302h-160l-118 231h-118v-231z" />
    <glyph glyph-name="uni0437" unicode="&#x437;" horiz-adv-x="586" 
d="M545 88l-88 -88h-424v116h366v118h-320v100h300v110h-336v116h394l88 -88v-131l-61 -47l81 -64v-142z" />
    <glyph glyph-name="uni0438" unicode="&#x438;" horiz-adv-x="654" 
d="M602 0h-140v390l-259 -390h-151v560h140v-394l259 394h151v-560z" />
    <glyph glyph-name="uni0439" unicode="&#x439;" horiz-adv-x="654" 
d="M602 0h-140v390l-259 -390h-151v560h140v-394l259 394h151v-560zM412 746h123l-82 -132h-252l-82 132h123l20 -57h130z" />
    <glyph glyph-name="uni043A" unicode="&#x43a;" horiz-adv-x="620" 
d="M52 0v560h142v-209h132l120 209h161l-160 -258l167 -302h-160l-118 231h-142v-231h-142z" />
    <glyph glyph-name="uni043B" unicode="&#x43b;" horiz-adv-x="620" 
d="M568 560v-560h-142v444h-167l-43 -444h-201v125h81l31 319h-66v116h507z" />
    <glyph glyph-name="uni043B.loclBGR" horiz-adv-x="580" 
d="M435 560l136 -560h-144l-96 440h-84l-96 -440h-142l136 560h290z" />
    <glyph glyph-name="uni043C" unicode="&#x43c;" horiz-adv-x="715" 
d="M52 0v560h162l144 -257l143 257h162v-560h-133v402l-138 -258h-68l-139 258v-402h-133z" />
    <glyph glyph-name="uni043D" unicode="&#x43d;" horiz-adv-x="624" 
d="M52 0v560h142v-218h236v218h142v-560h-142v219h-236v-219h-142z" />
    <glyph glyph-name="uni043E" unicode="&#x43e;" 
d="M45 106v348l106 106h298l106 -106v-348l-106 -106h-298zM187 116h226v328h-226v-328z" />
    <glyph glyph-name="uni043F" unicode="&#x43f;" horiz-adv-x="626" 
d="M55 0v560h516v-560h-142v436h-232v-436h-142z" />
    <glyph glyph-name="uni0440" unicode="&#x440;" horiz-adv-x="620" 
d="M52 -140v700h409l114 -114v-332l-114 -114h-267v-140h-142zM433 440h-239v-320h239v320z" />
    <glyph glyph-name="uni0441" unicode="&#x441;" horiz-adv-x="535" 
d="M45 106v348l106 106h358v-128h-322v-304h322v-128h-358z" />
    <glyph glyph-name="uni0442" unicode="&#x442;" horiz-adv-x="560" 
d="M351 0h-142v436h-189v124h520v-124h-189v-436z" />
    <glyph glyph-name="uni0443" unicode="&#x443;" 
d="M41 -140v120h253l29 100h-173l-141 480h144l102 -364h95l98 364h143l-197 -700h-353z" />
    <glyph glyph-name="uni0444" unicode="&#x444;" horiz-adv-x="808" 
d="M48 104v356l104 104h189v136h126v-136h189l104 -104v-356l-104 -104h-189v-140h-126v140h-189zM186 446v-328h155v328h-155zM622 446h-155v-328h155v328z" />
    <glyph glyph-name="uni0445" unicode="&#x445;" horiz-adv-x="630" 
d="M19 0l144 296l-133 264h159l92 -214h68l92 214h159l-133 -264l144 -296h-160l-94 226h-84l-94 -226h-160z" />
    <glyph glyph-name="uni0446" unicode="&#x446;" horiz-adv-x="650" 
d="M568 560v-436h72v-264h-118v140h-470v560h142v-436h232v436h142z" />
    <glyph glyph-name="uni0447" unicode="&#x447;" horiz-adv-x="613" 
d="M561 560v-560h-142v132h-264l-110 110v318h142v-308h232v308h142z" />
    <glyph glyph-name="uni0448" unicode="&#x448;" horiz-adv-x="910" 
d="M526 560v-436h190v436h142v-560h-806v560h142v-436h190v436h142z" />
    <glyph glyph-name="uni0449" unicode="&#x449;" horiz-adv-x="937" 
d="M526 560v-436h190v436h142v-436h69v-264h-118v140h-757v560h142v-436h190v436h142z" />
    <glyph glyph-name="uni044A" unicode="&#x44a;" horiz-adv-x="684" 
d="M116 0v398l42 42h-148v120h248v-132h275l106 -106v-216l-106 -106h-417zM258 116h239v196h-239v-196z" />
    <glyph glyph-name="uni044B" unicode="&#x44b;" horiz-adv-x="866" 
d="M52 0v560h142v-132h275l106 -106v-216l-106 -106h-417zM672 0v560h142v-560h-142zM194 116h239v196h-239v-196z" />
    <glyph glyph-name="uni044C" unicode="&#x44c;" horiz-adv-x="610" 
d="M52 0v560h142v-132h275l106 -106v-216l-106 -106h-417zM194 116h239v196h-239v-196z" />
    <glyph glyph-name="uni044D" unicode="&#x44d;" horiz-adv-x="564" 
d="M413 0l106 106v348l-106 106h-380v-116h344v-112h-320v-92h320v-124h-344v-116h380z" />
    <glyph glyph-name="uni044E" unicode="&#x44e;" horiz-adv-x="846" 
d="M52 0v560h142v-222h97v116l106 106h298l106 -106v-348l-106 -106h-298l-106 106v116h-97v-222h-142zM433 116h226v328h-226v-328z" />
    <glyph glyph-name="uni044F" unicode="&#x44f;" horiz-adv-x="645" 
d="M45 246v218l96 96h452v-560h-142v160h-216l-75 -160h-157l105 183zM187 272h264v172h-264v-172z" />
    <glyph glyph-name="uni04D0" unicode="&#x4d0;" horiz-adv-x="654" 
d="M14 0l163 700h300l163 -700h-149l-35 160h-258l-35 -160h-149zM219 267h216l-70 318h-76zM392 886h143l-70 -132h-276l-70 132h143l8 -65h114z" />
    <glyph glyph-name="uni04D1" unicode="&#x4d1;" 
d="M42 110v210l364 10v110h-344v120h376l110 -110v-450h-396zM184 232v-116h222v136zM348 746h143l-70 -132h-276l-70 132h143l8 -65h114z" />
    <glyph glyph-name="uni04D2" unicode="&#x4d2;" horiz-adv-x="654" 
d="M14 0l163 700h300l163 -700h-149l-35 160h-258l-35 -160h-149zM219 267h216l-70 318h-76zM142 758v100h134v-100h-134zM378 758v100h134v-100h-134z" />
    <glyph glyph-name="uni04D3" unicode="&#x4d3;" 
d="M42 110v210l364 10v110h-344v120h376l110 -110v-450h-396zM184 232v-116h222v136zM98 618v100h134v-100h-134zM334 618v100h134v-100h-134z" />
    <glyph glyph-name="uni04D8" unicode="&#x4d8;" horiz-adv-x="650" 
d="M600 591v-482l-109 -109h-332l-109 109v313h408v158h-388v120h421zM458 328l-266 -10v-198h266v208z" />
    <glyph glyph-name="uni04D9" unicode="&#x4d9;" horiz-adv-x="590" 
d="M545 451v-342l-109 -109h-282l-109 109v205h358v126h-338v120h371zM403 236l-228 -10v-114h228v124z" />
    <glyph glyph-name="uni04D4" unicode="&#x4d4;" horiz-adv-x="902" 
d="M14 0l186 700h662v-120h-300v-164h250v-116h-250v-180h310v-120h-448v160h-221l-40 -160h-149zM225 267h200v318h-119z" />
    <glyph glyph-name="uni04D5" unicode="&#x4d5;" horiz-adv-x="915" 
d="M42 110v210l346 10v110h-326v120h328l69 -69l69 69h342v-314h-340v-130h320v-116h-698zM530 324l214 10v114h-214v-124zM184 232v-120h204v140z" />
    <glyph glyph-name="uni0403" unicode="&#x403;" horiz-adv-x="510" 
d="M52 0v700h448v-128h-306v-572h-142zM125 764v76l320 27v-103h-320z" />
    <glyph glyph-name="uni0453" unicode="&#x453;" horiz-adv-x="470" 
d="M52 0v560h398v-128h-256v-432h-142zM126 624v76l320 27v-103h-320z" />
    <glyph glyph-name="uni0490" unicode="&#x490;" horiz-adv-x="510" 
d="M52 0v700h314v112h134v-240h-306v-572h-142z" />
    <glyph glyph-name="uni0491" unicode="&#x491;" horiz-adv-x="470" 
d="M52 0v560h270v124h128v-252h-256v-432h-142z" />
    <glyph glyph-name="uni0492" unicode="&#x492;" horiz-adv-x="510" 
d="M52 0v700h448v-128h-306v-196h194v-106h-194v-270h-142z" />
    <glyph glyph-name="uni0493" unicode="&#x493;" horiz-adv-x="470" 
d="M52 0v190h-44v106h44v264h398v-128h-256v-136h132v-106h-132v-190h-142z" />
    <glyph glyph-name="uni0494" unicode="&#x494;" horiz-adv-x="639" 
d="M52 0v700h525v-120h-379v-172h302l94 -94v-360l-94 -94h-210v120h162v308h-254v-288h-146z" />
    <glyph glyph-name="uni0495" unicode="&#x495;" horiz-adv-x="609" 
d="M52 0v560h503v-120h-357v-114h272l94 -94v-278l-94 -94h-192v120h152v234h-232v-214h-146z" />
    <glyph glyph-name="uni04F6" unicode="&#x4f6;" horiz-adv-x="510" 
d="M52 0v700h448v-128h-306v-448h73v-264h-118v140h-97z" />
    <glyph glyph-name="uni04F7" unicode="&#x4f7;" horiz-adv-x="470" 
d="M52 0v560h398v-128h-256v-308h73v-264h-118v140h-97z" />
    <glyph glyph-name="uni0402" unicode="&#x402;" horiz-adv-x="762" 
d="M201 0v580h-181v120h592v-120h-269v-152h268l106 -106v-216l-106 -106h-144v116h108v196h-232v-312h-142z" />
    <glyph glyph-name="uni0452" unicode="&#x452;" horiz-adv-x="620" 
d="M52 0v700h142v-72h239v-72h-239v-64h264l110 -110v-442l-100 -100h-122v108h80v424h-232v-372h-142z" />
    <glyph glyph-name="uni0498" unicode="&#x498;" horiz-adv-x="618" 
d="M482 0h-139v-140h-118v140h-195v120h412v180h-352v116h332v164h-382v120h422l104 -104v-183l-61 -47l81 -64v-198z" />
    <glyph glyph-name="uni0499" unicode="&#x499;" horiz-adv-x="586" 
d="M545 88l-88 -88h-109v-140h-118v140h-197v116h366v118h-320v100h300v110h-336v116h394l88 -88v-131l-61 -47l81 -64v-142z" />
    <glyph glyph-name="uni0400" unicode="&#x400;" horiz-adv-x="580" 
d="M52 0v700h488v-120h-346v-164h296v-116h-296v-180h356v-120h-498zM431 764h-320v103l320 -27v-76z" />
    <glyph glyph-name="uni0450" unicode="&#x450;" horiz-adv-x="590" 
d="M45 106v348l106 106h394v-314h-358v-126h338v-120h-374zM187 324l234 10v114h-234v-124zM440 624h-320v103l320 -27v-76z" />
    <glyph glyph-name="uni04D6" unicode="&#x4d6;" horiz-adv-x="580" 
d="M52 0v700h488v-120h-346v-164h296v-116h-296v-180h356v-120h-498zM366 886h143l-70 -132h-276l-70 132h143l8 -65h114z" />
    <glyph glyph-name="uni04D7" unicode="&#x4d7;" horiz-adv-x="590" 
d="M45 106v348l106 106h394v-314h-358v-126h338v-120h-374zM187 324l234 10v114h-234v-124zM375 746h143l-70 -132h-276l-70 132h143l8 -65h114z" />
    <glyph glyph-name="uni0401" unicode="&#x401;" horiz-adv-x="580" 
d="M52 0v700h488v-120h-346v-164h296v-116h-296v-180h356v-120h-498zM116 758v100h134v-100h-134zM352 758v100h134v-100h-134z" />
    <glyph glyph-name="uni0451" unicode="&#x451;" horiz-adv-x="590" 
d="M45 106v348l106 106h394v-314h-358v-126h338v-120h-374zM187 324l234 10v114h-234v-124zM125 618v100h134v-100h-134zM361 618v100h134v-100h-134z" />
    <glyph glyph-name="uni0404" unicode="&#x404;" horiz-adv-x="604" 
d="M50 114v472l114 114h402v-123h-372v-169h271v-116h-271v-169h382v-123h-412z" />
    <glyph glyph-name="uni0454" unicode="&#x454;" horiz-adv-x="564" 
d="M151 0l-106 106v348l106 106h380v-116h-344v-112h320v-92h-320v-124h344v-116h-380z" />
    <glyph glyph-name="uni04C1" unicode="&#x4c1;" horiz-adv-x="925" 
d="M534 0h-142v293h-103l-124 -293h-161l166 370l-151 330h159l121 -283h93v283h142v-283h93l120 283h160l-151 -330l166 -370h-162l-124 293h-102v-293zM528 886h143l-70 -132h-276l-70 132h143l8 -65h114z" />
    <glyph glyph-name="uni04C2" unicode="&#x4c2;" horiz-adv-x="946" 
d="M544 0h-142v231h-118l-118 -231h-160l167 302l-158 258h161l115 -209h111v209h142v-209h111l115 209h161l-158 -258l167 -302h-160l-118 231h-118v-231zM538 746h143l-70 -132h-276l-70 132h143l8 -65h114z" />
    <glyph glyph-name="uni04DC" unicode="&#x4dc;" horiz-adv-x="925" 
d="M534 0h-142v293h-103l-124 -293h-161l166 370l-151 330h159l121 -283h93v283h142v-283h93l120 283h160l-151 -330l166 -370h-162l-124 293h-102v-293zM278 758v100h134v-100h-134zM514 758v100h134v-100h-134z" />
    <glyph glyph-name="uni04DD" unicode="&#x4dd;" horiz-adv-x="946" 
d="M544 0h-142v231h-118l-118 -231h-160l167 302l-158 258h161l115 -209h111v209h142v-209h111l115 209h161l-158 -258l167 -302h-160l-118 231h-118v-231zM288 618v100h134v-100h-134zM524 618v100h134v-100h-134z" />
    <glyph glyph-name="uni0496" unicode="&#x496;" horiz-adv-x="945" 
d="M530 0h-142v293h-103l-123 -293h-162l166 370l-151 330h160l120 -283h93v283h142v-283h93l120 283h160l-151 -330l115 -246h68v-264h-118v140h-61l-123 293h-103v-293z" />
    <glyph glyph-name="uni0497" unicode="&#x497;" horiz-adv-x="973" 
d="M544 0h-142v231h-118l-118 -231h-160l167 302l-158 258h161l115 -209h111v209h142v-209h111l115 209h161l-158 -258l102 -178h88v-264h-118v140h-65l-118 231h-118v-231z" />
    <glyph glyph-name="uni04DE" unicode="&#x4de;" horiz-adv-x="618" 
d="M482 0h-455v120h413v180h-318v116h298v164h-380v120h422l104 -104v-183l-61 -47l81 -64v-198zM80 758v100h134v-100h-134zM316 758v100h134v-100h-134z" />
    <glyph glyph-name="uni04DF" unicode="&#x4df;" horiz-adv-x="586" 
d="M545 88l-88 -88h-424v116h366v118h-320v100h300v110h-336v116h394l88 -88v-131l-61 -47l81 -64v-142zM61 618v100h134v-100h-134zM297 618v100h134v-100h-134z" />
    <glyph glyph-name="uni0405" unicode="&#x405;" horiz-adv-x="640" 
d="M60 0v124h388v162l-398 33v277l104 104h426v-124h-388v-152l398 -33v-287l-104 -104h-426z" />
    <glyph glyph-name="uni0455" unicode="&#x455;" horiz-adv-x="592" 
d="M45 0v116h360v123h-360v215l106 106h396v-116h-360v-117h360v-224l-103 -103h-399z" />
    <glyph glyph-name="uni040D" unicode="&#x40d;" horiz-adv-x="680" 
d="M628 0h-140v510l-287 -510h-149v700h140v-510l287 510h149v-700zM470 764h-320v103l320 -27v-76z" />
    <glyph glyph-name="uni045D" unicode="&#x45d;" horiz-adv-x="654" 
d="M602 0h-140v390l-259 -390h-151v560h140v-394l259 394h151v-560zM457 624h-320v103l320 -27v-76z" />
    <glyph glyph-name="uni04E4" unicode="&#x4e4;" horiz-adv-x="680" 
d="M628 0h-140v510l-287 -510h-149v700h140v-510l287 510h149v-700zM155 758v100h134v-100h-134zM391 758v100h134v-100h-134z" />
    <glyph glyph-name="uni04E5" unicode="&#x4e5;" horiz-adv-x="654" 
d="M602 0h-140v390l-259 -390h-151v560h140v-394l259 394h151v-560zM142 618v100h134v-100h-134zM378 618v100h134v-100h-134z" />
    <glyph glyph-name="uni04E2" unicode="&#x4e2;" horiz-adv-x="680" 
d="M628 0h-140v510l-287 -510h-149v700h140v-510l287 510h149v-700zM170 772v98h340v-98h-340z" />
    <glyph glyph-name="uni04E3" unicode="&#x4e3;" horiz-adv-x="654" 
d="M602 0h-140v390l-259 -390h-151v560h140v-394l259 394h151v-560zM157 632v98h340v-98h-340z" />
    <glyph glyph-name="uni0406" unicode="&#x406;" horiz-adv-x="430" 
d="M45 -4v114l99 5v470l-99 5v114l170 -8l170 8v-114l-99 -5v-470l99 -5v-114l-170 8z" />
    <glyph glyph-name="uni0456" unicode="&#x456;" horiz-adv-x="246" 
d="M52 618v100h142v-100h-142zM52 0v560h142v-560h-142z" />
    <glyph glyph-name="uni0407" unicode="&#x407;" horiz-adv-x="430" 
d="M45 -4v114l99 5v470l-99 5v114l170 -8l170 8v-114l-99 -5v-470l99 -5v-114l-170 8zM76 758v100h110v-100h-110zM244 758v100h110v-100h-110z" />
    <glyph glyph-name="uni0457" unicode="&#x457;" horiz-adv-x="246" 
d="M52 0v560h142v-560h-142zM-16 618v100h110v-100h-110zM152 618v100h110v-100h-110z" />
    <glyph glyph-name="uni0408" unicode="&#x408;" 
d="M30 114v206h142v-192h236v448h-350v124h492v-586l-114 -114h-292z" />
    <glyph glyph-name="uni0458" unicode="&#x458;" horiz-adv-x="246" 
d="M52 618v100h142v-100h-142zM52 -140v700h142v-700h-142z" />
    <glyph glyph-name="uni040C" unicode="&#x40c;" horiz-adv-x="646" 
d="M52 0v700h142v-283h121l153 283h159l-186 -330l201 -370h-159l-157 293h-132v-293h-142zM189 764v76l320 27v-103h-320z" />
    <glyph glyph-name="uni045C" unicode="&#x45c;" horiz-adv-x="620" 
d="M52 0v560h142v-209h132l120 209h161l-160 -258l167 -302h-160l-118 231h-142v-231h-142zM158 624v76l320 27v-103h-320z" />
    <glyph glyph-name="uni049A" unicode="&#x49a;" horiz-adv-x="677" 
d="M52 0v700h142v-283h153l128 283h160l-159 -330l119 -246h72v-264h-118v140h-61l-131 293h-163v-293h-142z" />
    <glyph glyph-name="uni049B" unicode="&#x49b;" horiz-adv-x="647" 
d="M52 0v560h142v-209h132l120 209h161l-160 -258l102 -178h88v-264h-118v140h-65l-118 231h-142v-231h-142z" />
    <glyph glyph-name="uni04A0" unicode="&#x4a0;" horiz-adv-x="756" 
d="M10 581v119h290v-283h153l128 283h160l-159 -330l174 -370h-162l-131 293h-163v-293h-142v581h-148z" />
    <glyph glyph-name="uni04A1" unicode="&#x4a1;" horiz-adv-x="732" 
d="M10 441v119h296v-209h132l120 209h161l-160 -258l167 -302h-160l-118 231h-142v-231h-142v441h-154z" />
    <glyph glyph-name="uni049C" unicode="&#x49c;" horiz-adv-x="670" 
d="M52 0v700h142v-283h76v173h76v-173h33l115 283h157l-147 -330l162 -370h-159l-118 293h-43v-173h-76v173h-76v-293h-142z" />
    <glyph glyph-name="uni049D" unicode="&#x49d;" horiz-adv-x="640" 
d="M52 0v560h142v-209h68v140h74v-140h22l110 209h157l-145 -258l154 -302h-160l-109 231h-29v-140h-74v140h-68v-231h-142z" />
    <glyph glyph-name="uni051A" unicode="&#x51a;" horiz-adv-x="680" 
d="M50 108v484l108 108h364l108 -108v-473l-90 -62l118 -20v-131l-500 94zM196 117l288 -50v509h-288v-459z" />
    <glyph glyph-name="uni051B" unicode="&#x51b;" horiz-adv-x="620" 
d="M568 560v-700h-142v140h-267l-114 114v332l114 114h409zM426 440h-239v-320h239v320z" />
    <glyph glyph-name="uni0409" unicode="&#x409;" horiz-adv-x="1016" 
d="M618 700v-150h258l108 -108v-334l-108 -108h-398v574h-190l-125 -574h-149l159 700h445zM842 434h-224v-318h224v318z" />
    <glyph glyph-name="uni0459" unicode="&#x459;" horiz-adv-x="952" 
d="M15 0v125h81l31 319h-66v116h507v-132h243l106 -106v-216l-106 -106h-385v444h-167l-43 -444h-201zM568 116h207v196h-207v-196z" />
    <glyph glyph-name="uni04A2" unicode="&#x4a2;" horiz-adv-x="677" 
d="M52 0v700h142v-276h262v276h142v-576h69v-264h-118v140h-93v296h-262v-296h-142z" />
    <glyph glyph-name="uni04A3" unicode="&#x4a3;" horiz-adv-x="647" 
d="M52 0v560h142v-212h232v212h142v-436h69v-264h-118v140h-93v220h-232v-220h-142z" />
    <glyph glyph-name="uni04A4" unicode="&#x4a4;" horiz-adv-x="756" 
d="M52 0v700h142v-276h262v276h290v-119h-148v-581h-142v296h-262v-296h-142z" />
    <glyph glyph-name="uni04A5" unicode="&#x4a5;" horiz-adv-x="726" 
d="M52 0v560h142v-212h232v212h290v-119h-148v-441h-142v220h-232v-220h-142z" />
    <glyph glyph-name="uni040A" unicode="&#x40a;" horiz-adv-x="996" 
d="M52 0v700h142v-276h262v276h142v-150h258l108 -108v-334l-108 -108h-400v296h-262v-296h-142zM822 434h-224v-318h224v318z" />
    <glyph glyph-name="uni045A" unicode="&#x45a;" horiz-adv-x="952" 
d="M426 0v220h-232v-220h-142v560h142v-212h232v212h142v-132h243l106 -106v-216l-106 -106h-385zM568 116h207v196h-207v-196z" />
    <glyph glyph-name="uni04E6" unicode="&#x4e6;" horiz-adv-x="680" 
d="M50 108v484l108 108h364l108 -108v-484l-108 -108h-364zM196 576v-452h288v452h-288zM155 758v100h134v-100h-134zM391 758v100h134v-100h-134z" />
    <glyph glyph-name="uni04E7" unicode="&#x4e7;" 
d="M45 106v348l106 106h298l106 -106v-348l-106 -106h-298zM187 116h226v328h-226v-328zM115 618v100h134v-100h-134zM351 618v100h134v-100h-134z" />
    <glyph glyph-name="uni04E8" unicode="&#x4e8;" horiz-adv-x="650" 
d="M50 108v484l108 108h334l108 -108v-484l-108 -108h-334zM192 580v-178h266v178h-266zM192 120h266v178h-266v-178z" />
    <glyph glyph-name="uni04E9" unicode="&#x4e9;" horiz-adv-x="594" 
d="M45 100v360l100 100h304l100 -100v-360l-100 -100h-304zM185 456v-127h224v127h-224zM185 108h224v139h-224v-139z" />
    <glyph glyph-name="uni04AA" unicode="&#x4aa;" horiz-adv-x="550" 
d="M50 108v484l108 108h358v-131h-316v-438h326v-131h-120v-140h-118v140h-130z" />
    <glyph glyph-name="uni04AB" unicode="&#x4ab;" horiz-adv-x="535" 
d="M45 106v348l106 106h358v-128h-322v-304h322v-128h-115v-140h-118v140h-125z" />
    <glyph glyph-name="uni040B" unicode="&#x40b;" horiz-adv-x="769" 
d="M201 0v580h-181v120h592v-120h-269v-152h264l110 -110v-318h-142v308h-232v-308h-142z" />
    <glyph glyph-name="uni045B" unicode="&#x45b;" horiz-adv-x="620" 
d="M52 0v700h142v-72h239v-72h-239v-64h264l110 -110v-382h-142v372h-232v-372h-142z" />
    <glyph glyph-name="uni040E" unicode="&#x40e;" 
d="M41 0v120h253l29 100h-173l-141 480h144l102 -364h95l98 364h143l-197 -700h-353zM365 886h143l-70 -132h-276l-70 132h143l8 -65h114z" />
    <glyph glyph-name="uni045E" unicode="&#x45e;" 
d="M41 -140v120h253l29 100h-173l-141 480h144l102 -364h95l98 364h143l-197 -700h-353zM365 746h143l-70 -132h-276l-70 132h143l8 -65h114z" />
    <glyph glyph-name="uni04F0" unicode="&#x4f0;" 
d="M41 0v120h253l29 100h-173l-141 480h144l102 -364h95l98 364h143l-197 -700h-353zM115 758v100h134v-100h-134zM351 758v100h134v-100h-134z" />
    <glyph glyph-name="uni04F1" unicode="&#x4f1;" 
d="M41 -140v120h253l29 100h-173l-141 480h144l102 -364h95l98 364h143l-197 -700h-353zM115 618v100h134v-100h-134zM351 618v100h134v-100h-134z" />
    <glyph glyph-name="uni04F2" unicode="&#x4f2;" 
d="M41 0v120h253l29 100h-173l-141 480h144l102 -364h95l98 364h143l-197 -700h-353zM166 742l40 128h124l-71 -128h-93zM319 742l60 128h124l-88 -128h-96z" />
    <glyph glyph-name="uni04F3" unicode="&#x4f3;" 
d="M41 -140v120h253l29 100h-173l-141 480h144l102 -364h95l98 364h143l-197 -700h-353zM166 602l40 128h124l-71 -128h-93zM319 602l60 128h124l-88 -128h-96z" />
    <glyph glyph-name="uni04EE" unicode="&#x4ee;" 
d="M41 0v120h253l29 100h-173l-141 480h144l102 -364h95l98 364h143l-197 -700h-353zM130 772v98h340v-98h-340z" />
    <glyph glyph-name="uni04EF" unicode="&#x4ef;" 
d="M41 -140v120h253l29 100h-173l-141 480h144l102 -364h95l98 364h143l-197 -700h-353zM130 632v98h340v-98h-340z" />
    <glyph glyph-name="uni04AE" unicode="&#x4ae;" horiz-adv-x="640" 
d="M249 0v210h-86l-146 490h151l100 -367h104l100 367h151l-146 -490h-86v-210h-142z" />
    <glyph glyph-name="uni04AF" unicode="&#x4af;" horiz-adv-x="580" 
d="M215 -9l-206 569h144l130 -414h16l130 414h142l-206 -569v-131h-150v131z" />
    <glyph glyph-name="uni04B0" unicode="&#x4b0;" horiz-adv-x="640" 
d="M42 182v119h96l-121 399h151l100 -399h104l100 399h151l-121 -399h96v-119h-207v-182h-142v182h-207z" />
    <glyph glyph-name="uni04B1" unicode="&#x4b1;" horiz-adv-x="580" 
d="M30 20v122h133l-154 418h144l130 -418h16l130 418h142l-154 -418h133v-122h-185v-160h-150v160h-185z" />
    <glyph glyph-name="uni04B2" unicode="&#x4b2;" horiz-adv-x="687" 
d="M12 0l164 370l-149 330h153l114 -276h72l114 276h153l-149 -330l112 -246h81v-264h-118v140h-65l-120 296h-88l-120 -296h-154z" />
    <glyph glyph-name="uni04B3" unicode="&#x4b3;" horiz-adv-x="657" 
d="M19 0l144 296l-133 264h159l92 -214h68l92 214h159l-133 -264l87 -172h93v-264h-118v140h-78l-94 226h-84l-94 -226h-160z" />
    <glyph glyph-name="uni04BA" unicode="&#x4ba;" horiz-adv-x="640" 
d="M52 0v700h142v-140h284l110 -110v-450h-142v440h-252v-440h-142z" />
    <glyph glyph-name="uni04BB" unicode="&#x4bb;" horiz-adv-x="620" 
d="M52 0v700h142v-140h264l110 -110v-450h-142v440h-232v-440h-142z" />
    <glyph glyph-name="uni04F4" unicode="&#x4f4;" horiz-adv-x="640" 
d="M588 700v-700h-142v140h-284l-110 110v450h142v-440h252v440h142zM135 758v100h134v-100h-134zM371 758v100h134v-100h-134z" />
    <glyph glyph-name="uni04F5" unicode="&#x4f5;" horiz-adv-x="613" 
d="M561 560v-560h-142v132h-264l-110 110v318h142v-308h232v308h142zM118 618v100h134v-100h-134zM354 618v100h134v-100h-134z" />
    <glyph glyph-name="uni04B6" unicode="&#x4b6;" horiz-adv-x="667" 
d="M588 700v-576h69v-264h-118v140h-93v140h-284l-110 110v450h142v-440h252v440h142z" />
    <glyph glyph-name="uni04B7" unicode="&#x4b7;" horiz-adv-x="647" 
d="M568 560v-436h69v-264h-118v140h-93v132h-264l-110 110v318h142v-308h232v308h142z" />
    <glyph glyph-name="uni04CB" unicode="&#x4cb;" horiz-adv-x="640" 
d="M383 -140v248h63v80h-284l-110 110v402h142v-392h252v392h142v-700h-87v-140h-118z" />
    <glyph glyph-name="uni04CC" unicode="&#x4cc;" horiz-adv-x="620" 
d="M340 -140v248h86v80h-264l-110 110v262h142v-252h232v252h142v-560h-110v-140h-118z" />
    <glyph glyph-name="uni04B8" unicode="&#x4b8;" horiz-adv-x="648" 
d="M362 44h-76v96h-124l-110 110v450h142v-440h92v230h76v-230h92v440h142v-700h-142v140h-92v-96z" />
    <glyph glyph-name="uni04B9" unicode="&#x4b9;" horiz-adv-x="628" 
d="M352 44h-76v88h-114l-110 110v318h138v-308h86v182h76v-182h86v308h138v-560h-138v132h-86v-88z" />
    <glyph glyph-name="uni040F" unicode="&#x40f;" horiz-adv-x="650" 
d="M598 700v-700h-214v-140h-118v140h-214v700h142v-576h262v576h142z" />
    <glyph glyph-name="uni045F" unicode="&#x45f;" horiz-adv-x="626" 
d="M571 560v-560h-199v-140h-118v140h-199v560h142v-436h232v436h142z" />
    <glyph glyph-name="uni04F8" unicode="&#x4f8;" horiz-adv-x="886" 
d="M608 442v-334l-108 -108h-448v700h142v-150h306zM692 0v700h142v-700h-142zM466 434h-272v-318h272v318zM258 758v100h134v-100h-134zM494 758v100h134v-100h-134z" />
    <glyph glyph-name="uni04F9" unicode="&#x4f9;" horiz-adv-x="866" 
d="M52 0v560h142v-132h275l106 -106v-216l-106 -106h-417zM672 0v560h142v-560h-142zM194 116h239v196h-239v-196zM248 618v100h134v-100h-134zM484 618v100h134v-100h-134z" />
    <glyph glyph-name="uni0462" unicode="&#x462;" horiz-adv-x="643" 
d="M52 0v700h142v-66h251v-72h-251v-70h294l110 -110v-272l-110 -110h-436zM194 116h262v260h-262v-260z" />
    <glyph glyph-name="uni0463" unicode="&#x463;" horiz-adv-x="613" 
d="M52 0v700h142v-76h227v-72h-227v-70h264l110 -110v-262l-110 -110h-406zM194 116h232v250h-232v-250z" />
    <glyph glyph-name="uni046A" unicode="&#x46a;" horiz-adv-x="877" 
d="M510 0h-142v293h-71l-132 -293h-161l174 370l-159 330h840l-159 -330l174 -370h-162l-132 293h-70v-293zM307 409h264l83 175h-431z" />
    <glyph glyph-name="uni046B" unicode="&#x46b;" horiz-adv-x="830" 
d="M482 0h-134v191h-76l-106 -191h-160l167 261l-158 299h800l-158 -299l167 -261h-160l-106 191h-76v-191zM291 303h248l72 145h-392z" />
    <glyph glyph-name="uni0472" unicode="&#x472;" horiz-adv-x="650" 
d="M50 108v484l108 108h334l108 -108v-484l-108 -108h-334zM192 580v-178h266v178h-266zM192 120h266v178h-266v-178z" />
    <glyph glyph-name="uni0473" unicode="&#x473;" horiz-adv-x="594" 
d="M45 100v360l100 100h304l100 -100v-360l-100 -100h-304zM185 456v-127h224v127h-224zM185 108h224v139h-224v-139z" />
    <glyph glyph-name="uni0474" unicode="&#x474;" horiz-adv-x="738" 
d="M173 0l-159 700h150l121 -572h76l121 572h240v-119h-115l-134 -581h-300z" />
    <glyph glyph-name="uni0475" unicode="&#x475;" horiz-adv-x="686" 
d="M145 0l-136 560h144l96 -440h84l96 440h247v-119h-131l-110 -441h-290z" />
    <glyph glyph-name="uni051C" unicode="&#x51c;" horiz-adv-x="856" 
d="M124 0l-112 700h149l81 -556h42l82 446h124l82 -446h42l81 556h149l-112 -700h-229l-75 412l-75 -412h-229z" />
    <glyph glyph-name="uni051D" unicode="&#x51d;" horiz-adv-x="840" 
d="M117 0l-87 560h143l60 -440h37l78 386h144l78 -386h37l60 440h143l-87 -560h-228l-75 360l-75 -360h-228z" />
    <glyph glyph-name="uni04C0" unicode="&#x4c0;" horiz-adv-x="430" 
d="M45 -4v114l99 5v470l-99 5v114l170 -8l170 8v-114l-99 -5v-470l99 -5v-114l-170 8z" />
    <glyph glyph-name="uni04CF" unicode="&#x4cf;" horiz-adv-x="246" 
d="M52 0v700h142v-700h-142z" />
    <glyph glyph-name="uni0414.loclBGR" horiz-adv-x="720" 
d="M15 -140v264h61l141 576h286l141 -576h61v-264h-118v140h-454v-140h-118zM219 116h282l-106 468h-70z" />
    <glyph glyph-name="uni041B.loclBGR" horiz-adv-x="646" 
d="M473 700l159 -700h-150l-121 572h-76l-121 -572h-150l159 700h300z" />
    <glyph glyph-name="uni0424.loclBGR" horiz-adv-x="828" 
d="M50 124v452l104 104h193v66h134v-66h193l104 -104v-452l-104 -104h-193v-66h-134v66h-193zM188 564v-428h159v428h-159zM640 564h-159v-428h159v428z" />
    <glyph glyph-name="uni0431.loclSRB" horiz-adv-x="620" 
d="M162 0l-110 110v284l48 48l-48 48v104l106 106h396v-116h-360v-86h297l84 -84v-304l-110 -110h-303zM194 120h239v270h-239v-270z" />
    <glyph glyph-name="uni0432.loclBGR" horiz-adv-x="604" 
d="M52 594l113 106h275l106 -106v-176l-65 -48l85 -66v-198l-106 -106h-408v594zM192 410h216v174h-216v-174zM192 116h232v194h-232v-194z" />
    <glyph glyph-name="uni0433.loclBGR" horiz-adv-x="592" 
d="M547 0v116h-360v123h360v215l-106 106h-396v-116h360v-117h-360v-224l103 -103h399z" />
    <glyph glyph-name="uni0434.loclBGR" horiz-adv-x="610" 
d="M78 -140v120h338v100h-265l-106 106v268l112 106h401v-578l-122 -122h-358zM187 440v-244h229v244h-229z" />
    <glyph glyph-name="uni0436.loclBGR" horiz-adv-x="946" 
d="M544 0h-142v231h-118l-118 -231h-160l167 302l-158 258h161l115 -209h111v349h142v-349h111l115 209h161l-158 -258l167 -302h-160l-118 231h-118v-231z" />
    <glyph glyph-name="uni0437.loclBGR" horiz-adv-x="568" 
d="M527 -52l-88 -88h-411v120h353v178h-311v116h291v166h-325v120h383l88 -88v-199l-61 -47l81 -64v-214z" />
    <glyph glyph-name="uni0438.loclBGR" horiz-adv-x="620" 
d="M568 560v-560h-406l-110 110v450h142v-436h232v436h142z" />
    <glyph glyph-name="uni0439.loclBGR" horiz-adv-x="620" 
d="M568 560v-560h-406l-110 110v450h142v-436h232v436h142zM375 746h143l-70 -132h-276l-70 132h143l8 -65h114z" />
    <glyph glyph-name="uni045D.loclBGR" horiz-adv-x="620" 
d="M568 560v-560h-406l-110 110v450h142v-436h232v436h142zM440 624h-320v103l320 -27v-76z" />
    <glyph glyph-name="uni043A.loclBGR" horiz-adv-x="608" 
d="M52 0v700h142v-349h123l115 209h161l-158 -258l167 -302h-160l-118 231h-130v-231h-142z" />
    <glyph glyph-name="uni043F.loclBGR" horiz-adv-x="620" 
d="M52 0v560h406l110 -110v-450h-142v436h-232v-436h-142z" />
    <glyph glyph-name="uni0442.loclBGR" horiz-adv-x="920" 
d="M52 560h700l116 -116v-444h-140v442h-199v-442h-138v442h-199v-442h-140v560z" />
    <glyph glyph-name="uni0446.loclBGR" horiz-adv-x="647" 
d="M568 560v-436h69v-264h-118v140h-357l-110 110v450h142v-436h232v436h142z" />
    <glyph glyph-name="uni0448.loclBGR" horiz-adv-x="920" 
d="M868 0h-700l-116 116v444h140v-442h199v442h138v-442h199v442h140v-560z" />
    <glyph glyph-name="uni0449.loclBGR" horiz-adv-x="947" 
d="M819 -140v140h-651l-116 116v444h140v-442h199v442h138v-442h199v442h140v-436h69v-264h-118z" />
    <glyph glyph-name="uni044A.loclBGR" horiz-adv-x="684" 
d="M208 0l-92 92v314l34 34h-140v120h248v-132h275l106 -106v-216l-106 -106h-325zM258 116h239v196h-239v-196z" />
    <glyph glyph-name="uni044C.loclBGR" horiz-adv-x="620" 
d="M144 0l-92 92v468h142v-132h275l106 -106v-216l-106 -106h-325zM194 116h239v196h-239v-196z" />
    <glyph glyph-name="uni044E.loclBGR" horiz-adv-x="846" 
d="M52 0v700h142v-362h97v116l106 106h298l106 -106v-348l-106 -106h-298l-106 106v116h-97v-222h-142zM433 116h226v328h-226v-328z" />
    <glyph glyph-name="uni0306.cy" horiz-adv-x="0" 
d="M65 746h143l-70 -132h-276l-70 132h143l8 -65h114z" />
    <glyph glyph-name="Cacute.ss02" horiz-adv-x="642" 
d="M158 0l-108 108v484l108 108h432v-264h-128v140h-266v-452h266v140h128v-264h-432zM212 764v76l320 27v-103h-320z" />
    <glyph glyph-name="Ccircumflex.ss02" horiz-adv-x="642" 
d="M158 0l-108 108v484l108 108h432v-264h-128v140h-266v-452h266v140h128v-264h-432zM152 745v96l190 66l190 -66v-96l-190 66z" />
    <glyph glyph-name="Ccaron.ss02" horiz-adv-x="642" 
d="M158 0l-108 108v484l108 108h432v-264h-128v140h-266v-452h266v140h128v-264h-432zM532 907v-96l-190 -66l-190 66v96l190 -66z" />
    <glyph glyph-name="Cdotaccent.ss02" horiz-adv-x="642" 
d="M158 0l-108 108v484l108 108h432v-264h-128v140h-266v-452h266v140h128v-264h-432zM271 758v100h142v-100h-142z" />
    <glyph glyph-name="Ccedilla.ss02" horiz-adv-x="642" 
d="M158 0l-108 108v484l108 108h432v-264h-128v140h-266v-452h266v140h128v-264h-432zM243 -200l47 144h134l-77 -144h-104z" />
    <glyph glyph-name="uni01F4.ss02" horiz-adv-x="648" 
d="M50 108v484l108 108h438v-232h-128v108h-276v-452h272v159h-164v105h296v-388h-438zM210 764v76l320 27v-103h-320z" />
    <glyph glyph-name="Gbreve.ss02" horiz-adv-x="648" 
d="M50 108v484l108 108h438v-232h-128v108h-276v-452h272v159h-164v105h296v-388h-438zM425 886h123l-82 -132h-252l-82 132h123l20 -57h130z" />
    <glyph glyph-name="Gcircumflex.ss02" horiz-adv-x="648" 
d="M50 108v484l108 108h438v-232h-128v108h-276v-452h272v159h-164v105h296v-388h-438zM150 745v96l190 66l190 -66v-96l-190 66z" />
    <glyph glyph-name="Gcaron.ss02" horiz-adv-x="648" 
d="M50 108v484l108 108h438v-232h-128v108h-276v-452h272v159h-164v105h296v-388h-438zM530 907v-96l-190 -66l-190 66v96l190 -66z" />
    <glyph glyph-name="Gdotaccent.ss02" horiz-adv-x="648" 
d="M50 108v484l108 108h438v-232h-128v108h-276v-452h272v159h-164v105h296v-388h-438zM269 758v100h142v-100h-142z" />
    <glyph glyph-name="uni0122.ss02" horiz-adv-x="648" 
d="M50 108v484l108 108h438v-232h-128v108h-276v-452h272v159h-164v105h296v-388h-438zM241 -200l47 144h134l-77 -144h-104z" />
    <glyph glyph-name="uni0186.ss02" horiz-adv-x="642" 
d="M482 700l108 -108v-484l-108 -108h-432v264h128v-140h266v452h-266v-140h-128v264h432z" />
    <glyph glyph-name="Sacute.ss02" horiz-adv-x="657" 
d="M54 0v212h128v-92h283v166l-415 33v277l104 104h440v-212h-128v92h-274v-156l415 -33v-287l-104 -104h-449zM214 764v76l320 27v-103h-320z" />
    <glyph glyph-name="Scircumflex.ss02" horiz-adv-x="657" 
d="M54 0v212h128v-92h283v166l-415 33v277l104 104h440v-212h-128v92h-274v-156l415 -33v-287l-104 -104h-449zM154 745v96l190 66l190 -66v-96l-190 66z" />
    <glyph glyph-name="Scaron.ss02" horiz-adv-x="657" 
d="M54 0v212h128v-92h283v166l-415 33v277l104 104h440v-212h-128v92h-274v-156l415 -33v-287l-104 -104h-449zM534 907v-96l-190 -66l-190 66v96l190 -66z" />
    <glyph glyph-name="uni1E60.ss02" horiz-adv-x="657" 
d="M54 0v212h128v-92h283v166l-415 33v277l104 104h440v-212h-128v92h-274v-156l415 -33v-287l-104 -104h-449zM273 758v100h142v-100h-142z" />
    <glyph glyph-name="Scedilla.ss02" horiz-adv-x="657" 
d="M54 0v212h128v-92h283v166l-415 33v277l104 104h440v-212h-128v92h-274v-156l415 -33v-287l-104 -104h-449zM211 -200l47 144h134l-77 -144h-104z" />
    <glyph glyph-name="uni1E62.ss02" horiz-adv-x="657" 
d="M54 0v212h128v-92h283v166l-415 33v277l104 104h440v-212h-128v92h-274v-156l415 -33v-287l-104 -104h-449zM239 -172v100h142v-100h-142z" />
    <glyph glyph-name="uni0218.ss02" horiz-adv-x="657" 
d="M54 0v212h128v-92h283v166l-415 33v277l104 104h440v-212h-128v92h-274v-156l415 -33v-287l-104 -104h-449zM211 -200l47 144h134l-77 -144h-104z" />
    <glyph glyph-name="uni0421.ss02" horiz-adv-x="642" 
d="M158 0l-108 108v484l108 108h432v-264h-128v140h-266v-452h266v140h128v-264h-432z" />
    <glyph glyph-name="uni0405.ss02" horiz-adv-x="657" 
d="M54 0v212h128v-92h283v166l-415 33v277l104 104h440v-212h-128v92h-274v-156l415 -33v-287l-104 -104h-449z" />
    <glyph glyph-name="Cacute.ss03" horiz-adv-x="656" 
d="M50 104v492l104 104h360l92 -92v-168h-140v136h-270v-452h270v136h140v-168l-92 -92h-360zM198 764v76l320 27v-103h-320z" />
    <glyph glyph-name="Ccircumflex.ss03" horiz-adv-x="656" 
d="M50 104v492l104 104h360l92 -92v-168h-140v136h-270v-452h270v136h140v-168l-92 -92h-360zM138 745v96l190 66l190 -66v-96l-190 66z" />
    <glyph glyph-name="Ccaron.ss03" horiz-adv-x="656" 
d="M50 104v492l104 104h360l92 -92v-168h-140v136h-270v-452h270v136h140v-168l-92 -92h-360zM518 907v-96l-190 -66l-190 66v96l190 -66z" />
    <glyph glyph-name="Cdotaccent.ss03" horiz-adv-x="656" 
d="M50 104v492l104 104h360l92 -92v-168h-140v136h-270v-452h270v136h140v-168l-92 -92h-360zM257 758v100h142v-100h-142z" />
    <glyph glyph-name="Ccedilla.ss03" horiz-adv-x="656" 
d="M50 104v492l104 104h360l92 -92v-168h-140v136h-270v-452h270v136h140v-168l-92 -92h-360zM229 -200l47 144h134l-77 -144h-104z" />
    <glyph glyph-name="uni01F4.ss03" horiz-adv-x="650" 
d="M50 108v484l108 108h350l92 -92v-140h-138v108h-270v-452h276v159h-168v105h300v-388h-442zM210 764v76l320 27v-103h-320z" />
    <glyph glyph-name="Gbreve.ss03" horiz-adv-x="650" 
d="M50 108v484l108 108h350l92 -92v-140h-138v108h-270v-452h276v159h-168v105h300v-388h-442zM425 886h123l-82 -132h-252l-82 132h123l20 -57h130z" />
    <glyph glyph-name="Gcircumflex.ss03" horiz-adv-x="650" 
d="M50 108v484l108 108h350l92 -92v-140h-138v108h-270v-452h276v159h-168v105h300v-388h-442zM150 745v96l190 66l190 -66v-96l-190 66z" />
    <glyph glyph-name="Gcaron.ss03" horiz-adv-x="650" 
d="M50 108v484l108 108h350l92 -92v-140h-138v108h-270v-452h276v159h-168v105h300v-388h-442zM530 907v-96l-190 -66l-190 66v96l190 -66z" />
    <glyph glyph-name="Gdotaccent.ss03" horiz-adv-x="650" 
d="M50 108v484l108 108h350l92 -92v-140h-138v108h-270v-452h276v159h-168v105h300v-388h-442zM269 758v100h142v-100h-142z" />
    <glyph glyph-name="uni0122.ss03" horiz-adv-x="650" 
d="M50 108v484l108 108h350l92 -92v-140h-138v108h-270v-452h276v159h-168v105h300v-388h-442zM241 -200l47 144h134l-77 -144h-104z" />
    <glyph glyph-name="uni0186.ss03" horiz-adv-x="656" 
d="M606 596v-492l-104 -104h-360l-92 92v168h140v-136h270v452h-270v-136h-140v168l92 92h360z" />
    <glyph glyph-name="Sacute.ss03" horiz-adv-x="653" 
d="M50 100v116h136v-96h275v168l-411 33v279l100 100h353l100 -100v-116h-136v96h-275v-158l411 -33v-289l-100 -100h-353zM204 764v76l320 27v-103h-320z" />
    <glyph glyph-name="Scircumflex.ss03" horiz-adv-x="653" 
d="M50 100v116h136v-96h275v168l-411 33v279l100 100h353l100 -100v-116h-136v96h-275v-158l411 -33v-289l-100 -100h-353zM144 745v96l190 66l190 -66v-96l-190 66z" />
    <glyph glyph-name="Scaron.ss03" horiz-adv-x="653" 
d="M50 100v116h136v-96h275v168l-411 33v279l100 100h353l100 -100v-116h-136v96h-275v-158l411 -33v-289l-100 -100h-353zM524 907v-96l-190 -66l-190 66v96l190 -66z" />
    <glyph glyph-name="uni1E60.ss03" horiz-adv-x="653" 
d="M50 100v116h136v-96h275v168l-411 33v279l100 100h353l100 -100v-116h-136v96h-275v-158l411 -33v-289l-100 -100h-353zM263 758v100h142v-100h-142z" />
    <glyph glyph-name="Scedilla.ss03" horiz-adv-x="653" 
d="M50 100v116h136v-96h275v168l-411 33v279l100 100h353l100 -100v-116h-136v96h-275v-158l411 -33v-289l-100 -100h-353zM213 -200l47 144h134l-77 -144h-104z" />
    <glyph glyph-name="uni1E62.ss03" horiz-adv-x="653" 
d="M50 100v116h136v-96h275v168l-411 33v279l100 100h353l100 -100v-116h-136v96h-275v-158l411 -33v-289l-100 -100h-353zM241 -172v100h142v-100h-142z" />
    <glyph glyph-name="uni0218.ss03" horiz-adv-x="653" 
d="M50 100v116h136v-96h275v168l-411 33v279l100 100h353l100 -100v-116h-136v96h-275v-158l411 -33v-289l-100 -100h-353zM213 -200l47 144h134l-77 -144h-104z" />
    <glyph glyph-name="uni0421.ss03" horiz-adv-x="656" 
d="M50 104v492l104 104h360l92 -92v-168h-140v136h-270v-452h270v136h140v-168l-92 -92h-360z" />
    <glyph glyph-name="uni0405.ss03" horiz-adv-x="653" 
d="M50 100v116h136v-96h275v168l-411 33v279l100 100h353l100 -100v-116h-136v96h-275v-158l411 -33v-289l-100 -100h-353z" />
    <glyph glyph-name="uni1E3E.ss04" horiz-adv-x="872" 
d="M52 0v700h230l154 -462l154 462h230v-700h-138v558h-15l-167 -486h-128l-167 486h-15v-558h-138zM306 764v76l320 27v-103h-320z" />
    <glyph glyph-name="uni1E40.ss04" horiz-adv-x="872" 
d="M52 0v700h230l154 -462l154 462h230v-700h-138v558h-15l-167 -486h-128l-167 486h-15v-558h-138zM365 758v100h142v-100h-142z" />
    <glyph glyph-name="Mu.ss04" horiz-adv-x="872" 
d="M52 0v700h230l154 -462l154 462h230v-700h-138v558h-15l-167 -486h-128l-167 486h-15v-558h-138z" />
    <glyph glyph-name="uni041C.ss04" horiz-adv-x="872" 
d="M52 0v700h230l154 -462l154 462h230v-700h-138v558h-15l-167 -486h-128l-167 486h-15v-558h-138z" />
    <glyph glyph-name="Lslash.ss05" horiz-adv-x="530" 
d="M52 0v700h142v-268l247 106v-120l-247 -106v-184h308v-128h-450z" />
    <glyph glyph-name="Lacute.ss05" horiz-adv-x="530" 
d="M52 0v700h142v-572h308v-128h-450zM52 764v76l320 27v-103h-320z" />
    <glyph glyph-name="Lcaron.ss05" horiz-adv-x="530" 
d="M52 0v700h142v-572h308v-128h-450zM292 472v228h60v-228h-60z" />
    <glyph glyph-name="uni013B.ss05" horiz-adv-x="530" 
d="M52 0v700h142v-572h308v-128h-450zM208 -200l47 144h134l-77 -144h-104z" />
    <glyph glyph-name="uni1E36.ss05" horiz-adv-x="530" 
d="M52 0v700h142v-572h308v-128h-450zM236 -172v100h142v-100h-142z" />
    <glyph glyph-name="uni1E3A.ss05" horiz-adv-x="530" 
d="M52 0v700h142v-572h308v-128h-450zM137 -170v98h340v-98h-340z" />
    <glyph glyph-name="Ldot.ss05" horiz-adv-x="530" 
d="M52 0v700h142v-572h308v-128h-450zM295 380v134h130v-134h-130z" />
    <glyph glyph-name="uni01C7.ss05" horiz-adv-x="1130" 
d="M52 0v700h142v-572h308v-128h-450zM560 114v206h142v-192h236v448h-350v124h492v-586l-114 -114h-292z" />
    <glyph glyph-name="uni01C8.ss05" horiz-adv-x="776" 
d="M52 0v700h142v-572h308v-128h-450zM582 618v100h142v-100h-142zM582 -140v700h142v-700h-142z" />
    </font>
</defs>
</svg>
