<svg width="120" height="90" viewBox="0 0 120 90" fill="none" xmlns="http://www.w3.org/2000/svg">
<g clip-path="url(#clip0_530_985)">
<path d="M58.7301 0.222277C58.0824 0.349261 57.492 0.51434 57.1745 0.647674C54.7618 1.67624 53.1364 3.6318 52.6729 6.07624C52.1396 8.90163 53.1364 11.8413 55.1682 13.4604C55.7904 13.9556 56.2729 14.2032 57.4221 14.6096C58.5205 14.9969 58.692 15.0985 58.965 15.5239C59.2443 15.9492 59.4983 16.1715 59.8031 16.254C60.0316 16.3112 60.1015 16.3048 60.3999 16.1651C60.8063 15.9683 60.9967 15.7778 61.2063 15.3524C61.365 15.035 61.3713 15.0286 61.8094 14.9143C64.9396 14.1334 67.0285 11.6635 67.3777 8.3429C67.5618 6.58418 67.0539 4.62862 66.038 3.15561C65.6507 2.59688 64.7555 1.71434 64.2094 1.33974C63.3523 0.768309 62.3047 0.355611 61.2063 0.165134C60.1459 -0.0189915 59.8666 -0.0126438 58.7301 0.222277ZM60.9015 1.70799C64.0507 2.24767 66.1269 4.48259 66.2666 7.47306C66.4062 10.5016 64.6031 13.0731 61.6507 14.0572C60.3682 14.4826 59.3078 14.4889 58.0761 14.0699C56.0253 13.3715 54.3745 11.5429 53.7586 9.30163C53.6443 8.87624 53.619 8.63497 53.6253 7.84132C53.6253 6.99687 53.6443 6.82545 53.7967 6.33021C54.1777 5.09846 54.7491 4.17148 55.6761 3.28894C56.5269 2.48259 57.1301 2.13339 58.1904 1.83497C59.1872 1.54926 59.8094 1.52386 60.9015 1.70799Z" fill="#F0EFEA"/>
<path d="M60.2538 3.27624C60.2538 3.30164 60.2982 3.54926 60.3553 3.82862C60.5014 4.53338 60.4442 5.30164 60.1966 6.15878C60.0887 6.52703 59.9871 6.86354 59.968 6.91433C59.9045 7.07941 59.7522 6.85719 59.676 6.48894C59.5553 5.87941 59.4918 5.72068 59.2315 5.39687C59.0284 5.13656 58.3744 4.57148 58.2791 4.57148C58.2664 4.57148 58.2538 4.93338 58.2474 5.38418C58.2474 6.33021 58.1839 6.53973 57.6125 7.49211C56.8506 8.7683 56.6728 9.38417 56.8506 10.0953C56.9776 10.6096 57.3204 11.1112 57.7458 11.435C59.8093 12.9905 62.9585 11.9683 63.5299 9.54925C63.8855 8.05084 63.1109 5.85402 61.7014 4.34291C61.2379 3.84767 60.2538 3.12386 60.2538 3.27624ZM61.3268 6.66671C62.4696 7.24449 62.7363 9.48576 61.8093 10.7048C61.4284 11.2 60.5903 11.3905 59.5553 11.2127C58.8379 11.0858 58.349 10.8635 58.1141 10.5588C57.7649 10.1016 57.8855 9.10481 58.3998 8.15878C58.6347 7.72703 58.7744 7.73338 58.9141 8.19052C59.149 8.92703 59.4474 9.26989 59.8728 9.26989C60.0696 9.26989 60.1522 9.23179 60.3109 9.04767C60.7109 8.59052 60.9268 7.981 60.9903 7.10481C61.0157 6.7937 61.0474 6.53973 61.0601 6.53973C61.0728 6.53973 61.1934 6.59687 61.3268 6.66671Z" fill="#F0EFEA"/>
<path d="M42.6032 6.56511C41.3842 6.86352 40.8445 7.09209 40 7.68892C37.8349 9.21273 36.5207 12.0508 36.8254 14.5524C37.1937 17.6191 39.3524 20.2032 42.2476 21.0476C43.4222 21.3841 44.5588 21.4032 45.9429 21.1111C47.1429 20.8635 47.7397 20.6349 48.3365 20.2159L48.6349 20L49.0159 20.127C49.4794 20.2857 49.7334 20.2857 50.0699 20.1334C50.5841 19.8984 50.8127 19.3016 50.6794 18.5397L50.6032 18.108L50.8826 17.5175C51.6 15.981 51.9048 14.3302 51.7524 12.8826C51.3588 9.23177 48.7429 6.73654 44.8953 6.34924C43.9556 6.254 43.8349 6.2667 42.6032 6.56511ZM45.308 7.8159C46.0127 7.91114 46.8064 8.15241 47.4603 8.46987C50.9588 10.1524 51.8857 14.7619 49.3651 17.9556C48.5778 18.9461 47.2572 19.7905 45.9048 20.1651C45.0286 20.4064 43.8603 20.4445 43.0921 20.2603C40.7556 19.7016 38.8572 17.6127 38.3746 15.073C38.2349 14.3048 38.2794 12.9905 38.4762 12.3238C38.7619 11.327 39.2445 10.4889 39.981 9.70796C40.8762 8.76193 41.7778 8.23495 42.9842 7.94923C43.8603 7.73971 44.508 7.70162 45.308 7.8159Z" fill="#F0EFEA"/>
<path d="M43.968 10.7746C44.076 11.5302 44.2728 11.9619 44.6728 12.3175C44.9649 12.5714 45.2633 12.6984 45.7141 12.7619C46.2982 12.8444 47.5426 12.654 47.5998 12.4698C47.6506 12.2984 47.5172 12.2667 47.0474 12.3619C46.7617 12.4127 46.3109 12.4444 45.9236 12.4317C45.3268 12.4127 45.2633 12.4 45.0093 12.2222C44.6728 11.9809 44.4188 11.5048 44.3109 10.9079C44.2411 10.5143 44.222 10.4762 44.0823 10.4762C43.9363 10.4762 43.9299 10.4889 43.968 10.7746Z" fill="#F0EFEA"/>
<path d="M42.9653 10.8699C42.9208 11.035 42.9907 11.3905 43.2065 12.0826C43.378 12.6159 43.4034 12.9651 43.2954 13.2508C43.1494 13.6381 42.6986 13.9619 41.9621 14.1905C41.651 14.2858 41.6129 14.3175 41.6383 14.4445C41.6637 14.5778 41.6827 14.5842 41.8923 14.527C42.5526 14.3429 43.2129 13.7524 43.5685 13.035C43.7589 12.6477 43.778 12.5461 43.778 12.0508C43.778 11.5429 43.7653 11.4858 43.5875 11.2381C43.4859 11.0921 43.3081 10.9207 43.2002 10.8508L42.997 10.7302L42.9653 10.8699Z" fill="#F0EFEA"/>
<path d="M47.1747 13.5365C46.343 13.854 46.2223 13.9238 46.0001 14.1651C45.7144 14.4826 45.6319 14.8254 45.6636 15.5302C45.6954 16.1651 45.8922 16.7048 46.2033 17.0286C46.5144 17.3524 46.5398 17.1937 46.3049 16.4254C45.9049 15.1111 45.9684 14.4318 46.5208 14.0699C46.762 13.9111 47.3906 13.7143 47.6636 13.7143C47.8541 13.7143 47.8922 13.6254 47.7589 13.473C47.6509 13.3524 47.6446 13.3524 47.1747 13.5365Z" fill="#F0EFEA"/>
<path d="M42.4826 15.1492C41.9873 15.3461 41.8477 15.4413 41.8413 15.5683C41.8413 15.6762 42.235 15.6064 42.6413 15.435C42.8826 15.3334 43.2 15.2318 43.3397 15.2064C44.1778 15.0731 44.9016 15.8223 45.1048 17.035C45.181 17.4921 45.2318 17.5683 45.3905 17.4667C45.4731 17.4159 45.4731 17.3334 45.4096 16.9207C45.2381 15.8096 44.7492 15.2254 43.8159 15.0096C43.2953 14.8826 43.0794 14.908 42.4826 15.1492Z" fill="#F0EFEA"/>
<path d="M73.8729 6.55869C72.1967 6.96504 71.3776 7.42218 70.2729 8.55869C68.6729 10.2158 67.911 12.2666 68.1205 14.3746C68.2538 15.7777 68.4951 16.5523 69.0792 17.4603C69.2887 17.7904 69.4602 18.0761 69.4602 18.1079C69.4602 18.1396 69.3903 18.3301 69.3014 18.5396C69.003 19.2507 69.1554 19.8031 69.7459 20.1142C69.9999 20.2476 70.6856 20.2412 71.0157 20.1015L71.2633 19.9936L72.2221 20.4761C73.3141 21.0222 73.9935 21.2317 74.984 21.3396C76.6094 21.5174 78.2602 21.0857 79.7459 20.1015C82.2602 18.4253 83.6253 15.4412 83.1427 12.6857C82.876 11.1428 81.93 9.39678 80.7745 8.30472C79.4602 7.06663 77.8157 6.41901 75.7395 6.32377C75.0475 6.28568 74.9649 6.29838 73.8729 6.55869ZM76.5078 7.87298C79.2697 8.4571 81.111 10.2603 81.5554 12.819C82.1014 15.9174 80.311 18.946 77.3205 19.9936C76.5268 20.2666 75.9046 20.3809 75.1618 20.3809C74.3046 20.3809 73.6062 20.2095 72.7935 19.8095C71.13 18.9841 69.8729 17.4666 69.2887 15.5746C69.1364 15.0666 69.1173 14.9206 69.1173 13.9365C69.111 13.0476 69.13 12.7809 69.2316 12.4444C69.5618 11.3269 70.1967 10.2349 70.8506 9.63805C71.3776 9.16187 72.0253 8.81266 73.4221 8.24123L74.6348 7.74599L75.3967 7.77139C75.8157 7.78409 76.3173 7.83488 76.5078 7.87298Z" fill="#F0EFEA"/>
<path d="M75.9872 10.4127C75.7015 10.5588 75.4348 10.7556 75.3396 10.8762C75.1745 11.0921 75.1618 11.0921 74.584 11.1239C73.9428 11.1619 73.4729 11.308 73.0031 11.6191C72.3364 12.0635 72.1333 12.8191 72.4825 13.5873C72.6539 13.9683 72.7999 14.108 73.7015 14.7683C73.7142 14.7746 73.4793 15.2699 73.1809 15.8667C72.8761 16.4635 72.6348 16.9715 72.6285 16.9969C72.6285 17.0223 72.6539 17.054 72.6856 17.0667C72.7364 17.0794 74.5713 14.0889 74.6158 13.9112C74.6285 13.8667 74.5713 13.8032 74.4952 13.7715C74.3618 13.727 74.3301 13.7524 74.1904 14.0381C73.9999 14.4127 73.9174 14.4572 73.6634 14.3239C72.8253 13.8921 72.7237 12.5588 73.4666 11.7207C73.8094 11.327 74.2475 11.2064 74.7301 11.3715L74.9332 11.4477L74.9079 11.8985L74.8761 12.3492L74.9586 12.0699C75.0856 11.6508 75.3332 11.3397 75.6888 11.1429C76.4825 10.7112 77.7079 11.1746 78.0698 12.0381C78.2475 12.4635 78.1459 13.1619 77.8412 13.5873C77.6761 13.8159 77.6825 13.8286 77.892 13.854C78.0507 13.8731 78.0698 13.8985 78.1205 14.2604C78.2348 15.0858 77.8348 15.7588 77.1047 15.9746C76.4825 16.1524 75.6126 16 75.4285 15.6699C75.3396 15.4985 75.3396 15.4921 75.6126 15.2127C75.892 14.927 75.892 14.9207 75.7777 14.7937C75.7142 14.7239 75.6444 14.6667 75.619 14.6667C75.5745 14.6667 73.365 17.0159 73.219 17.2191C73.1428 17.3207 73.1491 17.3334 73.2761 17.3334C73.3586 17.3334 73.619 17.1365 73.9618 16.8127C74.2602 16.5207 74.6094 16.1905 74.7428 16.0762L74.9713 15.8604L75.1999 16.108C75.3206 16.2477 75.5745 16.4381 75.7586 16.5461C76.0444 16.6985 76.165 16.7302 76.5396 16.7302C77.3079 16.7239 77.9301 16.3112 78.2729 15.5619C78.4126 15.2635 78.438 15.1175 78.438 14.635C78.438 14.2604 78.3999 13.9683 78.3301 13.7842L78.2221 13.5048L78.4253 13.0921C78.6856 12.5715 78.7428 11.9366 78.5777 11.4413C78.3491 10.7683 77.6507 10.2604 76.8507 10.1905C76.5079 10.1588 76.438 10.1778 75.9872 10.4127Z" fill="#F0EFEA"/>
<path d="M59.7013 17.746C59.295 18.0317 59.2252 18.4317 59.5299 18.7619C59.822 19.0793 60.4886 18.927 60.6156 18.5206C60.6728 18.3238 60.6601 18.2666 60.495 18.0063C60.3553 17.7968 60.2601 17.7143 60.1585 17.7143C60.0759 17.7143 59.9744 17.7016 59.9236 17.6825C59.8791 17.6635 59.7775 17.6952 59.7013 17.746Z" fill="#F0EFEA"/>
<path d="M59.6827 20.4317C59.5621 20.527 59.5303 20.6286 59.5049 20.9397C59.4795 21.3143 59.4795 21.327 59.67 21.4222C59.8541 21.5174 59.8922 21.5174 60.1716 21.4095C60.3938 21.327 60.4891 21.2508 60.5335 21.1238C60.6986 20.6539 60.0573 20.1333 59.6827 20.4317Z" fill="#F0EFEA"/>
<path d="M51.5367 20.8952C51.3335 21.0603 51.3018 21.1238 51.3018 21.3587C51.3018 21.7016 51.5049 21.9429 51.8478 22.0064C52.216 22.0762 52.4637 21.8413 52.5335 21.3524C52.5716 21.0921 52.5652 21.073 52.3367 20.927C51.9494 20.6794 51.8033 20.673 51.5367 20.8952Z" fill="#F0EFEA"/>
<path d="M67.7523 20.7873C67.4602 20.946 67.3523 21.346 67.4983 21.6698C67.5809 21.8603 67.7523 21.9428 68.1142 21.9936C68.3682 22.0317 68.3872 22.019 68.5079 21.8286C68.7047 21.5111 68.7301 21.2444 68.5967 21.0159C68.5269 20.9079 68.4126 20.8063 68.3364 20.7936C68.2539 20.7746 68.1269 20.7492 68.0507 20.7365C67.9682 20.7174 67.8348 20.7428 67.7523 20.7873Z" fill="#F0EFEA"/>
<path d="M36.4381 22.127C33.9301 22.7492 32.292 24.1651 31.3651 26.5016C30.7238 28.1333 30.6159 30.1016 31.092 31.7397C31.7587 34.0635 33.5555 35.854 35.8793 36.5333C36.7365 36.781 37.3651 36.8444 38.4698 36.8063C39.2889 36.781 39.5873 36.7429 40.2032 36.5841C42.4127 36.0127 44.1016 34.7429 44.9841 32.9841C45.2317 32.4889 45.4476 31.7524 45.5555 31.0286C45.5873 30.819 45.6317 30.7683 45.8603 30.673C46.3809 30.4508 46.8571 29.9048 46.8571 29.5365C46.8571 29.219 46.6666 28.7111 46.4889 28.5333C46.3936 28.4381 46.1714 28.3111 46 28.254L45.6889 28.146L45.3524 27.2C45.1682 26.6794 44.9714 26.1333 44.9143 25.9873C44.7428 25.5238 44.2159 24.781 43.6381 24.1841C42.2603 22.7556 40.4825 22.0381 38.0635 21.9365C37.3524 21.9111 37.2444 21.9238 36.4381 22.127ZM39.619 23.327C42.1968 23.8794 43.873 25.4286 44.5587 27.8921C44.6412 28.1968 44.6666 28.546 44.6666 29.3968C44.6666 30.6095 44.5968 30.9968 44.1905 31.9492C43.7968 32.8762 42.9651 33.9111 42.1206 34.5143C41.6127 34.8762 40.673 35.3206 39.9682 35.5302C39.2127 35.7524 37.9809 35.8095 37.2571 35.6635C34.9905 35.1937 33.0095 33.2762 32.3682 30.9206C32.2413 30.4571 32.2222 30.2413 32.2286 29.3651C32.2286 28.4444 32.2476 28.2921 32.4063 27.7778C32.7682 26.5778 33.5809 25.3333 34.4952 24.5778C35.2 23.9937 35.7841 23.6889 36.7238 23.4159C37.5238 23.1873 37.5873 23.181 38.3492 23.2C38.7873 23.2191 39.3587 23.2762 39.619 23.327Z" fill="#F0EFEA"/>
<path d="M37.581 26.9714C36.5397 28.5524 36.2604 29.0476 35.9937 29.8412C35.8223 30.3428 35.7842 30.5397 35.7842 31.0158C35.7842 31.5111 35.8096 31.6381 35.962 31.9873C36.3112 32.7492 37.2445 33.4349 38.1461 33.5936C38.4635 33.6508 38.635 33.6444 39.054 33.5555C40.0508 33.3587 40.7302 32.927 41.0667 32.292C41.2191 32 41.2381 31.9047 41.2381 31.3016C41.2318 30.7238 41.2064 30.5587 41.0286 30.0508C40.8001 29.3778 40.4572 28.673 39.9366 27.8095C39.7397 27.4793 39.454 26.9778 39.308 26.6984C39.0032 26.1397 38.635 25.6508 38.5207 25.6508C38.4762 25.6571 38.0572 26.2476 37.581 26.9714ZM37.0413 30.2159C37.0604 30.2412 37.0477 30.4444 37.0096 30.6603C36.9588 30.9524 36.9588 31.1555 37.0096 31.4095C37.1239 32 37.3969 32.2603 38.0572 32.4063C38.3874 32.4825 38.4508 32.5397 38.3556 32.692C38.3048 32.7682 38.254 32.7682 37.9874 32.6666C37.2572 32.3936 36.7683 31.9174 36.6413 31.3587C36.5778 31.0857 36.6477 30.4952 36.7683 30.273C36.8318 30.1524 36.9842 30.1206 37.0413 30.2159Z" fill="#F0EFEA"/>
<path d="M79.7778 22.2158C78.5841 22.5524 78.3238 22.6666 77.4667 23.2381C75.8095 24.3492 74.6857 26.0317 74.4444 27.7587C74.4063 28.0508 74.4 28.0635 73.9555 28.2984C73.3841 28.6095 73.2571 28.7746 73.219 29.2698C73.1682 29.9619 73.4603 30.4381 74.0635 30.6539L74.3619 30.7619L74.6413 31.5809C75.3651 33.7396 76.2667 34.9333 77.8857 35.892C79.7333 36.9777 82.2413 37.1809 84.3809 36.4127C86.9587 35.4857 88.7174 33.4412 89.2698 30.7365C90.1651 26.3365 86.5143 22.1904 81.5174 21.9428C80.8698 21.9047 80.8317 21.9111 79.7778 22.2158ZM82.2222 23.2635C84.8635 23.6635 86.7238 25.2254 87.4667 27.6508C87.6317 28.1841 87.6444 28.3047 87.6444 29.365C87.6508 30.3746 87.6317 30.565 87.5047 31.0095C87.1555 32.2095 86.6159 33.1301 85.7651 33.9428C84.6921 34.9714 83.4159 35.5555 81.8286 35.7523C80.5778 35.9047 79.2063 35.5301 78.0317 34.7301C76.1016 33.4031 74.9333 30.8508 75.2317 28.6095C75.4921 26.6539 76.7174 24.8698 78.4635 23.892C78.7111 23.7523 79.2254 23.5555 79.7143 23.4222C80.6667 23.1492 81.2317 23.1174 82.2222 23.2635Z" fill="#F0EFEA"/>
<path d="M79.5236 26.3682C78.9331 26.654 78.6601 26.8952 78.495 27.2825C78.2791 27.8032 78.495 29.2635 78.9966 30.6349C79.295 31.4603 79.8156 32.4952 80.0188 32.6857L80.1649 32.8254L81.1109 32.6032C83.8855 31.9555 84.9776 31.4032 85.4347 30.4C85.5807 30.0698 85.6125 29.9111 85.6125 29.492C85.6188 29.0603 85.5934 28.9333 85.4474 28.6603C85.0918 27.9809 84.4061 27.6063 83.5236 27.6C83.1934 27.6 82.9268 27.6381 82.768 27.7079C82.6347 27.7651 82.5014 27.7905 82.4696 27.7714C82.4379 27.7524 82.3299 27.5746 82.2283 27.3778C81.7776 26.4952 81.3649 26.1905 80.5395 26.127C80.1141 26.0952 80.0696 26.1016 79.5236 26.3682Z" fill="#F0EFEA"/>
<path d="M53.5367 22.6476C53.4923 22.6667 53.3843 22.819 53.2954 22.9968L53.1367 23.3143L53.3018 23.5302C53.4478 23.7206 53.4986 23.746 53.7653 23.746C54.1335 23.746 54.1843 23.7143 54.3113 23.4095C54.4447 23.0921 54.3558 22.8952 54.0066 22.7556C53.651 22.6159 53.632 22.6095 53.5367 22.6476Z" fill="#F0EFEA"/>
<path d="M58.7554 22.8127C57.2316 23.1238 56.4697 23.5301 55.4856 24.546C54.4443 25.6317 53.8602 26.8381 53.7205 28.2095C53.5935 29.4349 53.8158 30.5714 54.4126 31.7777C55.5999 34.1904 57.93 35.6 60.2538 35.3079C63.8856 34.8571 66.3491 32.0571 66.2031 28.5396C66.0824 25.5746 64.0761 23.2952 61.1173 22.7682C60.1142 22.5841 59.8538 22.5904 58.7554 22.8127Z" fill="#F0EFEA"/>
<path d="M65.9048 22.7873C65.7461 22.946 65.7144 23.0222 65.7144 23.2952C65.7144 23.6063 65.7271 23.619 65.9556 23.7397L66.2032 23.8666L66.4636 23.7079C66.8699 23.4666 66.9017 23.0476 66.5398 22.7873C66.2413 22.5777 66.108 22.5777 65.9048 22.7873Z" fill="#F0EFEA"/>
<path d="M48.5145 28.9143C48.4319 29.0032 48.3431 29.2064 48.3113 29.3778C48.2605 29.6508 48.2669 29.6952 48.4066 29.8286C48.4891 29.9111 48.6796 30.0064 48.8319 30.0318C49.0859 30.0825 49.124 30.0698 49.2954 29.9048C49.4351 29.7714 49.4859 29.6508 49.505 29.4159C49.5367 29.1048 49.5367 29.0984 49.2954 28.9587C48.9145 28.7365 48.6923 28.7238 48.5145 28.9143Z" fill="#F0EFEA"/>
<path d="M70.6792 28.9714C70.1712 29.4921 70.6919 30.2984 71.3395 29.9936C71.7331 29.8032 71.8284 29.5492 71.6506 29.1238C71.5744 28.946 71.5172 28.8952 71.3204 28.8635C71.1871 28.8381 71.0347 28.8063 70.9776 28.7873C70.9268 28.7746 70.7934 28.8508 70.6792 28.9714Z" fill="#F0EFEA"/>
<path d="M51.2255 28.9269C50.9017 29.0984 50.9271 29.7079 51.27 29.9301C51.4033 30.019 51.4478 30.019 51.7144 29.9238C52.0827 29.8031 52.1652 29.6444 52.0636 29.2762C51.9938 29.0095 51.9239 28.9587 51.5557 28.8698C51.4668 28.8508 51.3208 28.8762 51.2255 28.9269Z" fill="#F0EFEA"/>
<path d="M68.2095 28.9016C68.0572 28.9778 67.9365 29.2508 67.9365 29.5302C67.9365 29.7587 68.273 30.0508 68.4699 29.9937C68.8191 29.8857 69.0095 29.7778 69.0476 29.6571C69.1111 29.4476 68.9651 29.0159 68.8064 28.9587C68.527 28.8571 68.3492 28.8381 68.2095 28.9016Z" fill="#F0EFEA"/>
<path d="M62.0127 36.927C61.981 36.9587 60.2096 36.9841 58.0762 36.9905C53.6381 36.9968 53.6889 36.9905 52.5905 37.5238C51.2572 38.1778 50.1524 39.5238 49.3143 41.5238C48.6921 43.0095 47.7461 46.1397 47.581 47.2571C47.2381 49.5746 48.0572 51.0857 49.8159 51.3841C50.5715 51.5111 51.5747 51.2 52.7937 50.4508C53.5048 50.0127 59.7905 46.4762 60.0826 46.3492C60.2286 46.2857 60.6477 46.1841 61.0159 46.127C61.3842 46.0762 61.9493 45.9873 62.2794 45.9302C63.0731 45.8095 63.5429 45.5937 63.9302 45.1683C64.4191 44.6349 64.5397 44.3302 64.5397 43.619C64.5397 43.0857 64.5207 42.9778 64.3683 42.6984C64.0889 42.1651 63.6445 41.8095 63.0096 41.5937C61.9429 41.2381 60.7302 41.4032 58.7873 42.1651C57.7651 42.5651 56.6731 43.1238 54.7683 44.2159C52.7873 45.3524 52.7683 45.3587 52.7239 45.2444C52.6413 45.0286 52.8508 44.3683 53.2826 43.4984L53.7334 42.5905L54.0191 42.6222C54.4572 42.673 54.4762 42.7302 54.2032 43.2762C54.0699 43.5429 53.9747 43.7714 53.9873 43.7905C54.0064 43.8032 54.8826 43.3714 55.9429 42.8317C58.5016 41.5302 59.7905 41.0095 61.1429 40.7238C61.8667 40.5778 62.8953 40.5714 63.3969 40.7238C64.3937 41.0159 65.0413 41.7841 65.308 42.9778C65.6254 44.4 64.9905 45.727 63.6699 46.381C63.2 46.6095 63.1429 46.6222 62.2731 46.6794C61.7715 46.7111 61.2635 46.7619 61.1429 46.8C60.7556 46.9206 58.927 47.8413 57.9683 48.3936C57.4604 48.6857 56.4508 49.3016 55.7143 49.7524C54.9842 50.2095 53.962 50.8063 53.4413 51.073C52.927 51.346 52.4762 51.619 52.4381 51.6889C52.3493 51.8603 52.3556 84.6476 52.4508 85.765C52.6794 88.5968 53.6572 89.8031 55.854 89.9492C57.6 90.0634 58.6667 89.238 59.1048 87.4285C59.3905 86.2412 59.3842 86.4761 59.4096 73.346L59.435 60.8254H60H60.5715L60.5778 63.0603C60.5842 64.292 60.6096 70.2857 60.6286 76.3809L60.6667 87.4603L60.9143 87.9682C61.3461 88.8571 62.1969 89.5746 63.054 89.7714C63.4667 89.8666 64.3048 89.8539 64.7239 89.746C65.7715 89.473 66.7302 88.673 67.2381 87.6507L67.5239 87.0793L67.5429 75.746L67.5556 64.419L66.9842 63.873C66.5651 63.473 66.3683 63.2254 66.2413 62.9524L66.0635 62.5714V60.6666C66.0699 58.7492 66.1143 58.0317 66.3556 56C66.5588 54.3555 66.5016 52.6794 66.1651 49.7206C66.0191 48.4889 65.8858 47.1556 65.8667 46.7619C65.8159 45.9619 65.7842 46.019 66.3302 45.9365L66.5905 45.8984L66.6286 46.2984C66.7366 47.5746 67.0604 52.3111 67.1175 53.5238C67.2 55.1809 67.1556 56.8063 66.9842 58.5079C66.6667 61.6762 66.7746 62.6539 67.5112 63.4159C68.0127 63.9365 68.6604 64.1524 69.4032 64.0508C70.108 63.9555 70.6096 63.6508 70.8635 63.1619C71.0413 62.819 71.1048 62.4571 71.2064 61.2508C71.2572 60.6476 71.3397 59.8603 71.3905 59.492C71.5746 58.2222 71.6381 56.5587 71.5937 54.3175C71.5746 53.1301 71.5302 51.9555 71.4985 51.7143C71.4604 51.4667 71.4159 50.6857 71.3969 49.9683C71.3715 49.0794 71.308 48.3302 71.2 47.619C70.4699 42.8254 70.1461 41.4286 69.4159 39.9683C68.5588 38.2603 67.3651 37.2825 65.7778 37.0159C65.2635 36.927 62.0826 36.8572 62.0127 36.927Z" fill="#F0EFEA"/>
</g>
<defs>
<clipPath id="clip0_530_985">
<rect width="120" height="89.9682" fill="white"/>
</clipPath>
</defs>
</svg>
