<svg width="100" height="75" viewBox="0 0 100 75" fill="none" xmlns="http://www.w3.org/2000/svg">
<g clip-path="url(#clip0_530_1034)">
<path d="M21.8785 0.19047C21.7939 0.259253 21.5187 0.433855 21.2754 0.571421C21.032 0.708988 20.7515 0.910046 20.6563 1.02645C20.233 1.51851 20.1378 2.4656 20.45 3.10052C20.7621 3.73544 21.3865 4.16931 22.1748 4.30158L22.5664 4.37036L23.0796 5.60317C23.3653 6.28571 23.5981 6.8783 23.5981 6.92063C23.5981 7.07407 23.1272 7.44973 22.5293 7.78306C21.3865 8.42327 20.4129 9.55026 19.5875 11.2011C18.5082 13.3439 18.4605 15.3598 19.4182 18.1693C19.5611 18.5873 19.9473 19.5661 20.2859 20.3492C21.0743 22.2011 21.1378 22.3704 21.5558 23.619C22.2489 25.6931 22.6775 26.3122 23.651 26.6402C24.8045 27.0264 26.2383 27.0529 27.5664 26.7196C32.2277 25.5503 35.5452 24.0317 37.3177 22.2593C38.0002 21.582 38.524 20.7196 38.6775 20.0212C38.8309 19.3545 38.4341 18.1111 37.3018 15.7143C37.0637 15.2063 36.4976 13.8677 36.0478 12.7354C35.1854 10.5767 35.032 10.2804 34.3918 9.49735C34.2224 9.291 33.8732 8.92063 33.614 8.67195C31.3547 6.49735 28.3918 5.67195 25.5029 6.4074L24.8997 6.56613L24.8045 6.44444C24.5082 6.06349 24.0214 4.8783 23.8627 4.17989C23.7992 3.89417 23.7992 3.88359 23.9896 3.57671C24.2965 3.06878 24.3653 2.79893 24.3653 2.14285C24.3653 1.62433 24.3494 1.52909 24.2224 1.25925C23.942 0.661369 23.4447 0.275126 22.7674 0.132267C22.2542 0.0211563 22.0637 0.0317383 21.8785 0.19047ZM22.7357 1.3492C23.1219 1.51322 23.2965 1.77777 23.2965 2.19576C23.2965 2.84655 22.7515 3.26454 22.0637 3.14814C21.8203 3.10581 21.6881 2.98941 21.5346 2.67195C21.3177 2.22222 21.4341 1.75132 21.8468 1.44973C22.1272 1.24867 22.4129 1.21692 22.7357 1.3492ZM33.0849 11.2857C33.45 11.4497 33.7357 11.7354 33.9103 12.1111C34.0267 12.3598 34.0478 12.4815 34.0478 12.8571C34.0478 13.3862 33.905 13.7513 33.5717 14.0952C33.1008 14.5714 32.2859 14.7566 31.7357 14.5132C31.0108 14.1852 30.5452 13.2963 30.6933 12.5026C30.8098 11.8836 31.0849 11.5661 31.7515 11.291C32.1272 11.1323 32.2436 11.1111 32.4976 11.1323C32.6616 11.1429 32.9262 11.2116 33.0849 11.2857ZM28.487 12.8466C29.0902 13.127 29.4923 13.6085 29.6616 14.254C29.868 15.0317 29.6087 15.9471 29.0373 16.4286C28.7939 16.6349 28.3759 16.8201 27.9949 16.8836C27.1325 17.037 26.1537 16.5397 25.7674 15.7513C25.4447 15.0899 25.4447 14.4815 25.7674 13.8254C25.9685 13.4127 26.2383 13.1799 26.8521 12.8783C27.3177 12.6455 27.3389 12.6402 27.7357 12.6667C28.0478 12.6825 28.2277 12.7249 28.487 12.8466ZM35.2965 16.1164C35.8732 16.2857 36.2912 16.6614 36.4553 17.1587C36.5664 17.5132 36.5082 18.0741 36.3071 18.4815C36.0902 18.9206 35.4129 19.6508 34.7674 20.1376C33.651 20.9788 31.6034 21.7672 29.905 22.0159C29.3494 22.0952 28.233 22.0529 27.8045 21.9365C27.3283 21.8042 26.8785 21.5714 26.651 21.3439C26.3177 21.0106 26.2701 20.8783 26.2701 20.3439C26.2701 19.9312 26.2912 19.8307 26.4182 19.5661C26.7621 18.8677 27.4711 18.5714 28.8256 18.5714C29.5399 18.5714 30.4711 18.4709 30.8203 18.3492C31.3759 18.1693 31.9949 17.7989 32.9262 17.0952C34.3706 16.0159 34.6087 15.9153 35.2965 16.1164Z" fill="#F0EFEA"/>
<path d="M32.5448 12.4497C32.3067 12.5714 32.1162 12.836 32.1162 13.0423C32.1162 13.1005 32.1638 13.2487 32.222 13.3757C32.3384 13.6296 32.476 13.7037 32.8358 13.7037C33.1691 13.7037 33.4284 13.4656 33.476 13.1058C33.5025 12.8783 33.4919 12.836 33.3543 12.6931C33.2326 12.5608 32.8622 12.3228 32.7935 12.328C32.7829 12.328 32.6718 12.3862 32.5448 12.4497Z" fill="#F0EFEA"/>
<path d="M27.9208 14.127C27.5398 14.381 27.4604 14.5132 27.4604 14.873C27.4604 15.2275 27.5821 15.418 27.9631 15.6349C28.1642 15.7566 28.2171 15.7619 28.4181 15.7196C28.8784 15.6138 29.1165 15.328 29.1165 14.8783C29.1165 14.3757 28.8679 14.0741 28.3864 14C28.2065 13.9683 28.1377 13.9894 27.9208 14.127Z" fill="#F0EFEA"/>
<path d="M34.1109 17.7778C32.8041 18.8148 32.1109 19.2275 31.1215 19.5608C30.5766 19.7407 30.5236 19.7513 29.4654 19.7936C28.349 19.836 28.0633 19.8783 27.7141 20.0582C27.476 20.1799 27.4602 20.3016 27.6612 20.4868C27.9205 20.7354 28.3226 20.8095 29.2538 20.7778C30.1797 20.746 30.64 20.6561 31.6506 20.3175C33.2485 19.7831 34.5025 18.9471 35.0422 18.0582C35.2062 17.7936 35.2273 17.7143 35.2009 17.5238C35.1744 17.3386 35.1533 17.3016 35.0527 17.3016C34.984 17.3016 34.894 17.291 34.857 17.2751C34.8147 17.2593 34.4972 17.4709 34.1109 17.7778Z" fill="#F0EFEA"/>
<path d="M54.7039 3.2328C54.5134 3.59258 53.9949 5.49206 53.7356 6.79364C53.6563 7.1746 53.5822 7.49206 53.5716 7.50264C53.561 7.51851 53.5187 7.50264 53.4817 7.47618C53.4446 7.44444 52.7515 6.91534 51.9367 6.29629C50.0266 4.84126 49.9102 4.80422 49.9632 5.71428C50.0002 6.39682 50.2753 7.5238 50.8785 9.48676C51.0108 9.92063 51.1113 10.2857 51.0954 10.2963C51.0796 10.3122 50.3547 10.3386 49.4764 10.3545C48.1748 10.3809 47.8838 10.4021 47.8838 10.4603C47.8838 10.746 48.36 11.4233 49.0743 12.164C49.6457 12.7566 50.0531 13.0899 50.4129 13.2751C50.6669 13.4021 50.7568 13.3968 50.8415 13.2381C50.9843 12.9682 50.1748 11.9418 49.4129 11.4233C49.2118 11.2857 49.1007 11.1746 49.1007 11.1111C49.1007 11.0106 49.143 11.0053 50.4235 11.0053H51.7409L51.7991 10.7884C51.905 10.4021 51.7727 9.70899 51.2489 7.89946C50.9367 6.82539 50.8573 6.45502 50.9314 6.45502C50.9579 6.46031 51.5822 6.92063 52.3229 7.48676C53.4023 8.31745 53.6774 8.50793 53.7568 8.4656C54.0637 8.30158 54.6669 6.53438 54.8944 5.10581C54.942 4.81481 54.9896 4.57142 55.0002 4.56084C55.0848 4.47089 55.8679 5.85184 56.3547 6.96296L56.6933 7.72486L56.905 7.77248L57.1166 7.8201L58.5293 6.38624C59.3071 5.59788 59.9632 4.96825 59.979 4.98941C59.9949 5.00528 59.9261 5.48147 59.8203 6.04232C59.5134 7.7037 59.4341 8.44444 59.5134 8.9947L59.5505 9.28571L59.9208 9.28042C60.3335 9.26983 60.5187 9.22221 61.4817 8.87301C62.1536 8.62962 62.778 8.47089 62.8362 8.52909C62.852 8.55026 62.6721 8.85713 62.4341 9.21163C61.9473 9.94708 61.5346 10.7407 61.5346 10.9365C61.5346 11.0317 61.5822 11.0846 61.7251 11.1428C62.0055 11.2593 62.8573 11.3704 64.0478 11.4444C64.9102 11.4973 65.106 11.5238 65.1166 11.5873C65.1272 11.6402 64.6986 11.9365 63.8679 12.4497C62.6986 13.1746 62.6034 13.2434 62.5769 13.4021C62.5187 13.7725 62.8732 13.7884 63.5505 13.4444C63.7833 13.328 64.4446 12.9206 65.0161 12.5503C65.5875 12.1746 66.196 11.7884 66.36 11.6931C66.6139 11.5555 66.6774 11.4921 66.7303 11.3175C66.7674 11.1799 66.7727 11.0899 66.7409 11.0582C66.5822 10.8995 65.0002 10.7037 63.5346 10.6508C62.5028 10.619 62.487 10.619 62.5187 10.5079C62.5981 10.2487 62.8256 9.8783 63.2224 9.34391C63.778 8.60846 63.8944 8.40211 64.0002 7.9947C64.1007 7.58729 64.0848 7.56613 63.6087 7.56613C63.1907 7.56613 62.688 7.69311 61.6669 8.05819C60.8626 8.3492 60.3335 8.49735 60.2859 8.44973C60.27 8.43915 60.3759 7.37036 60.5187 6.07936C60.6669 4.78835 60.7727 3.7037 60.7568 3.66666C60.6827 3.48147 60.5452 3.49206 60.2277 3.7037C59.6404 4.09523 57.9579 5.79893 57.4076 6.56084C57.3071 6.7037 57.1854 6.8201 57.1378 6.8201C57.0372 6.82539 56.8097 6.4074 56.2171 5.13227C55.9949 4.65079 55.7198 4.08994 55.5981 3.88888C55.2065 3.21692 54.852 2.95766 54.7039 3.2328Z" fill="#F0EFEA"/>
<path d="M54.545 13.4286C53.4604 13.7619 53.1164 13.9365 52.4815 14.4603C51.4657 15.3175 50.7302 16.6138 50.4974 17.9735C50.4127 18.4603 50.4127 18.836 50.4921 20.0317C50.5027 20.2063 50.5397 20.1693 46.6561 24.1746L45.6614 25.1958L43.2381 24.0688C41.9101 23.4497 40.3757 22.7355 39.836 22.4868L38.8466 22.0212L38.5926 22.3757C37.1641 24.3175 33.7884 26.2116 29.7249 27.3492C27.6403 27.9312 26.1746 28.127 24.8678 27.9947C23.0741 27.8095 21.9418 27.2063 21.4551 26.1746C21.3016 25.8413 21.2858 25.8254 21.2328 25.9365C21.2011 26.0053 20.09 28.3598 18.7672 31.1799L16.3598 36.2963L16.5397 41.8942C16.635 44.9683 16.7196 47.6296 16.7196 47.8042V48.1217L16.4762 48.2751C16.1217 48.5026 15.4445 49.1958 15.1376 49.6614C14.6191 50.4339 14.2593 51.3545 14.1217 52.2434C14.0318 52.8042 14.09 54.0582 14.2276 54.5661C14.5768 55.873 15.3069 56.9841 16.2381 57.6138C16.6403 57.8889 17.4551 58.2857 18.291 58.619C19.0688 58.9312 19.1482 58.9259 19.2593 58.5926C19.3387 58.3492 19.3122 58.1323 19.0318 56.9471C18.8254 56.0476 18.799 55.9841 18.6773 55.9524C18.3492 55.8677 17.8731 55.5767 17.6032 55.2963C17.0741 54.746 16.8519 54.1323 16.8572 53.254C16.8572 52.3704 17.1958 51.5026 17.7937 50.8677C18.1641 50.4709 18.5027 50.2434 18.9789 50.0794C20.053 49.7037 21.1905 49.9788 22.0265 50.8148C22.709 51.4921 23.0159 52.164 23.0582 53.0741C23.0953 53.9048 22.9207 54.418 22.4074 54.9735L22.1852 55.2116L22.4339 56.3757C22.5715 57.0159 22.7143 57.6772 22.7461 57.8413C22.8096 58.127 22.8201 58.1429 22.9207 58.0899C22.9789 58.0582 23.0371 58.0476 23.053 58.0635C23.1535 58.164 22.2593 66.873 22.1376 66.9788C20.7249 68.1852 20.3916 68.5767 19.8995 69.6349C19.4233 70.6508 19.3863 71.6349 19.8043 72.3386C20.217 73.0317 21.053 73.5026 22.5609 73.8889C23.9418 74.2381 25.1799 74.3915 26.672 74.3968C27.7778 74.3968 28.4233 74.3333 29.1376 74.1534C30.6985 73.7566 31.3016 72.9683 31.1164 71.5661C30.9683 70.4392 30.1905 68.7672 29.4445 67.963L29.2487 67.7566L30.0953 59.4074C30.5556 54.8148 30.9524 51.0423 30.9736 51.0212C31.0371 50.9524 37.3175 50.1005 37.3492 50.1534C37.3651 50.1799 37.8995 54.0688 38.5344 58.7989L39.6932 67.3968L39.3228 67.9418C38.2752 69.5132 37.8413 70.6402 37.8995 71.6931C37.9418 72.5132 38.2328 73.0741 38.8043 73.4074C39.1217 73.5926 39.8731 73.836 40.4762 73.9524C41.2064 74.0847 43.4921 74.0847 44.3069 73.9524C44.9842 73.836 46.1217 73.5291 47.0106 73.2275C49.7778 72.2698 50.3122 70.8889 48.799 68.6032C48.4127 68.0159 47.2699 66.8254 46.9207 66.6402C46.7725 66.5661 46.7143 66.4921 46.6932 66.3757C46.6561 66.1587 41.5873 28.619 41.5873 28.5556C41.5873 28.5291 41.672 28.5238 41.7831 28.545C42.1482 28.6138 42.7778 28.8995 43.5556 29.3439C45.0053 30.1799 45.635 30.4074 46.3651 30.3598C47.127 30.3122 47.0159 30.4127 51.6138 25.7143C52.9418 24.3598 53.217 24.1005 53.3281 24.1111C53.4075 24.1164 53.799 24.2328 54.2117 24.3598C55.2064 24.6772 55.6561 24.7619 56.4921 24.7989L57.1958 24.8307L56.8995 24.1217C56.7408 23.7302 56.4868 23.1217 56.344 22.7725L56.0794 22.1323L55.7514 22.0952C54.1588 21.9312 53.1588 20.6561 53.2381 18.8942C53.2963 17.6508 53.926 16.5608 54.8466 16.1058C55.4233 15.8201 56.1482 15.7407 56.7884 15.8942L57.09 15.963L58.2011 15.0159C58.8149 14.4974 59.3122 14.037 59.3122 14.0053C59.3122 13.9365 58.7249 13.6614 58.2117 13.4868C57.6879 13.3069 56.9154 13.1746 56.2117 13.1481L55.5291 13.1217L54.545 13.4286ZM46.4709 26.8571C47.1059 27.0741 47.4868 27.8307 47.2963 28.5026C47.1059 29.1958 46.1905 29.5661 45.5186 29.2328C44.672 28.8095 44.6879 27.5979 45.545 26.9471C45.8096 26.746 46.0688 26.7196 46.4709 26.8571ZM36.3757 30.4868C36.4815 30.9788 37.3016 37.4286 37.2593 37.455C37.2276 37.4709 35.2117 37.7566 32.7778 38.0899C29.7831 38.4921 28.3334 38.672 28.3122 38.6349C28.2646 38.5503 27.291 31.6296 27.3281 31.5979C27.3545 31.5714 35.9789 30.3862 36.2276 30.3757C36.3122 30.3704 36.3545 30.4074 36.3757 30.4868ZM23.1164 41.7196C23.6191 45.3545 24.0424 48.4233 24.0582 48.5397L24.09 48.7407L23.9101 48.6508C23.8096 48.5979 23.5027 48.3915 23.2276 48.1905C22.6455 47.7619 22.2381 47.545 21.8201 47.4339C21.6508 47.3915 21.508 47.3439 21.4921 47.3333C21.4815 47.3175 21.3704 45.037 21.254 42.2698L21.0477 37.2328L21.5926 36.1323C21.8942 35.5238 22.1535 35.0423 22.1746 35.0688C22.1905 35.0899 22.6138 38.0794 23.1164 41.7196ZM19.0106 35.5873C19.1641 35.6402 19.3334 35.7566 19.4921 35.9259C20.0265 36.4974 20.0053 37.3545 19.4445 37.8201C18.9313 38.2381 18.0847 38.1799 17.6879 37.6984C17.1905 37.0952 17.4022 36.2011 18.1641 35.6878C18.4709 35.4815 18.6403 35.4603 19.0106 35.5873Z" fill="#F0EFEA"/>
<path d="M45.73 27.6984C45.5766 27.8783 45.5766 27.8995 45.6242 28.1587C45.6718 28.3915 45.6982 28.4339 45.8623 28.5026C46.1057 28.6032 46.312 28.5503 46.5025 28.3333C46.6453 28.1693 46.6559 28.1376 46.6083 27.9259C46.5501 27.6614 46.4443 27.5661 46.2115 27.5661C46.1162 27.5661 46.0051 27.5503 45.9628 27.5344C45.9152 27.5185 45.8252 27.582 45.73 27.6984Z" fill="#F0EFEA"/>
<path d="M31.894 32.4021C29.4284 32.7619 28.9469 32.8413 28.9628 32.9101C28.9786 32.9524 28.9998 33.1481 29.021 33.3439C29.0527 33.6931 29.058 33.6984 29.1956 33.672C29.2749 33.6614 30.6612 33.4815 32.2749 33.2751C33.8887 33.0688 35.2167 32.8995 35.2167 32.8942C35.222 32.8889 35.2009 32.7037 35.1744 32.4868C35.1268 32.1058 35.0421 31.9471 34.8993 31.963C34.8675 31.9683 33.513 32.164 31.894 32.4021Z" fill="#F0EFEA"/>
<path d="M32.434 34.2328C30.9948 34.4339 29.6932 34.6085 29.5398 34.6296L29.2646 34.6614L29.2964 35.1217C29.3123 35.3757 29.3281 35.5873 29.3334 35.5873C29.3334 35.5926 30.6826 35.4233 32.3281 35.2064C33.9736 34.9947 35.344 34.8148 35.3811 34.8148C35.4287 34.8148 35.4393 34.7037 35.4128 34.3757C35.3969 34.1376 35.3811 33.9365 35.3758 33.9365C35.3176 33.8624 34.6033 33.9365 32.434 34.2328Z" fill="#F0EFEA"/>
<path d="M31.1112 36.4921C30.889 36.7725 30.9101 37.037 31.1641 37.1693C31.4392 37.3122 31.6562 37.2645 31.7726 37.0317C31.9419 36.709 31.799 36.4444 31.4181 36.3862C31.2488 36.3598 31.2012 36.3757 31.1112 36.4921Z" fill="#F0EFEA"/>
<path d="M29.6986 36.6772C29.5452 36.836 29.5346 36.8783 29.5611 37.0794C29.5928 37.3175 29.651 37.3704 29.9367 37.4339C30.1325 37.4762 30.2701 37.3862 30.4023 37.1323C30.4711 37 30.4711 36.963 30.397 36.8201C30.323 36.6825 30.0531 36.5079 29.905 36.5079C29.8838 36.5079 29.7886 36.5873 29.6986 36.6772Z" fill="#F0EFEA"/>
<path d="M18.3387 36.418C18.217 36.5291 18.1482 36.6508 18.1324 36.7831C18.1059 36.963 18.1218 37 18.3228 37.1693C18.4763 37.3016 18.5768 37.3492 18.6509 37.3333C18.7091 37.3175 18.7832 37.3016 18.8149 37.3016C18.8466 37.3016 18.9366 37.2434 19.016 37.1693C19.3123 36.8942 19.1112 36.3492 18.6879 36.2751C18.5451 36.2487 18.4869 36.2751 18.3387 36.418Z" fill="#F0EFEA"/>
<path d="M60.8254 17.2804C60.3915 17.6508 60.0899 17.9524 60.0741 18.0265C60.0264 18.2063 60.2222 19.0053 60.4815 19.6667C60.7778 20.4392 61.4286 21.7672 61.4815 21.7143C61.5397 21.6508 61.9206 20.3122 62.0423 19.7355C62.1799 19.1005 62.1852 17.7619 62.0476 17.3704C61.9471 17.0899 61.6772 16.6667 61.5926 16.6667C61.5661 16.6667 61.2169 16.9418 60.8254 17.2804Z" fill="#F0EFEA"/>
<path d="M57.2117 17.6402C56.18 17.9788 55.7514 18.8254 56.0001 20.0476C56.1377 20.7355 56.3652 21.3069 57.0636 22.7513C57.4234 23.4974 57.9313 24.6667 58.2012 25.3704C59.1218 27.7672 59.5345 28.7566 60.0371 29.7884C60.4869 30.6984 60.5821 30.8519 60.8678 31.1376C61.2435 31.5132 61.4816 31.6085 62.5927 31.8466C63.5768 32.0635 69.6879 33.7884 69.7408 33.8677C69.8308 34.0159 69.8414 34.4021 69.7673 34.9471C69.725 35.2698 69.6615 35.7196 69.6297 35.9524C69.5239 36.7355 68.9419 42.6455 68.7038 45.3175L68.471 47.963L66.9842 56.5344C66.1641 61.2487 65.4128 65.4815 65.3176 65.9365C64.5557 69.4392 64.3705 72.0212 64.799 73.2804C64.9789 73.8148 65.508 74.3175 66.1218 74.5503C67.471 75.0529 69.3176 74.4127 69.9154 73.2328C69.9578 73.1587 70.8414 68.1005 71.8837 61.9947C72.926 55.8889 73.7938 50.8677 73.8149 50.8413C73.852 50.7831 75.7938 50.9101 75.8572 50.9735C75.8731 50.9894 76.2276 54.9735 76.6456 59.8254C77.0583 64.6825 77.4234 68.8307 77.4551 69.0476C77.4922 69.2646 77.5609 70.0423 77.6191 70.7725C77.7885 72.8995 77.9366 73.4233 78.5345 74.0635C79.307 74.873 80.4128 75.1693 81.4075 74.8254C82.4022 74.4762 83.0213 73.7407 83.2594 72.619C83.3811 72.0582 83.3758 70.6878 83.2594 69.7884C83.2117 69.4233 83.1112 68.2434 83.0424 67.1693C82.9736 66.0899 82.5768 61.127 82.1641 56.1376L81.4181 47.0635L81.7938 42.9365C82.0001 40.6667 82.1853 38.7302 82.2012 38.6296L82.2276 38.4497L82.5239 38.4815C82.6826 38.4974 82.8308 38.5291 82.852 38.545C82.8678 38.5661 82.8784 38.9206 82.8731 39.328C82.8678 40 82.8149 40.5397 82.5133 43.09C82.471 43.4656 82.4498 43.7884 82.4604 43.8042C82.5186 43.8571 84.0054 43.7037 84.4075 43.5979C85.9419 43.2064 86.18 42.5026 85.7144 39.746C85.3387 37.5503 85.0953 36.4974 84.6826 35.2593C84.2329 33.9101 83.5027 32.6032 82.9472 32.1587C82.2541 31.6085 81.3017 31.3757 79.4181 31.2963C78.3281 31.254 77.3546 31.1746 76.7726 31.0794C76.4975 31.037 75.2329 30.8995 73.9684 30.7672L71.6668 30.5344L67.6033 29.3968C64.5609 28.5503 63.5027 28.2328 63.4128 28.1482C63.1959 27.9471 62.9525 27.4127 62.6403 26.455C62.4181 25.7831 61.9525 24.6667 60.9366 22.3704C60.1694 20.6349 59.434 19.0265 59.307 18.8042C59.0371 18.3333 58.6191 17.8836 58.2964 17.7196C58.016 17.5767 57.5133 17.5397 57.2117 17.6402Z" fill="#F0EFEA"/>
<path d="M75.7304 19.0688C75.0373 19.254 74.7939 19.3492 74.4447 19.5556C73.5611 20.0847 72.8098 20.9312 72.3019 21.9788C71.8574 22.8889 71.7728 23.254 71.7781 24.2063C71.7781 24.9101 71.7939 25.0529 71.9262 25.4762C72.7093 28.0635 75.2225 29.873 77.5135 29.5026C78.5558 29.3333 79.5982 28.9365 80.286 28.4444C81.0267 27.9153 81.7304 27.0106 82.1431 26.0476C82.4712 25.3016 82.5558 24.8836 82.5558 24.0476C82.5558 23.3968 82.54 23.2487 82.413 22.8413C82.0109 21.4974 81.122 20.4339 79.7622 19.6614C78.9897 19.2169 77.9791 18.9206 77.0638 18.8677C76.6193 18.8413 76.5294 18.8519 75.7304 19.0688Z" fill="#F0EFEA"/>
</g>
<defs>
<clipPath id="clip0_530_1034">
<rect width="100" height="74.9735" fill="white"/>
</clipPath>
</defs>
</svg>
