<svg width="140" height="105" viewBox="0 0 140 105" fill="none" xmlns="http://www.w3.org/2000/svg">
<path d="M63.2962 23.1038C62.9258 23.2741 62.7925 23.4223 62.5851 23.8889C62.4444 24.2075 62.4147 24.4223 62.3851 25.3852L62.3555 26.5186H63.9629H65.5777L65.5333 25.4593C65.4814 23.9852 65.2592 23.3778 64.6592 23.0741C64.3703 22.9186 63.6592 22.9334 63.2962 23.1038Z" fill="#F0EFEA"/>
<path d="M53.8521 30.7037V33.1111H63.9261H74.0002V30.7037V28.2963H63.9261H53.8521V30.7037Z" fill="#F0EFEA"/>
<path d="M62.3701 41.3332V47.8518H63.9257H65.4812V41.3332V34.8147H63.9257H62.3701V41.3332Z" fill="#F0EFEA"/>
<path d="M70.785 41.7036C70.3554 41.837 70.0147 42.3184 69.7999 43.074C69.6591 43.5629 69.5999 45.2444 69.6665 46.6888L69.7184 47.8518H71.2961H72.8739L72.9258 46.6073C73.0591 43.6295 72.7924 42.3258 71.9554 41.837C71.6887 41.6814 71.0739 41.6147 70.785 41.7036Z" fill="#F0EFEA"/>
<path d="M59.1109 52.0444C59.1109 53.3852 59.0887 55.2074 59.0591 56.0889L59.0146 57.7037H67.1702H75.3332V53.7037V49.7037H70.8369C68.3554 49.7037 64.7109 49.6815 62.7258 49.6519L59.1109 49.6074V52.0444Z" fill="#F0EFEA"/>
<path d="M91.0299 52.1852C90.2891 52.3259 88.9706 52.7259 87.8965 53.1481C87.4151 53.3333 86.9928 53.4815 86.9558 53.4815C86.9188 53.4815 86.8891 53.3481 86.8891 53.1852V52.8889H83.6299H80.3706V55.2963V57.7037H83.6299H86.8817L86.9039 57.2074L86.9262 56.7111L88.4077 56.3704C91.4669 55.6667 92.904 55.0815 93.5928 54.2741C94.1484 53.6296 93.9706 52.7333 93.1928 52.3037C92.7854 52.0815 91.8521 52.0296 91.0299 52.1852Z" fill="#F0EFEA"/>
<path d="M107.037 52.1852C106.193 52.3407 105.408 52.5778 104.134 53.0518C103.497 53.2889 102.956 53.4815 102.934 53.4815C102.911 53.4815 102.889 53.3481 102.889 53.1852V52.8889H99.6299H96.3706V55.2963V57.7037H99.6299H102.889V57.237C102.889 56.8 102.904 56.763 103.111 56.6444C103.504 56.4148 104.141 56.2296 105.622 55.9185C107.482 55.5407 108.067 55.3778 108.711 55.0741C109.682 54.6074 110.082 53.9333 109.852 53.163C109.719 52.7185 109.526 52.4815 109.141 52.2963C108.711 52.0889 107.808 52.037 107.037 52.1852Z" fill="#F0EFEA"/>
<path d="M40.0446 56.6666C39.8446 56.7036 39.5261 56.8074 39.3409 56.9036C39.0446 57.0592 38.9854 57.1259 38.9113 57.4148C38.7261 58.1259 38.8594 58.8666 39.2372 59.1999C39.6817 59.5999 43.0594 60.6666 44.9483 61.0073L45.6298 61.1333V61.674V62.2222H48.8891H52.1483V59.8148V57.4074H48.8891H45.6298V57.7111C45.6298 58.0666 45.7928 58.0888 44.0742 57.474C42.0668 56.7555 40.8891 56.5185 40.0446 56.6666Z" fill="#F0EFEA"/>
<path d="M57.037 61.7776V64.0739H50.8148H44.5926V66.185V68.2961L32.9926 68.3109L21.3926 68.3331L24.6667 72.5776L27.9407 76.8146L28.363 76.9405C28.6889 77.0368 29.0444 77.0664 30.037 77.0516C30.7333 77.0442 46.1037 77.022 64.2 76.9998L97.0963 76.9627L102.474 68.2664C105.43 63.4887 107.852 59.5553 107.852 59.5257C107.852 59.5035 96.4223 59.4813 82.4445 59.4813H57.037V61.7776Z" fill="#F0EFEA"/>
<path d="M24.3557 60.9925C23.9038 61.1555 23.6964 61.3259 23.5483 61.6518C23.3557 62.0888 23.3705 62.3629 23.6224 62.7555C24.289 63.8074 27.2742 65.0592 30.0224 65.4444L30.3705 65.4888V65.9703V66.4444H33.5409H36.7186L36.7631 64.0888C36.7853 62.7999 36.8001 61.7333 36.7927 61.7333C36.7853 61.7259 35.3335 61.7037 33.5779 61.6814L30.3705 61.637V61.8888C30.3705 62.0222 30.3335 62.1629 30.2964 62.1851C30.252 62.2074 29.8075 62.0592 29.2964 61.8518C27.7705 61.237 26.652 60.9555 25.5557 60.9185C24.8816 60.8962 24.5557 60.9111 24.3557 60.9925Z" fill="#F0EFEA"/>
</svg>
