<svg width="100" height="75" viewBox="0 0 100 75" fill="none" xmlns="http://www.w3.org/2000/svg">
<g clip-path="url(#clip0_530_984)">
<path d="M55.2648 0.195755C54.2172 0.259247 53.905 0.301575 52.1325 0.6402L50.1643 1.01586L48.9314 0.798929C46.1166 0.301575 45.0637 0.190464 43.1484 0.190464C41.1801 0.190464 40.5187 0.280411 38.397 0.851839C35.0055 1.76189 32.4235 3.08465 30.5928 4.84126C28.9156 6.44444 27.9579 8.06349 27.5822 9.92063C27.4394 10.6508 27.45 12.1058 27.6087 12.9101C27.8468 14.0741 28.2701 15.164 28.8891 16.1905C30.106 18.2064 31.7039 19.6243 33.7198 20.4656C33.8521 20.5238 33.8627 20.5397 33.8045 20.6455C33.7674 20.7143 33.0637 21.9577 32.2383 23.4074C31.4182 24.8624 30.7463 26.0529 30.7568 26.0635C30.778 26.0794 35.4605 25.3016 36.4552 25.1111C36.9949 25.0106 38.2701 24.7831 39.2859 24.6032C41.4341 24.2328 42.6775 23.9894 43.7251 23.7302C44.9896 23.4233 48.9314 22.2381 49.6404 21.9524L50.3177 21.6826L51.069 21.9788C51.5188 22.1535 52.7833 22.5397 54.1801 22.9312C56.5082 23.5873 56.5928 23.6085 61.3759 24.5714C65.4553 25.3968 69.7092 26.1693 69.7833 26.1058C69.8521 26.0423 69.6828 25.6455 69.4077 25.2275C69.1537 24.8413 67.2701 21.4921 66.8521 20.6878L66.7674 20.5291L67.0108 20.4233C67.5399 20.1958 69.1114 19.0476 69.9368 18.2751C71.1537 17.1482 72.2648 15.4497 72.741 13.9947C73.0743 12.9788 73.1484 12.5079 73.1484 11.3492C73.1484 10.1958 73.0955 9.83069 72.7939 8.91534C72.0584 6.65608 70.1749 4.49735 67.6563 3.02115C66.0373 2.07406 63.8574 1.23808 61.4553 0.6402C60.9315 0.513216 60.45 0.449722 58.6775 0.296284C57.4976 0.190464 56.5135 0.111099 56.4817 0.111099C56.4553 0.11639 55.905 0.153427 55.2648 0.195755ZM58.4394 1.6402C64.032 2.12697 67.9579 3.89946 70.2436 6.96825C71.3706 8.48148 71.9209 10.1376 71.8309 11.746C71.7463 13.328 71.1378 14.7831 69.9526 16.254C68.9209 17.5397 66.5399 19.3492 65.3389 19.7725L64.9103 19.9206L64.942 20.1058C64.9897 20.4074 65.3971 21.1693 66.1325 22.3281C66.8204 23.4127 67.2965 24.2593 67.2383 24.3122C67.2225 24.3281 65.2383 23.963 62.8256 23.4974L58.4394 22.6455L55.4235 21.8466C53.7674 21.4021 52.3759 21.0212 52.3441 20.9894C52.3071 20.963 52.2859 20.9206 52.3018 20.8995C52.3177 20.873 52.905 20.5503 53.6087 20.1799C55.524 19.1693 56.577 18.4392 57.7463 17.3016C59.0267 16.0582 59.8256 14.8413 60.2542 13.4921C60.487 12.7513 60.5558 12.2857 60.5505 11.4286C60.5505 10.2645 60.3018 9.28042 59.7145 8.11111C58.7674 6.22222 57.2965 4.65079 55.0849 3.17988C53.9103 2.39681 53.7516 2.30687 53.2859 2.15343C52.9632 2.04232 52.7145 1.91533 52.8098 1.89946C52.8203 1.89946 53.3442 1.8148 53.9685 1.71957C55.0902 1.53967 55.1219 1.53967 56.4553 1.56083C57.196 1.57142 58.0902 1.60845 58.4394 1.6402Z" fill="#F0EFEA"/>
<path d="M24.0635 25.9894C23.5503 27.0053 23.3915 27.2804 23.3016 27.291C23.09 27.3227 22.5873 27.0952 21.7725 26.6137C21.3281 26.3545 20.8677 26.1058 20.7566 26.0635L20.545 25.9894L20.9154 27.2804C21.1217 27.9894 21.2699 28.5873 21.2487 28.6085C21.2328 28.6243 20.746 28.6984 20.1746 28.7672C19.6032 28.836 19.127 28.8995 19.1111 28.91C19.1005 28.9206 19.3915 29.3122 19.7566 29.7778C20.1217 30.2434 20.4445 30.6719 20.4815 30.7301C20.5344 30.8095 20.5185 30.9206 20.3968 31.328C19.9524 32.8307 19.8889 33.0952 19.8572 33.6772C19.7513 35.7407 20.9736 37.8677 23.0212 39.164C25.4392 40.6931 28.6455 40.2804 30.8678 38.1481C31.709 37.3439 32.291 36.418 32.545 35.4762C32.6455 35.1164 32.6667 34.873 32.6826 33.8042L32.709 32.5555L33.4445 31.8201C33.8466 31.418 34.1799 31.0688 34.1799 31.0529C34.1799 31.0317 33.7355 30.7725 33.1905 30.4709C32.6402 30.1693 32.1799 29.8995 32.1588 29.8677C32.0794 29.7619 32.1217 29.4921 32.2699 29.0741C32.3545 28.8413 32.508 28.4074 32.6191 28.1058C32.7249 27.8042 32.8043 27.5503 32.7937 27.5397C32.7884 27.5344 32.164 27.6085 31.4074 27.709C30.6561 27.8095 30.0106 27.8783 29.9736 27.8624C29.7884 27.7936 29.4656 26.8783 29.2064 25.7143C29.1482 25.4391 29.0794 25.1799 29.0529 25.1375C29.0159 25.0846 28.6826 25.2963 27.6244 26.0582C26.8625 26.6032 26.2328 27.0423 26.2275 27.0317C26.2169 27.0211 25.8942 26.5026 25.508 25.8836C25.1164 25.2645 24.7831 24.746 24.7566 24.7301C24.7355 24.7196 24.418 25.2857 24.0635 25.9894Z" fill="#F0EFEA"/>
<path d="M74.3651 25.8995C73.9894 26.5238 73.6508 27.0318 73.6191 27.037C73.4815 27.037 72.799 26.6455 72.3281 26.2963C72.0529 26.0847 71.6191 25.7143 71.3704 25.4656L70.9154 25.0159L70.8043 25.1693C70.6402 25.3968 70.545 25.6614 70.3122 26.5291C70.1905 26.9683 70.0476 27.4392 69.9894 27.5767C69.8995 27.7937 69.8572 27.8307 69.6984 27.8624C69.4286 27.9154 68.873 27.8519 67.9154 27.672C67.455 27.5873 67.0582 27.5238 67.0371 27.5397C67.0159 27.5503 67.164 28.0794 67.3651 28.709C67.5714 29.3333 67.7249 29.8572 67.7143 29.8624C67.709 29.8677 67.2487 30.1217 66.6931 30.4233C66.1429 30.7249 65.6773 30.9789 65.6614 30.9894C65.6508 31 65.9683 31.3386 66.3757 31.746L67.1058 32.4762L67.1164 33.6349C67.1217 34.6931 67.1323 34.8307 67.2593 35.2963C67.7249 37.0265 68.5767 38.1799 70.0741 39.1217C71.6032 40.0847 73.6508 40.3281 75.381 39.7566C77.5291 39.0476 79.2222 37.3122 79.7725 35.2487C79.8942 34.799 79.9101 34.6296 79.9154 33.8889C79.9154 32.9312 79.8413 32.5238 79.4603 31.4392L79.2487 30.8413L80.0265 29.8783C80.5767 29.2011 80.7831 28.9101 80.7196 28.8995C80.6773 28.8889 80.1852 28.8254 79.6297 28.7619C79.0794 28.6984 78.6138 28.6296 78.5979 28.6138C78.582 28.5979 78.7249 28.0423 78.9154 27.3757C79.1058 26.709 79.2593 26.1217 79.2593 26.0741C79.2593 26 78.9736 26.1217 77.873 26.672C76.5662 27.3281 76.4815 27.3598 76.4127 27.2646C76.2699 27.0794 76.0476 26.582 75.8254 25.9683C75.5979 25.3545 75.2804 24.8042 75.1323 24.7725C75.0794 24.7672 74.8148 25.1535 74.3651 25.8995Z" fill="#F0EFEA"/>
<path d="M40.8834 41.1534C40.8622 45.6825 40.8675 47.127 40.9152 47.1534C41.1109 47.2751 41.64 47.3227 42.7511 47.3174C43.4072 47.3122 47.349 47.2963 51.513 47.2751L59.0845 47.2434L59.1162 41.254C59.1321 37.9577 59.1427 35.2645 59.1374 35.2592C59.1321 35.254 55.0316 35.2381 50.021 35.2222L40.9152 35.1905L40.8834 41.1534ZM57.7406 38.3968C57.7617 39.4021 57.7776 41.4709 57.7776 42.9894V45.7513L54.3279 45.7831C52.4284 45.8042 48.9363 45.8201 46.5765 45.8201H42.2749V41.1905V36.5608H49.9892H57.7088L57.7406 38.3968Z" fill="#F0EFEA"/>
<path d="M73.2222 45.09C71.9365 47.1641 70.873 48.873 70.8677 48.8836C70.8572 48.8942 69.6402 48.4392 68.164 47.873C66.6879 47.3069 65.4709 46.8466 65.4603 46.8519C65.455 46.8572 65.2169 47.4339 64.9312 48.127L64.4127 49.3916L63.9418 49.4233C63.6773 49.4445 63.0794 49.4603 62.6085 49.4656L61.746 49.4709V48.709V47.9471L61.5767 47.9154C60.9259 47.799 59.7831 47.7778 52.3757 47.7778C47.8466 47.7778 43.5926 47.7514 42.6138 47.7196C40.2698 47.6455 38.5767 47.7514 38.3439 47.9842C38.3016 48.0265 38.2751 48.3016 38.2645 48.7249L38.2434 49.4074L37.4973 49.4445C37.0847 49.4603 36.4973 49.4709 36.1958 49.4603L35.6402 49.4445L35.1164 48.2381C34.619 47.1111 34.582 47.0371 34.4497 47.0371C34.1852 47.0371 33.0846 47.4551 31.291 48.2223C30.3069 48.6455 29.4391 49 29.3651 49.0159C29.2381 49.0424 29.0899 48.8254 26.7883 45.2699L24.3386 41.4974L20.8889 41.4656C18.9894 41.4498 17.4338 41.4392 17.4233 41.4445C17.4074 41.4656 13.1799 62.2434 13.1904 62.254C13.1957 62.2593 16.2539 62.2752 19.9894 62.291L26.7725 62.3228V60.1588V57.9894H24.3862C22.1428 57.9894 22.0053 57.9842 22.0317 57.8942C23.0899 54.3228 24.8465 48.5767 24.9047 48.5185C24.9577 48.4603 24.9894 48.4551 25.0159 48.4974C25.037 48.5291 25.254 48.8572 25.4973 49.2275C25.7407 49.5926 25.9259 49.9101 25.9047 49.9312C25.8836 49.9524 25.7143 49.9789 25.5291 49.9894L25.1852 50.0106V51.672V53.3334H25.7566C26.0688 53.3334 26.5555 53.3492 26.8413 53.3704L27.3545 53.4021V64.1323C27.3545 72.6561 27.3704 74.8677 27.4233 74.9048C27.455 74.9259 28.455 74.9524 29.6455 74.963L31.7989 74.9789V68.508C31.7989 64.9471 31.8148 60.09 31.836 57.709L31.8677 53.3863H50.2646H68.6614L68.6931 57.6826C68.7143 60.0424 68.7302 64.873 68.7302 68.418C68.7302 73.5132 68.7461 74.873 68.799 74.9048C68.8307 74.9259 69.8307 74.9524 71.0212 74.963L73.1746 74.9789V68.508C73.1746 64.9471 73.1905 60.09 73.2117 57.709L73.2434 53.3863H74.164H75.0794V52.3651C75.0794 51.8096 75.0953 51.0476 75.1164 50.672L75.1482 50H74.5873C74.164 50 74.0212 49.9842 74.0212 49.9312C74.0212 49.6932 74.9418 48.2487 75.0318 48.3439C75.0582 48.3757 77.5238 56.2963 77.9683 57.7884C77.9947 57.8783 77.873 57.8836 75.8783 57.8836H73.7566V60.0159V62.1535L80.2487 62.1852C83.8201 62.2011 86.7619 62.2011 86.7831 62.1799C86.8043 62.1588 85.8783 57.4762 84.7355 51.7725C83.5873 46.0688 82.6455 41.3863 82.6455 41.3598C82.6455 41.3387 81.0529 41.3228 79.1059 41.3228H75.5662L73.2222 45.09ZM52.5291 48.7619C52.545 48.8783 52.5397 48.8783 50.9418 48.9154C50.0582 48.9312 48.8519 48.9418 48.254 48.9312C47.1799 48.9154 47.1693 48.9154 47.1534 48.799C47.1376 48.6826 47.1429 48.6826 47.9206 48.6614C48.3492 48.6561 49.5609 48.6455 50.6085 48.6508C52.5132 48.6508 52.5132 48.6508 52.5291 48.7619Z" fill="#F0EFEA"/>
<path d="M91.0476 54.5186L88.91 63.0953L82.8412 63.1111L76.7725 63.1217V64.0371C76.7725 64.545 76.7566 65.2434 76.7407 65.5979L76.7037 66.2328L76.91 66.291C77.2539 66.3916 78.0899 66.4233 78.4868 66.3545C78.7301 66.3122 78.8677 66.3069 78.9047 66.3439C78.9365 66.3757 78.4497 67.5503 77.4656 69.799C76.6402 71.672 75.9682 73.217 75.9629 73.2381C75.9577 73.254 76.3598 73.4709 76.8624 73.7196L77.7672 74.1746L78.5185 72.4974C78.9259 71.5767 79.709 69.8201 80.2592 68.5979L81.2487 66.3757L83.836 66.3598L86.4233 66.3492L86.5502 66.4656C86.7354 66.6402 86.8994 66.9471 87.0899 67.4868C87.1799 67.7461 87.8994 69.3598 88.6878 71.0635L90.1111 74.1693L91.037 73.7725C91.9047 73.3968 91.9576 73.3651 91.9576 73.2275C91.9576 72.9841 91.7619 72.4974 91.4338 71.9312C91.2116 71.5397 89.3016 67.3757 88.9047 66.4127C88.8836 66.3651 89.1375 66.3492 90.074 66.3492C90.7301 66.3492 91.2698 66.3386 91.2698 66.3281C91.2698 66.3122 92.3915 61.9312 93.7566 56.5926C95.127 51.254 96.2434 46.8413 96.2434 46.7831C96.2434 46.6879 96.1058 46.6455 94.9894 46.3757C94.2963 46.2117 93.6084 46.0424 93.455 46.0053L93.1799 45.9365L91.0476 54.5186Z" fill="#F0EFEA"/>
<path d="M5.58198 46.3809C4.88357 46.5344 4.19045 46.6878 4.0423 46.7196L3.77246 46.7778L6.22749 56.6138L8.6878 66.4497L9.8677 66.418C10.7513 66.3915 11.0529 66.4021 11.0793 66.4497C11.1164 66.5027 10.2963 68.3863 8.40738 72.5767L7.99997 73.4815L8.93119 73.8836C9.43913 74.1058 9.8677 74.2752 9.87828 74.2646C9.89415 74.254 10.6825 72.5185 11.6349 70.4127C13.0635 67.254 13.3862 66.5767 13.4973 66.5238C13.8254 66.3651 14.4021 66.3333 16.2698 66.3704C17.291 66.3915 18.2645 66.4286 18.4391 66.4445L18.7513 66.4815L20.4338 70.3651C21.3545 72.4974 22.1164 74.2487 22.1269 74.2593C22.1375 74.2646 22.5767 74.09 23.1005 73.873L24.0635 73.4815L23.9682 73.2646C23.2645 71.672 21.0635 66.5344 21.0793 66.5185C21.0899 66.508 21.5767 66.4868 22.164 66.4709L23.2275 66.4392V64.8572V63.2804H19.9047C18.074 63.2804 15.3598 63.2646 13.873 63.2434L11.164 63.2117L11.0317 62.9418C10.8307 62.5185 10.6561 61.8466 10.3703 60.3545C10.1904 59.4286 9.56082 56.8201 8.48674 52.5397C7.59786 49.0053 6.8677 46.1111 6.86241 46.1058C6.85712 46.1058 6.2804 46.2275 5.58198 46.3809Z" fill="#F0EFEA"/>
<path d="M66.4603 57.9947C66.328 58.3651 66.2857 59.3809 66.3439 60.746C66.3756 61.5132 66.4021 64.7619 66.4021 68.4868V74.9048L67.2592 74.9365C67.7301 74.9524 68.1217 74.963 68.127 74.9577C68.1323 74.9524 68.1481 71.1058 68.164 66.4127L68.1957 57.8836H67.709C67.4391 57.8836 67.0635 57.8677 66.873 57.8518L66.5238 57.8148L66.4603 57.9947Z" fill="#F0EFEA"/>
<path d="M32.3281 66.455V74.9207H32.963H33.598V66.455V57.9894H32.963H32.3281V66.455Z" fill="#F0EFEA"/>
</g>
<defs>
<clipPath id="clip0_530_984">
<rect width="100" height="74.9736" fill="white"/>
</clipPath>
</defs>
</svg>
