<svg width="120" height="90" viewBox="0 0 120 90" fill="none" xmlns="http://www.w3.org/2000/svg">
<path d="M51.2378 22.146C49.6823 22.2667 48.0632 22.9524 46.9331 23.9682C45.8791 24.9143 45.1299 26.7301 44.8315 29.0476C44.622 30.6412 44.5839 32.9968 44.6728 37.4095L44.7172 39.492H36.0569C30.2156 39.492 27.2124 39.4666 26.8251 39.4222C25.949 39.3143 24.0823 39.3333 23.2823 39.4539C21.5553 39.7206 20.1902 40.3873 19.041 41.5174C17.9807 42.5714 17.4855 43.7016 17.1617 45.8412C17.0601 46.5143 17.0537 47.7143 17.0347 62.0127L17.0156 77.4603H61.9997H106.984V66.5841C106.984 53.8158 106.958 52.965 106.508 51.2635C105.777 48.4889 103.943 47.0285 100.622 46.5714C99.2315 46.3809 97.441 46.3492 88.3934 46.3492H79.295L79.3013 37.5047C79.3204 27.9428 79.3204 28.0571 78.9775 27.0286C78.6156 25.9365 77.8981 24.8127 77.0346 24C75.7775 22.8127 74.5712 22.3746 72.1013 22.2222C71.2188 22.1714 51.8664 22.0952 51.2378 22.146ZM64.7616 37.6698V46.2666L63.987 46.3047C63.568 46.3301 62.7934 46.3492 62.2727 46.3492H61.3331V39.2698V32.1968L59.9553 32.8635C59.1997 33.2254 58.5585 33.5047 58.5394 33.4793C58.514 33.4476 58.3553 32.9016 58.1902 32.2539C58.0251 31.6063 57.8727 31.0286 57.8537 30.9714C57.8347 30.8825 58.1712 30.6857 59.6188 29.9682L61.4156 29.0793H63.0854H64.7616V37.6698ZM33.2696 46.4444C34.7363 46.6603 35.841 47.2317 36.4886 48.0952C36.8442 48.5714 36.9648 48.8 37.1489 49.3968C37.2823 49.8158 37.3013 50 37.3013 50.9206C37.3013 51.7016 37.2696 52.1079 37.1807 52.5079C36.8632 53.9809 36.0696 55.8222 35.1807 57.1492C34.9331 57.5238 34.4251 58.1523 34.0569 58.546C33.0918 59.5809 32.7172 60.0444 32.5013 60.4762L32.3109 60.8571L34.8442 60.8761L37.3775 60.8888L37.4156 61.4158C37.441 61.7015 37.4601 62.2984 37.4601 62.7492V63.5555L37.2886 63.6317C37.1616 63.6825 35.7902 63.6952 32.4759 63.6888C29.9299 63.6761 27.822 63.6571 27.8029 63.6444C27.7775 63.6317 27.7267 63.3714 27.6823 63.073C27.5109 61.8666 27.8093 61.1111 28.9839 59.7777C29.7712 58.8825 31.4474 56.7047 32.0124 55.8476C33.7267 53.2444 34.1204 51.0285 33.0855 49.892C32.7172 49.4857 32.3363 49.2825 31.7775 49.1936C31.0283 49.0666 30.1521 49.3206 29.441 49.8666C29.2442 50.019 29.1299 50.0698 29.1109 50.019C29.0982 49.9746 28.9839 49.5047 28.8632 48.9841C28.5458 47.6381 28.5394 47.4095 28.8251 47.092C29.0474 46.8381 29.2378 46.7746 30.3172 46.6095C30.7743 46.5397 31.2315 46.4508 31.3331 46.419C31.6251 46.3301 32.5966 46.3365 33.2696 46.4444ZM92.9203 52.7936C94.0632 53.0349 94.9902 53.7523 95.4854 54.7682C95.7965 55.4031 95.8918 55.9111 95.8537 56.7619C95.8219 57.5873 95.6188 58.3111 95.2315 58.965C94.9394 59.4539 94.3299 60.0635 93.8854 60.3174L93.5108 60.5269L93.9616 60.7619C95.5553 61.6 96.4505 63.0285 96.5521 64.8888C96.6791 67.2381 95.3203 69.5619 93.295 70.4825C92.2918 70.9396 91.314 71.0158 89.5108 70.7936C87.5489 70.546 87.3013 70.4063 87.3013 69.5746C87.3077 69.219 87.5616 67.5873 87.6251 67.5301C87.6378 67.5174 88.0061 67.6 88.4378 67.7206C90.8696 68.3873 92.3489 68.0444 93.0283 66.6539C93.7457 65.1936 92.9457 63.746 91.0981 63.1809C90.8632 63.1111 90.4569 63.0349 90.1902 63.0095L89.714 62.965V61.5936V60.2222L90.26 60.1142C91.5616 59.8666 92.4569 59.0095 92.5521 57.9238C92.6156 57.2444 92.26 56.3936 91.7838 56.0762C91.1108 55.619 89.8029 55.6508 88.6727 56.1523L88.3172 56.3111L88.2918 56.1714C88.2156 55.8222 87.9934 53.6444 88.0251 53.5936C88.114 53.4539 89.7394 52.946 90.5711 52.7936C91.187 52.6793 92.3807 52.6793 92.9203 52.7936Z" fill="#F0EFEA"/>
</svg>
