<svg width="110" height="83" viewBox="0 0 110 83" fill="none" xmlns="http://www.w3.org/2000/svg">
<path d="M40.1588 8.31692C40.0074 8.41004 39.181 8.60792 38.2963 8.75924C36.8588 9.00369 36.463 9.13755 35.4037 9.75448C33.454 10.8836 31.5741 12.7286 30.445 14.6143C29.0715 16.9132 28.5302 19.637 28.9551 22.0873C29.0889 22.8555 30.0027 25.783 30.2762 26.3185C30.8059 27.3428 31.4926 28.1809 32.7963 29.3799C33.3085 29.8513 33.9254 30.4217 34.1699 30.6545L34.6122 31.0677L33.1106 33.4656C32.2842 34.7809 31.5799 35.8984 31.545 35.9449C31.4926 36.0031 31.4926 36.0264 31.5392 36.0264C31.6207 36.0264 37.6154 34.4201 38.6979 34.1058C39.1344 33.9836 40.2752 33.6693 41.2355 33.4132C43.2958 32.8661 44.1397 32.6217 45.0477 32.3132C48.6852 31.0793 50.7223 29.4381 52.282 26.4815C53.9291 23.3677 54.2551 19.8756 53.1958 16.791C51.7524 12.6122 48.0275 9.49258 43.354 8.56136C42.2365 8.3402 40.345 8.1947 40.1588 8.31692ZM36.0614 18.6534C36.463 18.7756 36.882 19.1132 37.0974 19.4973C37.2662 19.7942 37.2778 19.8582 37.2778 20.3995C37.2778 20.9349 37.2662 21.0047 37.1032 21.2957C36.5503 22.2968 35.2699 22.5238 34.4376 21.7672C33.9953 21.3656 33.7916 20.9 33.7916 20.3122C33.7916 19.573 34.0768 19.1423 34.8043 18.7698C35.235 18.5428 35.59 18.5137 36.0614 18.6534ZM42.1434 18.7524C42.5217 18.927 42.8418 19.2354 43.0223 19.6079C43.127 19.8233 43.1561 19.9746 43.1561 20.3995C43.1561 20.8534 43.1328 20.964 42.999 21.2201C42.4635 22.2386 41.1365 22.5412 40.3217 21.8312C39.6757 21.2608 39.472 20.2132 39.8619 19.4566C40.0133 19.1539 40.2111 18.9852 40.6709 18.7582C41.0201 18.5836 41.1016 18.5661 41.445 18.5836C41.6953 18.601 41.9397 18.6592 42.1434 18.7524ZM47.8588 18.7291C48.3186 18.9328 48.5746 19.1772 48.7842 19.6021C48.9529 19.9397 48.9762 20.0444 48.9762 20.4577C48.9762 20.8476 48.9529 20.9756 48.8133 21.255C48.5048 21.8836 47.9053 22.2328 47.1254 22.2328C46.4212 22.2328 45.909 21.9069 45.618 21.2725C45.4201 20.836 45.4318 20.1725 45.6529 19.7127C45.8334 19.3402 46.2757 18.8629 46.6074 18.6825C46.8868 18.5312 47.4572 18.5545 47.8588 18.7291Z" fill="#F0EFEA"/>
<path d="M68.3575 15.5339C66.8734 15.8132 65.4416 16.4476 64.2834 17.3381C63.0496 18.2868 61.804 20.1259 61.2511 21.8196C60.9078 22.8556 60.803 23.6529 60.8379 24.881C60.8728 26.0275 60.9427 26.4349 61.2628 27.4127C62.0194 29.6884 63.7247 31.7254 65.8257 32.8429C66.2681 33.0757 66.6988 33.2037 69.8125 34.036C71.7332 34.554 74.2242 35.2116 75.3416 35.5026C76.4649 35.7936 77.4136 36.0439 77.4543 36.0556C77.5591 36.0905 77.5533 36.0847 76.3194 34.1873C75.7141 33.2619 75.2019 32.4762 75.1787 32.4413C75.1554 32.4005 75.3125 32.2725 75.5919 32.1095C76.9771 31.2947 78.1236 29.7291 78.7697 27.7503C79.1072 26.7201 79.2236 26.0101 79.2527 24.7646C79.2876 23.4841 79.2003 22.7275 78.9152 21.7556C78.7173 21.0746 78.1818 19.9222 77.8093 19.3693C76.1215 16.8609 73.485 15.5164 70.0395 15.4C69.3236 15.3767 69.1316 15.3884 68.3575 15.5339ZM66.1458 23.2048C66.6638 23.3794 67.1062 23.9905 67.1062 24.5259C67.1062 24.945 66.7744 25.4455 66.3787 25.6317C65.4125 26.0915 64.5453 25.5852 64.5453 24.5492C64.5453 24.1302 64.7083 23.7577 65.04 23.4143C65.3136 23.1291 65.3601 23.1058 65.5988 23.1058C65.7443 23.1058 65.9887 23.1466 66.1458 23.2048ZM70.5226 23.2688C70.994 23.5132 71.2966 24.0138 71.2966 24.555C71.2966 25.2534 70.6681 25.7831 69.8474 25.7831C69.3818 25.7831 69.1025 25.6085 68.8988 25.2069C68.5903 24.6016 68.7125 23.9439 69.2363 23.4085L69.5448 23.0884L69.9115 23.1175C70.1152 23.1349 70.3887 23.2048 70.5226 23.2688ZM74.8876 23.2455C75.8189 23.682 75.8887 25.0556 75.0041 25.5735C74.6548 25.7831 74.1252 25.8355 73.7702 25.7016C73.0078 25.4048 72.8914 24.2931 73.5374 23.5191C73.9099 23.0825 74.3406 22.9952 74.8876 23.2455Z" fill="#F0EFEA"/>
<path d="M52.7127 32.7614C51.4207 33.064 51.1937 33.1397 50.5942 33.4307C49.0053 34.2048 47.7424 35.2407 46.7122 36.6026C45.3911 38.3603 44.5995 40.3566 44.4715 42.254C44.262 45.2746 45.4784 48.3884 47.7598 50.664C49.9366 52.8407 52.7535 53.964 55.4366 53.7254C57.1942 53.5682 59.0916 52.9921 60.5408 52.1714C63.253 50.6407 65.1154 47.9169 65.7498 44.5587C65.9069 43.7264 65.8895 41.8407 65.7149 41.0317C65.0281 37.8016 62.8921 35.1709 59.7434 33.6635C58.1895 32.9185 56.6297 32.5286 54.9127 32.4529L54.1561 32.418L52.7127 32.7614Z" fill="#F0EFEA"/>
<path d="M28.3965 38.7852C27.1685 39.0646 26.6621 39.2741 25.696 39.9085C25.0034 40.3683 23.8685 41.4741 23.4203 42.1376C22.7394 43.1328 22.2272 44.3026 21.9944 45.3968C21.8082 46.2582 21.8082 47.6143 21.9886 48.464C22.3553 50.1635 23.0886 51.4963 24.3516 52.7651C25.9288 54.3365 27.7796 55.1746 29.8865 55.2735C31.8711 55.3667 33.9722 54.6741 35.532 53.4053C38.6108 50.9201 39.4256 46.2291 37.4119 42.6439C36.0907 40.3042 33.7278 38.8725 30.7013 38.5873C29.7584 38.5 29.5838 38.5175 28.3965 38.7852Z" fill="#F0EFEA"/>
<path d="M78.3097 38.8375C77.0119 39.1169 76.5113 39.3031 75.7372 39.792C75.033 40.2285 74.6722 40.5195 74.1367 41.055C72.5537 42.6439 71.7447 44.5878 71.7447 46.7936C71.7388 49.1333 72.6351 51.2809 74.323 52.9629C76.4531 55.0989 79.0314 55.7682 82.0637 54.965C84.9505 54.2084 87.0632 52.2412 87.9944 49.4418C88.3203 48.4698 88.4309 47.8063 88.4309 46.7936C88.4309 45.7984 88.332 45.2105 88.006 44.2968C86.8769 41.0899 83.6759 38.8026 80.0732 38.6222C79.5203 38.5931 79.3806 38.6105 78.3097 38.8375Z" fill="#F0EFEA"/>
<path d="M43.7383 57.6481C42.8187 57.8111 42.2716 57.9915 41.352 58.4338C38.6166 59.7608 37.0859 61.7688 36.469 64.8418C36.1139 66.5703 36.0092 68.6365 36.0674 72.5883L36.1023 75.2539H46.5261C52.2589 75.2539 60.8145 75.2714 65.5404 75.2947L74.1308 75.3296L74.1658 72.1926C74.2065 69.1661 74.1658 67.5074 74.0319 66.2619C73.834 64.4809 73.4557 63.0783 72.8504 61.9026C71.7271 59.7084 69.434 58.1312 66.7568 57.7121C65.5346 57.5201 64.5859 57.5026 54.5346 57.5084L44.4949 57.5143L43.7383 57.6481Z" fill="#F0EFEA"/>
<path d="M21.8371 58.319C21.1387 58.3947 20.7546 58.482 20.1959 58.6974C19.026 59.1455 18.1297 59.7275 17.2858 60.5831C16.5525 61.328 16.1742 61.9333 15.8715 62.8413C15.2488 64.727 15.1091 66.8222 15.2488 72.2989L15.3244 75.3138H24.2525H33.1747V75.1799C33.1747 75.11 33.134 73.6085 33.0816 71.8508C32.9536 67.4974 33.0525 65.5534 33.489 63.8365C33.9139 62.1778 34.4144 61.3222 36.0906 59.3899C36.5504 58.8603 36.9403 58.4005 36.9461 58.3714C36.9578 58.3423 34.6297 58.319 31.0678 58.319C27.826 58.319 24.5319 58.3074 23.7461 58.2958C22.9604 58.2783 22.1049 58.2899 21.8371 58.319Z" fill="#F0EFEA"/>
<path d="M73.4497 58.3058C73.4497 58.3407 73.764 58.7306 74.1539 59.173C76.3132 61.6407 76.9069 62.9502 77.2444 66C77.3317 66.7624 77.3492 71.9015 77.2735 73.9851L77.227 75.2539H82.11C84.7931 75.2539 88.8032 75.2714 91.0148 75.2947L95.0423 75.3296V71.0285C95.0423 64.7661 94.955 63.7883 94.2566 62.3624C93.436 60.6804 92.2021 59.5338 90.4735 58.8354C89.3037 58.364 89.6296 58.3873 83.4894 58.3523C80.4804 58.3291 76.9883 58.3 75.737 58.2825C74.1248 58.2534 73.4497 58.265 73.4497 58.3058Z" fill="#F0EFEA"/>
</svg>
