<svg width="153" height="81" viewBox="0 0 153 81" fill="none" xmlns="http://www.w3.org/2000/svg">
    <g filter="url(#filter0_d_78_2279)">
        <rect x="28.5" y="0.5" width="24" height="24" stroke="white"/>
        <path d="M43.3395 9.45312C43.2732 8.83286 42.9938 8.34991 42.5014 8.00426C42.0137 7.65862 41.3793 7.4858 40.598 7.4858C40.0488 7.4858 39.5777 7.56866 39.1847 7.73438C38.7917 7.90009 38.491 8.125 38.2827 8.40909C38.0743 8.69318 37.9678 9.01752 37.9631 9.3821C37.9631 9.68513 38.0317 9.94792 38.169 10.1705C38.3111 10.393 38.5028 10.5824 38.7443 10.7386C38.9858 10.8902 39.2533 11.018 39.5469 11.1222C39.8404 11.2263 40.1364 11.3139 40.4347 11.3849L41.7983 11.7259C42.3475 11.8537 42.8755 12.0265 43.3821 12.2443C43.8935 12.4621 44.3504 12.7367 44.7528 13.0682C45.16 13.3996 45.482 13.7997 45.7188 14.2685C45.9555 14.7372 46.0739 15.2865 46.0739 15.9162C46.0739 16.7685 45.8561 17.5189 45.4205 18.1676C44.9848 18.8116 44.3551 19.3158 43.5312 19.6804C42.7121 20.0402 41.7202 20.2202 40.5554 20.2202C39.4238 20.2202 38.4413 20.045 37.608 19.6946C36.7794 19.3442 36.1307 18.8329 35.6619 18.1605C35.1979 17.4882 34.947 16.669 34.9091 15.7031H37.5014C37.5393 16.2098 37.6955 16.6312 37.9702 16.9673C38.2448 17.3035 38.6023 17.5545 39.0426 17.7202C39.4877 17.8859 39.9848 17.9688 40.5341 17.9688C41.107 17.9688 41.6089 17.8835 42.0398 17.7131C42.4754 17.5379 42.8163 17.2964 43.0625 16.9886C43.3087 16.6761 43.4342 16.3116 43.4389 15.8949C43.4342 15.5161 43.3229 15.2036 43.1051 14.9574C42.8873 14.7064 42.5819 14.4981 42.1889 14.3324C41.8007 14.1619 41.3461 14.0104 40.8253 13.8778L39.1705 13.4517C37.9725 13.1439 37.0256 12.6776 36.3295 12.0526C35.6383 11.4228 35.2926 10.5871 35.2926 9.54545C35.2926 8.68845 35.5246 7.93797 35.9886 7.29403C36.4574 6.65009 37.0942 6.15057 37.8991 5.79545C38.7041 5.43561 39.6155 5.25568 40.6335 5.25568C41.6657 5.25568 42.5701 5.43561 43.3466 5.79545C44.1278 6.15057 44.741 6.64536 45.1861 7.27983C45.6312 7.90956 45.8608 8.634 45.875 9.45312H43.3395Z" fill="#E4EBF0"/>
        <rect x="28.5" y="24.5" width="24" height="24" stroke="white"/>
        <path d="M35.4347 44V29.4545H44.8949V31.6634H38.0696V35.6122H44.4048V37.821H38.0696V41.7912H44.9517V44H35.4347Z" fill="#E4EBF0"/>
        <rect x="4.5" y="48.5" width="24" height="24" stroke="white"/>
        <path d="M11.4347 68V53.4545H17.0028C18.054 53.4545 18.9276 53.6203 19.6236 53.9517C20.3243 54.2784 20.8475 54.7259 21.1932 55.294C21.5436 55.8622 21.7188 56.5062 21.7188 57.2259C21.7188 57.8177 21.6051 58.3243 21.3778 58.7457C21.1506 59.1624 20.8452 59.5009 20.4616 59.7614C20.0781 60.0218 19.6496 60.2088 19.1761 60.3224V60.4645C19.6922 60.4929 20.187 60.6515 20.6605 60.9403C21.1387 61.2244 21.5294 61.6269 21.8324 62.1477C22.1354 62.6686 22.2869 63.2983 22.2869 64.0369C22.2869 64.7898 22.1046 65.4669 21.7401 66.0682C21.3755 66.6648 20.8262 67.1359 20.0923 67.4815C19.3584 67.8272 18.4351 68 17.3224 68H11.4347ZM14.0696 65.7983H16.9034C17.8598 65.7983 18.5488 65.616 18.9702 65.2514C19.3963 64.8821 19.6094 64.4086 19.6094 63.831C19.6094 63.4001 19.5028 63.0118 19.2898 62.6662C19.0767 62.3158 18.7737 62.0412 18.3807 61.8423C17.9877 61.6387 17.5189 61.5369 16.9744 61.5369H14.0696V65.7983ZM14.0696 59.6406H16.6761C17.1307 59.6406 17.5402 59.5578 17.9048 59.392C18.2694 59.2216 18.5559 58.9825 18.7642 58.6747C18.9773 58.3622 19.0838 57.9929 19.0838 57.5668C19.0838 57.0033 18.8849 56.5393 18.4872 56.1747C18.0942 55.8101 17.5095 55.6278 16.733 55.6278H14.0696V59.6406Z" fill="#F8CD6B"/>
        <rect x="28.5" y="48.5" width="24" height="24" stroke="white"/>
        <path d="M37.3026 68H34.4901L39.6108 53.4545H42.8636L47.9915 68H45.179L41.294 56.4375H41.1804L37.3026 68ZM37.3949 62.2969H45.0653V64.4134H37.3949V62.2969Z" fill="#C1564B"/>
        <rect x="52.5" y="48.5" width="24" height="24" stroke="white"/>
        <path d="M58.7955 55.6634V53.4545H70.4006V55.6634H65.9048V68H63.2912V55.6634H58.7955Z" fill="#F8CD6B"/>
        <rect x="76.5" y="48.5" width="24" height="24" stroke="white"/>
        <path d="M82.7955 55.6634V53.4545H94.4006V55.6634H89.9048V68H87.2912V55.6634H82.7955Z" fill="#F8CD6B"/>
        <rect x="100.5" y="48.5" width="24" height="24" stroke="white"/>
        <path d="M107.435 68V53.4545H110.07V65.7912H116.476V68H107.435Z" fill="#F8CD6B"/>
        <rect x="124.5" y="48.5" width="24" height="24" stroke="white"/>
        <path d="M131.435 68V53.4545H140.895V55.6634H134.07V59.6122H140.405V61.821H134.07V65.7912H140.952V68H131.435Z" fill="#F8CD6B"/>
    </g>
    <defs>
        <filter id="filter0_d_78_2279" x="0" y="0" width="153" height="81" filterUnits="userSpaceOnUse" color-interpolation-filters="sRGB">
            <feFlood flood-opacity="0" result="BackgroundImageFix"/>
            <feColorMatrix in="SourceAlpha" type="matrix" values="0 0 0 0 0 0 0 0 0 0 0 0 0 0 0 0 0 0 127 0" result="hardAlpha"/>
            <feOffset dy="4"/>
            <feGaussianBlur stdDeviation="2"/>
            <feComposite in2="hardAlpha" operator="out"/>
            <feColorMatrix type="matrix" values="0 0 0 0 0 0 0 0 0 0 0 0 0 0 0 0 0 0 0.25 0"/>
            <feBlend mode="normal" in2="BackgroundImageFix" result="effect1_dropShadow_78_2279"/>
            <feBlend mode="normal" in="SourceGraphic" in2="effect1_dropShadow_78_2279" result="shape"/>
        </filter>
    </defs>
</svg>
