<?xml version="1.0" standalone="no"?>
<!DOCTYPE svg PUBLIC "-//W3C//DTD SVG 1.1//EN" "http://www.w3.org/Graphics/SVG/1.1/DTD/svg11.dtd" >
<svg xmlns="http://www.w3.org/2000/svg" xmlns:xlink="http://www.w3.org/1999/xlink" version="1.1">
<metadata>
Created by FontForge 20200427 at Sat Feb 27 16:20:54 2021
 By www
Copyright 2020 The Tektur Project Authors (https://www.github.com/hyvyys/Tektur)
</metadata>
<defs>
<font id="Tektur-Black" horiz-adv-x="600" >
  <font-face 
    font-family="Tektur Black"
    font-weight="900"
    font-stretch="normal"
    units-per-em="1000"
    panose-1="0 0 0 0 0 0 0 0 0 0"
    ascent="800"
    descent="-200"
    x-height="560"
    cap-height="700"
    bbox="-230 -250 1245 1000"
    underline-thickness="50"
    underline-position="-125"
    unicode-range="U+000D-FB04"
  />
<missing-glyph horiz-adv-x="580" 
d="M30 0v700h520v-700h-520zM290 413l145 207h-290zM120 170l126 180l-126 181v-361zM460 170v361l-126 -181zM145 80h290l-145 208z" />
    <glyph glyph-name="I_J.loclNLD" unicode="IJ" horiz-adv-x="960" 
d="M45 -4v165l50 5v368l-50 5v165l160 -8l160 8v-165l-50 -5v-368l50 -5v-165l-160 8zM405 140v210h210v-150h90v310h-280v190h500v-550l-150 -150h-230z" />
    <glyph glyph-name="Iacute_J.loclNLD" unicode="I&#x301;J" horiz-adv-x="960" 
d="M45 -4v165l50 5v368l-50 5v165l160 -8l160 8v-165l-50 -5v-368l50 -5v-165l-160 8zM405 140v210h210v-150h90v310h-280v190h500v-550l-150 -150h-230zM50 740v100l320 30v-130h-320zM550 740v100l320 30v-130h-320z" />
    <glyph glyph-name="gamma_gamma" unicode="&#x3b3;&#x3b3;" horiz-adv-x="1100" 
d="M170 -30l-165 590h225l49 -360h26l50 360h395l49 -360h26l50 360h220l-165 -590v-110h-240v110l-140 541l-140 -541v-110h-240v110z" />
    <glyph glyph-name="lambda_lambda" unicode="&#x3bb;&#x3bb;" horiz-adv-x="1150" 
d="M110 700h328l137 -631l89 411h178l-15 60h-167v160h328l157 -700h-223l-50 320h-42l-50 -320h-408l-50 320h-42l-50 -320h-225l109 480h178l-15 60h-167v160z" />
    <glyph glyph-name="uni0457_uni0457" unicode="&#x457;&#x457;" 
d="M0 600v130h120v-130h-120zM160 600v130h120v-130h-120zM320 600v130h120v-130h-120zM480 600v130h120v-130h-120zM40 0v560h220v-560h-220zM340 0v560h220v-560h-220z" />
    <glyph glyph-name=".notdef" horiz-adv-x="580" 
d="M30 0v700h520v-700h-520zM290 413l145 207h-290zM120 170l126 180l-126 181v-361zM460 170v361l-126 -181zM145 80h290l-145 208z" />
    <glyph glyph-name="NULL" horiz-adv-x="0" 
 />
    <glyph glyph-name="CR" unicode="&#xd;" horiz-adv-x="0" 
 />
    <glyph glyph-name="space" unicode=" " horiz-adv-x="260" 
 />
    <glyph glyph-name="A" unicode="A" horiz-adv-x="660" 
d="M5 0l135 700h380l135 -700h-235l-18 130h-144l-18 -130h-235zM280 280h100l-35 250h-30z" />
    <glyph glyph-name="A.ss01" horiz-adv-x="660" 
d="M620 550v-550h-220v140h-140v-140h-220v550l150 150h280zM260 500v-180h140v180h-140z" />
    <glyph glyph-name="B" unicode="B" horiz-adv-x="660" 
d="M620 560v-141l-67 -53l87 -70v-156l-140 -140h-460v700h440zM260 425h135v105h-135v-105zM260 170h150v115h-150v-115z" />
    <glyph glyph-name="C" unicode="C" horiz-adv-x="560" 
d="M35 150v400l150 150h340v-200h-260v-300h270v-200h-350z" />
    <glyph glyph-name="C.ss02" horiz-adv-x="630" 
d="M185 0l-150 150v400l150 150h405v-300h-200v110h-125v-320h125v110h200v-300h-405z" />
    <glyph glyph-name="C.ss03" horiz-adv-x="650" 
d="M35 140v420l140 140h315l125 -125v-165h-215v100h-135v-320h135v100h215v-165l-125 -125h-315z" />
    <glyph glyph-name="D" unicode="D" horiz-adv-x="635" 
d="M40 0v700h410l150 -150v-400l-150 -150h-410zM260 190h120v320h-120v-320z" />
    <glyph glyph-name="E" unicode="E" horiz-adv-x="580" 
d="M40 0v700h500v-180h-280v-80h230v-170h-230v-90h290v-180h-510z" />
    <glyph glyph-name="F" unicode="F" horiz-adv-x="550" 
d="M40 0v700h480v-200h-260v-120h240v-190h-240v-190h-220z" />
    <glyph glyph-name="G" unicode="G" horiz-adv-x="640" 
d="M35 150v400l150 150h370v-190h-300v-320h160v75h-100v170h290v-435h-420z" />
    <glyph glyph-name="G.ss02" horiz-adv-x="645" 
d="M35 150v400l150 150h420v-250h-200v60h-150v-320h150v65h-90v145h290v-400h-420z" />
    <glyph glyph-name="G.ss03" horiz-adv-x="650" 
d="M35 150v400l150 150h305l125 -125v-125h-215v60h-145v-320h160v65h-100v145h300v-400h-430z" />
    <glyph glyph-name="H" unicode="H" horiz-adv-x="650" 
d="M40 0v700h220v-240h130v240h220v-700h-220v260h-130v-260h-220z" />
    <glyph glyph-name="I" unicode="I" horiz-adv-x="430" 
d="M45 -4v165l60 5v368l-60 5v165l170 -8l170 8v-165l-60 -5v-368l60 -5v-165l-170 8z" />
    <glyph glyph-name="J" unicode="J" 
d="M15 150v200h220v-150h110v310h-290v190h510v-550l-150 -150h-250z" />
    <glyph glyph-name="K" unicode="K" horiz-adv-x="670" 
d="M40 0v700h220v-250h56l100 250h239l-150 -330l165 -370h-243l-106 260h-61v-260h-220z" />
    <glyph glyph-name="L" unicode="L" horiz-adv-x="565" 
d="M40 0v700h220v-520h90v100h190v-280h-500z" />
    <glyph glyph-name="L.ss05" horiz-adv-x="545" 
d="M40 0v700h220v-500h260v-200h-480z" />
    <glyph glyph-name="M" unicode="M" horiz-adv-x="780" 
d="M40 0v700h260l90 -244l90 244h260v-700h-216v417l-94 -237h-80l-94 237v-417h-216z" />
    <glyph glyph-name="M.ss04" horiz-adv-x="920" 
d="M40 0v700h340l80 -390l80 390h340v-700h-210v480h-15l-95 -420h-200l-95 420h-15v-480h-210z" />
    <glyph glyph-name="N" unicode="N" horiz-adv-x="680" 
d="M40 0v700h180l220 -345v345h200v-700h-180l-220 345v-345h-200z" />
    <glyph glyph-name="O" unicode="O" horiz-adv-x="680" 
d="M35 150v400l150 150h310l150 -150v-400l-150 -150h-310zM265 510v-320h150v320h-150z" />
    <glyph glyph-name="P" unicode="P" horiz-adv-x="630" 
d="M610 550v-250l-150 -150h-200v-150h-220v700h420zM260 320h130v210h-130v-210z" />
    <glyph glyph-name="Q" unicode="Q" horiz-adv-x="680" 
d="M35 150v400l150 150h310l150 -150v-343l-122 -78l132 -24v-205l-470 100zM265 175l150 -27v362h-150v-335z" />
    <glyph glyph-name="R" unicode="R" horiz-adv-x="660" 
d="M630 550v-222l-90 -90l120 -238h-248l-73 170h-79v-170h-220v700h440zM260 340h150v190h-150v-190z" />
    <glyph glyph-name="S" unicode="S" horiz-adv-x="640" 
d="M45 0v190h340v70l-350 33v267l140 140h420v-190h-340v-60l350 -33v-277l-140 -140h-420z" />
    <glyph glyph-name="S.ss02" horiz-adv-x="660" 
d="M45 0v230h200v-50h160v75l-370 33v272l140 140h440v-230h-200v50h-160v-75l370 -33v-272l-140 -140h-440z" />
    <glyph glyph-name="S.ss03" horiz-adv-x="650" 
d="M35 130v110h220v-60h140v80l-360 33v277l130 130h320l130 -130v-110h-220v60h-140v-80l360 -33v-277l-130 -130h-320z" />
    <glyph glyph-name="T" unicode="T" horiz-adv-x="580" 
d="M180 0v510h-160v190h540v-190h-160v-510h-220z" />
    <glyph glyph-name="U" unicode="U" horiz-adv-x="650" 
d="M40 150v550h220v-500h130v500h220v-550l-150 -150h-270z" />
    <glyph glyph-name="V" unicode="V" horiz-adv-x="660" 
d="M140 0l-135 700h243l67 -500h30l68 500h242l-135 -700h-380z" />
    <glyph glyph-name="W" unicode="W" horiz-adv-x="850" 
d="M112 0l-112 700h240l55 -460h10l58 350h124l58 -350h10l55 460h240l-112 -700h-261l-52 297l-52 -297h-261z" />
    <glyph glyph-name="X" unicode="X" horiz-adv-x="660" 
d="M0 0l140 370l-125 330h235l65 -240h30l65 240h235l-125 -330l140 -370h-238l-72 260h-40l-72 -260h-238z" />
    <glyph glyph-name="Y" unicode="Y" horiz-adv-x="640" 
d="M210 0v210h-83l-122 490h235l55 -300h50l55 300h235l-122 -490h-83v-210h-220z" />
    <glyph glyph-name="Z" unicode="Z" horiz-adv-x="565" 
d="M20 0v160l275 360h-270v180h515v-160l-275 -360h280v-180h-525z" />
    <glyph glyph-name="a" unicode="a" 
d="M30 140v180l310 10v50h-290v180h370l140 -140v-420h-390zM250 220v-50h90v70z" />
    <glyph glyph-name="b" unicode="b" horiz-adv-x="620" 
d="M40 0v700h220v-140h180l150 -150v-260l-150 -150h-400zM260 180h110v200h-110v-200z" />
    <glyph glyph-name="c" unicode="c" horiz-adv-x="520" 
d="M30 130v300l130 130h340v-200h-250v-160h250v-200h-340z" />
    <glyph glyph-name="d" unicode="d" horiz-adv-x="620" 
d="M580 700v-700h-400l-150 150v260l150 150h180v140h220zM250 180h110v200h-110v-200z" />
    <glyph glyph-name="e" unicode="e" horiz-adv-x="590" 
d="M30 130v300l130 130h400v-320h-310v-60h290v-180h-380zM250 330l130 10v60h-130v-70z" />
    <glyph glyph-name="f" unicode="f" horiz-adv-x="450" 
d="M40 0v570l130 130h260v-190h-170v-80h170v-180h-170v-250h-220z" />
    <glyph glyph-name="g" unicode="g" horiz-adv-x="610" 
d="M60 -140v180h290v40h-190l-130 130v220l130 130h410v-536l-164 -164h-346zM250 380v-130h100v130h-100z" />
    <glyph glyph-name="h" unicode="h" horiz-adv-x="620" 
d="M40 0v700h220v-140h180l140 -140v-420h-220v380h-100v-380h-220z" />
    <glyph glyph-name="i" unicode="i" horiz-adv-x="300" 
d="M40 600v130h220v-130h-220zM40 0v560h220v-560h-220z" />
    <glyph glyph-name="j" unicode="j" horiz-adv-x="300" 
d="M40 600v130h220v-130h-220zM40 -140v700h220v-700h-220z" />
    <glyph glyph-name="k" unicode="k" horiz-adv-x="620" 
d="M40 0v700h220v-319h41l63 179h246l-130 -259l140 -301h-248l-68 201h-44v-201h-220z" />
    <glyph glyph-name="l" unicode="l" horiz-adv-x="300" 
d="M40 0v700h220v-700h-220z" />
    <glyph glyph-name="m" unicode="m" horiz-adv-x="920" 
d="M40 560h700l140 -140v-420h-215v385h-100v-385h-210v385h-100v-385h-215v560z" />
    <glyph glyph-name="n" unicode="n" horiz-adv-x="620" 
d="M40 0v560h400l140 -140v-420h-220v370h-100v-370h-220z" />
    <glyph glyph-name="o" unicode="o" 
d="M30 130v300l130 130h280l130 -130v-300l-130 -130h-280zM250 170h100v220h-100v-220z" />
    <glyph glyph-name="p" unicode="p" horiz-adv-x="620" 
d="M40 -140v700h400l150 -150v-260l-150 -150h-180v-140h-220zM370 380h-110v-200h110v200z" />
    <glyph glyph-name="q" unicode="q" horiz-adv-x="620" 
d="M580 560v-700h-220v140h-180l-150 150v260l150 150h400zM360 380h-110v-200h110v200z" />
    <glyph glyph-name="r" unicode="r" horiz-adv-x="470" 
d="M40 0v420l140 140h270v-200h-190v-360h-220z" />
    <glyph glyph-name="s" unicode="s" horiz-adv-x="580" 
d="M30 0v170h300v60h-300v200l130 130h390v-170h-300v-60h300v-203l-127 -127h-393z" />
    <glyph glyph-name="t" unicode="t" horiz-adv-x="430" 
d="M40 650l220 50v-160h150v-180h-150v-180h150v-180h-230l-140 140v510z" />
    <glyph glyph-name="u" unicode="u" horiz-adv-x="620" 
d="M580 560v-560h-400l-140 140v420h220v-370h100v370h220z" />
    <glyph glyph-name="v" unicode="v" horiz-adv-x="580" 
d="M109 0l-104 560h225l39 -380h46l40 380h220l-104 -560h-362z" />
    <glyph glyph-name="w" unicode="w" horiz-adv-x="840" 
d="M94 0l-79 560h224l35 -380h10l48 320h176l48 -320h10l35 380h224l-79 -560h-274l-52 287l-52 -287h-274z" />
    <glyph glyph-name="x" unicode="x" horiz-adv-x="630" 
d="M10 0l120 291l-114 269h245l43 -189h22l43 189h245l-114 -269l120 -291h-248l-41 191h-32l-41 -191h-248z" />
    <glyph glyph-name="y" unicode="y" 
d="M40 -140v180h242l7 40h-175l-109 480h225l50 -310h42l50 310h223l-157 -700h-398z" />
    <glyph glyph-name="z" unicode="z" horiz-adv-x="530" 
d="M20 0v160l220 220h-220v180h490v-160l-220 -220h220v-180h-490z" />
    <glyph glyph-name="Aacute" unicode="&#xc1;" horiz-adv-x="660" 
d="M5 0l135 700h380l135 -700h-235l-18 130h-144l-18 -130h-235zM280 280h100l-35 250h-30zM200 740v100l320 30v-130h-320z" />
    <glyph glyph-name="Aacute.ss01" horiz-adv-x="660" 
d="M620 550v-550h-220v140h-140v-140h-220v550l150 150h280zM260 500v-180h140v180h-140zM200 740v100l320 30v-130h-320z" />
    <glyph glyph-name="aacute" unicode="&#xe1;" 
d="M30 140v180l310 10v50h-290v180h370l140 -140v-420h-390zM250 220v-50h90v70zM150 600v100l320 30v-130h-320z" />
    <glyph glyph-name="Agrave" unicode="&#xc0;" horiz-adv-x="660" 
d="M5 0l135 700h380l135 -700h-235l-18 130h-144l-18 -130h-235zM280 280h100l-35 250h-30zM460 740h-320v130l320 -30v-100z" />
    <glyph glyph-name="Agrave.ss01" horiz-adv-x="660" 
d="M620 550v-550h-220v140h-140v-140h-220v550l150 150h280zM260 500v-180h140v180h-140zM460 740h-320v130l320 -30v-100z" />
    <glyph glyph-name="agrave" unicode="&#xe0;" 
d="M30 140v180l310 10v50h-290v180h370l140 -140v-420h-390zM250 220v-50h90v70zM410 600h-320v130l320 -30v-100z" />
    <glyph glyph-name="Abreve" unicode="&#x102;" horiz-adv-x="660" 
d="M5 0l135 700h380l135 -700h-235l-18 130h-144l-18 -130h-235zM280 280h100l-35 250h-30zM380 880h170l-100 -150h-240l-100 150h170v-60h100v60z" />
    <glyph glyph-name="Abreve.ss01" horiz-adv-x="660" 
d="M620 550v-550h-220v140h-140v-140h-220v550l150 150h280zM260 500v-180h140v180h-140zM380 880h170l-100 -150h-240l-100 150h170v-60h100v60z" />
    <glyph glyph-name="uni01CD.ss01" horiz-adv-x="660" 
d="M620 550v-550h-220v140h-140v-140h-220v550l150 150h280zM260 500v-180h140v180h-140zM520 910v-120l-190 -60l-190 60v120l190 -60z" />
    <glyph glyph-name="abreve" unicode="&#x103;" 
d="M30 140v180l310 10v50h-290v180h370l140 -140v-420h-390zM250 220v-50h90v70zM330 740h170l-100 -150h-240l-100 150h170v-60h100v60z" />
    <glyph glyph-name="Acircumflex" unicode="&#xc2;" horiz-adv-x="660" 
d="M5 0l135 700h380l135 -700h-235l-18 130h-144l-18 -130h-235zM280 280h100l-35 250h-30zM140 730v120l190 60l190 -60v-120l-190 60z" />
    <glyph glyph-name="Acircumflex.ss01" horiz-adv-x="660" 
d="M620 550v-550h-220v140h-140v-140h-220v550l150 150h280zM260 500v-180h140v180h-140zM140 730v120l190 60l190 -60v-120l-190 60z" />
    <glyph glyph-name="acircumflex" unicode="&#xe2;" 
d="M30 140v180l310 10v50h-290v180h370l140 -140v-420h-390zM250 220v-50h90v70zM90 590v120l190 60l190 -60v-120l-190 60z" />
    <glyph glyph-name="uni01CD" unicode="&#x1cd;" horiz-adv-x="660" 
d="M5 0l135 700h380l135 -700h-235l-18 130h-144l-18 -130h-235zM280 280h100l-35 250h-30zM520 910v-120l-190 -60l-190 60v120l190 -60z" />
    <glyph glyph-name="uni01CE" unicode="&#x1ce;" 
d="M30 140v180l310 10v50h-290v180h370l140 -140v-420h-390zM250 220v-50h90v70zM470 770v-120l-190 -60l-190 60v120l190 -60z" />
    <glyph glyph-name="Aring" unicode="&#xc5;" horiz-adv-x="660" 
d="M5 0l135 700h380l135 -700h-235l-18 130h-144l-18 -130h-235zM280 280h100l-35 250h-30zM197 781v98l76 61h114l76 -61v-98l-76 -61h-114zM291 800h78v60h-78v-60z" />
    <glyph glyph-name="Aring.ss01" horiz-adv-x="660" 
d="M620 550v-550h-220v140h-140v-140h-220v550l150 150h280zM260 500v-180h140v180h-140zM197 781v98l76 61h114l76 -61v-98l-76 -61h-114zM291 800h78v60h-78v-60z" />
    <glyph glyph-name="aring" unicode="&#xe5;" 
d="M30 140v180l310 10v50h-290v180h370l140 -140v-420h-390zM250 220v-50h90v70zM147 641v98l76 61h114l76 -61v-98l-76 -61h-114zM241 660h78v60h-78v-60z" />
    <glyph glyph-name="Aringacute" unicode="&#x1fa;" horiz-adv-x="660" 
d="M5 0l135 700h380l135 -700h-235l-18 130h-144l-18 -130h-235zM280 280h100l-35 250h-30zM489 872l-35 26l22 82h107zM197 781v98l76 61h114l76 -61v-98l-76 -61h-114zM291 800h78v60h-78v-60z" />
    <glyph glyph-name="Aringacute.ss01" horiz-adv-x="660" 
d="M620 550v-550h-220v140h-140v-140h-220v550l150 150h280zM260 500v-180h140v180h-140zM489 872l-35 26l22 82h107zM197 781v98l76 61h114l76 -61v-98l-76 -61h-114zM291 800h78v60h-78v-60z" />
    <glyph glyph-name="aringacute" unicode="&#x1fb;" 
d="M30 140v180l310 10v50h-290v180h370l140 -140v-420h-390zM250 220v-50h90v70zM439 732l-35 26l22 82h107zM147 641v98l76 61h114l76 -61v-98l-76 -61h-114zM241 660h78v60h-78v-60z" />
    <glyph glyph-name="Adieresis" unicode="&#xc4;" horiz-adv-x="660" 
d="M5 0l135 700h380l135 -700h-235l-18 130h-144l-18 -130h-235zM280 280h100l-35 250h-30zM100 740v130h200v-130h-200zM360 740v130h200v-130h-200z" />
    <glyph glyph-name="Adieresis.ss01" horiz-adv-x="660" 
d="M620 550v-550h-220v140h-140v-140h-220v550l150 150h280zM260 500v-180h140v180h-140zM100 740v130h200v-130h-200zM360 740v130h200v-130h-200z" />
    <glyph glyph-name="adieresis" unicode="&#xe4;" 
d="M30 140v180l310 10v50h-290v180h370l140 -140v-420h-390zM250 220v-50h90v70zM50 600v130h200v-130h-200zM310 600v130h200v-130h-200z" />
    <glyph glyph-name="uni01DE" unicode="&#x1de;" horiz-adv-x="660" 
d="M5 0l135 700h380l135 -700h-235l-18 130h-144l-18 -130h-235zM280 280h100l-35 250h-30zM100 740v130h200v-130h-200zM360 740v130h200v-130h-200zM160 910v80h340v-80h-340z" />
    <glyph glyph-name="uni01DE.1" horiz-adv-x="660" 
d="M620 550v-550h-220v140h-140v-140h-220v550l150 150h280zM260 500v-180h140v180h-140zM100 740v130h200v-130h-200zM360 740v130h200v-130h-200zM160 910v80h340v-80h-340z" />
    <glyph glyph-name="uni01DF" unicode="&#x1df;" 
d="M30 140v180l310 10v50h-290v180h370l140 -140v-420h-390zM250 220v-50h90v70zM50 600v130h200v-130h-200zM310 600v130h200v-130h-200zM110 770v80h340v-80h-340z" />
    <glyph glyph-name="Atilde" unicode="&#xc3;" horiz-adv-x="660" 
d="M5 0l135 700h380l135 -700h-235l-18 130h-144l-18 -130h-235zM280 280h100l-35 250h-30zM140 710l-20 115l100 60l204 -40l96 45l20 -115l-100 -60l-204 40z" />
    <glyph glyph-name="Atilde.ss01" horiz-adv-x="660" 
d="M620 550v-550h-220v140h-140v-140h-220v550l150 150h280zM260 500v-180h140v180h-140zM140 710l-20 115l100 60l204 -40l96 45l20 -115l-100 -60l-204 40z" />
    <glyph glyph-name="atilde" unicode="&#xe3;" 
d="M30 140v180l310 10v50h-290v180h370l140 -140v-420h-390zM250 220v-50h90v70zM90 570l-20 115l100 60l204 -40l96 45l20 -115l-100 -60l-204 40z" />
    <glyph glyph-name="Aogonek" unicode="&#x104;" horiz-adv-x="660" 
d="M5 0l135 700h380l135 -700h-235l-18 130h-144l-18 -130h-235zM280 280h100l-35 250h-30zM625 -40l-40 -160h-190l80 160h150z" />
    <glyph glyph-name="Aogonek.ss01" horiz-adv-x="660" 
d="M620 550v-550h-220v140h-140v-140h-220v550l150 150h280zM260 500v-180h140v180h-140zM605 -40l-40 -160h-190l80 160h150z" />
    <glyph glyph-name="aogonek" unicode="&#x105;" 
d="M30 140v180l310 10v50h-290v180h370l140 -140v-420h-390zM250 220v-50h90v70zM545 -40l-40 -160h-190l80 160h150z" />
    <glyph glyph-name="Amacron" unicode="&#x100;" horiz-adv-x="660" 
d="M5 0l135 700h380l135 -700h-235l-18 130h-144l-18 -130h-235zM280 280h100l-35 250h-30zM160 740v130h340v-130h-340z" />
    <glyph glyph-name="Amacron.ss01" horiz-adv-x="660" 
d="M620 550v-550h-220v140h-140v-140h-220v550l150 150h280zM260 500v-180h140v180h-140zM160 740v130h340v-130h-340z" />
    <glyph glyph-name="amacron" unicode="&#x101;" 
d="M30 140v180l310 10v50h-290v180h370l140 -140v-420h-390zM250 220v-50h90v70zM110 600v130h340v-130h-340z" />
    <glyph glyph-name="uni0200" unicode="&#x200;" horiz-adv-x="660" 
d="M5 0l135 700h380l135 -700h-235l-18 130h-144l-18 -130h-235zM280 280h100l-35 250h-30zM445 870l40 -140h-120l-80 140h160zM260 870l60 -140h-120l-100 140h160z" />
    <glyph glyph-name="uni0200.ss01" horiz-adv-x="660" 
d="M620 550v-550h-220v140h-140v-140h-220v550l150 150h280zM260 500v-180h140v180h-140zM445 870l40 -140h-120l-80 140h160zM260 870l60 -140h-120l-100 140h160z" />
    <glyph glyph-name="uni0201" unicode="&#x201;" 
d="M30 140v180l310 10v50h-290v180h370l140 -140v-420h-390zM250 220v-50h90v70zM395 730l40 -140h-120l-80 140h160zM210 730l60 -140h-120l-100 140h160z" />
    <glyph glyph-name="uni0202" unicode="&#x202;" horiz-adv-x="660" 
d="M5 0l135 700h380l135 -700h-235l-18 130h-144l-18 -130h-235zM280 280h100l-35 250h-30zM280 725h-170l100 150h240l100 -150h-170v60h-100v-60z" />
    <glyph glyph-name="uni0202.ss01" horiz-adv-x="660" 
d="M620 550v-550h-220v140h-140v-140h-220v550l150 150h280zM260 500v-180h140v180h-140zM280 725h-170l100 150h240l100 -150h-170v60h-100v-60z" />
    <glyph glyph-name="uni0203" unicode="&#x203;" 
d="M30 140v180l310 10v50h-290v180h370l140 -140v-420h-390zM250 220v-50h90v70zM230 585h-170l100 150h240l100 -150h-170v60h-100v-60z" />
    <glyph glyph-name="AE" unicode="&#xc6;" horiz-adv-x="845" 
d="M5 0l131 700h669v-180h-240v-80h190v-170h-190v-90h250v-180h-460v130h-99l-16 -130h-235zM274 280h81v250h-50z" />
    <glyph glyph-name="AE.ss01" horiz-adv-x="885" 
d="M5 0v550l150 150h690v-180h-260v-80h210v-170h-210v-90h270v-180h-490v150h-140v-150h-220zM225 320h140v200h-140v-200z" />
    <glyph glyph-name="ae" unicode="&#xe6;" horiz-adv-x="900" 
d="M30 140v180l310 10v50h-290v180h310l90 -90l90 90h330v-320h-310v-70h290v-170h-680zM560 330l130 10v60h-130v-70zM250 220v-60h90v80z" />
    <glyph glyph-name="AEacute" unicode="&#x1fc;" horiz-adv-x="845" 
d="M5 0l131 700h669v-180h-240v-80h190v-170h-190v-90h250v-180h-460v130h-99l-16 -130h-235zM274 280h81v250h-50zM340 740v100l320 30v-130h-320z" />
    <glyph glyph-name="AEacute.ss01" horiz-adv-x="885" 
d="M5 0v550l150 150h690v-180h-260v-80h210v-170h-210v-90h270v-180h-490v150h-140v-150h-220zM225 320h140v200h-140v-200zM313 740v100l320 30v-130h-320z" />
    <glyph glyph-name="aeacute" unicode="&#x1fd;" horiz-adv-x="900" 
d="M30 140v180l310 10v50h-290v180h310l90 -90l90 90h330v-320h-310v-70h290v-170h-680zM560 330l130 10v60h-130v-70zM250 220v-60h90v80zM320 600v100l320 30v-130h-320z" />
    <glyph glyph-name="uni1E02" unicode="&#x1e02;" horiz-adv-x="660" 
d="M620 560v-141l-67 -53l87 -70v-156l-140 -140h-460v700h440zM260 425h135v105h-135v-105zM260 170h150v115h-150v-115zM185 740v130h220v-130h-220z" />
    <glyph glyph-name="uni1E03" unicode="&#x1e03;" horiz-adv-x="620" 
d="M40 0v700h220v-140h180l150 -150v-260l-150 -150h-400zM260 180h110v200h-110v-200zM150 740v130h220v-130h-220z" />
    <glyph glyph-name="uni0181" unicode="&#x181;" horiz-adv-x="835" 
d="M190 530v-110h-180v160l120 120h525l140 -140v-141l-67 -53l87 -70v-156l-140 -140h-450v530h-35zM445 425h125v105h-125v-105zM445 170h140v115h-140v-115z" />
    <glyph glyph-name="uni0253" unicode="&#x253;" horiz-adv-x="620" 
d="M40 0v570l130 130h140v-160h-50v-40h180l150 -150v-200l-150 -150h-400zM260 180h110v170h-110v-170z" />
    <glyph glyph-name="Cacute" unicode="&#x106;" horiz-adv-x="560" 
d="M35 150v400l150 150h340v-200h-260v-300h270v-200h-350zM205 740v100l320 30v-130h-320z" />
    <glyph glyph-name="cacute" unicode="&#x107;" horiz-adv-x="520" 
d="M30 130v300l130 130h340v-200h-250v-160h250v-200h-340zM180 600v100l320 30v-130h-320z" />
    <glyph glyph-name="Ccircumflex" unicode="&#x108;" horiz-adv-x="560" 
d="M35 150v400l150 150h340v-200h-260v-300h270v-200h-350zM145 730v120l190 60l190 -60v-120l-190 60z" />
    <glyph glyph-name="ccircumflex" unicode="&#x109;" horiz-adv-x="520" 
d="M30 130v300l130 130h340v-200h-250v-160h250v-200h-340zM120 590v120l190 60l190 -60v-120l-190 60z" />
    <glyph glyph-name="Ccaron" unicode="&#x10c;" horiz-adv-x="560" 
d="M35 150v400l150 150h340v-200h-260v-300h270v-200h-350zM525 910v-120l-190 -60l-190 60v120l190 -60z" />
    <glyph glyph-name="ccaron" unicode="&#x10d;" horiz-adv-x="520" 
d="M30 130v300l130 130h340v-200h-250v-160h250v-200h-340zM500 770v-120l-190 -60l-190 60v120l190 -60z" />
    <glyph glyph-name="Cdotaccent" unicode="&#x10a;" horiz-adv-x="560" 
d="M35 150v400l150 150h340v-200h-260v-300h270v-200h-350zM225 740v130h220v-130h-220z" />
    <glyph glyph-name="cdotaccent" unicode="&#x10b;" horiz-adv-x="520" 
d="M30 130v300l130 130h340v-200h-250v-160h250v-200h-340zM200 600v130h220v-130h-220z" />
    <glyph glyph-name="Ccedilla" unicode="&#xc7;" horiz-adv-x="560" 
d="M35 150v400l150 150h340v-200h-260v-300h270v-200h-350zM210 -200l50 150h190l-90 -150h-150z" />
    <glyph glyph-name="ccedilla" unicode="&#xe7;" horiz-adv-x="520" 
d="M30 130v300l130 130h340v-200h-250v-160h250v-200h-340zM185 -200l50 150h190l-90 -150h-150z" />
    <glyph glyph-name="Dcaron" unicode="&#x10e;" horiz-adv-x="635" 
d="M40 0v700h410l150 -150v-400l-150 -150h-410zM260 190h120v320h-120v-320zM480 910v-120l-190 -60l-190 60v120l190 -60z" />
    <glyph glyph-name="dcaron" unicode="&#x10f;" horiz-adv-x="686" 
d="M580 700v-700h-400l-150 150v260l150 150h180v140h220zM250 180h110v200h-110v-200zM620 460v240h66v-240h-66z" />
    <glyph glyph-name="uni1E0A" unicode="&#x1e0a;" horiz-adv-x="635" 
d="M40 0v700h410l150 -150v-400l-150 -150h-410zM260 190h120v320h-120v-320zM180 740v130h220v-130h-220z" />
    <glyph glyph-name="uni1E0B" unicode="&#x1e0b;" horiz-adv-x="620" 
d="M580 700v-700h-400l-150 150v260l150 150h180v140h220zM250 180h110v200h-110v-200zM250 740v130h220v-130h-220z" />
    <glyph glyph-name="uni1E10" unicode="&#x1e10;" horiz-adv-x="635" 
d="M40 0v700h410l150 -150v-400l-150 -150h-410zM260 190h120v320h-120v-320zM165 -200l50 150h190l-90 -150h-150z" />
    <glyph glyph-name="uni1E11" unicode="&#x1e11;" horiz-adv-x="620" 
d="M580 700v-700h-400l-150 150v260l150 150h180v140h220zM250 180h110v200h-110v-200zM235 -200l50 150h190l-90 -150h-150z" />
    <glyph glyph-name="Dcroat" unicode="&#x110;" horiz-adv-x="645" 
d="M50 0v700h410l150 -150v-400l-150 -150h-410zM270 190h120v320h-120v-320z" />
    <glyph glyph-name="dcroat" unicode="&#x111;" horiz-adv-x="620" 
d="M175 564v76h185v60h220v-700h-400l-150 150v210l150 150h180v54h-185zM250 180h110v150h-110v-150z" />
    <glyph glyph-name="uni1E0C" unicode="&#x1e0c;" horiz-adv-x="635" 
d="M40 0v700h410l150 -150v-400l-150 -150h-410zM260 190h120v320h-120v-320zM180 -190v130h220v-130h-220z" />
    <glyph glyph-name="uni1E0D" unicode="&#x1e0d;" horiz-adv-x="620" 
d="M580 700v-700h-400l-150 150v260l150 150h180v140h220zM250 180h110v200h-110v-200zM250 -190v130h220v-130h-220z" />
    <glyph glyph-name="Eth" unicode="&#xd0;" horiz-adv-x="645" 
d="M50 0v280h-40v140h40v280h410l150 -150v-400l-150 -150h-410zM270 190h120v320h-120v-90h70v-140h-70v-90z" />
    <glyph glyph-name="eth" unicode="&#xf0;" 
d="M170 0l-140 140v242l279 75l-58 67l-171 -45v103l99 26l-79 92h260l31 -36l139 36v-103l-68 -18l108 -127v-312l-140 -140h-260zM350 356l-100 -40v-136h100v176z" />
    <glyph glyph-name="uni0189" unicode="&#x189;" horiz-adv-x="645" 
d="M50 0v700h410l150 -150v-400l-150 -150h-410zM270 190h120v320h-120v-320z" />
    <glyph glyph-name="uni0256" unicode="&#x256;" horiz-adv-x="620" 
d="M580 50h40v-190h-170l-90 90v50h-180l-150 150v260l150 150h180v140h220v-650zM250 380v-200h110v200h-110z" />
    <glyph glyph-name="uni018A" unicode="&#x18a;" horiz-adv-x="820" 
d="M190 530v-110h-180v160l120 120h505l150 -150v-400l-150 -150h-410v530h-35zM445 190h120v320h-120v-320z" />
    <glyph glyph-name="uni0257" unicode="&#x257;" horiz-adv-x="620" 
d="M30 150v260l150 150h180v60l80 80h180v-160h-40v-540h-400zM250 180h110v200h-110v-200z" />
    <glyph glyph-name="Eacute" unicode="&#xc9;" horiz-adv-x="580" 
d="M40 0v700h500v-180h-280v-80h230v-170h-230v-90h290v-180h-510zM165 740v100l320 30v-130h-320z" />
    <glyph glyph-name="eacute" unicode="&#xe9;" horiz-adv-x="590" 
d="M30 130v300l130 130h400v-320h-310v-60h290v-180h-380zM250 330l130 10v60h-130v-70zM180 600v100l320 30v-130h-320z" />
    <glyph glyph-name="Egrave" unicode="&#xc8;" horiz-adv-x="580" 
d="M40 0v700h500v-180h-280v-80h230v-170h-230v-90h290v-180h-510zM425 740h-320v130l320 -30v-100z" />
    <glyph glyph-name="egrave" unicode="&#xe8;" horiz-adv-x="590" 
d="M30 130v300l130 130h400v-320h-310v-60h290v-180h-380zM250 330l130 10v60h-130v-70zM440 600h-320v130l320 -30v-100z" />
    <glyph glyph-name="Ebreve" unicode="&#x114;" horiz-adv-x="580" 
d="M40 0v700h500v-180h-280v-80h230v-170h-230v-90h290v-180h-510zM345 880h170l-100 -150h-240l-100 150h170v-60h100v60z" />
    <glyph glyph-name="ebreve" unicode="&#x115;" horiz-adv-x="590" 
d="M30 130v300l130 130h400v-320h-310v-60h290v-180h-380zM250 330l130 10v60h-130v-70zM360 740h170l-100 -150h-240l-100 150h170v-60h100v60z" />
    <glyph glyph-name="Ecircumflex" unicode="&#xca;" horiz-adv-x="580" 
d="M40 0v700h500v-180h-280v-80h230v-170h-230v-90h290v-180h-510zM105 730v120l190 60l190 -60v-120l-190 60z" />
    <glyph glyph-name="ecircumflex" unicode="&#xea;" horiz-adv-x="590" 
d="M30 130v300l130 130h400v-320h-310v-60h290v-180h-380zM250 330l130 10v60h-130v-70zM120 590v120l190 60l190 -60v-120l-190 60z" />
    <glyph glyph-name="Ecaron" unicode="&#x11a;" horiz-adv-x="580" 
d="M40 0v700h500v-180h-280v-80h230v-170h-230v-90h290v-180h-510zM485 910v-120l-190 -60l-190 60v120l190 -60z" />
    <glyph glyph-name="ecaron" unicode="&#x11b;" horiz-adv-x="590" 
d="M30 130v300l130 130h400v-320h-310v-60h290v-180h-380zM250 330l130 10v60h-130v-70zM500 770v-120l-190 -60l-190 60v120l190 -60z" />
    <glyph glyph-name="Edieresis" unicode="&#xcb;" horiz-adv-x="580" 
d="M40 0v700h500v-180h-280v-80h230v-170h-230v-90h290v-180h-510zM65 740v130h200v-130h-200zM325 740v130h200v-130h-200z" />
    <glyph glyph-name="edieresis" unicode="&#xeb;" horiz-adv-x="590" 
d="M30 130v300l130 130h400v-320h-310v-60h290v-180h-380zM250 330l130 10v60h-130v-70zM80 600v130h200v-130h-200zM340 600v130h200v-130h-200z" />
    <glyph glyph-name="Edotaccent" unicode="&#x116;" horiz-adv-x="580" 
d="M40 0v700h500v-180h-280v-80h230v-170h-230v-90h290v-180h-510zM185 740v130h220v-130h-220z" />
    <glyph glyph-name="edotaccent" unicode="&#x117;" horiz-adv-x="590" 
d="M30 130v300l130 130h400v-320h-310v-60h290v-180h-380zM250 330l130 10v60h-130v-70zM200 600v130h220v-130h-220z" />
    <glyph glyph-name="Eogonek" unicode="&#x118;" horiz-adv-x="580" 
d="M40 0v700h500v-180h-280v-80h230v-170h-230v-90h290v-180h-510zM515 -40l-40 -160h-190l80 160h150z" />
    <glyph glyph-name="eogonek" unicode="&#x119;" horiz-adv-x="590" 
d="M30 130v300l130 130h400v-320h-310v-60h290v-180h-380zM250 330l130 10v60h-130v-70zM525 -40l-40 -160h-190l80 160h150z" />
    <glyph glyph-name="Emacron" unicode="&#x112;" horiz-adv-x="580" 
d="M40 0v700h500v-180h-280v-80h230v-170h-230v-90h290v-180h-510zM125 740v130h340v-130h-340z" />
    <glyph glyph-name="emacron" unicode="&#x113;" horiz-adv-x="590" 
d="M30 130v300l130 130h400v-320h-310v-60h290v-180h-380zM250 330l130 10v60h-130v-70zM140 600v130h340v-130h-340z" />
    <glyph glyph-name="uni0204" unicode="&#x204;" horiz-adv-x="580" 
d="M40 0v700h500v-180h-280v-80h230v-170h-230v-90h290v-180h-510zM410 870l40 -140h-120l-80 140h160zM225 870l60 -140h-120l-100 140h160z" />
    <glyph glyph-name="uni0205" unicode="&#x205;" horiz-adv-x="590" 
d="M30 130v300l130 130h400v-320h-310v-60h290v-180h-380zM250 330l130 10v60h-130v-70zM425 730l40 -140h-120l-80 140h160zM240 730l60 -140h-120l-100 140h160z" />
    <glyph glyph-name="uni0206" unicode="&#x206;" horiz-adv-x="580" 
d="M40 0v700h500v-180h-280v-80h230v-170h-230v-90h290v-180h-510zM245 725h-170l100 150h240l100 -150h-170v60h-100v-60z" />
    <glyph glyph-name="uni0207" unicode="&#x207;" horiz-adv-x="590" 
d="M30 130v300l130 130h400v-320h-310v-60h290v-180h-380zM250 330l130 10v60h-130v-70zM260 585h-170l100 150h240l100 -150h-170v60h-100v-60z" />
    <glyph glyph-name="uni018F" unicode="&#x18f;" horiz-adv-x="650" 
d="M615 570v-440l-130 -130h-320l-130 130v310h360v80h-340v180h430zM395 310l-140 -10v-120h140v130z" />
    <glyph glyph-name="uni0259" unicode="&#x259;" horiz-adv-x="590" 
d="M560 430v-300l-130 -130h-270l-130 130v190h310v60h-290v180h380zM340 230l-120 -10v-60h120v70z" />
    <glyph glyph-name="uni0190" unicode="&#x190;" horiz-adv-x="630" 
d="M160 0h440v180h-352v90h292v170h-272v80h322v180h-410l-140 -140v-141l67 -53l-87 -70v-156z" />
    <glyph glyph-name="uni025B" unicode="&#x25b;" horiz-adv-x="580" 
d="M130 0l-110 110v116l87 70l-67 53v111l100 100h400v-160h-269v-55h239v-130h-259v-55h299v-160h-420z" />
    <glyph glyph-name="uni1E1E" unicode="&#x1e1e;" horiz-adv-x="550" 
d="M40 0v700h480v-200h-260v-120h240v-190h-240v-190h-220zM165 740v130h220v-130h-220z" />
    <glyph glyph-name="uni1E1F" unicode="&#x1e1f;" horiz-adv-x="450" 
d="M40 0v570l130 130h260v-190h-170v-80h170v-180h-170v-250h-220zM110 740v130h220v-130h-220z" />
    <glyph glyph-name="uni0191" unicode="&#x191;" horiz-adv-x="550" 
d="M0 0v190h40v510h480v-200h-260v-100h240v-190h-240v-100l-110 -110h-150z" />
    <glyph glyph-name="uni0192" unicode="&#x192;" horiz-adv-x="450" 
d="M20 -140v190h40v520l130 130h240v-190h-150v-90h150v-180h-150v-250l-130 -130h-130z" />
    <glyph glyph-name="uni01F4" unicode="&#x1f4;" horiz-adv-x="640" 
d="M35 150v400l150 150h370v-190h-300v-320h160v75h-100v170h290v-435h-420zM210 740v100l320 30v-130h-320z" />
    <glyph glyph-name="uni01F5" unicode="&#x1f5;" horiz-adv-x="610" 
d="M60 -140v180h290v40h-190l-130 130v220l130 130h410v-536l-164 -164h-346zM250 380v-130h100v130h-100zM190 600v100l320 30v-130h-320z" />
    <glyph glyph-name="Gbreve" unicode="&#x11e;" horiz-adv-x="640" 
d="M35 150v400l150 150h370v-190h-300v-320h160v75h-100v170h290v-435h-420zM390 880h170l-100 -150h-240l-100 150h170v-60h100v60z" />
    <glyph glyph-name="gbreve" unicode="&#x11f;" horiz-adv-x="610" 
d="M60 -140v180h290v40h-190l-130 130v220l130 130h410v-536l-164 -164h-346zM250 380v-130h100v130h-100zM370 740h170l-100 -150h-240l-100 150h170v-60h100v60z" />
    <glyph glyph-name="Gcircumflex" unicode="&#x11c;" horiz-adv-x="640" 
d="M35 150v400l150 150h370v-190h-300v-320h160v75h-100v170h290v-435h-420zM150 730v120l190 60l190 -60v-120l-190 60z" />
    <glyph glyph-name="gcircumflex" unicode="&#x11d;" horiz-adv-x="610" 
d="M60 -140v180h290v40h-190l-130 130v220l130 130h410v-536l-164 -164h-346zM250 380v-130h100v130h-100zM130 590v120l190 60l190 -60v-120l-190 60z" />
    <glyph glyph-name="Gcaron" unicode="&#x1e6;" horiz-adv-x="640" 
d="M35 150v400l150 150h370v-190h-300v-320h160v75h-100v170h290v-435h-420zM530 910v-120l-190 -60l-190 60v120l190 -60z" />
    <glyph glyph-name="gcaron" unicode="&#x1e7;" horiz-adv-x="610" 
d="M60 -140v180h290v40h-190l-130 130v220l130 130h410v-536l-164 -164h-346zM250 380v-130h100v130h-100zM510 770v-120l-190 -60l-190 60v120l190 -60z" />
    <glyph glyph-name="Gdotaccent" unicode="&#x120;" horiz-adv-x="640" 
d="M35 150v400l150 150h370v-190h-300v-320h160v75h-100v170h290v-435h-420zM230 740v130h220v-130h-220z" />
    <glyph glyph-name="gdotaccent" unicode="&#x121;" horiz-adv-x="610" 
d="M60 -140v180h290v40h-190l-130 130v220l130 130h410v-536l-164 -164h-346zM250 380v-130h100v130h-100zM210 600v130h220v-130h-220z" />
    <glyph glyph-name="uni0122" unicode="&#x122;" horiz-adv-x="640" 
d="M35 150v400l150 150h370v-190h-300v-320h160v75h-100v170h290v-435h-420zM215 -200l50 150h190l-90 -150h-150z" />
    <glyph glyph-name="uni0123" unicode="&#x123;" horiz-adv-x="610" 
d="M60 -140v180h290v40h-190l-130 130v220l130 130h410v-536l-164 -164h-346zM250 380v-130h100v130h-100zM445 750l-50 -150h-190l90 150h150z" />
    <glyph glyph-name="uni01E4" unicode="&#x1e4;" horiz-adv-x="640" 
d="M35 150v400l150 150h370v-200h-300v-310h160v24h-110v76h110v25h-110v120h300v-145h30v-76h-30v-214h-420z" />
    <glyph glyph-name="uni01E5" unicode="&#x1e5;" horiz-adv-x="610" 
d="M90 60v66h260v31h-250l-70 70v203l130 130h410v-434h35v-66h-35v-36l-164 -164h-346v170h290v30h-260zM250 380v-120h100v120h-100z" />
    <glyph glyph-name="uni0193" unicode="&#x193;" horiz-adv-x="640" 
d="M185 0l-150 150v400l150 150h180v70l90 90h165v-190h-65v-170h-300v-300h160v65h-100v170h290v-435h-420z" />
    <glyph glyph-name="uni0260" unicode="&#x260;" horiz-adv-x="610" 
d="M60 -140v180h290v40h-190l-130 130v220l130 130h190v60l80 80h170v-160h-40v-516l-164 -164h-336zM250 250h100v130h-100v-130z" />
    <glyph glyph-name="uni0194" unicode="&#x194;" horiz-adv-x="620" 
d="M185 0l-130 130v155l95 121l-145 294h247l52 -205h12l52 205h247l-145 -294l95 -121v-155l-130 -130h-250zM265 180h90v77l-45 56l-45 -56v-77z" />
    <glyph glyph-name="uni0263" unicode="&#x263;" horiz-adv-x="620" 
d="M185 -140l-130 130v155l95 121l-145 294h247l52 -205h12l52 205h247l-145 -294l95 -121v-155l-130 -130h-250zM265 40h90v77l-45 56l-45 -56v-77z" />
    <glyph glyph-name="Hcircumflex" unicode="&#x124;" horiz-adv-x="650" 
d="M40 0v700h220v-240h130v240h220v-700h-220v260h-130v-260h-220zM135 730v120l190 60l190 -60v-120l-190 60z" />
    <glyph glyph-name="hcircumflex" unicode="&#x125;" horiz-adv-x="620" 
d="M40 0v700h220v-140h180l140 -140v-420h-220v380h-100v-380h-220zM70 730v120l190 60l190 -60v-120l-190 60z" />
    <glyph glyph-name="uni021E" unicode="&#x21e;" horiz-adv-x="650" 
d="M40 0v700h220v-240h130v240h220v-700h-220v260h-130v-260h-220zM515 910v-120l-190 -60l-190 60v120l190 -60z" />
    <glyph glyph-name="uni021F" unicode="&#x21f;" horiz-adv-x="620" 
d="M40 0v700h220v-140h180l140 -140v-420h-220v380h-100v-380h-220zM450 910v-120l-190 -60l-190 60v120l190 -60z" />
    <glyph glyph-name="Hbar" unicode="&#x126;" horiz-adv-x="650" 
d="M40 0v544h-35v76h35v80h220v-80h130v80h220v-80h35v-76h-35v-544h-220v260h-130v-260h-220zM260 460h130v84h-130v-84z" />
    <glyph glyph-name="hbar" unicode="&#x127;" horiz-adv-x="620" 
d="M40 0v700h220v-60h185v-76h-185v-54h180l140 -140v-370h-220v330h-100v-330h-220z" />
    <glyph glyph-name="uni1E24" unicode="&#x1e24;" horiz-adv-x="650" 
d="M40 0v700h220v-240h130v240h220v-700h-220v260h-130v-260h-220zM215 -190v130h220v-130h-220z" />
    <glyph glyph-name="uni1E25" unicode="&#x1e25;" horiz-adv-x="620" 
d="M40 0v700h220v-140h180l140 -140v-420h-220v380h-100v-380h-220zM200 -190v130h220v-130h-220z" />
    <glyph glyph-name="Iacute" unicode="&#xcd;" horiz-adv-x="430" 
d="M45 -4v165l60 5v368l-60 5v165l170 -8l170 8v-165l-60 -5v-368l60 -5v-165l-170 8zM85 740v100l320 30v-130h-320z" />
    <glyph glyph-name="iacute" unicode="&#xed;" horiz-adv-x="300" 
d="M40 0v560h220v-560h-220zM40 590v100l250 40v-130z" />
    <glyph glyph-name="Igrave" unicode="&#xcc;" horiz-adv-x="430" 
d="M45 -4v165l60 5v368l-60 5v165l170 -8l170 8v-165l-60 -5v-368l60 -5v-165l-170 8zM345 740h-320v130l320 -30v-100z" />
    <glyph glyph-name="igrave" unicode="&#xec;" horiz-adv-x="300" 
d="M40 0v560h220v-560h-220zM260 590l-250 10v130l250 -40v-100z" />
    <glyph glyph-name="Ibreve" unicode="&#x12c;" horiz-adv-x="430" 
d="M45 -4v165l60 5v368l-60 5v165l170 -8l170 8v-165l-60 -5v-368l60 -5v-165l-170 8zM265 880h170l-100 -150h-240l-100 150h170v-60h100v60z" />
    <glyph glyph-name="ibreve" unicode="&#x12d;" horiz-adv-x="300" 
d="M40 0v560h220v-560h-220zM200 740h170l-100 -150h-240l-100 150h170v-60h100v60z" />
    <glyph glyph-name="Icircumflex" unicode="&#xce;" horiz-adv-x="430" 
d="M45 -4v165l60 5v368l-60 5v165l170 -8l170 8v-165l-60 -5v-368l60 -5v-165l-170 8zM25 730v120l190 60l190 -60v-120l-190 60z" />
    <glyph glyph-name="icircumflex" unicode="&#xee;" horiz-adv-x="300" 
d="M40 0v560h220v-560h-220zM-40 590v120l190 60l190 -60v-120l-190 60z" />
    <glyph glyph-name="uni01CF" unicode="&#x1cf;" horiz-adv-x="430" 
d="M45 -4v165l60 5v368l-60 5v165l170 -8l170 8v-165l-60 -5v-368l60 -5v-165l-170 8zM405 910v-120l-190 -60l-190 60v120l190 -60z" />
    <glyph glyph-name="uni01D0" unicode="&#x1d0;" horiz-adv-x="300" 
d="M40 0v560h220v-560h-220zM340 770v-120l-190 -60l-190 60v120l190 -60z" />
    <glyph glyph-name="Idieresis" unicode="&#xcf;" horiz-adv-x="430" 
d="M45 -4v165l60 5v368l-60 5v165l170 -8l170 8v-165l-60 -5v-368l60 -5v-165l-170 8zM-15 740v130h200v-130h-200zM245 740v130h200v-130h-200z" />
    <glyph glyph-name="idieresis" unicode="&#xef;" horiz-adv-x="300" 
d="M40 0v560h220v-560h-220zM-10 600v130h140v-130h-140zM170 600v130h140v-130h-140z" />
    <glyph glyph-name="Itilde" unicode="&#x128;" horiz-adv-x="430" 
d="M45 -4v165l60 5v368l-60 5v165l170 -8l170 8v-165l-60 -5v-368l60 -5v-165l-170 8zM25 710l-20 115l100 60l204 -40l96 45l20 -115l-100 -60l-204 40z" />
    <glyph glyph-name="itilde" unicode="&#x129;" horiz-adv-x="300" 
d="M-10 570v115l80 60l161 -40l79 45v-115l-80 -60l-161 40zM40 0v560h220v-560h-220z" />
    <glyph glyph-name="Idotaccent" unicode="&#x130;" horiz-adv-x="430" 
d="M45 -4v165l60 5v368l-60 5v165l170 -8l170 8v-165l-60 -5v-368l60 -5v-165l-170 8zM105 740v130h220v-130h-220z" />
    <glyph glyph-name="dotlessi" unicode="&#x131;" horiz-adv-x="300" 
d="M40 0v560h220v-560h-220z" />
    <glyph glyph-name="Iogonek" unicode="&#x12e;" horiz-adv-x="430" 
d="M45 -4v165l60 5v368l-60 5v165l170 -8l170 8v-165l-60 -5v-368l60 -5v-165l-170 8zM310 -40l-40 -160h-190l80 160h150z" />
    <glyph glyph-name="iogonek" unicode="&#x12f;" horiz-adv-x="300" 
d="M40 600v130h220v-130h-220zM40 0v560h220v-560h-220zM245 -40l-40 -160h-190l80 160h150z" />
    <glyph glyph-name="iogonek.dotless" horiz-adv-x="300" 
d="M40 0v560h220v-560h-220zM245 -40l-40 -160h-190l80 160h150z" />
    <glyph glyph-name="Imacron" unicode="&#x12a;" horiz-adv-x="430" 
d="M45 -4v165l60 5v368l-60 5v165l170 -8l170 8v-165l-60 -5v-368l60 -5v-165l-170 8zM45 740v130h340v-130h-340z" />
    <glyph glyph-name="imacron" unicode="&#x12b;" horiz-adv-x="300" 
d="M-10 600v130h320v-130h-320zM40 0v560h220v-560h-220z" />
    <glyph glyph-name="uni0208" unicode="&#x208;" horiz-adv-x="430" 
d="M45 -4v165l60 5v368l-60 5v165l170 -8l170 8v-165l-60 -5v-368l60 -5v-165l-170 8zM330 870l40 -140h-120l-80 140h160zM145 870l60 -140h-120l-100 140h160z" />
    <glyph glyph-name="uni0209" unicode="&#x209;" horiz-adv-x="300" 
d="M40 0v560h220v-560h-220zM265 730l40 -140h-120l-80 140h160zM80 730l60 -140h-120l-100 140h160z" />
    <glyph glyph-name="uni020A" unicode="&#x20a;" horiz-adv-x="430" 
d="M45 -4v165l60 5v368l-60 5v165l170 -8l170 8v-165l-60 -5v-368l60 -5v-165l-170 8zM165 725h-170l100 150h240l100 -150h-170v60h-100v-60z" />
    <glyph glyph-name="uni020B" unicode="&#x20b;" horiz-adv-x="300" 
d="M40 0v560h220v-560h-220zM100 585h-170l100 150h240l100 -150h-170v60h-100v-60z" />
    <glyph glyph-name="IJ" unicode="&#x132;" horiz-adv-x="960" 
d="M45 -4v165l50 5v368l-50 5v165l160 -8l160 8v-165l-50 -5v-368l50 -5v-165l-160 8zM405 140v210h210v-150h90v310h-280v190h500v-550l-150 -150h-230z" />
    <glyph glyph-name="ij" unicode="&#x133;" 
d="M40 600v130h220v-130h-220zM40 0v560h220v-560h-220zM340 600v130h220v-130h-220zM340 -140v700h220v-700h-220z" />
    <glyph glyph-name="uni0197" unicode="&#x197;" horiz-adv-x="430" 
d="M45 -4v165l60 5v129h-50v110h50v129l-60 5v165l170 -8l170 8v-165l-60 -5v-129h50v-110h-50v-129l60 -5v-165l-170 8z" />
    <glyph glyph-name="uni0268" unicode="&#x268;" horiz-adv-x="300" 
d="M40 600v130h220v-130h-220zM40 0v240h-30v110h30v210h220v-210h30v-110h-30v-240h-220z" />
    <glyph glyph-name="Jacute" 
d="M15 150v200h220v-150h110v310h-290v190h510v-550l-150 -150h-250zM170 740v100l320 30v-130h-320z" />
    <glyph glyph-name="jacute" horiz-adv-x="300" 
d="M40 -140v700h220v-700h-220zM40 590v100l250 40v-130z" />
    <glyph glyph-name="Jcircumflex" unicode="&#x134;" 
d="M15 150v200h220v-150h110v310h-290v190h510v-550l-150 -150h-250zM110 730v120l190 60l190 -60v-120l-190 60z" />
    <glyph glyph-name="jcircumflex" unicode="&#x135;" horiz-adv-x="300" 
d="M40 -140v700h220v-700h-220zM-40 590v120l190 60l190 -60v-120l-190 60z" />
    <glyph glyph-name="uni0237" unicode="&#x237;" horiz-adv-x="300" 
d="M40 -140v700h220v-700h-220z" />
    <glyph glyph-name="uni01E8" unicode="&#x1e8;" horiz-adv-x="670" 
d="M40 0v700h220v-250h56l100 250h239l-150 -330l165 -370h-243l-106 260h-61v-260h-220zM515 910v-120l-190 -60l-190 60v120l190 -60z" />
    <glyph glyph-name="uni01E9" unicode="&#x1e9;" horiz-adv-x="620" 
d="M40 0v700h220v-319h41l63 179h246l-130 -259l140 -301h-248l-68 201h-44v-201h-220zM450 910v-120l-190 -60l-190 60v120l190 -60z" />
    <glyph glyph-name="uni0136" unicode="&#x136;" horiz-adv-x="670" 
d="M40 0v700h220v-250h56l100 250h239l-150 -330l165 -370h-243l-106 260h-61v-260h-220zM200 -200l50 150h190l-90 -150h-150z" />
    <glyph glyph-name="uni0137" unicode="&#x137;" horiz-adv-x="620" 
d="M40 0v700h220v-319h41l63 179h246l-130 -259l140 -301h-248l-68 201h-44v-201h-220zM180 -200l50 150h190l-90 -150h-150z" />
    <glyph glyph-name="uni0198" unicode="&#x198;" horiz-adv-x="650" 
d="M40 0v600l100 100h160v-160h-40v-90h45l85 250h245l-135 -330l150 -370h-248l-92 260h-50v-260h-220z" />
    <glyph glyph-name="uni0199" unicode="&#x199;" horiz-adv-x="620" 
d="M40 0v570l130 130h140v-160h-50v-159h39l70 179h245l-134 -259l140 -301h-248l-68 201h-44v-201h-220z" />
    <glyph glyph-name="Lacute" unicode="&#x139;" horiz-adv-x="565" 
d="M40 0v700h220v-520h90v100h190v-280h-500zM40 740v100l320 30v-130h-320z" />
    <glyph glyph-name="lacute" unicode="&#x13a;" horiz-adv-x="300" 
d="M40 0v700h220v-700h-220zM40 730v100l250 40v-130z" />
    <glyph glyph-name="Lcaron" unicode="&#x13d;" horiz-adv-x="580" 
d="M40 0v700h220v-520h90v100h190v-280h-500zM310 460v240h66v-240h-66z" />
    <glyph glyph-name="lcaron" unicode="&#x13e;" horiz-adv-x="366" 
d="M40 0v700h220v-700h-220zM300 460v240h66v-240h-66z" />
    <glyph glyph-name="uni013B" unicode="&#x13b;" horiz-adv-x="565" 
d="M40 0v700h220v-520h90v100h190v-280h-500zM170 -200l50 150h190l-90 -150h-150z" />
    <glyph glyph-name="uni013C" unicode="&#x13c;" horiz-adv-x="300" 
d="M40 0v700h220v-700h-220zM25 -200l50 150h190l-90 -150h-150z" />
    <glyph glyph-name="Lslash" unicode="&#x141;" horiz-adv-x="565" 
d="M40 0v700h220v-216l205 96v-180l-205 -96v-124h90v100h190v-280h-500z" />
    <glyph glyph-name="lslash" unicode="&#x142;" horiz-adv-x="340" 
d="M60 0v190l-55 -30v200l55 30v310h220v-190l55 30v-200l-55 -30v-310h-220z" />
    <glyph glyph-name="uni1E36" unicode="&#x1e36;" horiz-adv-x="565" 
d="M40 0v700h220v-520h90v100h190v-280h-500zM185 -190v130h220v-130h-220z" />
    <glyph glyph-name="uni1E37" unicode="&#x1e37;" horiz-adv-x="300" 
d="M40 0v700h220v-700h-220zM40 -190v130h220v-130h-220z" />
    <glyph glyph-name="uni1E3A" unicode="&#x1e3a;" horiz-adv-x="565" 
d="M40 0v700h220v-520h90v100h190v-280h-500zM125 -170v130h340v-130h-340z" />
    <glyph glyph-name="uni1E3B" unicode="&#x1e3b;" horiz-adv-x="300" 
d="M40 0v700h220v-700h-220zM-20 -170v130h340v-130h-340z" />
    <glyph glyph-name="Ldot" unicode="&#x13f;" horiz-adv-x="565" 
d="M40 0v700h220v-520h90v100h190v-280h-500zM345 350v200h190v-200h-190z" />
    <glyph glyph-name="ldot" unicode="&#x140;" horiz-adv-x="420" 
d="M40 0v700h220v-700h-220zM300 260v200h120v-200h-120z" />
    <glyph glyph-name="uni1E3E" unicode="&#x1e3e;" horiz-adv-x="780" 
d="M40 0v700h260l90 -244l90 244h260v-700h-216v417l-94 -237h-80l-94 237v-417h-216zM260 740v100l320 30v-130h-320z" />
    <glyph glyph-name="uni1E3F" unicode="&#x1e3f;" horiz-adv-x="920" 
d="M40 560h700l140 -140v-420h-215v385h-100v-385h-210v385h-100v-385h-215v560zM330 600v100l320 30v-130h-320z" />
    <glyph glyph-name="uni1E40" unicode="&#x1e40;" horiz-adv-x="780" 
d="M40 0v700h260l90 -244l90 244h260v-700h-216v417l-94 -237h-80l-94 237v-417h-216zM280 740v130h220v-130h-220z" />
    <glyph glyph-name="uni1E41" unicode="&#x1e41;" horiz-adv-x="920" 
d="M40 560h700l140 -140v-420h-215v385h-100v-385h-210v385h-100v-385h-215v560zM350 600v130h220v-130h-220z" />
    <glyph glyph-name="Nacute" unicode="&#x143;" horiz-adv-x="680" 
d="M40 0v700h180l220 -345v345h200v-700h-180l-220 345v-345h-200zM210 740v100l320 30v-130h-320z" />
    <glyph glyph-name="nacute" unicode="&#x144;" horiz-adv-x="620" 
d="M40 0v560h400l140 -140v-420h-220v370h-100v-370h-220zM180 600v100l320 30v-130h-320z" />
    <glyph glyph-name="uni01F8" unicode="&#x1f8;" horiz-adv-x="680" 
d="M40 0v700h180l220 -345v345h200v-700h-180l-220 345v-345h-200zM470 740h-320v130l320 -30v-100z" />
    <glyph glyph-name="uni01F9" unicode="&#x1f9;" horiz-adv-x="620" 
d="M40 0v560h400l140 -140v-420h-220v370h-100v-370h-220zM440 600h-320v130l320 -30v-100z" />
    <glyph glyph-name="Ncaron" unicode="&#x147;" horiz-adv-x="680" 
d="M40 0v700h180l220 -345v345h200v-700h-180l-220 345v-345h-200zM530 910v-120l-190 -60l-190 60v120l190 -60z" />
    <glyph glyph-name="ncaron" unicode="&#x148;" horiz-adv-x="620" 
d="M40 0v560h400l140 -140v-420h-220v370h-100v-370h-220zM500 770v-120l-190 -60l-190 60v120l190 -60z" />
    <glyph glyph-name="Ntilde" unicode="&#xd1;" horiz-adv-x="680" 
d="M40 0v700h180l220 -345v345h200v-700h-180l-220 345v-345h-200zM150 710l-20 115l100 60l204 -40l96 45l20 -115l-100 -60l-204 40z" />
    <glyph glyph-name="ntilde" unicode="&#xf1;" horiz-adv-x="620" 
d="M40 0v560h400l140 -140v-420h-220v370h-100v-370h-220zM120 570l-20 115l100 60l204 -40l96 45l20 -115l-100 -60l-204 40z" />
    <glyph glyph-name="uni1E44" unicode="&#x1e44;" horiz-adv-x="680" 
d="M40 0v700h180l220 -345v345h200v-700h-180l-220 345v-345h-200zM230 740v130h220v-130h-220z" />
    <glyph glyph-name="uni1E45" unicode="&#x1e45;" horiz-adv-x="620" 
d="M40 0v560h400l140 -140v-420h-220v370h-100v-370h-220zM200 600v130h220v-130h-220z" />
    <glyph glyph-name="uni0145" unicode="&#x145;" horiz-adv-x="680" 
d="M40 0v700h180l220 -345v345h200v-700h-180l-220 345v-345h-200zM215 -200l50 150h190l-90 -150h-150z" />
    <glyph glyph-name="uni0146" unicode="&#x146;" horiz-adv-x="620" 
d="M40 0v560h400l140 -140v-420h-220v370h-100v-370h-220zM185 -200l50 150h190l-90 -150h-150z" />
    <glyph glyph-name="uni1E48" unicode="&#x1e48;" horiz-adv-x="680" 
d="M40 0v700h180l220 -345v345h200v-700h-180l-220 345v-345h-200zM170 -170v130h340v-130h-340z" />
    <glyph glyph-name="uni1E49" unicode="&#x1e49;" horiz-adv-x="620" 
d="M40 0v560h400l140 -140v-420h-220v370h-100v-370h-220zM140 -170v130h340v-130h-340z" />
    <glyph glyph-name="uni019D" unicode="&#x19d;" horiz-adv-x="680" 
d="M0 0v190h40v510h180l220 -345v345h200v-700h-180l-220 345v-255l-90 -90h-150z" />
    <glyph glyph-name="uni0272" unicode="&#x272;" horiz-adv-x="620" 
d="M0 -140v190h40v510h400l140 -140v-420h-220v370h-100v-380l-130 -130h-130z" />
    <glyph glyph-name="Eng" unicode="&#x14a;" horiz-adv-x="680" 
d="M40 0v700h180l220 -345v345h200v-736l-124 -124h-146v150h70v41l-200 314v-345h-200z" />
    <glyph glyph-name="eng" unicode="&#x14b;" horiz-adv-x="620" 
d="M40 0v560h400l140 -140v-456l-124 -124h-146v150h50v380h-100v-370h-220z" />
    <glyph glyph-name="Oacute" unicode="&#xd3;" horiz-adv-x="680" 
d="M35 150v400l150 150h310l150 -150v-400l-150 -150h-310zM265 510v-320h150v320h-150zM210 740v100l320 30v-130h-320z" />
    <glyph glyph-name="oacute" unicode="&#xf3;" 
d="M30 130v300l130 130h280l130 -130v-300l-130 -130h-280zM250 170h100v220h-100v-220zM170 600v100l320 30v-130h-320z" />
    <glyph glyph-name="Ograve" unicode="&#xd2;" horiz-adv-x="680" 
d="M35 150v400l150 150h310l150 -150v-400l-150 -150h-310zM265 510v-320h150v320h-150zM470 740h-320v130l320 -30v-100z" />
    <glyph glyph-name="ograve" unicode="&#xf2;" 
d="M30 130v300l130 130h280l130 -130v-300l-130 -130h-280zM250 170h100v220h-100v-220zM430 600h-320v130l320 -30v-100z" />
    <glyph glyph-name="Obreve" unicode="&#x14e;" horiz-adv-x="680" 
d="M35 150v400l150 150h310l150 -150v-400l-150 -150h-310zM265 510v-320h150v320h-150zM390 880h170l-100 -150h-240l-100 150h170v-60h100v60z" />
    <glyph glyph-name="obreve" unicode="&#x14f;" 
d="M30 130v300l130 130h280l130 -130v-300l-130 -130h-280zM250 170h100v220h-100v-220zM350 740h170l-100 -150h-240l-100 150h170v-60h100v60z" />
    <glyph glyph-name="Ocircumflex" unicode="&#xd4;" horiz-adv-x="680" 
d="M35 150v400l150 150h310l150 -150v-400l-150 -150h-310zM265 510v-320h150v320h-150zM150 730v120l190 60l190 -60v-120l-190 60z" />
    <glyph glyph-name="ocircumflex" unicode="&#xf4;" 
d="M30 130v300l130 130h280l130 -130v-300l-130 -130h-280zM250 170h100v220h-100v-220zM110 590v120l190 60l190 -60v-120l-190 60z" />
    <glyph glyph-name="uni01D1" unicode="&#x1d1;" horiz-adv-x="680" 
d="M35 150v400l150 150h310l150 -150v-400l-150 -150h-310zM265 510v-320h150v320h-150zM530 910v-120l-190 -60l-190 60v120l190 -60z" />
    <glyph glyph-name="uni01D2" unicode="&#x1d2;" 
d="M30 130v300l130 130h280l130 -130v-300l-130 -130h-280zM250 170h100v220h-100v-220zM490 770v-120l-190 -60l-190 60v120l190 -60z" />
    <glyph glyph-name="Odieresis" unicode="&#xd6;" horiz-adv-x="680" 
d="M35 150v400l150 150h310l150 -150v-400l-150 -150h-310zM265 510v-320h150v320h-150zM110 740v130h200v-130h-200zM370 740v130h200v-130h-200z" />
    <glyph glyph-name="odieresis" unicode="&#xf6;" 
d="M30 130v300l130 130h280l130 -130v-300l-130 -130h-280zM250 170h100v220h-100v-220zM70 600v130h200v-130h-200zM330 600v130h200v-130h-200z" />
    <glyph glyph-name="uni022A" unicode="&#x22a;" horiz-adv-x="680" 
d="M35 150v400l150 150h310l150 -150v-400l-150 -150h-310zM265 510v-320h150v320h-150zM110 740v130h200v-130h-200zM370 740v130h200v-130h-200zM170 910v80h340v-80h-340z" />
    <glyph glyph-name="uni022B" unicode="&#x22b;" 
d="M30 130v300l130 130h280l130 -130v-300l-130 -130h-280zM250 170h100v220h-100v-220zM70 600v130h200v-130h-200zM330 600v130h200v-130h-200zM130 770v80h340v-80h-340z" />
    <glyph glyph-name="Ohungarumlaut" unicode="&#x150;" horiz-adv-x="680" 
d="M35 150v400l150 150h310l150 -150v-400l-150 -150h-310zM265 510v-320h150v320h-150zM185 730l40 140h160l-80 -140h-120zM350 730l60 140h160l-100 -140h-120z" />
    <glyph glyph-name="ohungarumlaut" unicode="&#x151;" 
d="M30 130v300l130 130h280l130 -130v-300l-130 -130h-280zM250 170h100v220h-100v-220zM145 590l40 140h160l-80 -140h-120zM310 590l60 140h160l-100 -140h-120z" />
    <glyph glyph-name="Otilde" unicode="&#xd5;" horiz-adv-x="680" 
d="M35 150v400l150 150h310l150 -150v-400l-150 -150h-310zM265 510v-320h150v320h-150zM150 710l-20 115l100 60l204 -40l96 45l20 -115l-100 -60l-204 40z" />
    <glyph glyph-name="otilde" unicode="&#xf5;" 
d="M30 130v300l130 130h280l130 -130v-300l-130 -130h-280zM250 170h100v220h-100v-220zM110 570l-20 115l100 60l204 -40l96 45l20 -115l-100 -60l-204 40z" />
    <glyph glyph-name="uni022C" unicode="&#x22c;" horiz-adv-x="680" 
d="M35 150v400l150 150h310l150 -150v-400l-150 -150h-310zM265 510v-320h150v320h-150zM150 710l-20 115l100 60l204 -40l96 45l20 -115l-100 -60l-204 40zM170 910v80h340v-80h-340z" />
    <glyph glyph-name="uni022D" unicode="&#x22d;" 
d="M30 130v300l130 130h280l130 -130v-300l-130 -130h-280zM250 170h100v220h-100v-220zM110 570l-20 115l100 60l204 -40l96 45l20 -115l-100 -60l-204 40zM130 770v80h340v-80h-340z" />
    <glyph glyph-name="uni022E" unicode="&#x22e;" horiz-adv-x="680" 
d="M35 150v400l150 150h310l150 -150v-400l-150 -150h-310zM265 510v-320h150v320h-150zM230 740v130h220v-130h-220z" />
    <glyph glyph-name="uni022F" unicode="&#x22f;" 
d="M30 130v300l130 130h280l130 -130v-300l-130 -130h-280zM250 170h100v220h-100v-220zM190 600v130h220v-130h-220z" />
    <glyph glyph-name="uni0230" unicode="&#x230;" horiz-adv-x="680" 
d="M35 150v400l150 150h310l150 -150v-400l-150 -150h-310zM265 510v-320h150v320h-150zM230 740v130h220v-130h-220zM170 910v80h340v-80h-340z" />
    <glyph glyph-name="uni0231" unicode="&#x231;" 
d="M30 130v300l130 130h280l130 -130v-300l-130 -130h-280zM250 170h100v220h-100v-220zM190 600v130h220v-130h-220zM130 770v80h340v-80h-340z" />
    <glyph glyph-name="Oslash" unicode="&#xd8;" horiz-adv-x="680" 
d="M40 0l62 83l-67 67v400l150 150h310l40 -40l30 40h75l-62 -83l67 -67v-400l-150 -150h-310l-40 40l-30 -40h-75zM255 510v-223l168 223h-168zM425 190v223l-167 -223h167z" />
    <glyph glyph-name="oslash" unicode="&#xf8;" 
d="M30 0l59 71l-59 59v300l130 130h280l30 -30l25 30h75l-59 -71l59 -59v-300l-130 -130h-280l-30 30l-25 -30h-75zM245 400v-141l110 132v9h-110zM245 160h110v141l-110 -132v-9z" />
    <glyph glyph-name="Oslashacute" unicode="&#x1fe;" horiz-adv-x="680" 
d="M40 0l62 83l-67 67v400l150 150h310l40 -40l30 40h75l-62 -83l67 -67v-400l-150 -150h-310l-40 40l-30 -40h-75zM255 510v-223l168 223h-168zM425 190v223l-167 -223h167zM210 740v100l320 30v-130h-320z" />
    <glyph glyph-name="oslashacute" unicode="&#x1ff;" 
d="M30 0l59 71l-59 59v300l130 130h280l30 -30l25 30h75l-59 -71l59 -59v-300l-130 -130h-280l-30 30l-25 -30h-75zM245 400v-141l110 132v9h-110zM245 160h110v141l-110 -132v-9zM170 600v100l320 30v-130h-320z" />
    <glyph glyph-name="uni01EA" unicode="&#x1ea;" horiz-adv-x="680" 
d="M35 150v400l150 150h310l150 -150v-400l-150 -150h-310zM265 510v-320h150v320h-150zM435 -40l-40 -160h-190l80 160h150z" />
    <glyph glyph-name="uni01EB" unicode="&#x1eb;" 
d="M30 130v300l130 130h280l130 -130v-300l-130 -130h-280zM250 170h100v220h-100v-220zM395 -40l-40 -160h-190l80 160h150z" />
    <glyph glyph-name="Omacron" unicode="&#x14c;" horiz-adv-x="680" 
d="M35 150v400l150 150h310l150 -150v-400l-150 -150h-310zM265 510v-320h150v320h-150zM170 740v130h340v-130h-340z" />
    <glyph glyph-name="omacron" unicode="&#x14d;" 
d="M30 130v300l130 130h280l130 -130v-300l-130 -130h-280zM250 170h100v220h-100v-220zM130 600v130h340v-130h-340z" />
    <glyph glyph-name="uni020C" unicode="&#x20c;" horiz-adv-x="680" 
d="M35 150v400l150 150h310l150 -150v-400l-150 -150h-310zM265 510v-320h150v320h-150zM455 870l40 -140h-120l-80 140h160zM270 870l60 -140h-120l-100 140h160z" />
    <glyph glyph-name="uni020D" unicode="&#x20d;" 
d="M30 130v300l130 130h280l130 -130v-300l-130 -130h-280zM250 170h100v220h-100v-220zM415 730l40 -140h-120l-80 140h160zM230 730l60 -140h-120l-100 140h160z" />
    <glyph glyph-name="uni020E" unicode="&#x20e;" horiz-adv-x="680" 
d="M35 150v400l150 150h310l150 -150v-400l-150 -150h-310zM265 510v-320h150v320h-150zM290 725h-170l100 150h240l100 -150h-170v60h-100v-60z" />
    <glyph glyph-name="uni020F" unicode="&#x20f;" 
d="M30 130v300l130 130h280l130 -130v-300l-130 -130h-280zM250 170h100v220h-100v-220zM250 585h-170l100 150h240l100 -150h-170v60h-100v-60z" />
    <glyph glyph-name="OE" unicode="&#x152;" horiz-adv-x="915" 
d="M35 150v400l150 150h690v-180h-260v-80h210v-170h-210v-90h270v-180h-700zM255 500v-300h140v300h-140z" />
    <glyph glyph-name="oe" unicode="&#x153;" horiz-adv-x="910" 
d="M30 140v280l140 140h230l60 -60l60 60h360v-320h-310v-60h290v-180h-340l-60 60l-60 -60h-230zM570 330l130 10v60h-130v-70zM250 170h100v220h-100v-220z" />
    <glyph glyph-name="uni0186" unicode="&#x186;" horiz-adv-x="560" 
d="M525 550v-400l-150 -150h-340v200h260v300h-270v200h350z" />
    <glyph glyph-name="uni0254" unicode="&#x254;" horiz-adv-x="520" 
d="M500 430v-300l-130 -130h-340v200h250v160h-250v200h340z" />
    <glyph glyph-name="uni1E56" unicode="&#x1e56;" horiz-adv-x="630" 
d="M610 550v-250l-150 -150h-200v-150h-220v700h420zM260 320h130v210h-130v-210zM170 740v130h220v-130h-220z" />
    <glyph glyph-name="uni1E57" unicode="&#x1e57;" horiz-adv-x="620" 
d="M40 -140v700h400l150 -150v-260l-150 -150h-180v-140h-220zM370 380h-110v-200h110v200zM170 600v130h220v-130h-220z" />
    <glyph glyph-name="kgreenlandic" unicode="&#x138;" horiz-adv-x="620" 
d="M40 0v560h220v-179h39l70 179h245l-134 -259l140 -301h-248l-68 201h-44v-201h-220z" />
    <glyph glyph-name="Racute" unicode="&#x154;" horiz-adv-x="660" 
d="M630 550v-222l-90 -90l120 -238h-248l-73 170h-79v-170h-220v700h440zM260 340h150v190h-150v-190zM170 740v100l320 30v-130h-320z" />
    <glyph glyph-name="racute" unicode="&#x155;" horiz-adv-x="470" 
d="M40 0v420l140 140h270v-200h-190v-360h-220zM120 600v100l320 30v-130h-320z" />
    <glyph glyph-name="Rcaron" unicode="&#x158;" horiz-adv-x="660" 
d="M630 550v-222l-90 -90l120 -238h-248l-73 170h-79v-170h-220v700h440zM260 340h150v190h-150v-190zM490 910v-120l-190 -60l-190 60v120l190 -60z" />
    <glyph glyph-name="rcaron" unicode="&#x159;" horiz-adv-x="470" 
d="M40 0v420l140 140h270v-200h-190v-360h-220zM440 770v-120l-190 -60l-190 60v120l190 -60z" />
    <glyph glyph-name="uni0156" unicode="&#x156;" horiz-adv-x="660" 
d="M630 550v-222l-90 -90l120 -238h-248l-73 170h-79v-170h-220v700h440zM260 340h150v190h-150v-190zM195 -200l50 150h190l-90 -150h-150z" />
    <glyph glyph-name="uni0157" unicode="&#x157;" horiz-adv-x="470" 
d="M40 0v420l140 140h270v-200h-190v-360h-220zM25 -200l50 150h190l-90 -150h-150z" />
    <glyph glyph-name="uni0210" unicode="&#x210;" horiz-adv-x="660" 
d="M630 550v-222l-90 -90l120 -238h-248l-73 170h-79v-170h-220v700h440zM260 340h150v190h-150v-190zM415 870l40 -140h-120l-80 140h160zM230 870l60 -140h-120l-100 140h160z" />
    <glyph glyph-name="uni0211" unicode="&#x211;" horiz-adv-x="470" 
d="M40 0v420l140 140h270v-200h-190v-360h-220zM365 730l40 -140h-120l-80 140h160zM180 730l60 -140h-120l-100 140h160z" />
    <glyph glyph-name="uni0212" unicode="&#x212;" horiz-adv-x="660" 
d="M630 550v-222l-90 -90l120 -238h-248l-73 170h-79v-170h-220v700h440zM260 340h150v190h-150v-190zM250 725h-170l100 150h240l100 -150h-170v60h-100v-60z" />
    <glyph glyph-name="uni0213" unicode="&#x213;" horiz-adv-x="470" 
d="M40 0v420l140 140h270v-200h-190v-360h-220zM200 585h-170l100 150h240l100 -150h-170v60h-100v-60z" />
    <glyph glyph-name="uni1E5A" unicode="&#x1e5a;" horiz-adv-x="660" 
d="M630 550v-222l-90 -90l120 -238h-248l-73 170h-79v-170h-220v700h440zM260 340h150v190h-150v-190zM210 -190v130h220v-130h-220z" />
    <glyph glyph-name="uni1E5B" unicode="&#x1e5b;" horiz-adv-x="470" 
d="M40 0v420l140 140h270v-200h-190v-360h-220zM40 -190v130h220v-130h-220z" />
    <glyph glyph-name="Sacute" unicode="&#x15a;" horiz-adv-x="640" 
d="M45 0v190h340v70l-350 33v267l140 140h420v-190h-340v-60l350 -33v-277l-140 -140h-420zM210 740v100l320 30v-130h-320z" />
    <glyph glyph-name="sacute" unicode="&#x15b;" horiz-adv-x="580" 
d="M30 0v170h300v60h-300v200l130 130h390v-170h-300v-60h300v-203l-127 -127h-393zM180 600v100l320 30v-130h-320z" />
    <glyph glyph-name="Scircumflex" unicode="&#x15c;" horiz-adv-x="640" 
d="M45 0v190h340v70l-350 33v267l140 140h420v-190h-340v-60l350 -33v-277l-140 -140h-420zM150 730v120l190 60l190 -60v-120l-190 60z" />
    <glyph glyph-name="scircumflex" unicode="&#x15d;" horiz-adv-x="580" 
d="M30 0v170h300v60h-300v200l130 130h390v-170h-300v-60h300v-203l-127 -127h-393zM120 590v120l190 60l190 -60v-120l-190 60z" />
    <glyph glyph-name="Scaron" unicode="&#x160;" horiz-adv-x="640" 
d="M45 0v190h340v70l-350 33v267l140 140h420v-190h-340v-60l350 -33v-277l-140 -140h-420zM530 910v-120l-190 -60l-190 60v120l190 -60z" />
    <glyph glyph-name="scaron" unicode="&#x161;" horiz-adv-x="580" 
d="M30 0v170h300v60h-300v200l130 130h390v-170h-300v-60h300v-203l-127 -127h-393zM500 770v-120l-190 -60l-190 60v120l190 -60z" />
    <glyph glyph-name="uni1E60" unicode="&#x1e60;" horiz-adv-x="640" 
d="M45 0v190h340v70l-350 33v267l140 140h420v-190h-340v-60l350 -33v-277l-140 -140h-420zM230 740v130h220v-130h-220z" />
    <glyph glyph-name="uni1E61" unicode="&#x1e61;" horiz-adv-x="580" 
d="M30 0v170h300v60h-300v200l130 130h390v-170h-300v-60h300v-203l-127 -127h-393zM200 600v130h220v-130h-220z" />
    <glyph glyph-name="Scedilla" unicode="&#x15e;" horiz-adv-x="640" 
d="M45 0v190h340v70l-350 33v267l140 140h420v-190h-340v-60l350 -33v-277l-140 -140h-420zM175 -200l50 150h190l-90 -150h-150z" />
    <glyph glyph-name="scedilla" unicode="&#x15f;" horiz-adv-x="580" 
d="M30 0v170h300v60h-300v200l130 130h390v-170h-300v-60h300v-203l-127 -127h-393zM145 -200l50 150h190l-90 -150h-150z" />
    <glyph glyph-name="uni1E62" unicode="&#x1e62;" horiz-adv-x="640" 
d="M45 0v190h340v70l-350 33v267l140 140h420v-190h-340v-60l350 -33v-277l-140 -140h-420zM190 -190v130h220v-130h-220z" />
    <glyph glyph-name="uni1E63" unicode="&#x1e63;" horiz-adv-x="580" 
d="M30 0v170h300v60h-300v200l130 130h390v-170h-300v-60h300v-203l-127 -127h-393zM160 -190v130h220v-130h-220z" />
    <glyph glyph-name="uni0218" unicode="&#x218;" horiz-adv-x="640" 
d="M45 0v190h340v70l-350 33v267l140 140h420v-190h-340v-60l350 -33v-277l-140 -140h-420zM175 -200l50 150h190l-90 -150h-150z" />
    <glyph glyph-name="uni0219" unicode="&#x219;" horiz-adv-x="580" 
d="M30 0v170h300v60h-300v200l130 130h390v-170h-300v-60h300v-203l-127 -127h-393zM145 -200l50 150h190l-90 -150h-150z" />
    <glyph glyph-name="longs" unicode="&#x17f;" horiz-adv-x="430" 
d="M40 0v570l130 130h240v-190h-150v-510h-220z" />
    <glyph glyph-name="Germandbls" unicode="&#x1e9e;" horiz-adv-x="700" 
d="M655 700v-261l-63 -53l88 -68v-168l-150 -150h-210v190h140v95h-130v140h110v95h-180v-520h-220v560l140 140h475z" />
    <glyph glyph-name="germandbls" unicode="&#xdf;" horiz-adv-x="630" 
d="M590 550v-121l-77 -63l97 -80v-156l-130 -130h-170v170h80v115h-80v140h65v105h-115v-530h-220v550l150 150h250z" />
    <glyph glyph-name="Tcaron" unicode="&#x164;" horiz-adv-x="580" 
d="M180 0v510h-160v190h540v-190h-160v-510h-220zM480 910v-120l-190 -60l-190 60v120l190 -60z" />
    <glyph glyph-name="tcaron" unicode="&#x165;" horiz-adv-x="430" 
d="M344 580v190h66v-190h-66zM40 650l220 50v-160h150v-180h-150v-180h150v-180h-230l-140 140v510z" />
    <glyph glyph-name="uni1E6A" unicode="&#x1e6a;" horiz-adv-x="580" 
d="M180 0v510h-160v190h540v-190h-160v-510h-220zM180 740v130h220v-130h-220z" />
    <glyph glyph-name="uni1E6B" unicode="&#x1e6b;" horiz-adv-x="430" 
d="M40 650l220 50v-160h150v-180h-150v-180h150v-180h-230l-140 140v510zM140 740v130h220v-130h-220z" />
    <glyph glyph-name="uni0162" unicode="&#x162;" horiz-adv-x="580" 
d="M180 0v510h-160v190h540v-190h-160v-510h-220zM165 -200l50 150h190l-90 -150h-150z" />
    <glyph glyph-name="uni0163" unicode="&#x163;" horiz-adv-x="430" 
d="M40 650l220 50v-160h150v-180h-150v-180h150v-180h-230l-140 140v510zM115 -200l50 150h190l-90 -150h-150z" />
    <glyph glyph-name="uni1E6C" unicode="&#x1e6c;" horiz-adv-x="580" 
d="M180 0v510h-160v190h540v-190h-160v-510h-220zM180 -190v130h220v-130h-220z" />
    <glyph glyph-name="uni1E6D" unicode="&#x1e6d;" horiz-adv-x="430" 
d="M40 650l220 50v-160h150v-180h-150v-180h150v-180h-230l-140 140v510zM130 -190v130h220v-130h-220z" />
    <glyph glyph-name="uni021A" unicode="&#x21a;" horiz-adv-x="580" 
d="M180 0v510h-160v190h540v-190h-160v-510h-220zM165 -200l50 150h190l-90 -150h-150z" />
    <glyph glyph-name="uni021B" unicode="&#x21b;" horiz-adv-x="430" 
d="M40 650l220 50v-160h150v-180h-150v-180h150v-180h-230l-140 140v510zM115 -200l50 150h190l-90 -150h-150z" />
    <glyph glyph-name="Tbar" unicode="&#x166;" horiz-adv-x="560" 
d="M170 0v220h-110v150h110v140h-160v190h540v-190h-160v-140h110v-150h-110v-220h-220z" />
    <glyph glyph-name="tbar" unicode="&#x167;" horiz-adv-x="430" 
d="M5 240v76h35v334l220 50v-160h150v-170h-150v-54h150v-76h-150v-60h150v-180h-230l-140 140v100h-35z" />
    <glyph glyph-name="Uacute" unicode="&#xda;" horiz-adv-x="650" 
d="M40 150v550h220v-500h130v500h220v-550l-150 -150h-270zM195 740v100l320 30v-130h-320z" />
    <glyph glyph-name="uacute" unicode="&#xfa;" horiz-adv-x="620" 
d="M580 560v-560h-400l-140 140v420h220v-370h100v370h220zM180 600v100l320 30v-130h-320z" />
    <glyph glyph-name="Ugrave" unicode="&#xd9;" horiz-adv-x="650" 
d="M40 150v550h220v-500h130v500h220v-550l-150 -150h-270zM455 740h-320v130l320 -30v-100z" />
    <glyph glyph-name="ugrave" unicode="&#xf9;" horiz-adv-x="620" 
d="M580 560v-560h-400l-140 140v420h220v-370h100v370h220zM440 600h-320v130l320 -30v-100z" />
    <glyph glyph-name="Ubreve" unicode="&#x16c;" horiz-adv-x="650" 
d="M40 150v550h220v-500h130v500h220v-550l-150 -150h-270zM375 880h170l-100 -150h-240l-100 150h170v-60h100v60z" />
    <glyph glyph-name="ubreve" unicode="&#x16d;" horiz-adv-x="620" 
d="M580 560v-560h-400l-140 140v420h220v-370h100v370h220zM360 740h170l-100 -150h-240l-100 150h170v-60h100v60z" />
    <glyph glyph-name="Ucircumflex" unicode="&#xdb;" horiz-adv-x="650" 
d="M40 150v550h220v-500h130v500h220v-550l-150 -150h-270zM135 730v120l190 60l190 -60v-120l-190 60z" />
    <glyph glyph-name="ucircumflex" unicode="&#xfb;" horiz-adv-x="620" 
d="M580 560v-560h-400l-140 140v420h220v-370h100v370h220zM120 590v120l190 60l190 -60v-120l-190 60z" />
    <glyph glyph-name="uni01D3" unicode="&#x1d3;" horiz-adv-x="650" 
d="M40 150v550h220v-500h130v500h220v-550l-150 -150h-270zM515 910v-120l-190 -60l-190 60v120l190 -60z" />
    <glyph glyph-name="uni01D4" unicode="&#x1d4;" horiz-adv-x="620" 
d="M580 560v-560h-400l-140 140v420h220v-370h100v370h220zM500 770v-120l-190 -60l-190 60v120l190 -60z" />
    <glyph glyph-name="Uring" unicode="&#x16e;" horiz-adv-x="650" 
d="M40 150v550h220v-500h130v500h220v-550l-150 -150h-270zM192 781v98l76 61h114l76 -61v-98l-76 -61h-114zM286 800h78v60h-78v-60z" />
    <glyph glyph-name="uring" unicode="&#x16f;" horiz-adv-x="620" 
d="M580 560v-560h-400l-140 140v420h220v-370h100v370h220zM177 641v98l76 61h114l76 -61v-98l-76 -61h-114zM271 660h78v60h-78v-60z" />
    <glyph glyph-name="Udieresis" unicode="&#xdc;" horiz-adv-x="650" 
d="M40 150v550h220v-500h130v500h220v-550l-150 -150h-270zM95 740v130h200v-130h-200zM355 740v130h200v-130h-200z" />
    <glyph glyph-name="udieresis" unicode="&#xfc;" horiz-adv-x="620" 
d="M580 560v-560h-400l-140 140v420h220v-370h100v370h220zM80 600v130h200v-130h-200zM340 600v130h200v-130h-200z" />
    <glyph glyph-name="uni01D7" unicode="&#x1d7;" horiz-adv-x="650" 
d="M40 150v550h220v-500h130v500h220v-550l-150 -150h-270zM95 740v90h200v-90h-200zM355 740v90h200v-90h-200zM195 870v100l320 30v-130h-320z" />
    <glyph glyph-name="uni01D8" unicode="&#x1d8;" horiz-adv-x="620" 
d="M580 560v-560h-400l-140 140v420h220v-370h100v370h220zM80 600v90h200v-90h-200zM340 600v90h200v-90h-200zM180 730v100l320 30v-130h-320z" />
    <glyph glyph-name="uni01DB" unicode="&#x1db;" horiz-adv-x="650" 
d="M40 150v550h220v-500h130v500h220v-550l-150 -150h-270zM95 740v90h200v-90h-200zM355 740v90h200v-90h-200zM455 870h-320v130l320 -30v-100z" />
    <glyph glyph-name="uni01DC" unicode="&#x1dc;" horiz-adv-x="620" 
d="M580 560v-560h-400l-140 140v420h220v-370h100v370h220zM80 600v90h200v-90h-200zM340 600v90h200v-90h-200zM440 730h-320v130l320 -30v-100z" />
    <glyph glyph-name="uni01D9" unicode="&#x1d9;" horiz-adv-x="650" 
d="M40 150v550h220v-500h130v500h220v-550l-150 -150h-270zM95 740v90h200v-90h-200zM355 740v90h200v-90h-200zM515 1000v-90l-190 -60l-190 60v90l190 -60z" />
    <glyph glyph-name="uni01DA" unicode="&#x1da;" horiz-adv-x="620" 
d="M580 560v-560h-400l-140 140v420h220v-370h100v370h220zM80 600v90h200v-90h-200zM340 600v90h200v-90h-200zM500 860v-90l-190 -60l-190 60v90l190 -60z" />
    <glyph glyph-name="uni01D5" unicode="&#x1d5;" horiz-adv-x="650" 
d="M40 150v550h220v-500h130v500h220v-550l-150 -150h-270zM95 740v90h200v-90h-200zM355 740v90h200v-90h-200zM155 870v80h340v-80h-340z" />
    <glyph glyph-name="uni01D6" unicode="&#x1d6;" horiz-adv-x="620" 
d="M580 560v-560h-400l-140 140v420h220v-370h100v370h220zM80 600v90h200v-90h-200zM340 600v90h200v-90h-200zM140 730v80h340v-80h-340z" />
    <glyph glyph-name="Uhungarumlaut" unicode="&#x170;" horiz-adv-x="650" 
d="M40 150v550h220v-500h130v500h220v-550l-150 -150h-270zM170 730l40 140h160l-80 -140h-120zM335 730l60 140h160l-100 -140h-120z" />
    <glyph glyph-name="uhungarumlaut" unicode="&#x171;" horiz-adv-x="620" 
d="M580 560v-560h-400l-140 140v420h220v-370h100v370h220zM155 590l40 140h160l-80 -140h-120zM320 590l60 140h160l-100 -140h-120z" />
    <glyph glyph-name="Utilde" unicode="&#x168;" horiz-adv-x="650" 
d="M40 150v550h220v-500h130v500h220v-550l-150 -150h-270zM135 710l-20 115l100 60l204 -40l96 45l20 -115l-100 -60l-204 40z" />
    <glyph glyph-name="utilde" unicode="&#x169;" horiz-adv-x="620" 
d="M580 560v-560h-400l-140 140v420h220v-370h100v370h220zM120 570l-20 115l100 60l204 -40l96 45l20 -115l-100 -60l-204 40z" />
    <glyph glyph-name="Uogonek" unicode="&#x172;" horiz-adv-x="650" 
d="M40 150v550h220v-500h130v500h220v-550l-150 -150h-270zM455 -40l-40 -160h-190l80 160h150z" />
    <glyph glyph-name="uogonek" unicode="&#x173;" horiz-adv-x="620" 
d="M580 560v-560h-400l-140 140v420h220v-370h100v370h220zM545 -40l-40 -160h-190l80 160h150z" />
    <glyph glyph-name="Umacron" unicode="&#x16a;" horiz-adv-x="650" 
d="M40 150v550h220v-500h130v500h220v-550l-150 -150h-270zM155 740v130h340v-130h-340z" />
    <glyph glyph-name="umacron" unicode="&#x16b;" horiz-adv-x="620" 
d="M580 560v-560h-400l-140 140v420h220v-370h100v370h220zM140 600v130h340v-130h-340z" />
    <glyph glyph-name="uni0214" unicode="&#x214;" horiz-adv-x="650" 
d="M40 150v550h220v-500h130v500h220v-550l-150 -150h-270zM440 870l40 -140h-120l-80 140h160zM255 870l60 -140h-120l-100 140h160z" />
    <glyph glyph-name="uni0215" unicode="&#x215;" horiz-adv-x="620" 
d="M580 560v-560h-400l-140 140v420h220v-370h100v370h220zM425 730l40 -140h-120l-80 140h160zM240 730l60 -140h-120l-100 140h160z" />
    <glyph glyph-name="uni0216" unicode="&#x216;" horiz-adv-x="650" 
d="M40 150v550h220v-500h130v500h220v-550l-150 -150h-270zM275 725h-170l100 150h240l100 -150h-170v60h-100v-60z" />
    <glyph glyph-name="uni0217" unicode="&#x217;" horiz-adv-x="620" 
d="M580 560v-560h-400l-140 140v420h220v-370h100v370h220zM260 585h-170l100 150h240l100 -150h-170v60h-100v-60z" />
    <glyph glyph-name="uni0244" unicode="&#x244;" horiz-adv-x="650" 
d="M40 150v195h-35v110h35v245h220v-245h130v245h220v-245h35v-110h-35v-195l-150 -150h-270zM260 200h130v145h-130v-145z" />
    <glyph glyph-name="uni0289" unicode="&#x289;" horiz-adv-x="620" 
d="M5 290v110h35v160h220v-160h100v160h220v-160h35v-110h-35v-290h-400l-140 140v150h-35zM260 190h100v100h-100v-100z" />
    <glyph glyph-name="uni1E7C" unicode="&#x1e7c;" horiz-adv-x="660" 
d="M140 0l-135 700h243l67 -500h30l68 500h242l-135 -700h-380zM140 710l-20 115l100 60l204 -40l96 45l20 -115l-100 -60l-204 40z" />
    <glyph glyph-name="uni1E7D" unicode="&#x1e7d;" horiz-adv-x="580" 
d="M109 0l-104 560h225l39 -380h46l40 380h220l-104 -560h-362zM100 570l-20 115l100 60l204 -40l96 45l20 -115l-100 -60l-204 40z" />
    <glyph glyph-name="uni01B2" unicode="&#x1b2;" horiz-adv-x="650" 
d="M190 0l-150 150v550h220v-500h130v310h-70v190h180l110 -110v-440l-150 -150h-270z" />
    <glyph glyph-name="uni028B" unicode="&#x28b;" horiz-adv-x="620" 
d="M180 0l-140 140v420h220v-370h100v190h-40v180h150l110 -110v-310l-140 -140h-260z" />
    <glyph glyph-name="Wacute" unicode="&#x1e82;" horiz-adv-x="850" 
d="M112 0l-112 700h240l55 -460h10l58 350h124l58 -350h10l55 460h240l-112 -700h-261l-52 297l-52 -297h-261zM295 740v100l320 30v-130h-320z" />
    <glyph glyph-name="wacute" unicode="&#x1e83;" horiz-adv-x="840" 
d="M94 0l-79 560h224l35 -380h10l48 320h176l48 -320h10l35 380h224l-79 -560h-274l-52 287l-52 -287h-274zM290 600v100l320 30v-130h-320z" />
    <glyph glyph-name="Wgrave" unicode="&#x1e80;" horiz-adv-x="850" 
d="M112 0l-112 700h240l55 -460h10l58 350h124l58 -350h10l55 460h240l-112 -700h-261l-52 297l-52 -297h-261zM555 740h-320v130l320 -30v-100z" />
    <glyph glyph-name="wgrave" unicode="&#x1e81;" horiz-adv-x="840" 
d="M94 0l-79 560h224l35 -380h10l48 320h176l48 -320h10l35 380h224l-79 -560h-274l-52 287l-52 -287h-274zM550 600h-320v130l320 -30v-100z" />
    <glyph glyph-name="Wcircumflex" unicode="&#x174;" horiz-adv-x="850" 
d="M112 0l-112 700h240l55 -460h10l58 350h124l58 -350h10l55 460h240l-112 -700h-261l-52 297l-52 -297h-261zM235 730v120l190 60l190 -60v-120l-190 60z" />
    <glyph glyph-name="wcircumflex" unicode="&#x175;" horiz-adv-x="840" 
d="M94 0l-79 560h224l35 -380h10l48 320h176l48 -320h10l35 380h224l-79 -560h-274l-52 287l-52 -287h-274zM230 590v120l190 60l190 -60v-120l-190 60z" />
    <glyph glyph-name="Wdieresis" unicode="&#x1e84;" horiz-adv-x="850" 
d="M112 0l-112 700h240l55 -460h10l58 350h124l58 -350h10l55 460h240l-112 -700h-261l-52 297l-52 -297h-261zM195 740v130h200v-130h-200zM455 740v130h200v-130h-200z" />
    <glyph glyph-name="wdieresis" unicode="&#x1e85;" horiz-adv-x="840" 
d="M94 0l-79 560h224l35 -380h10l48 320h176l48 -320h10l35 380h224l-79 -560h-274l-52 287l-52 -287h-274zM190 600v130h200v-130h-200zM450 600v130h200v-130h-200z" />
    <glyph glyph-name="Yacute" unicode="&#xdd;" horiz-adv-x="640" 
d="M210 0v210h-83l-122 490h235l55 -300h50l55 300h235l-122 -490h-83v-210h-220zM190 740v100l320 30v-130h-320z" />
    <glyph glyph-name="yacute" unicode="&#xfd;" 
d="M40 -140v180h242l7 40h-175l-109 480h225l50 -310h42l50 310h223l-157 -700h-398zM170 600v100l320 30v-130h-320z" />
    <glyph glyph-name="Ygrave" unicode="&#x1ef2;" horiz-adv-x="640" 
d="M210 0v210h-83l-122 490h235l55 -300h50l55 300h235l-122 -490h-83v-210h-220zM450 740h-320v130l320 -30v-100z" />
    <glyph glyph-name="ygrave" unicode="&#x1ef3;" 
d="M40 -140v180h242l7 40h-175l-109 480h225l50 -310h42l50 310h223l-157 -700h-398zM430 600h-320v130l320 -30v-100z" />
    <glyph glyph-name="Ycircumflex" unicode="&#x176;" horiz-adv-x="640" 
d="M210 0v210h-83l-122 490h235l55 -300h50l55 300h235l-122 -490h-83v-210h-220zM130 730v120l190 60l190 -60v-120l-190 60z" />
    <glyph glyph-name="ycircumflex" unicode="&#x177;" 
d="M40 -140v180h242l7 40h-175l-109 480h225l50 -310h42l50 310h223l-157 -700h-398zM110 590v120l190 60l190 -60v-120l-190 60z" />
    <glyph glyph-name="Ydieresis" unicode="&#x178;" horiz-adv-x="640" 
d="M210 0v210h-83l-122 490h235l55 -300h50l55 300h235l-122 -490h-83v-210h-220zM90 740v130h200v-130h-200zM350 740v130h200v-130h-200z" />
    <glyph glyph-name="ydieresis" unicode="&#xff;" 
d="M40 -140v180h242l7 40h-175l-109 480h225l50 -310h42l50 310h223l-157 -700h-398zM70 600v130h200v-130h-200zM330 600v130h200v-130h-200z" />
    <glyph glyph-name="uni1EF8" unicode="&#x1ef8;" horiz-adv-x="640" 
d="M210 0v210h-83l-122 490h235l55 -300h50l55 300h235l-122 -490h-83v-210h-220zM130 710l-20 115l100 60l204 -40l96 45l20 -115l-100 -60l-204 40z" />
    <glyph glyph-name="uni1EF9" unicode="&#x1ef9;" 
d="M40 -140v180h242l7 40h-175l-109 480h225l50 -310h42l50 310h223l-157 -700h-398zM110 570l-20 115l100 60l204 -40l96 45l20 -115l-100 -60l-204 40z" />
    <glyph glyph-name="uni0232" unicode="&#x232;" horiz-adv-x="640" 
d="M210 0v210h-83l-122 490h235l55 -300h50l55 300h235l-122 -490h-83v-210h-220zM150 740v130h340v-130h-340z" />
    <glyph glyph-name="uni0233" unicode="&#x233;" 
d="M40 -140v180h242l7 40h-175l-109 480h225l50 -310h42l50 310h223l-157 -700h-398zM130 600v130h340v-130h-340z" />
    <glyph glyph-name="uni01B3" unicode="&#x1b3;" horiz-adv-x="650" 
d="M210 0v210h-83l-122 490h235l55 -300h50l51 240l60 60h189v-190h-55l-77 -300h-83v-210h-220z" />
    <glyph glyph-name="uni01B4" unicode="&#x1b4;" 
d="M40 -140v180h242l7 40h-175l-109 480h225l50 -310h42l60 380l70 70h148v-160h-30l-122 -680h-408z" />
    <glyph glyph-name="Zacute" unicode="&#x179;" horiz-adv-x="565" 
d="M20 0v160l275 360h-270v180h515v-160l-275 -360h280v-180h-525zM153 740v100l320 30v-130h-320z" />
    <glyph glyph-name="zacute" unicode="&#x17a;" horiz-adv-x="530" 
d="M20 0v160l220 220h-220v180h490v-160l-220 -220h220v-180h-490zM135 600v100l320 30v-130h-320z" />
    <glyph glyph-name="Zcaron" unicode="&#x17d;" horiz-adv-x="565" 
d="M20 0v160l275 360h-270v180h515v-160l-275 -360h280v-180h-525zM473 910v-120l-190 -60l-190 60v120l190 -60z" />
    <glyph glyph-name="zcaron" unicode="&#x17e;" horiz-adv-x="530" 
d="M20 0v160l220 220h-220v180h490v-160l-220 -220h220v-180h-490zM455 770v-120l-190 -60l-190 60v120l190 -60z" />
    <glyph glyph-name="Zdotaccent" unicode="&#x17b;" horiz-adv-x="565" 
d="M20 0v160l275 360h-270v180h515v-160l-275 -360h280v-180h-525zM173 740v130h220v-130h-220z" />
    <glyph glyph-name="zdotaccent" unicode="&#x17c;" horiz-adv-x="530" 
d="M20 0v160l220 220h-220v180h490v-160l-220 -220h220v-180h-490zM155 600v130h220v-130h-220z" />
    <glyph glyph-name="uni1E92" unicode="&#x1e92;" horiz-adv-x="565" 
d="M20 0v160l275 360h-270v180h515v-160l-275 -360h280v-180h-525zM173 -190v130h220v-130h-220z" />
    <glyph glyph-name="uni1E93" unicode="&#x1e93;" horiz-adv-x="530" 
d="M20 0v160l220 220h-220v180h490v-160l-220 -220h220v-180h-490zM155 -190v130h220v-130h-220z" />
    <glyph glyph-name="uni01B7" unicode="&#x1b7;" horiz-adv-x="610" 
d="M450 0h-420v180h335v90h-245v140l157 110h-237v180h530v-140l-231 -140h161l90 -90v-190z" />
    <glyph glyph-name="uni0292" unicode="&#x292;" horiz-adv-x="610" 
d="M450 -140h-420v180h335v80h-245v140l157 120h-237v180h530v-140l-231 -150h161l90 -90v-180z" />
    <glyph glyph-name="uni01EE" unicode="&#x1ee;" horiz-adv-x="610" 
d="M450 0h-420v180h335v90h-245v140l157 110h-237v180h530v-140l-231 -140h161l90 -90v-190zM495 910v-120l-190 -60l-190 60v120l190 -60z" />
    <glyph glyph-name="uni01EF" unicode="&#x1ef;" horiz-adv-x="610" 
d="M450 -140h-420v180h335v80h-245v140l157 120h-237v180h530v-140l-231 -150h161l90 -90v-180zM495 770v-120l-190 -60l-190 60v120l190 -60z" />
    <glyph glyph-name="Thorn" unicode="&#xde;" horiz-adv-x="640" 
d="M40 0v700h220v-80h210l150 -150v-230l-150 -150h-210v-90h-220zM260 260h140v190h-140v-190z" />
    <glyph glyph-name="thorn" unicode="&#xfe;" horiz-adv-x="620" 
d="M40 -140v840h220v-140h180l150 -150v-260l-150 -150h-180v-140h-220zM260 180h110v200h-110v-200z" />
    <glyph glyph-name="uni0294" unicode="&#x294;" horiz-adv-x="560" 
d="M310 0h-200v417l235 53v40h-330v190h390l140 -140v-217l-235 -66v-277z" />
    <glyph glyph-name="uniA78B" unicode="&#xa78b;" horiz-adv-x="300" 
d="M65 200l-40 500h250l-40 -500h-170z" />
    <glyph glyph-name="uniA78C" unicode="&#xa78c;" horiz-adv-x="260" 
d="M45 300l-30 400h230l-30 -400h-170z" />
    <glyph glyph-name="uni01C0" unicode="&#x1c0;" horiz-adv-x="290" 
d="M45 -30v760h200v-760h-200z" />
    <glyph glyph-name="uni01C1" unicode="&#x1c1;" horiz-adv-x="530" 
d="M40 -30v760h200v-760h-200zM290 -30v760h200v-760h-200z" />
    <glyph glyph-name="uni01C2" unicode="&#x1c2;" 
d="M200 -30v180h-160v170h160v60h-160v170h160v180h200v-180h160v-170h-160v-60h160v-170h-160v-180h-200z" />
    <glyph glyph-name="uni01C3" unicode="&#x1c3;" horiz-adv-x="300" 
d="M65 250l-40 450h250l-40 -450h-170zM50 0v200h200v-200h-200z" />
    <glyph glyph-name="uni1EA0" unicode="&#x1ea0;" horiz-adv-x="660" 
d="M5 0l135 700h380l135 -700h-235l-18 130h-144l-18 -130h-235zM280 280h100l-35 250h-30zM220 -190v130h220v-130h-220z" />
    <glyph glyph-name="uni1EA0.ss01" horiz-adv-x="660" 
d="M620 550v-550h-220v140h-140v-140h-220v550l150 150h280zM260 500v-180h140v180h-140zM220 -190v130h220v-130h-220z" />
    <glyph glyph-name="uni1EA1" unicode="&#x1ea1;" 
d="M30 140v180l310 10v50h-290v180h370l140 -140v-420h-390zM250 220v-50h90v70zM170 -190v130h220v-130h-220z" />
    <glyph glyph-name="uni1EA2" unicode="&#x1ea2;" horiz-adv-x="660" 
d="M5 0l135 700h380l135 -700h-235l-18 130h-144l-18 -130h-235zM280 280h100l-35 250h-30zM230 800v70h200v-70l-70 -70h-110l70 70h-90z" />
    <glyph glyph-name="uni1EA2.ss01" horiz-adv-x="660" 
d="M620 550v-550h-220v140h-140v-140h-220v550l150 150h280zM260 500v-180h140v180h-140zM230 800v70h200v-70l-70 -70h-110l70 70h-90z" />
    <glyph glyph-name="uni1EA3" unicode="&#x1ea3;" 
d="M30 140v180l310 10v50h-290v180h370l140 -140v-420h-390zM250 220v-50h90v70zM180 660v70h200v-70l-70 -70h-110l70 70h-90z" />
    <glyph glyph-name="uni1EA4" unicode="&#x1ea4;" horiz-adv-x="660" 
d="M5 0l135 700h380l135 -700h-235l-18 130h-144l-18 -130h-235zM280 280h100l-35 250h-30zM380 895v65l170 40v-90zM140 725v120l190 55l190 -55v-120l-190 55z" />
    <glyph glyph-name="uni1EA4.ss01" horiz-adv-x="660" 
d="M620 550v-550h-220v140h-140v-140h-220v550l150 150h280zM260 500v-180h140v180h-140zM380 895v65l170 40v-90zM140 725v120l190 55l190 -55v-120l-190 55z" />
    <glyph glyph-name="uni1EA5" unicode="&#x1ea5;" 
d="M30 140v180l310 10v50h-290v180h370l140 -140v-420h-390zM250 220v-50h90v70zM330 755v65l170 40v-90zM90 585v120l190 55l190 -55v-120l-190 55z" />
    <glyph glyph-name="uni1EA6" unicode="&#x1ea6;" horiz-adv-x="660" 
d="M5 0l135 700h380l135 -700h-235l-18 130h-144l-18 -130h-235zM280 280h100l-35 250h-30zM540 890l-170 20v90l170 -40v-70zM140 725v120l190 60l190 -60v-120l-190 60z" />
    <glyph glyph-name="uni1EA6.ss01" horiz-adv-x="660" 
d="M620 550v-550h-220v140h-140v-140h-220v550l150 150h280zM260 500v-180h140v180h-140zM540 890l-170 20v90l170 -40v-70zM140 725v120l190 60l190 -60v-120l-190 60z" />
    <glyph glyph-name="uni1EA7" unicode="&#x1ea7;" 
d="M30 140v180l310 10v50h-290v180h370l140 -140v-420h-390zM250 220v-50h90v70zM490 750l-170 20v90l170 -40v-70zM90 585v120l190 60l190 -60v-120l-190 60z" />
    <glyph glyph-name="uni1EA8" unicode="&#x1ea8;" horiz-adv-x="660" 
d="M5 0l135 700h380l135 -700h-235l-18 130h-144l-18 -130h-235zM280 280h100l-35 250h-30zM420 940v60h105l60 -50l-73 -79l-70 19l46 50h-68zM140 725v120l190 60l190 -60v-120l-190 60z" />
    <glyph glyph-name="uni1EA8.ss01" horiz-adv-x="660" 
d="M620 550v-550h-220v140h-140v-140h-220v550l150 150h280zM260 500v-180h140v180h-140zM420 940v60h105l60 -50l-73 -79l-70 19l46 50h-68zM140 725v120l190 60l190 -60v-120l-190 60z" />
    <glyph glyph-name="uni1EA9" unicode="&#x1ea9;" 
d="M30 140v180l310 10v50h-290v180h370l140 -140v-420h-390zM250 220v-50h90v70zM370 800v60h105l60 -50l-73 -79l-70 19l46 50h-68zM90 585v120l190 60l190 -60v-120l-190 60z" />
    <glyph glyph-name="uni1EAA" unicode="&#x1eaa;" horiz-adv-x="660" 
d="M5 0l135 700h380l135 -700h-235l-18 130h-144l-18 -130h-235zM280 280h100l-35 250h-30zM200 885l-20 65l70 50l154 -35l56 35l20 -65l-70 -50l-154 35zM140 715v110l190 55l190 -55v-110l-190 55z" />
    <glyph glyph-name="uni1EAA.ss01" horiz-adv-x="660" 
d="M620 550v-550h-220v140h-140v-140h-220v550l150 150h280zM260 500v-180h140v180h-140zM200 885l-20 65l70 50l154 -35l56 35l20 -65l-70 -50l-154 35zM140 715v110l190 55l190 -55v-110l-190 55z" />
    <glyph glyph-name="uni1EAB" unicode="&#x1eab;" 
d="M30 140v180l310 10v50h-290v180h370l140 -140v-420h-390zM250 220v-50h90v70zM150 745l-20 65l70 50l154 -35l56 35l20 -65l-70 -50l-154 35zM90 575v110l190 55l190 -55v-110l-190 55z" />
    <glyph glyph-name="uni1EAC" unicode="&#x1eac;" horiz-adv-x="660" 
d="M5 0l135 700h380l135 -700h-235l-18 130h-144l-18 -130h-235zM280 280h100l-35 250h-30zM220 -190v130h220v-130h-220zM140 730v120l190 60l190 -60v-120l-190 60z" />
    <glyph glyph-name="uni1EAC.ss01" horiz-adv-x="660" 
d="M620 550v-550h-220v140h-140v-140h-220v550l150 150h280zM260 500v-180h140v180h-140zM220 -190v130h220v-130h-220zM140 730v120l190 60l190 -60v-120l-190 60z" />
    <glyph glyph-name="uni1EAD" unicode="&#x1ead;" 
d="M30 140v180l310 10v50h-290v180h370l140 -140v-420h-390zM250 220v-50h90v70zM170 -190v130h220v-130h-220zM90 590v120l190 60l190 -60v-120l-190 60z" />
    <glyph glyph-name="uni1EAE" unicode="&#x1eae;" horiz-adv-x="660" 
d="M5 0l135 700h380l135 -700h-235l-18 130h-144l-18 -130h-235zM280 280h100l-35 250h-30zM310 890v70l170 40v-90zM380 880h170l-100 -150h-240l-100 150h170v-60h100v60z" />
    <glyph glyph-name="uni1EAE.ss01" horiz-adv-x="660" 
d="M620 550v-550h-220v140h-140v-140h-220v550l150 150h280zM260 500v-180h140v180h-140zM310 890v70l170 40v-90zM380 880h170l-100 -150h-240l-100 150h170v-60h100v60z" />
    <glyph glyph-name="uni1EAF" unicode="&#x1eaf;" 
d="M30 140v180l310 10v50h-290v180h370l140 -140v-420h-390zM250 220v-50h90v70zM260 750v70l170 40v-90zM330 740h170l-100 -150h-240l-100 150h170v-60h100v60z" />
    <glyph glyph-name="uni1EB0" unicode="&#x1eb0;" horiz-adv-x="660" 
d="M5 0l135 700h380l135 -700h-235l-18 130h-144l-18 -130h-235zM280 280h100l-35 250h-30zM350 890l-170 20v90l170 -40v-70zM380 880h170l-100 -150h-240l-100 150h170v-60h100v60z" />
    <glyph glyph-name="uni1EB0.ss01" horiz-adv-x="660" 
d="M620 550v-550h-220v140h-140v-140h-220v550l150 150h280zM260 500v-180h140v180h-140zM350 890l-170 20v90l170 -40v-70zM380 880h170l-100 -150h-240l-100 150h170v-60h100v60z" />
    <glyph glyph-name="uni1EB1" unicode="&#x1eb1;" 
d="M30 140v180l310 10v50h-290v180h370l140 -140v-420h-390zM250 220v-50h90v70zM300 750l-170 20v90l170 -40v-70zM330 740h170l-100 -150h-240l-100 150h170v-60h100v60z" />
    <glyph glyph-name="uni1EB2" unicode="&#x1eb2;" horiz-adv-x="660" 
d="M5 0l135 700h380l135 -700h-235l-18 130h-144l-18 -130h-235zM280 280h100l-35 250h-30zM260 940v60h105l60 -50l-73 -79l-70 19l46 50h-68zM380 880h170l-100 -150h-240l-100 150h170v-60h100v60z" />
    <glyph glyph-name="uni1EB2.ss01" horiz-adv-x="660" 
d="M620 550v-550h-220v140h-140v-140h-220v550l150 150h280zM260 500v-180h140v180h-140zM260 940v60h105l60 -50l-73 -79l-70 19l46 50h-68zM380 880h170l-100 -150h-240l-100 150h170v-60h100v60z" />
    <glyph glyph-name="uni1EB3" unicode="&#x1eb3;" 
d="M30 140v180l310 10v50h-290v180h370l140 -140v-420h-390zM250 220v-50h90v70zM210 800v60h105l60 -50l-73 -79l-70 19l46 50h-68zM330 740h170l-100 -150h-240l-100 150h170v-60h100v60z" />
    <glyph glyph-name="uni1EB4" unicode="&#x1eb4;" horiz-adv-x="660" 
d="M5 0l135 700h380l135 -700h-235l-18 130h-144l-18 -130h-235zM280 280h100l-35 250h-30zM200 885l-20 65l70 50l154 -35l56 35l20 -65l-70 -50l-154 35zM380 875h170l-100 -145h-240l-100 145h170v-55h100v55z" />
    <glyph glyph-name="uni1EB4.ss01" horiz-adv-x="660" 
d="M620 550v-550h-220v140h-140v-140h-220v550l150 150h280zM260 500v-180h140v180h-140zM200 885l-20 65l70 50l154 -35l56 35l20 -65l-70 -50l-154 35zM380 875h170l-100 -145h-240l-100 145h170v-55h100v55z" />
    <glyph glyph-name="uni1EB5" unicode="&#x1eb5;" 
d="M30 140v180l310 10v50h-290v180h370l140 -140v-420h-390zM250 220v-50h90v70zM150 745l-20 65l70 50l154 -35l56 35l20 -65l-70 -50l-154 35zM330 735h170l-100 -145h-240l-100 145h170v-55h100v55z" />
    <glyph glyph-name="uni1EB6" unicode="&#x1eb6;" horiz-adv-x="660" 
d="M5 0l135 700h380l135 -700h-235l-18 130h-144l-18 -130h-235zM280 280h100l-35 250h-30zM220 -190v130h220v-130h-220zM380 880h170l-100 -150h-240l-100 150h170v-60h100v60z" />
    <glyph glyph-name="uni1EB6.ss01" horiz-adv-x="660" 
d="M620 550v-550h-220v140h-140v-140h-220v550l150 150h280zM260 500v-180h140v180h-140zM220 -190v130h220v-130h-220zM380 880h170l-100 -150h-240l-100 150h170v-60h100v60z" />
    <glyph glyph-name="uni1EB7" unicode="&#x1eb7;" 
d="M30 140v180l310 10v50h-290v180h370l140 -140v-420h-390zM250 220v-50h90v70zM170 -190v130h220v-130h-220zM330 740h170l-100 -150h-240l-100 150h170v-60h100v60z" />
    <glyph glyph-name="uni1EB8" unicode="&#x1eb8;" horiz-adv-x="580" 
d="M40 0v700h500v-180h-280v-80h230v-170h-230v-90h290v-180h-510zM185 -190v130h220v-130h-220z" />
    <glyph glyph-name="uni1EB9" unicode="&#x1eb9;" horiz-adv-x="590" 
d="M30 130v300l130 130h400v-320h-310v-60h290v-180h-380zM250 330l130 10v60h-130v-70zM200 -190v130h220v-130h-220z" />
    <glyph glyph-name="uni1EBA" unicode="&#x1eba;" horiz-adv-x="580" 
d="M40 0v700h500v-180h-280v-80h230v-170h-230v-90h290v-180h-510zM195 800v70h200v-70l-70 -70h-110l70 70h-90z" />
    <glyph glyph-name="uni1EBB" unicode="&#x1ebb;" horiz-adv-x="590" 
d="M30 130v300l130 130h400v-320h-310v-60h290v-180h-380zM250 330l130 10v60h-130v-70zM210 660v70h200v-70l-70 -70h-110l70 70h-90z" />
    <glyph glyph-name="uni1EBC" unicode="&#x1ebc;" horiz-adv-x="580" 
d="M40 0v700h500v-180h-280v-80h230v-170h-230v-90h290v-180h-510zM105 710l-20 115l100 60l204 -40l96 45l20 -115l-100 -60l-204 40z" />
    <glyph glyph-name="uni1EBD" unicode="&#x1ebd;" horiz-adv-x="590" 
d="M30 130v300l130 130h400v-320h-310v-60h290v-180h-380zM250 330l130 10v60h-130v-70zM120 570l-20 115l100 60l204 -40l96 45l20 -115l-100 -60l-204 40z" />
    <glyph glyph-name="uni1EBE" unicode="&#x1ebe;" horiz-adv-x="580" 
d="M40 0v700h500v-180h-280v-80h230v-170h-230v-90h290v-180h-510zM345 895v65l170 40v-90zM105 725v120l190 55l190 -55v-120l-190 55z" />
    <glyph glyph-name="uni1EBF" unicode="&#x1ebf;" horiz-adv-x="590" 
d="M30 130v300l130 130h400v-320h-310v-60h290v-180h-380zM250 330l130 10v60h-130v-70zM360 755v65l170 40v-90zM120 585v120l190 55l190 -55v-120l-190 55z" />
    <glyph glyph-name="uni1EC0" unicode="&#x1ec0;" horiz-adv-x="580" 
d="M40 0v700h500v-180h-280v-80h230v-170h-230v-90h290v-180h-510zM505 890l-170 20v90l170 -40v-70zM105 725v120l190 60l190 -60v-120l-190 60z" />
    <glyph glyph-name="uni1EC1" unicode="&#x1ec1;" horiz-adv-x="590" 
d="M30 130v300l130 130h400v-320h-310v-60h290v-180h-380zM250 330l130 10v60h-130v-70zM520 750l-170 20v90l170 -40v-70zM120 585v120l190 60l190 -60v-120l-190 60z" />
    <glyph glyph-name="uni1EC2" unicode="&#x1ec2;" horiz-adv-x="580" 
d="M40 0v700h500v-180h-280v-80h230v-170h-230v-90h290v-180h-510zM385 940v60h105l60 -50l-73 -79l-70 19l46 50h-68zM105 725v120l190 60l190 -60v-120l-190 60z" />
    <glyph glyph-name="uni1EC3" unicode="&#x1ec3;" horiz-adv-x="590" 
d="M30 130v300l130 130h400v-320h-310v-60h290v-180h-380zM250 330l130 10v60h-130v-70zM400 800v60h105l60 -50l-73 -79l-70 19l46 50h-68zM120 585v120l190 60l190 -60v-120l-190 60z" />
    <glyph glyph-name="uni1EC4" unicode="&#x1ec4;" horiz-adv-x="580" 
d="M40 0v700h500v-180h-280v-80h230v-170h-230v-90h290v-180h-510zM165 885l-20 65l70 50l154 -35l56 35l20 -65l-70 -50l-154 35zM105 715v110l190 55l190 -55v-110l-190 55z" />
    <glyph glyph-name="uni1EC5" unicode="&#x1ec5;" horiz-adv-x="590" 
d="M30 130v300l130 130h400v-320h-310v-60h290v-180h-380zM250 330l130 10v60h-130v-70zM180 745l-20 65l70 50l154 -35l56 35l20 -65l-70 -50l-154 35zM120 575v110l190 55l190 -55v-110l-190 55z" />
    <glyph glyph-name="uni1EC6" unicode="&#x1ec6;" horiz-adv-x="580" 
d="M40 0v700h500v-180h-280v-80h230v-170h-230v-90h290v-180h-510zM185 -190v130h220v-130h-220zM105 730v120l190 60l190 -60v-120l-190 60z" />
    <glyph glyph-name="uni1EC7" unicode="&#x1ec7;" horiz-adv-x="590" 
d="M30 130v300l130 130h400v-320h-310v-60h290v-180h-380zM250 330l130 10v60h-130v-70zM200 -190v130h220v-130h-220zM120 590v120l190 60l190 -60v-120l-190 60z" />
    <glyph glyph-name="uni1EC8" unicode="&#x1ec8;" horiz-adv-x="430" 
d="M45 -4v165l60 5v368l-60 5v165l170 -8l170 8v-165l-60 -5v-368l60 -5v-165l-170 8zM115 800v70h200v-70l-70 -70h-110l70 70h-90z" />
    <glyph glyph-name="uni1EC9" unicode="&#x1ec9;" horiz-adv-x="300" 
d="M40 0v560h220v-560h-220zM50 660v70h200v-70l-70 -70h-110l70 70h-90z" />
    <glyph glyph-name="uni1ECA" unicode="&#x1eca;" horiz-adv-x="430" 
d="M45 -4v165l60 5v368l-60 5v165l170 -8l170 8v-165l-60 -5v-368l60 -5v-165l-170 8zM105 -190v130h220v-130h-220z" />
    <glyph glyph-name="uni1ECB" unicode="&#x1ecb;" horiz-adv-x="300" 
d="M40 600v130h220v-130h-220zM40 0v560h220v-560h-220zM40 -190v130h220v-130h-220z" />
    <glyph glyph-name="uni1ECC" unicode="&#x1ecc;" horiz-adv-x="680" 
d="M35 150v400l150 150h310l150 -150v-400l-150 -150h-310zM265 510v-320h150v320h-150zM230 -190v130h220v-130h-220z" />
    <glyph glyph-name="uni1ECD" unicode="&#x1ecd;" 
d="M30 130v300l130 130h280l130 -130v-300l-130 -130h-280zM250 170h100v220h-100v-220zM190 -190v130h220v-130h-220z" />
    <glyph glyph-name="uni1ECE" unicode="&#x1ece;" horiz-adv-x="680" 
d="M35 150v400l150 150h310l150 -150v-400l-150 -150h-310zM265 510v-320h150v320h-150zM240 800v70h200v-70l-70 -70h-110l70 70h-90z" />
    <glyph glyph-name="uni1ECF" unicode="&#x1ecf;" 
d="M30 130v300l130 130h280l130 -130v-300l-130 -130h-280zM250 170h100v220h-100v-220zM200 660v70h200v-70l-70 -70h-110l70 70h-90z" />
    <glyph glyph-name="uni1ED0" unicode="&#x1ed0;" horiz-adv-x="680" 
d="M35 150v400l150 150h310l150 -150v-400l-150 -150h-310zM265 510v-320h150v320h-150zM390 895v65l170 40v-90zM150 725v120l190 55l190 -55v-120l-190 55z" />
    <glyph glyph-name="uni1ED1" unicode="&#x1ed1;" 
d="M30 130v300l130 130h280l130 -130v-300l-130 -130h-280zM250 170h100v220h-100v-220zM350 755v65l170 40v-90zM110 585v120l190 55l190 -55v-120l-190 55z" />
    <glyph glyph-name="uni1ED2" unicode="&#x1ed2;" horiz-adv-x="680" 
d="M35 150v400l150 150h310l150 -150v-400l-150 -150h-310zM265 510v-320h150v320h-150zM550 890l-170 20v90l170 -40v-70zM150 725v120l190 60l190 -60v-120l-190 60z" />
    <glyph glyph-name="uni1ED3" unicode="&#x1ed3;" 
d="M30 130v300l130 130h280l130 -130v-300l-130 -130h-280zM250 170h100v220h-100v-220zM510 750l-170 20v90l170 -40v-70zM110 585v120l190 60l190 -60v-120l-190 60z" />
    <glyph glyph-name="uni1ED4" unicode="&#x1ed4;" horiz-adv-x="680" 
d="M35 150v400l150 150h310l150 -150v-400l-150 -150h-310zM265 510v-320h150v320h-150zM430 940v60h105l60 -50l-73 -79l-70 19l46 50h-68zM150 725v120l190 60l190 -60v-120l-190 60z" />
    <glyph glyph-name="uni1ED5" unicode="&#x1ed5;" 
d="M30 130v300l130 130h280l130 -130v-300l-130 -130h-280zM250 170h100v220h-100v-220zM390 800v60h105l60 -50l-73 -79l-70 19l46 50h-68zM110 585v120l190 60l190 -60v-120l-190 60z" />
    <glyph glyph-name="uni1ED6" unicode="&#x1ed6;" horiz-adv-x="680" 
d="M35 150v400l150 150h310l150 -150v-400l-150 -150h-310zM265 510v-320h150v320h-150zM210 885l-20 65l70 50l154 -35l56 35l20 -65l-70 -50l-154 35zM150 715v110l190 55l190 -55v-110l-190 55z" />
    <glyph glyph-name="uni1ED7" unicode="&#x1ed7;" 
d="M30 130v300l130 130h280l130 -130v-300l-130 -130h-280zM250 170h100v220h-100v-220zM170 745l-20 65l70 50l154 -35l56 35l20 -65l-70 -50l-154 35zM110 575v110l190 55l190 -55v-110l-190 55z" />
    <glyph glyph-name="uni1ED8" unicode="&#x1ed8;" horiz-adv-x="680" 
d="M35 150v400l150 150h310l150 -150v-400l-150 -150h-310zM265 510v-320h150v320h-150zM230 -190v130h220v-130h-220zM150 730v120l190 60l190 -60v-120l-190 60z" />
    <glyph glyph-name="uni1ED9" unicode="&#x1ed9;" 
d="M30 130v300l130 130h280l130 -130v-300l-130 -130h-280zM250 170h100v220h-100v-220zM190 -190v130h220v-130h-220zM110 590v120l190 60l190 -60v-120l-190 60z" />
    <glyph glyph-name="Ohorn" unicode="&#x1a0;" horiz-adv-x="680" 
d="M35 150v400l150 150h370v80h150v-140l-60 -60v-430l-150 -150h-310zM265 510v-320h150v320h-150z" />
    <glyph glyph-name="ohorn" unicode="&#x1a1;" horiz-adv-x="630" 
d="M30 130v300l130 130h340v80h150v-140l-80 -80v-290l-130 -130h-280zM250 170h100v220h-100v-220z" />
    <glyph glyph-name="uni1EDA" unicode="&#x1eda;" horiz-adv-x="680" 
d="M35 150v400l150 150h370v80h150v-140l-60 -60v-430l-150 -150h-310zM265 510v-320h150v320h-150zM205 740v100l320 30v-130h-320z" />
    <glyph glyph-name="uni1EDB" unicode="&#x1edb;" horiz-adv-x="630" 
d="M30 130v300l130 130h340v80h150v-140l-80 -80v-290l-130 -130h-280zM250 170h100v220h-100v-220zM150 600v100l320 30v-130h-320z" />
    <glyph glyph-name="uni1EDC" unicode="&#x1edc;" horiz-adv-x="680" 
d="M35 150v400l150 150h370v80h150v-140l-60 -60v-430l-150 -150h-310zM265 510v-320h150v320h-150zM465 740h-320v130l320 -30v-100z" />
    <glyph glyph-name="uni1EDD" unicode="&#x1edd;" horiz-adv-x="630" 
d="M30 130v300l130 130h340v80h150v-140l-80 -80v-290l-130 -130h-280zM250 170h100v220h-100v-220zM410 600h-320v130l320 -30v-100z" />
    <glyph glyph-name="uni1EDE" unicode="&#x1ede;" horiz-adv-x="680" 
d="M35 150v400l150 150h370v80h150v-140l-60 -60v-430l-150 -150h-310zM265 510v-320h150v320h-150zM235 800v70h200v-70l-70 -70h-110l70 70h-90z" />
    <glyph glyph-name="uni1EDF" unicode="&#x1edf;" horiz-adv-x="630" 
d="M30 130v300l130 130h340v80h150v-140l-80 -80v-290l-130 -130h-280zM250 170h100v220h-100v-220zM180 660v70h200v-70l-70 -70h-110l70 70h-90z" />
    <glyph glyph-name="uni1EE0" unicode="&#x1ee0;" horiz-adv-x="680" 
d="M35 150v400l150 150h370v80h150v-140l-60 -60v-430l-150 -150h-310zM265 510v-320h150v320h-150zM145 710l-20 115l100 60l204 -40l96 45l20 -115l-100 -60l-204 40z" />
    <glyph glyph-name="uni1EE1" unicode="&#x1ee1;" horiz-adv-x="630" 
d="M30 130v300l130 130h340v80h150v-140l-80 -80v-290l-130 -130h-280zM250 170h100v220h-100v-220zM90 570l-20 115l100 60l204 -40l96 45l20 -115l-100 -60l-204 40z" />
    <glyph glyph-name="uni1EE2" unicode="&#x1ee2;" horiz-adv-x="680" 
d="M35 150v400l150 150h370v80h150v-140l-60 -60v-430l-150 -150h-310zM265 510v-320h150v320h-150zM230 -190v130h220v-130h-220z" />
    <glyph glyph-name="uni1EE3" unicode="&#x1ee3;" horiz-adv-x="630" 
d="M30 130v300l130 130h340v80h150v-140l-80 -80v-290l-130 -130h-280zM250 170h100v220h-100v-220zM190 -190v130h220v-130h-220z" />
    <glyph glyph-name="uni1EE4" unicode="&#x1ee4;" horiz-adv-x="650" 
d="M40 150v550h220v-500h130v500h220v-550l-150 -150h-270zM215 -190v130h220v-130h-220z" />
    <glyph glyph-name="uni1EE5" unicode="&#x1ee5;" horiz-adv-x="620" 
d="M580 560v-560h-400l-140 140v420h220v-370h100v370h220zM200 -190v130h220v-130h-220z" />
    <glyph glyph-name="uni1EE6" unicode="&#x1ee6;" horiz-adv-x="650" 
d="M40 150v550h220v-500h130v500h220v-550l-150 -150h-270zM225 800v70h200v-70l-70 -70h-110l70 70h-90z" />
    <glyph glyph-name="uni1EE7" unicode="&#x1ee7;" horiz-adv-x="620" 
d="M580 560v-560h-400l-140 140v420h220v-370h100v370h220zM210 660v70h200v-70l-70 -70h-110l70 70h-90z" />
    <glyph glyph-name="Uhorn" unicode="&#x1af;" horiz-adv-x="650" 
d="M40 150v550h220v-500h130v500h170v80h150v-140l-100 -100v-390l-150 -150h-270z" />
    <glyph glyph-name="uhorn" unicode="&#x1b0;" horiz-adv-x="630" 
d="M40 140v420h220v-370h100v370h150v80h150v-140l-80 -80v-420h-400z" />
    <glyph glyph-name="uni1EE8" unicode="&#x1ee8;" horiz-adv-x="650" 
d="M40 150v550h220v-500h130v500h170v80h150v-140l-100 -100v-390l-150 -150h-270zM195 740v100l320 30v-130h-320z" />
    <glyph glyph-name="uni1EE9" unicode="&#x1ee9;" horiz-adv-x="630" 
d="M40 140v420h220v-370h100v370h150v80h150v-140l-80 -80v-420h-400zM185 600v100l320 30v-130h-320z" />
    <glyph glyph-name="uni1EEA" unicode="&#x1eea;" horiz-adv-x="650" 
d="M40 150v550h220v-500h130v500h170v80h150v-140l-100 -100v-390l-150 -150h-270zM455 740h-320v130l320 -30v-100z" />
    <glyph glyph-name="uni1EEB" unicode="&#x1eeb;" horiz-adv-x="630" 
d="M40 140v420h220v-370h100v370h150v80h150v-140l-80 -80v-420h-400zM445 600h-320v130l320 -30v-100z" />
    <glyph glyph-name="uni1EEC" unicode="&#x1eec;" horiz-adv-x="650" 
d="M40 150v550h220v-500h130v500h170v80h150v-140l-100 -100v-390l-150 -150h-270zM225 800v70h200v-70l-70 -70h-110l70 70h-90z" />
    <glyph glyph-name="uni1EED" unicode="&#x1eed;" horiz-adv-x="630" 
d="M40 140v420h220v-370h100v370h150v80h150v-140l-80 -80v-420h-400zM215 660v70h200v-70l-70 -70h-110l70 70h-90z" />
    <glyph glyph-name="uni1EEE" unicode="&#x1eee;" horiz-adv-x="650" 
d="M40 150v550h220v-500h130v500h170v80h150v-140l-100 -100v-390l-150 -150h-270zM135 710l-20 115l100 60l204 -40l96 45l20 -115l-100 -60l-204 40z" />
    <glyph glyph-name="uni1EEF" unicode="&#x1eef;" horiz-adv-x="630" 
d="M40 140v420h220v-370h100v370h150v80h150v-140l-80 -80v-420h-400zM125 570l-20 115l100 60l204 -40l96 45l20 -115l-100 -60l-204 40z" />
    <glyph glyph-name="uni1EF0" unicode="&#x1ef0;" horiz-adv-x="650" 
d="M40 150v550h220v-500h130v500h170v80h150v-140l-100 -100v-390l-150 -150h-270zM215 -190v130h220v-130h-220z" />
    <glyph glyph-name="uni1EF1" unicode="&#x1ef1;" horiz-adv-x="630" 
d="M40 140v420h220v-370h100v370h150v80h150v-140l-80 -80v-420h-400zM205 -190v130h220v-130h-220z" />
    <glyph glyph-name="uni1EF4" unicode="&#x1ef4;" horiz-adv-x="640" 
d="M210 0v210h-83l-122 490h235l55 -300h50l55 300h235l-122 -490h-83v-210h-220zM210 -190v130h220v-130h-220z" />
    <glyph glyph-name="uni1EF5" unicode="&#x1ef5;" 
d="M40 -105v170h243l7 35h-176l-109 460h223l49 -300h45l53 300h220l-157 -665h-398zM130 -250v110h220v-110h-220z" />
    <glyph glyph-name="uni1EF6" unicode="&#x1ef6;" horiz-adv-x="640" 
d="M210 0v210h-83l-122 490h235l55 -300h50l55 300h235l-122 -490h-83v-210h-220zM220 800v70h200v-70l-70 -70h-110l70 70h-90z" />
    <glyph glyph-name="uni1EF7" unicode="&#x1ef7;" 
d="M40 -140v180h242l7 40h-175l-109 480h225l50 -310h42l50 310h223l-157 -700h-398zM200 660v70h200v-70l-70 -70h-110l70 70h-90z" />
    <glyph glyph-name="uni01C4" unicode="&#x1c4;" horiz-adv-x="1200" 
d="M40 0v700h410l150 -150v-400l-150 -150h-410zM260 190h120v320h-120v-320zM655 0v160l275 360h-270v180h515v-160l-275 -360h280v-180h-525zM1108 910v-120l-190 -60l-190 60v120l190 -60z" />
    <glyph glyph-name="uni01C5" unicode="&#x1c5;" horiz-adv-x="1165" 
d="M40 0v700h410l150 -150v-400l-150 -150h-410zM260 190h120v320h-120v-320zM655 0v160l220 220h-220v180h490v-160l-220 -220h220v-180h-490zM1090 770v-120l-190 -60l-190 60v120l190 -60z" />
    <glyph glyph-name="uni01C6" unicode="&#x1c6;" horiz-adv-x="1150" 
d="M580 700v-700h-400l-150 150v260l150 150h180v140h220zM250 180h110v200h-110v-200zM640 0v160l220 220h-220v180h490v-160l-220 -220h220v-180h-490zM1075 770v-120l-190 -60l-190 60v120l190 -60z" />
    <glyph glyph-name="uni01C7" unicode="&#x1c7;" horiz-adv-x="1165" 
d="M40 0v700h220v-520h90v100h190v-280h-500zM580 150v200h220v-150h110v310h-290v190h510v-550l-150 -150h-250z" />
    <glyph glyph-name="uni01C8" unicode="&#x1c8;" horiz-adv-x="865" 
d="M40 0v700h220v-520h90v100h190v-280h-500zM605 600v130h220v-130h-220zM605 -140v700h220v-700h-220z" />
    <glyph glyph-name="uni01C9" unicode="&#x1c9;" 
d="M40 0v700h220v-700h-220zM340 600v130h220v-130h-220zM340 -140v700h220v-700h-220z" />
    <glyph glyph-name="uni01CA" unicode="&#x1ca;" horiz-adv-x="1280" 
d="M40 0v700h180l220 -345v345h200v-700h-180l-220 345v-345h-200zM695 150v200h220v-150h110v310h-290v190h510v-550l-150 -150h-250z" />
    <glyph glyph-name="uni01CB" unicode="&#x1cb;" horiz-adv-x="980" 
d="M40 0v700h180l220 -345v345h200v-700h-180l-220 345v-345h-200zM720 600v130h220v-130h-220zM720 -140v700h220v-700h-220z" />
    <glyph glyph-name="uni01CC" unicode="&#x1cc;" horiz-adv-x="920" 
d="M40 0v560h400l140 -140v-420h-220v370h-100v-370h-220zM660 600v130h220v-130h-220zM660 -140v700h220v-700h-220z" />
    <glyph glyph-name="uni00A0" unicode="&#xa0;" horiz-adv-x="260" 
 />
    <glyph glyph-name="uni2007" unicode="&#x2007;" horiz-adv-x="650" 
 />
    <glyph glyph-name="uni2008" unicode="&#x2008;" horiz-adv-x="280" 
 />
    <glyph glyph-name="uni2009" unicode="&#x2009;" horiz-adv-x="150" 
 />
    <glyph glyph-name="uni200A" unicode="&#x200a;" horiz-adv-x="100" 
 />
    <glyph glyph-name="period" unicode="." horiz-adv-x="280" 
d="M40 0v200h200v-200h-200z" />
    <glyph glyph-name="comma" unicode="," horiz-adv-x="280" 
d="M50 0v200h200v-200l-115 -140h-125l115 140h-75z" />
    <glyph glyph-name="colon" unicode=":" horiz-adv-x="280" 
d="M40 0v200h200v-200h-200zM40 360v200h200v-200h-200z" />
    <glyph glyph-name="semicolon" unicode=";" horiz-adv-x="280" 
d="M40 0v200h200v-200l-115 -140h-125l115 140h-75zM30 360v200h200v-200h-200z" />
    <glyph glyph-name="ellipsis" unicode="&#x2026;" horiz-adv-x="840" 
d="M40 0v200h200v-200h-200zM320 0v200h200v-200h-200zM600 0v200h200v-200h-200z" />
    <glyph glyph-name="exclam" unicode="!" horiz-adv-x="300" 
d="M65 250l-40 450h250l-40 -450h-170zM50 0v200h200v-200h-200z" />
    <glyph glyph-name="exclamdown" unicode="&#xa1;" horiz-adv-x="300" 
d="M235 310l40 -450h-250l40 450h170zM250 560v-200h-200v200h200z" />
    <glyph glyph-name="question" unicode="?" horiz-adv-x="560" 
d="M310 230h-200v187l235 53v40h-330v190h390l140 -140v-217l-235 -66v-47zM110 0v200h200v-200h-200z" />
    <glyph glyph-name="questiondown" unicode="&#xbf;" horiz-adv-x="560" 
d="M250 330h200v-187l-235 -53v-40h330v-190h-390l-140 140v217l235 66v47zM450 560v-200h-200v200h200z" />
    <glyph glyph-name="quotesingle" unicode="'" horiz-adv-x="220" 
d="M30 460l-20 240h200l-20 -240h-160z" />
    <glyph glyph-name="quotedbl" unicode="&#x22;" horiz-adv-x="460" 
d="M40 460l-20 240h200l-20 -240h-160zM260 460l-20 240h200l-20 -240h-160z" />
    <glyph glyph-name="quoteleft" unicode="&#x2018;" horiz-adv-x="280" 
d="M230 560v-200h-200v200l115 140h125l-115 -140h75z" />
    <glyph glyph-name="quoteright" unicode="&#x2019;" horiz-adv-x="280" 
d="M50 500v200h200v-200l-115 -140h-125l115 140h-75z" />
    <glyph glyph-name="quotesinglbase" unicode="&#x201a;" horiz-adv-x="280" 
d="M50 0v200h200v-200l-115 -140h-125l115 140h-75z" />
    <glyph glyph-name="quotedblleft" unicode="&#x201c;" horiz-adv-x="560" 
d="M510 560v-200h-200v200l115 140h125l-115 -140h75zM230 560v-200h-200v200l115 140h125l-115 -140h75z" />
    <glyph glyph-name="quotedblright" unicode="&#x201d;" horiz-adv-x="560" 
d="M50 500v200h200v-200l-115 -140h-125l115 140h-75zM330 500v200h200v-200l-115 -140h-125l115 140h-75z" />
    <glyph glyph-name="quotedblbase" unicode="&#x201e;" horiz-adv-x="560" 
d="M50 0v200h200v-200l-115 -140h-125l115 140h-75zM330 0v200h200v-200l-115 -140h-125l115 140h-75z" />
    <glyph glyph-name="guilsinglleft" unicode="&#x2039;" horiz-adv-x="450" 
d="M20 275v10l170 275h240l-169 -280l169 -280h-240z" />
    <glyph glyph-name="guilsinglright" unicode="&#x203a;" horiz-adv-x="450" 
d="M430 285v-10l-170 -275h-240l169 280l-169 280h240z" />
    <glyph glyph-name="guillemotleft" unicode="&#xab;" horiz-adv-x="750" 
d="M20 275v10l170 275h240l-169 -280l169 -280h-240zM320 275v10l170 275h240l-169 -280l169 -280h-240z" />
    <glyph glyph-name="guillemotright" unicode="&#xbb;" horiz-adv-x="750" 
d="M730 285v-10l-170 -275h-240l169 280l-169 280h240zM430 285v-10l-170 -275h-240l169 280l-169 280h240z" />
    <glyph glyph-name="parenleft" unicode="(" horiz-adv-x="350" 
d="M40 10v590l150 150h140v-175h-70v-540h70v-175h-140z" />
    <glyph glyph-name="parenright" unicode=")" horiz-adv-x="350" 
d="M310 600v-590l-150 -150h-140v175h70v540h-70v175h140z" />
    <glyph glyph-name="bracketleft" unicode="[" horiz-adv-x="350" 
d="M40 -140v890h290v-165h-80v-560h80v-165h-290z" />
    <glyph glyph-name="bracketright" unicode="]" horiz-adv-x="350" 
d="M310 750v-890h-290v165h80v560h-80v165h290z" />
    <glyph glyph-name="braceleft" unicode="{" horiz-adv-x="410" 
d="M100 10v210h-80v170h80v210l150 150h140v-175h-70v-190l-80 -80l80 -80v-190h70v-175h-140z" />
    <glyph glyph-name="braceright" unicode="}" horiz-adv-x="410" 
d="M310 600v-210h80v-170h-80v-210l-150 -150h-140v175h70v190l80 80l-80 80v190h-70v175h140z" />
    <glyph glyph-name="slash" unicode="/" horiz-adv-x="440" 
d="M10 0l195 700h225l-195 -700h-225z" />
    <glyph glyph-name="backslash" unicode="\" horiz-adv-x="440" 
d="M430 0l-195 700h-225l195 -700h225z" />
    <glyph glyph-name="brokenbar" unicode="&#xa6;" horiz-adv-x="320" 
d="M60 350v450h200v-450h-200zM60 -200v450h200v-450h-200z" />
    <glyph glyph-name="bar" unicode="|" horiz-adv-x="320" 
d="M60 -140v900h200v-900h-200z" />
    <glyph glyph-name="underscore" unicode="_" horiz-adv-x="660" 
d="M70 -200v200h520v-200h-520z" />
    <glyph glyph-name="hyphen" unicode="-" horiz-adv-x="340" 
d="M40 220v200h260v-200h-260z" />
    <glyph glyph-name="hyphen" unicode="&#x2011;" horiz-adv-x="340" 
d="M40 220v200h260v-200h-260z" />
    <glyph glyph-name="hyphen" unicode="&#x2010;" horiz-adv-x="340" 
d="M40 220v200h260v-200h-260z" />
    <glyph glyph-name="hyphen" unicode="&#xad;" horiz-adv-x="340" 
d="M40 220v200h260v-200h-260z" />
    <glyph glyph-name="endash" unicode="&#x2013;" horiz-adv-x="400" 
d="M40 225v190h320v-190h-320z" />
    <glyph glyph-name="emdash" unicode="&#x2014;" 
d="M40 225v190h520v-190h-520z" />
    <glyph glyph-name="uni2015" unicode="&#x2015;" 
d="M-10 225v190h620v-190h-620z" />
    <glyph glyph-name="figuredash" unicode="&#x2012;" horiz-adv-x="650" 
d="M40 225v190h570v-190h-570z" />
    <glyph glyph-name="periodcentered" unicode="&#xb7;" horiz-adv-x="280" 
d="M40 220v200h200v-200h-200z" />
    <glyph glyph-name="asciitilde" unicode="~" 
d="M40 172l-20 195l130 123l284 -110l126 98l20 -195l-130 -123l-284 110z" />
    <glyph glyph-name="bullet" unicode="&#x2022;" horiz-adv-x="500" 
d="M30 200v200l110 110h220l110 -110v-200l-110 -110h-220z" />
    <glyph glyph-name="ordfeminine" unicode="&#xaa;" horiz-adv-x="510" 
d="M30 350v160l250 10v40h-230v140h320l100 -100v-350h-340zM220 430v-50h60v70z" />
    <glyph glyph-name="ordmasculine" unicode="&#xba;" horiz-adv-x="520" 
d="M30 360v230l110 110h240l110 -110v-230l-110 -110h-240zM220 400h80v150h-80v-150z" />
    <glyph glyph-name="degree" unicode="&#xb0;" horiz-adv-x="306" 
d="M10 501v118l86 81h114l86 -81v-118l-86 -81h-114zM114 520h78v80h-78v-80z" />
    <glyph glyph-name="grave" unicode="`" horiz-adv-x="400" 
d="M360 600h-320v130l320 -30v-100z" />
    <glyph glyph-name="asciicircum" unicode="^" horiz-adv-x="550" 
d="M-5 350l155 350h250l155 -350h-233l-47 190l-47 -190h-233z" />
    <glyph glyph-name="asterisk" unicode="*" horiz-adv-x="540" 
d="M350 220h-160v102l-100 -57l-80 139l98 56l-98 56l80 139l100 -57v102h160v-102l100 57l80 -139l-98 -56l98 -56l-80 -139l-100 57v-102z" />
    <glyph glyph-name="dagger" unicode="&#x2020;" 
d="M40 340v200h160v160h200v-160h160v-200h-160v-340h-200v340h-160z" />
    <glyph glyph-name="daggerdbl" unicode="&#x2021;" 
d="M40 340v200h160v160h200v-160h160v-200h-160v-120h160v-200h-160v-160h-200v160h-160v200h160v120h-160z" />
    <glyph glyph-name="numbersign" unicode="#" horiz-adv-x="780" 
d="M140 0v100h-100v170h100v160h-100v170h100v100h190v-100h120v100h190v-100h100v-170h-100v-160h100v-170h-100v-100h-190v100h-120v-100h-190zM330 270h120v160h-120v-160z" />
    <glyph glyph-name="section" unicode="&#xa7;" horiz-adv-x="640" 
d="M55 -100v160h335v70h-240l-110 110v330l130 130h410v-160h-330v-70h240l110 -110v-333l-127 -127h-418zM250 250h140v100h-140v-100z" />
    <glyph glyph-name="paragraph" unicode="&#xb6;" horiz-adv-x="740" 
d="M700 -140h-190v670h-60v-670h-190v290h-110l-130 130v270l150 150h530v-840z" />
    <glyph glyph-name="ampersand" unicode="&#x26;" horiz-adv-x="835" 
d="M587 0l-68 91l-75 -91h-304l-110 110v260l110 110h90l-109 146l74 74h480v-170h-245l105 -141l58 71h232l-180 -218l180 -242h-238zM357 170l54 66l-62 84h-99v-150h107z" />
    <glyph glyph-name="at" unicode="@" horiz-adv-x="800" 
d="M40 0v560l140 140h440l140 -140v-390l-100 -100h-250l-110 100v280l260 20v70h-320v-520h520v-160h-580zM500 220h60v180l-60 -20v-160z" />
    <glyph glyph-name="copyright" unicode="&#xa9;" horiz-adv-x="900" 
d="M35 50v540l150 150h530l150 -150v-540l-150 -150h-530zM185 610v-580h530v580h-530zM235 210v220l130 130h300v-200h-220v-80h220v-200h-300z" />
    <glyph glyph-name="registered" unicode="&#xae;" horiz-adv-x="400" 
d="M200 370q-52 0 -93 22t-64 60.5t-23 87.5t23 87.5t64 60.5t93 22q53 0 93.5 -22t63.5 -60.5t23 -87.5t-23 -87.5t-63.5 -60.5t-93.5 -22zM71 541q0 -57 35.5 -91t93.5 -34q59 0 94 34t35 91q0 56 -35 89.5t-94 33.5q-58 0 -93.5 -33.5t-35.5 -89.5zM129 455v175h77
q37 0 58 -17t21 -48q0 -39 -32 -54l40 -56h-66l-20 47h-22v-47h-56zM185 542h20q24 0 24 22q0 21 -24 21h-20v-43z" />
    <glyph glyph-name="trademark" unicode="&#x2122;" 
d="M99 420v220h-79v60h230v-60h-79v-220h-72zM280 700h63l77 -105l77 105h63v-280h-68v197l-72 -97l-72 97v-197h-68v280z" />
    <glyph glyph-name="zero" unicode="0" horiz-adv-x="650" 
d="M35 150v400l150 150h280l150 -150v-400l-150 -150h-280zM255 500v-300h140v300h-140z" />
    <glyph glyph-name="one" unicode="1" horiz-adv-x="430" 
d="M45 -4v165l60 5v328l-60 -9v175l280 40v-534l60 -5v-165l-170 8z" />
    <glyph glyph-name="two" unicode="2" horiz-adv-x="610" 
d="M575 190v-190h-540v390l320 50v70h-320v190h390l150 -150v-260l-320 -50v-50h320z" />
    <glyph glyph-name="three" unicode="3" horiz-adv-x="630" 
d="M470 0h-440v180h352v90h-292v170h272v80h-322v180h410l140 -140v-141l-67 -53l87 -70v-156z" />
    <glyph glyph-name="four" unicode="4" horiz-adv-x="640" 
d="M40 180l20 520h220l-20 -320h120v320h220v-700h-220v180h-340z" />
    <glyph glyph-name="five" unicode="5" horiz-adv-x="610" 
d="M575 510h-320v-55l320 -35v-270l-150 -150h-390v190h320v76l-320 34v400h540v-190z" />
    <glyph glyph-name="six" unicode="6" horiz-adv-x="650" 
d="M175 0l-140 140v420l140 140h405v-190h-325v-60h285l75 -75v-235l-140 -140h-300zM255 180h140v130h-140v-130z" />
    <glyph glyph-name="seven" unicode="7" horiz-adv-x="580" 
d="M35 0l300 460v60h-101v-80h-209v260h530v-270l-256 -430h-264z" />
    <glyph glyph-name="eight" unicode="8" horiz-adv-x="650" 
d="M170 0l-150 150v136l97 80l-77 63v121l150 150h270l150 -150v-121l-77 -63l97 -80v-136l-150 -150h-310zM280 425h90v105h-90v-105zM270 170h125v115h-125v-115z" />
    <glyph glyph-name="nine" unicode="9" horiz-adv-x="650" 
d="M475 700l140 -140v-420l-140 -140h-405v190h325v60h-285l-75 75v235l140 140h300zM395 520h-140v-130h140v130z" />
    <glyph glyph-name="zero.tnum" horiz-adv-x="650" 
d="M35 150v400l150 150h280l150 -150v-400l-150 -150h-280zM255 500v-300h140v300h-140z" />
    <glyph glyph-name="one.tnum" horiz-adv-x="650" 
d="M45 -4v165l180 5v328l-160 -9v175l380 40v-534l160 -5v-165l-270 8z" />
    <glyph glyph-name="two.tnum" horiz-adv-x="650" 
d="M615 190v-190h-580v390l360 50v70h-360v190h430l150 -150v-260l-360 -50v-50h360z" />
    <glyph glyph-name="three.tnum" horiz-adv-x="650" 
d="M480 0h-450v180h375v90h-315v170h295v80h-345v180h420l150 -150v-121l-77 -63l97 -80v-136z" />
    <glyph glyph-name="four.tnum" horiz-adv-x="650" 
d="M30 180l20 520h220l-20 -320h140v320h220v-700h-220v180h-360z" />
    <glyph glyph-name="five.tnum" horiz-adv-x="650" 
d="M610 510h-350v-55l350 -35v-270l-150 -150h-420v190h350v76l-350 34v400h570v-190z" />
    <glyph glyph-name="six.tnum" horiz-adv-x="650" 
d="M175 0l-140 140v420l140 140h405v-190h-325v-60h285l75 -75v-235l-140 -140h-300zM255 180h140v130h-140v-130z" />
    <glyph glyph-name="seven.tnum" horiz-adv-x="650" 
d="M40 0l360 460v60h-161v-120h-209v300h590v-270l-306 -430h-274z" />
    <glyph glyph-name="eight.tnum" horiz-adv-x="650" 
d="M175 0l-150 150v136l97 80l-77 63v121l150 150h260l150 -150v-121l-77 -63l97 -80v-136l-150 -150h-300zM275 425h100v105h-100v-105zM265 170h135v115h-135v-115z" />
    <glyph glyph-name="nine.tnum" horiz-adv-x="650" 
d="M475 700l140 -140v-420l-140 -140h-405v190h325v60h-285l-75 75v235l140 140h300zM395 520h-140v-130h140v130z" />
    <glyph glyph-name="uni2070" unicode="&#x2070;" horiz-adv-x="480" 
d="M30 386v228l107 86h206l107 -86v-228l-107 -86h-206zM208 586v-172h64v172h-64z" />
    <glyph glyph-name="onesuperior" unicode="&#xb9;" horiz-adv-x="350" 
d="M43 298v94l42 3v187l-42 -5v100l222 23v-305l40 -3v-94l-131 4z" />
    <glyph glyph-name="twosuperior" unicode="&#xb2;" horiz-adv-x="470" 
d="M430 414v-114h-390v223l210 28v35h-210v114h283l107 -86v-148l-210 -29v-23h210z" />
    <glyph glyph-name="threesuperior" unicode="&#xb3;" horiz-adv-x="460" 
d="M364 300h-334v114h210v40h-167v97h153v35h-189v114h313l76 -76v-79l-55 -36l69 -46v-87z" />
    <glyph glyph-name="uni2074" unicode="&#x2074;" horiz-adv-x="470" 
d="M27 403l14 297h171l-14 -183h62v183h170v-400h-170v103h-233z" />
    <glyph glyph-name="uni2075" unicode="&#x2075;" horiz-adv-x="470" 
d="M430 586h-210v-26l210 -20v-154l-107 -86h-283v114h210v38l-210 19v229h390v-114z" />
    <glyph glyph-name="uni2076" unicode="&#x2076;" horiz-adv-x="484" 
d="M135 300l-100 80v240l100 80h289v-114h-209v-29h181l53 -43v-134l-100 -80h-214zM215 414h54v63h-54v-63z" />
    <glyph glyph-name="uni2077" unicode="&#x2077;" horiz-adv-x="430" 
d="M33 300l191 263v34h-52v-57h-146v160h378v-154l-153 -246h-218z" />
    <glyph glyph-name="uni2078" unicode="&#x2078;" horiz-adv-x="468" 
d="M96 300l-76 76v87l59 46l-45 36v79l76 76h248l76 -76v-79l-45 -36l59 -46v-87l-76 -76h-276zM208 543h52v57h-52v-57zM190 400h88v63h-88v-63z" />
    <glyph glyph-name="uni2079" unicode="&#x2079;" horiz-adv-x="484" 
d="M349 700l100 -80v-240l-100 -80h-289v114h209v29h-181l-53 43v134l100 80h214zM269 586h-54v-63h54v63z" />
    <glyph glyph-name="uni2080" unicode="&#x2080;" horiz-adv-x="480" 
d="M30 -14v228l107 86h206l107 -86v-228l-107 -86h-206zM208 186v-172h64v172h-64z" />
    <glyph glyph-name="uni2081" unicode="&#x2081;" horiz-adv-x="350" 
d="M43 -100v94l42 3v187l-42 -5v100l222 23v-305l40 -3v-94l-131 4z" />
    <glyph glyph-name="uni2082" unicode="&#x2082;" horiz-adv-x="470" 
d="M430 14v-114h-390v223l210 28v35h-210v114h283l107 -86v-148l-210 -29v-23h210z" />
    <glyph glyph-name="uni2083" unicode="&#x2083;" horiz-adv-x="460" 
d="M364 -100h-334v114h210v40h-167v97h153v35h-189v114h313l76 -76v-79l-55 -36l69 -46v-87z" />
    <glyph glyph-name="uni2084" unicode="&#x2084;" horiz-adv-x="470" 
d="M27 3l14 297h171l-14 -183h62v183h170v-400h-170v103h-233z" />
    <glyph glyph-name="uni2085" unicode="&#x2085;" horiz-adv-x="470" 
d="M430 186h-210v-26l210 -20v-154l-107 -86h-283v114h210v38l-210 19v229h390v-114z" />
    <glyph glyph-name="uni2086" unicode="&#x2086;" horiz-adv-x="484" 
d="M135 -100l-100 80v240l100 80h289v-114h-209v-29h181l53 -43v-134l-100 -80h-214zM215 14h54v63h-54v-63z" />
    <glyph glyph-name="uni2087" unicode="&#x2087;" horiz-adv-x="430" 
d="M33 -100l191 263v34h-52v-57h-146v160h378v-154l-153 -246h-218z" />
    <glyph glyph-name="uni2088" unicode="&#x2088;" horiz-adv-x="468" 
d="M96 -100l-76 76v87l59 46l-45 36v79l76 76h248l76 -76v-79l-45 -36l59 -46v-87l-76 -76h-276zM208 143h52v57h-52v-57zM190 0h88v63h-88v-63z" />
    <glyph glyph-name="uni2089" unicode="&#x2089;" horiz-adv-x="484" 
d="M349 300l100 -80v-240l-100 -80h-289v114h209v29h-181l-53 43v134l100 80h214zM269 186h-54v-63h54v63z" />
    <glyph glyph-name="zero.zero" horiz-adv-x="650" 
d="M35 150v400l150 150h280l150 -150v-400l-150 -150h-280zM250 510v-186l150 146v40h-150zM250 190h150v186l-150 -146v-40z" />
    <glyph glyph-name="zero.tnum.zero" horiz-adv-x="650" 
d="M35 150v400l150 150h280l150 -150v-400l-150 -150h-280zM250 510v-186l150 146v40h-150zM250 190h150v186l-150 -146v-40z" />
    <glyph glyph-name="uni2070.zero" horiz-adv-x="480" 
d="M30 386v228l107 86h206l107 -86v-228l-107 -86h-206zM204 590v-92l72 47v45h-72zM204 410h72v92l-72 -47v-45z" />
    <glyph glyph-name="uni2080.zero" horiz-adv-x="480" 
d="M30 -14v228l107 86h206l107 -86v-228l-107 -86h-206zM204 190v-92l72 47v45h-72zM204 10h72v92l-72 -47v-45z" />
    <glyph glyph-name="fraction" unicode="&#x2044;" horiz-adv-x="240" 
d="M-120 0l305 700h175l-305 -700h-175z" />
    <glyph glyph-name="onequarter" unicode="&#xbc;" horiz-adv-x="1060" 
d="M43 298v94l42 3v187l-42 -5v100l222 23v-305l40 -3v-94l-131 4zM230 0l305 700h175l-305 -700h-175zM617 103l14 297h171l-14 -183h62v183h170v-400h-170v103h-233z" />
    <glyph glyph-name="onehalf" unicode="&#xbd;" horiz-adv-x="1060" 
d="M43 298v94l42 3v187l-42 -5v100l222 23v-305l40 -3v-94l-131 4zM230 0l305 700h175l-305 -700h-175zM1020 114v-114h-390v223l210 28v35h-210v114h283l107 -86v-148l-210 -29v-23h210z" />
    <glyph glyph-name="threequarters" unicode="&#xbe;" horiz-adv-x="1170" 
d="M364 300h-334v114h210v40h-167v97h153v35h-189v114h313l76 -76v-79l-55 -36l69 -46v-87zM340 0l305 700h175l-305 -700h-175zM727 103l14 297h171l-14 -183h62v183h170v-400h-170v103h-233z" />
    <glyph glyph-name="percent" unicode="%" 
d="M10 0l375 700h205l-375 -700h-205zM40 500v200h200v-200h-200zM360 0v200h200v-200h-200z" />
    <glyph glyph-name="perthousand" unicode="&#x2030;" horiz-adv-x="820" 
d="M10 0l375 700h205l-375 -700h-205zM40 500v200h200v-200h-200zM360 0v200h200v-200h-200zM610 0v200h200v-200h-200z" />
    <glyph glyph-name="minute" unicode="&#x2032;" horiz-adv-x="240" 
d="M30 440v260h190l-40 -260h-150z" />
    <glyph glyph-name="second" unicode="&#x2033;" horiz-adv-x="460" 
d="M30 440v260h190l-40 -260h-150zM250 440v260h190l-40 -260h-150z" />
    <glyph glyph-name="plus" unicode="+" 
d="M40 225v190h160v165h200v-165h160v-190h-160v-165h-200v165h-160z" />
    <glyph glyph-name="minus" unicode="&#x2212;" 
d="M40 225v190h520v-190h-520z" />
    <glyph glyph-name="multiply" unicode="&#xd7;" 
d="M35 189l131 131l-131 131l134 134l131 -131l131 131l134 -134l-131 -131l131 -131l-134 -134l-131 131l-131 -131z" />
    <glyph glyph-name="divide" unicode="&#xf7;" 
d="M200 440v170h200v-170h-200zM40 225v190h520v-190h-520zM200 30v170h200v-170h-200z" />
    <glyph glyph-name="equal" unicode="=" 
d="M40 350v170h520v-170h-520zM40 120v170h520v-170h-520z" />
    <glyph glyph-name="less" unicode="&#x3c;" 
d="M30 185v190l530 185v-193l-296 -87l296 -87v-193z" />
    <glyph glyph-name="greater" unicode="&#x3e;" 
d="M570 375v-190l-530 -185v193l296 87l-296 87v193z" />
    <glyph glyph-name="lessequal" unicode="&#x2264;" 
d="M30 330v190l530 145v-193l-296 -47l296 -47v-193zM40 0v160h520v-160h-520z" />
    <glyph glyph-name="greaterequal" unicode="&#x2265;" 
d="M570 330v190l-530 145v-193l296 -47l-296 -47v-193zM560 0v160h-520v-160h520z" />
    <glyph glyph-name="plusminus" unicode="&#xb1;" 
d="M40 335v170h160v145h200v-145h160v-170h-160v-145h-200v145h-160zM40 0v170h520v-170h-520z" />
    <glyph glyph-name="notequal" unicode="&#x2260;" 
d="M110 0l40 120h-110v170h167l21 60h-188v170h245l40 120h165l-40 -120h110v-170h-167l-21 -60h188v-170h-245l-40 -120h-165z" />
    <glyph glyph-name="approxequal" unicode="&#x2248;" 
d="M40 302l-20 155l130 123l284 -110l126 98l20 -155l-150 -123l-264 110zM40 72l-20 155l150 123l264 -110l126 98l20 -155l-130 -123l-284 110z" />
    <glyph glyph-name="uni2215" unicode="&#x2215;" 
d="M30 0l305 700h235l-305 -700h-235z" />
    <glyph glyph-name="uni2219" unicode="&#x2219;" horiz-adv-x="400" 
d="M100 225v190h200v-190h-200z" />
    <glyph glyph-name="uni2052" unicode="&#x2052;" 
d="M10 0l375 700h205l-375 -700h-205zM40 500v200h200v-200h-200zM360 0v200h200v-200h-200z" />
    <glyph glyph-name="logicalnot" unicode="&#xac;" 
d="M40 220v200h520v-370h-200v170h-320z" />
    <glyph glyph-name="uni00B5" unicode="&#xb5;" horiz-adv-x="620" 
d="M580 560v-560h-320v-160h-220v720h220v-370h100v370h220z" />
    <glyph glyph-name="radical" unicode="&#x221a;" horiz-adv-x="740" 
d="M209 0l-44 370h-125v190h330l19 -380h36l65 520h245l-112 -700h-414z" />
    <glyph glyph-name="infinity" unicode="&#x221e;" horiz-adv-x="920" 
d="M890 180l-150 -150h-194l-97 97l-77 -77h-192l-150 150v300l150 150h192l77 -77l97 97h194l150 -150v-340zM690 230v255h-130v-255h130zM360 240v220h-130v-220h130z" />
    <glyph glyph-name="integral" unicode="&#x222b;" horiz-adv-x="430" 
d="M0 -140v190h130l-90 520l130 130h220v-190h-130l90 -520l-130 -130h-220z" />
    <glyph glyph-name="partialdiff" unicode="&#x2202;" horiz-adv-x="650" 
d="M475 0h-300l-140 140v235l75 75h285v60h-325v190h405l140 -140v-420zM395 180v130h-140v-130h140z" />
    <glyph glyph-name="lozenge" unicode="&#x25ca;" horiz-adv-x="640" 
d="M199 -140l-194 460l194 460h242l194 -460l-194 -460h-242zM309 40h26l87 280l-91 280h-26l-87 -280z" />
    <glyph glyph-name="product" unicode="&#x220f;" horiz-adv-x="670" 
d="M40 -140v840h590v-840h-220v650h-150v-650h-220z" />
    <glyph glyph-name="summation" unicode="&#x2211;" horiz-adv-x="585" 
d="M20 -140v160l215 265l-210 255v160h535v-180h-265l175 -235l-195 -245h290v-180h-545z" />
    <glyph glyph-name="uni2116" unicode="&#x2116;" horiz-adv-x="1200" 
d="M40 0v700h180l220 -345v345h200v-700h-180l-220 345v-345h-200zM710 210v230l110 110h240l110 -110v-230l-110 -110h-240zM900 250h80v150h-80v-150z" />
    <glyph glyph-name="currency" unicode="&#xa4;" horiz-adv-x="670" 
d="M105 270v160l46 46l-135 224h245l53 -160h42l53 160h245l-135 -224l46 -46v-160l-46 -46l135 -224h-245l-53 160h-42l-53 -160h-245l135 224zM305 300h60v100h-60v-100z" />
    <glyph glyph-name="dollar" unicode="$" horiz-adv-x="660" 
d="M45 30v170h360v70l-370 33v227l140 140h60v90h210v-90h170v-170h-360v-60l370 -33v-237l-140 -140h-60v-90h-210v90h-170z" />
    <glyph glyph-name="cent" unicode="&#xa2;" horiz-adv-x="520" 
d="M30 200v300l130 130h60v110h170v-110h110v-200h-250v-160h250v-200h-110v-110h-170v110h-60z" />
    <glyph glyph-name="sterling" unicode="&#xa3;" horiz-adv-x="640" 
d="M500 250h-130v-70h250v-180h-590v180h120v70h-80v170h80v200l80 80h360v-230h-164v60h-56v-110h130v-170z" />
    <glyph glyph-name="Euro" unicode="&#x20ac;" horiz-adv-x="610" 
d="M85 150v105h-75v80h75v40h-75v80h75v95l150 150h340v-180h-250v-65h225l-30 -80h-195v-40h185l-30 -80h-155v-75h260v-180h-350z" />
    <glyph glyph-name="yen" unicode="&#xa5;" horiz-adv-x="640" 
d="M210 0v90h-180v120h180v50h-180v120h74l-99 320h235l65 -320h30l65 320h235l-99 -320h74v-120h-180v-50h180v-120h-180v-90h-220z" />
    <glyph glyph-name="franc" unicode="&#x20a3;" horiz-adv-x="550" 
d="M40 0v94h-30v76h30v530h480v-200h-260v-100h240v-190h-240v-40h130v-76h-130v-94h-220z" />
    <glyph glyph-name="uni20BD" unicode="&#x20bd;" horiz-adv-x="640" 
d="M620 550v-220l-150 -150h-190v-40h190v-76h-190v-64h-220v64h-50v76h50v40h-50v160h50v360h410zM280 340h120v190h-120v-190z" />
    <glyph glyph-name="uni20BF" unicode="&#x20bf;" horiz-adv-x="650" 
d="M40 30v640h144v90h86v-90h74v90h86v-90h70l110 -110v-141l-67 -53l87 -70v-156l-110 -110h-90v-90h-86v90h-74v-90h-86v90h-144zM260 425h125v75h-125v-75zM260 200h140v85h-140v-85z" />
    <glyph glyph-name="uni20AE" unicode="&#x20ae;" horiz-adv-x="560" 
d="M60 80v130l110 18v50l-110 -18v130l110 18v112h-150v180h520v-180h-150v-77l110 17v-130l-110 -17v-50l110 17v-130l-110 -17v-133h-220v98z" />
    <glyph glyph-name="uni20B4" unicode="&#x20b4;" horiz-adv-x="640" 
d="M30 324h174l51 52h-225v74h297l58 60h-340v190h410l150 -150l-97 -100h102v-74h-174l-51 -52h225v-74h-297l-58 -60h340v-190h-410l-150 150l97 100h-102v74z" />
    <glyph glyph-name="uni20B8" unicode="&#x20b8;" horiz-adv-x="560" 
d="M20 550v150h520v-150h-520zM170 0v360h-150v150h520v-150h-150v-360h-220z" />
    <glyph glyph-name="uni058F" unicode="&#x58f;" horiz-adv-x="620" 
d="M585 0h-220v90h-260v120h260v50h-260v120h260v120h-110v-80h-220v130l150 150h250l150 -150v-550z" />
    <glyph glyph-name="acute" unicode="&#xb4;" horiz-adv-x="400" 
d="M40 600v100l320 30v-130h-320z" />
    <glyph glyph-name="circumflex" unicode="&#x2c6;" horiz-adv-x="460" 
d="M40 590v120l190 60l190 -60v-120l-190 60z" />
    <glyph glyph-name="caron" unicode="&#x2c7;" horiz-adv-x="460" 
d="M420 770v-120l-190 -60l-190 60v120l190 -60z" />
    <glyph glyph-name="breve" unicode="&#x2d8;" horiz-adv-x="520" 
d="M310 740h170l-100 -150h-240l-100 150h170v-60h100v60z" />
    <glyph glyph-name="tilde" unicode="&#x2dc;" horiz-adv-x="500" 
d="M60 570l-20 115l100 60l204 -40l96 45l20 -115l-100 -60l-204 40z" />
    <glyph glyph-name="dieresis" unicode="&#xa8;" horiz-adv-x="540" 
d="M40 600v130h200v-130h-200zM300 600v130h200v-130h-200z" />
    <glyph glyph-name="dotaccent" unicode="&#x2d9;" horiz-adv-x="300" 
d="M40 600v130h220v-130h-220z" />
    <glyph glyph-name="ring" unicode="&#x2da;" horiz-adv-x="346" 
d="M40 641v98l76 61h114l76 -61v-98l-76 -61h-114zM134 660h78v60h-78v-60z" />
    <glyph glyph-name="macron" unicode="&#xaf;" horiz-adv-x="420" 
d="M40 600v130h340v-130h-340z" />
    <glyph glyph-name="hungarumlaut" unicode="&#x2dd;" horiz-adv-x="465" 
d="M40 590l40 140h160l-80 -140h-120zM205 590l60 140h160l-100 -140h-120z" />
    <glyph glyph-name="cedilla" unicode="&#xb8;" horiz-adv-x="320" 
d="M40 -200l50 150h190l-90 -150h-150z" />
    <glyph glyph-name="ogonek" unicode="&#x2db;" horiz-adv-x="310" 
d="M270 -40l-40 -160h-190l80 160h150z" />
    <glyph glyph-name="uni02B9" unicode="&#x2b9;" horiz-adv-x="240" 
d="M30 440v260h190l-40 -260h-150z" />
    <glyph glyph-name="uni02BA" unicode="&#x2ba;" horiz-adv-x="460" 
d="M30 440v260h190l-40 -260h-150zM250 440v260h190l-40 -260h-150z" />
    <glyph glyph-name="uni02BB" unicode="&#x2bb;" horiz-adv-x="280" 
d="M230 560v-200h-200v200l115 140h125l-115 -140h75z" />
    <glyph glyph-name="uni02BC" unicode="&#x2bc;" horiz-adv-x="280" 
d="M50 500v200h200v-200l-115 -140h-125l115 140h-75z" />
    <glyph glyph-name="gravecomb" unicode="&#x300;" horiz-adv-x="0" 
d="M130 600h-320v130l320 -30v-100z" />
    <glyph glyph-name="acutecomb" unicode="&#x301;" horiz-adv-x="0" 
d="M-130 600v100l320 30v-130h-320z" />
    <glyph glyph-name="uni0302" unicode="&#x302;" horiz-adv-x="0" 
d="M-190 590v120l190 60l190 -60v-120l-190 60z" />
    <glyph glyph-name="uni030C" unicode="&#x30c;" horiz-adv-x="0" 
d="M190 770v-120l-190 -60l-190 60v120l190 -60z" />
    <glyph glyph-name="uni0311" unicode="&#x311;" horiz-adv-x="0" 
d="M-50 585h-170l100 150h240l100 -150h-170v60h-100v-60z" />
    <glyph glyph-name="uni0306" unicode="&#x306;" horiz-adv-x="0" 
d="M50 740h170l-100 -150h-240l-100 150h170v-60h100v60z" />
    <glyph glyph-name="tildecomb" unicode="&#x303;" horiz-adv-x="0" 
d="M-190 570l-20 115l100 60l204 -40l96 45l20 -115l-100 -60l-204 40z" />
    <glyph glyph-name="uni0308" unicode="&#x308;" horiz-adv-x="0" 
d="M-230 600v130h200v-130h-200zM30 600v130h200v-130h-200z" />
    <glyph glyph-name="uni0307" unicode="&#x307;" horiz-adv-x="0" 
d="M-110 600v130h220v-130h-220z" />
    <glyph glyph-name="uni030A" unicode="&#x30a;" horiz-adv-x="0" 
d="M-133 641v98l76 61h114l76 -61v-98l-76 -61h-114zM-39 660h78v60h-78v-60z" />
    <glyph glyph-name="uni030B" unicode="&#x30b;" horiz-adv-x="0" 
d="M-155 590l40 140h160l-80 -140h-120zM10 590l60 140h160l-100 -140h-120z" />
    <glyph glyph-name="uni030F" unicode="&#x30f;" horiz-adv-x="0" 
d="M115 730l40 -140h-120l-80 140h160zM-70 730l60 -140h-120l-100 140h160z" />
    <glyph glyph-name="uni0304" unicode="&#x304;" horiz-adv-x="0" 
d="M-170 600v130h340v-130h-340z" />
    <glyph glyph-name="uni0312" unicode="&#x312;" horiz-adv-x="0" 
d="M125 750l-50 -150h-190l90 150h150z" />
    <glyph glyph-name="hookabovecomb" unicode="&#x309;" horiz-adv-x="0" 
d="M-100 660v70h200v-70l-70 -70h-110l70 70h-90z" />
    <glyph glyph-name="uni031B" unicode="&#x31b;" horiz-adv-x="0" 
d="M-90 700v80h150v-140l-100 -100h-155v160h105z" />
    <glyph glyph-name="uni0315" unicode="&#x315;" horiz-adv-x="66" 
d="M0 460v240h66v-240h-66z" />
    <glyph glyph-name="uni0326" unicode="&#x326;" horiz-adv-x="0" 
d="M-125 -200l50 150h190l-90 -150h-150z" />
    <glyph glyph-name="uni0327" unicode="&#x327;" horiz-adv-x="0" 
d="M-125 -200l50 150h190l-90 -150h-150z" />
    <glyph glyph-name="uni0328" unicode="&#x328;" horiz-adv-x="0" 
d="M95 -40l-40 -160h-190l80 160h150z" />
    <glyph glyph-name="dotbelowcomb" unicode="&#x323;" horiz-adv-x="0" 
d="M-110 -190v130h220v-130h-220z" />
    <glyph glyph-name="uni0329" unicode="&#x329;" horiz-adv-x="0" 
d="M-80 -220v190h160v-190h-160z" />
    <glyph glyph-name="uni0331" unicode="&#x331;" horiz-adv-x="0" 
d="M-170 -170v130h340v-130h-340z" />
    <glyph glyph-name="gravecomb.i" horiz-adv-x="0" 
d="M110 590l-250 10v130l250 -40v-100z" />
    <glyph glyph-name="acutecomb.i" horiz-adv-x="0" 
d="M-110 590v100l250 40v-130z" />
    <glyph glyph-name="uni0308.i" horiz-adv-x="0" 
d="M-160 600v130h140v-130h-140zM20 600v130h140v-130h-140z" />
    <glyph glyph-name="periodcentered.loclCAT" horiz-adv-x="120" 
d="M0 260v200h120v-200h-120z" />
    <glyph glyph-name="periodcentered.loclCAT.cap" horiz-adv-x="0" 
d="M-220 350v200h190v-200h-190z" />
    <glyph glyph-name="uni0302_acutecomb" horiz-adv-x="0" 
d="M50 755v65l170 40v-90zM-190 585v120l190 55l190 -55v-120l-190 55z" />
    <glyph glyph-name="uni0302_gravecomb" horiz-adv-x="0" 
d="M210 750l-170 20v90l170 -40v-70zM-190 585v120l190 60l190 -60v-120l-190 60z" />
    <glyph glyph-name="uni0302_hookabovecomb" horiz-adv-x="0" 
d="M90 800v60h105l60 -50l-73 -79l-70 19l46 50h-68zM-190 585v120l190 60l190 -60v-120l-190 60z" />
    <glyph glyph-name="uni0302_tildecomb" horiz-adv-x="0" 
d="M-130 745l-20 65l70 50l154 -35l56 35l20 -65l-70 -50l-154 35zM-190 575v110l190 55l190 -55v-110l-190 55z" />
    <glyph glyph-name="uni0306_acutecomb" horiz-adv-x="0" 
d="M-20 750v70l170 40v-90zM50 740h170l-100 -150h-240l-100 150h170v-60h100v60z" />
    <glyph glyph-name="uni0306_gravecomb" horiz-adv-x="0" 
d="M20 750l-170 20v90l170 -40v-70zM50 740h170l-100 -150h-240l-100 150h170v-60h100v60z" />
    <glyph glyph-name="uni0306_hookabovecomb" horiz-adv-x="0" 
d="M-70 800v60h105l60 -50l-73 -79l-70 19l46 50h-68zM50 740h170l-100 -150h-240l-100 150h170v-60h100v60z" />
    <glyph glyph-name="uni0306_tildecomb" horiz-adv-x="0" 
d="M-130 745l-20 65l70 50l154 -35l56 35l20 -65l-70 -50l-154 35zM50 735h170l-100 -145h-240l-100 145h170v-55h100v55z" />
    <glyph glyph-name="uni030C.stack" horiz-adv-x="0" 
d="M190 730v-90l-190 -60l-190 60v90l190 -60z" />
    <glyph glyph-name="uni0308.stack" horiz-adv-x="0" 
d="M-230 600v90h200v-90h-200zM30 600v90h200v-90h-200z" />
    <glyph glyph-name="uni0304.stack" horiz-adv-x="0" 
d="M-170 600v80h340v-80h-340z" />
    <glyph glyph-name="uni030A_acutecomb" horiz-adv-x="0" 
d="M159 732l-35 26l22 82h107zM-133 641v98l76 61h114l76 -61v-98l-76 -61h-114zM-39 660h78v60h-78v-60z" />
    <glyph glyph-name="arrowleft" unicode="&#x2190;" horiz-adv-x="840" 
d="M20 275v10l200 275h230l-138 -185h508v-190h-508l138 -185h-230z" />
    <glyph glyph-name="arrowup" unicode="&#x2191;" 
d="M295 750h10l275 -200v-230l-185 138v-508h-190v508l-185 -138v230z" />
    <glyph glyph-name="arrowright" unicode="&#x2192;" horiz-adv-x="840" 
d="M820 285v-10l-200 -275h-230l138 185h-508v190h508l-138 185h230z" />
    <glyph glyph-name="arrowdown" unicode="&#x2193;" 
d="M295 -50l-275 200v230l185 -138v508h190v-508l185 138v-230l-275 -200h-10z" />
    <glyph glyph-name="arrowboth" unicode="&#x2194;" horiz-adv-x="1100" 
d="M20 285l200 275h230l-138 -185h476l-138 185h230l200 -275v-10l-200 -275h-230l138 185h-476l138 -185h-230l-200 275v10z" />
    <glyph glyph-name="arrowupdn" unicode="&#x2195;" 
d="M20 20v230l185 -138v476l-185 -138v230l275 200h10l275 -200v-230l-185 138v-476l185 138v-230l-275 -200h-10z" />
    <glyph glyph-name="uni2196" unicode="&#x2196;" horiz-adv-x="751" 
d="M84 569l7 7l336 53l162 -162l-229 -33l360 -360l-134 -134l-360 360l-33 -229l-162 162z" />
    <glyph glyph-name="uni2197" unicode="&#x2197;" horiz-adv-x="751" 
d="M660 576l7 -7l53 -336l-162 -162l-33 229l-360 -360l-134 134l360 360l-229 33l162 162z" />
    <glyph glyph-name="uni2198" unicode="&#x2198;" horiz-adv-x="751" 
d="M660 3l-336 -53l-162 162l229 33l-360 360l134 134l360 -360l33 229l162 -162l-53 -336z" />
    <glyph glyph-name="uni2199" unicode="&#x2199;" horiz-adv-x="751" 
d="M84 10l-53 336l162 162l33 -229l360 360l134 -134l-360 -360l229 -33l-162 -162l-336 53z" />
    <glyph glyph-name="fi" unicode="&#xfb01;" horiz-adv-x="750" 
d="M40 0v570l130 130h260v-190h-170v-80h170v-180h-170v-250h-220zM490 600v130h220v-130h-220zM490 0v560h220v-560h-220z" />
    <glyph glyph-name="fl" unicode="&#xfb02;" horiz-adv-x="750" 
d="M40 0v570l130 130h260v-190h-170v-80h170v-180h-170v-250h-220zM490 0v700h220v-700h-220z" />
    <glyph glyph-name="f_f" unicode="&#xfb00;" horiz-adv-x="900" 
d="M40 0v570l130 130h260v-190h-170v-80h170v-180h-170v-250h-220zM490 0v570l130 130h260v-190h-170v-80h170v-180h-170v-250h-220z" />
    <glyph glyph-name="f_f_i" unicode="&#xfb03;" horiz-adv-x="1200" 
d="M40 0v570l130 130h260v-190h-170v-80h170v-180h-170v-250h-220zM490 0v570l130 130h260v-190h-170v-80h170v-180h-170v-250h-220zM940 600v130h220v-130h-220zM940 0v560h220v-560h-220z" />
    <glyph glyph-name="f_f_l" unicode="&#xfb04;" horiz-adv-x="1200" 
d="M40 0v570l130 130h260v-190h-170v-80h170v-180h-170v-250h-220zM490 0v570l130 130h260v-190h-170v-80h170v-180h-170v-250h-220zM940 0v700h220v-700h-220z" />
    <glyph glyph-name="Alpha" unicode="&#x391;" horiz-adv-x="660" 
d="M5 0l135 700h380l135 -700h-235l-18 130h-144l-18 -130h-235zM280 280h100l-35 250h-30z" />
    <glyph glyph-name="Beta" unicode="&#x392;" horiz-adv-x="660" 
d="M620 560v-141l-67 -53l87 -70v-156l-140 -140h-460v700h440zM260 425h135v105h-135v-105zM260 170h150v115h-150v-115z" />
    <glyph glyph-name="Gamma" unicode="&#x393;" horiz-adv-x="510" 
d="M40 0v700h460v-200h-240v-500h-220z" />
    <glyph glyph-name="uni0394" unicode="&#x394;" horiz-adv-x="700" 
d="M540 700l155 -700h-690l155 700h380zM335 520l-56 -340h142l-56 340h-30z" />
    <glyph glyph-name="Epsilon" unicode="&#x395;" horiz-adv-x="580" 
d="M40 0v700h500v-180h-280v-80h230v-170h-230v-90h290v-180h-510z" />
    <glyph glyph-name="Zeta" unicode="&#x396;" horiz-adv-x="565" 
d="M20 0v160l275 360h-270v180h515v-160l-275 -360h280v-180h-525z" />
    <glyph glyph-name="Eta" unicode="&#x397;" horiz-adv-x="650" 
d="M40 0v700h220v-240h130v240h220v-700h-220v260h-130v-260h-220z" />
    <glyph glyph-name="Theta" unicode="&#x398;" horiz-adv-x="650" 
d="M35 150v400l150 150h280l150 -150v-400l-150 -150h-280zM255 520v-100h140v100h-140zM255 180h140v100h-140v-100z" />
    <glyph glyph-name="Iota" unicode="&#x399;" horiz-adv-x="430" 
d="M45 -4v165l60 5v368l-60 5v165l170 -8l170 8v-165l-60 -5v-368l60 -5v-165l-170 8z" />
    <glyph glyph-name="Kappa" unicode="&#x39a;" horiz-adv-x="670" 
d="M40 0v700h220v-250h56l100 250h239l-150 -330l165 -370h-243l-106 260h-61v-260h-220z" />
    <glyph glyph-name="Lambda" unicode="&#x39b;" horiz-adv-x="640" 
d="M510 700l125 -700h-238l-62 500h-30l-62 -500h-238l125 700h380z" />
    <glyph glyph-name="Mu" unicode="&#x39c;" horiz-adv-x="780" 
d="M40 0v700h260l90 -244l90 244h260v-700h-216v417l-94 -237h-80l-94 237v-417h-216z" />
    <glyph glyph-name="Nu" unicode="&#x39d;" horiz-adv-x="680" 
d="M40 0v700h180l220 -345v345h200v-700h-180l-220 345v-345h-200z" />
    <glyph glyph-name="Xi" unicode="&#x39e;" horiz-adv-x="660" 
d="M30 0v180h190v90h-130v170h130v80h-180v180h580v-180h-180v-80h130v-170h-130v-90h190v-180h-600z" />
    <glyph glyph-name="Omicron" unicode="&#x39f;" horiz-adv-x="680" 
d="M35 150v400l150 150h310l150 -150v-400l-150 -150h-310zM265 510v-320h150v320h-150z" />
    <glyph glyph-name="Pi" unicode="&#x3a0;" horiz-adv-x="650" 
d="M40 0v700h570v-700h-220v510h-130v-510h-220z" />
    <glyph glyph-name="Rho" unicode="&#x3a1;" horiz-adv-x="630" 
d="M610 550v-250l-150 -150h-200v-150h-220v700h420zM260 320h130v210h-130v-210z" />
    <glyph glyph-name="Sigma" unicode="&#x3a3;" horiz-adv-x="565" 
d="M20 0v160l215 190l-210 190v160h515v-180h-245l175 -170l-195 -170h270v-180h-525z" />
    <glyph glyph-name="Tau" unicode="&#x3a4;" horiz-adv-x="580" 
d="M180 0v510h-160v190h540v-190h-160v-510h-220z" />
    <glyph glyph-name="Upsilon" unicode="&#x3a5;" horiz-adv-x="640" 
d="M210 0v210h-83l-122 490h235l55 -300h50l55 300h235l-122 -490h-83v-210h-220z" />
    <glyph glyph-name="Phi" unicode="&#x3a6;" horiz-adv-x="870" 
d="M35 200v300l140 140h160v60h200v-60h160l140 -140v-300l-140 -140h-160v-60h-200v60h-160zM245 470v-240h90v240h-90zM625 470h-90v-240h90v240z" />
    <glyph glyph-name="Chi" unicode="&#x3a7;" horiz-adv-x="660" 
d="M0 0l140 370l-125 330h235l65 -240h30l65 240h235l-125 -330l140 -370h-238l-72 260h-40l-72 -260h-238z" />
    <glyph glyph-name="Psi" unicode="&#x3a8;" horiz-adv-x="870" 
d="M185 160l-150 150v390h210v-370h90v370h200v-370h90v370h210v-390l-150 -150h-150v-160h-200v160h-150z" />
    <glyph glyph-name="uni03A9" unicode="&#x3a9;" horiz-adv-x="670" 
d="M10 0v200h105l-90 90v260l150 150h320l150 -150v-260l-90 -90h105v-200h-290v200l45 45v255h-160v-255l45 -45v-200h-290z" />
    <glyph glyph-name="uni03A9" unicode="&#x2126;" horiz-adv-x="670" 
d="M10 0v200h105l-90 90v260l150 150h320l150 -150v-260l-90 -90h105v-200h-290v200l45 45v255h-160v-255l45 -45v-200h-290z" />
    <glyph glyph-name="Alphatonos" unicode="&#x386;" horiz-adv-x="900" 
d="M30 440v260h190l-40 -260h-150zM175 0l135 700h380l135 -700h-235l-18 130h-144l-18 -130h-235zM450 280h100l-35 250h-30z" />
    <glyph glyph-name="Epsilontonos" unicode="&#x388;" horiz-adv-x="820" 
d="M30 440v260h190l-40 -260h-150zM280 0v700h500v-180h-280v-80h230v-170h-230v-90h290v-180h-510z" />
    <glyph glyph-name="Etatonos" unicode="&#x389;" horiz-adv-x="890" 
d="M30 440v260h190l-40 -260h-150zM280 0v700h220v-240h130v240h220v-700h-220v260h-130v-260h-220z" />
    <glyph glyph-name="Iotatonos" unicode="&#x38a;" horiz-adv-x="670" 
d="M30 440v260h190l-40 -260h-150zM285 -4v165l60 5v368l-60 5v165l170 -8l170 8v-165l-60 -5v-368l60 -5v-165l-170 8z" />
    <glyph glyph-name="Iotadieresis" unicode="&#x3aa;" horiz-adv-x="430" 
d="M45 -4v165l60 5v368l-60 5v165l170 -8l170 8v-165l-60 -5v-368l60 -5v-165l-170 8zM-15 740v130h200v-130h-200zM245 740v130h200v-130h-200z" />
    <glyph glyph-name="Omicrontonos" unicode="&#x38c;" horiz-adv-x="920" 
d="M30 440v260h190l-40 -260h-150zM245 150v400l150 150h310l150 -150v-400l-150 -150h-310zM475 510v-320h150v320h-150z" />
    <glyph glyph-name="Upsilontonos" unicode="&#x38e;" horiz-adv-x="880" 
d="M30 440v260h190l-40 -260h-150zM450 0v210h-83l-122 490h235l55 -300h50l55 300h235l-122 -490h-83v-210h-220z" />
    <glyph glyph-name="Upsilondieresis" unicode="&#x3ab;" horiz-adv-x="640" 
d="M210 0v210h-83l-122 490h235l55 -300h50l55 300h235l-122 -490h-83v-210h-220zM90 740v130h200v-130h-200zM350 740v130h200v-130h-200z" />
    <glyph glyph-name="Omegatonos" unicode="&#x38f;" horiz-adv-x="910" 
d="M30 440v260h190l-40 -260h-150zM220 0v200h105l-90 90v260l150 150h320l150 -150v-260l-90 -90h105v-200h-290v200l45 45v255h-160v-255l45 -45v-200h-290z" />
    <glyph glyph-name="alpha" unicode="&#x3b1;" horiz-adv-x="610" 
d="M140 0l-110 110v340l110 110h150l65 -110l10 110h225l-42 -280l42 -280h-225l-10 110l-65 -110h-150zM250 175h105v210h-105v-210z" />
    <glyph glyph-name="beta" unicode="&#x3b2;" horiz-adv-x="630" 
d="M590 550v-121l-77 -63l97 -80v-156l-130 -130h-220v-100h-220v650l150 150h250zM375 530h-115v-360h130v115h-90v140h75v105z" />
    <glyph glyph-name="gamma" unicode="&#x3b3;" horiz-adv-x="580" 
d="M170 -30l-165 590h225l49 -360h26l50 360h220l-165 -590v-110h-240v110z" />
    <glyph glyph-name="delta" unicode="&#x3b4;" 
d="M170 0l-140 140v290l148 68l-93 62v140h465v-150h-215l235 -110v-300l-140 -140h-260zM250 180h100v205l-49 32l-51 -37v-200z" />
    <glyph glyph-name="epsilon" unicode="&#x3b5;" horiz-adv-x="580" 
d="M130 0l-110 110v116l87 70l-67 53v111l100 100h400v-160h-269v-55h239v-130h-259v-55h299v-160h-420z" />
    <glyph glyph-name="zeta" unicode="&#x3b6;" horiz-adv-x="510" 
d="M160 0l-130 130v250l225 150h-225v170h450v-160l-230 -200v-140h240v-320h-190v120h-140z" />
    <glyph glyph-name="eta" unicode="&#x3b7;" horiz-adv-x="620" 
d="M40 0v560h400l140 -140v-420h-220v370h-100v-370h-220z" />
    <glyph glyph-name="theta" unicode="&#x3b8;" horiz-adv-x="630" 
d="M35 150v400l150 150h260l150 -150v-400l-150 -150h-260zM245 530v-110h140v110h-140zM245 170h140v110h-140v-110z" />
    <glyph glyph-name="iota" unicode="&#x3b9;" horiz-adv-x="340" 
d="M40 560h220v-370h60v-190h-170l-110 110v450z" />
    <glyph glyph-name="kappa" unicode="&#x3ba;" horiz-adv-x="620" 
d="M40 0v560h220v-179h39l70 179h245l-134 -259l140 -301h-248l-68 201h-44v-201h-220z" />
    <glyph glyph-name="lambda" unicode="&#x3bb;" 
d="M110 700h328l157 -700h-223l-50 320h-42l-50 -320h-225l109 480h178l-15 60h-167v160z" />
    <glyph glyph-name="uni03BC" unicode="&#x3bc;" horiz-adv-x="660" 
d="M40 -160v720h210v-370h110v370h220v-370h60v-190h-170l-70 70l-70 -70h-80v-160h-210z" />
    <glyph glyph-name="nu" unicode="&#x3bd;" horiz-adv-x="580" 
d="M119 0l-114 560h225l49 -380h26l50 380h220l-114 -560h-342z" />
    <glyph glyph-name="xi" unicode="&#x3be;" horiz-adv-x="540" 
d="M120 0l-100 100v201l87 70l-67 53v176l100 100h365v-180h-255v-85h250v-170h-265v-85h275v-300h-200v120h-190z" />
    <glyph glyph-name="omicron" unicode="&#x3bf;" 
d="M30 130v300l130 130h280l130 -130v-300l-130 -130h-280zM250 170h100v220h-100v-220z" />
    <glyph glyph-name="pi" unicode="&#x3c0;" horiz-adv-x="620" 
d="M40 0v560h540v-560h-220v370h-100v-370h-220z" />
    <glyph glyph-name="rho" unicode="&#x3c1;" horiz-adv-x="620" 
d="M40 -140v550l150 150h250l150 -150v-260l-150 -150h-180v-140h-220zM370 380h-110v-200h110v200z" />
    <glyph glyph-name="uni03C2" unicode="&#x3c2;" horiz-adv-x="520" 
d="M160 0l-130 130v300l130 130h340v-200h-250v-160h250v-320h-200v120h-140z" />
    <glyph glyph-name="sigma" unicode="&#x3c3;" 
d="M30 130v300l130 130h420v-170h-120l110 -70v-190l-130 -130h-280zM250 170h100v220h-100v-220z" />
    <glyph glyph-name="tau" unicode="&#x3c4;" horiz-adv-x="520" 
d="M120 120v260h-100v140l40 40h440v-180h-160v-200h160v-180h-260z" />
    <glyph glyph-name="upsilon" unicode="&#x3c5;" horiz-adv-x="620" 
d="M580 560v-420l-140 -140h-260l-140 140v420h220v-370h100v370h220z" />
    <glyph glyph-name="phi" unicode="&#x3c6;" horiz-adv-x="820" 
d="M30 140v290l140 140h150v130h180v-130h150l140 -140v-290l-140 -140h-150v-140h-180v140h-150zM240 390v-210h80v210h-80zM580 390h-80v-210h80v210z" />
    <glyph glyph-name="chi" unicode="&#x3c7;" horiz-adv-x="630" 
d="M10 0l120 291l-114 269h245l43 -189h22l43 189h245l-114 -269l120 -291h-248l-41 191h-32l-41 -191h-248z" />
    <glyph glyph-name="psi" unicode="&#x3c8;" horiz-adv-x="880" 
d="M180 0l-140 140v420h210v-390h90v450h200v-450h90v390h210v-420l-140 -140h-160v-140h-200v140h-160z" />
    <glyph glyph-name="omega" unicode="&#x3c9;" horiz-adv-x="930" 
d="M575 520v-330h100v370h220v-420l-140 -140h-220l-70 70l-70 -70h-220l-140 140v420h220v-370h100v330h220z" />
    <glyph glyph-name="alphatonos" unicode="&#x3ac;" horiz-adv-x="610" 
d="M140 0l-110 110v340l110 110h150l65 -110l10 110h225l-42 -280l42 -280h-225l-10 110l-65 -110h-150zM250 175h105v210h-105v-210zM225 590v140h190l-40 -140h-150z" />
    <glyph glyph-name="epsilontonos" unicode="&#x3ad;" horiz-adv-x="580" 
d="M130 0l-110 110v116l87 70l-67 53v111l100 100h400v-160h-269v-55h239v-130h-259v-55h299v-160h-420zM245 590v140h190l-40 -140h-150z" />
    <glyph glyph-name="etatonos" unicode="&#x3ae;" horiz-adv-x="620" 
d="M40 0v560h400l140 -140v-420h-220v370h-100v-370h-220zM230 590v140h190l-40 -140h-150z" />
    <glyph glyph-name="iotatonos" unicode="&#x3af;" horiz-adv-x="340" 
d="M40 560h220v-370h60v-190h-170l-110 110v450zM70 590v140h190l-40 -140h-150z" />
    <glyph glyph-name="iotadieresis" unicode="&#x3ca;" horiz-adv-x="340" 
d="M40 560h220v-370h60v-190h-170l-110 110v450zM-80 600v130h200v-130h-200zM180 600v130h200v-130h-200z" />
    <glyph glyph-name="iotadieresistonos" unicode="&#x390;" horiz-adv-x="340" 
d="M40 560h220v-370h60v-190h-170l-110 110v450zM-80 600v130h200v-130h-200zM180 600v130h200v-130h-200zM70 760v140h190l-40 -140h-150z" />
    <glyph glyph-name="omicrontonos" unicode="&#x3cc;" 
d="M30 130v300l130 130h280l130 -130v-300l-130 -130h-280zM250 170h100v220h-100v-220zM220 590v140h190l-40 -140h-150z" />
    <glyph glyph-name="upsilontonos" unicode="&#x3cd;" horiz-adv-x="620" 
d="M580 560v-420l-140 -140h-260l-140 140v420h220v-370h100v370h220zM230 590v140h190l-40 -140h-150z" />
    <glyph glyph-name="upsilondieresis" unicode="&#x3cb;" horiz-adv-x="620" 
d="M580 560v-420l-140 -140h-260l-140 140v420h220v-370h100v370h220zM80 600v130h200v-130h-200zM340 600v130h200v-130h-200z" />
    <glyph glyph-name="upsilondieresistonos" unicode="&#x3b0;" horiz-adv-x="620" 
d="M580 560v-420l-140 -140h-260l-140 140v420h220v-370h100v370h220zM80 600v130h200v-130h-200zM340 600v130h200v-130h-200zM230 760v140h190l-40 -140h-150z" />
    <glyph glyph-name="omegatonos" unicode="&#x3ce;" horiz-adv-x="930" 
d="M575 520v-330h100v370h220v-420l-140 -140h-220l-70 70l-70 -70h-220l-140 140v420h220v-370h100v330h220zM385 590v140h190l-40 -140h-150z" />
    <glyph glyph-name="uni03CF" unicode="&#x3cf;" horiz-adv-x="670" 
d="M40 0v700h220v-250h56l100 250h239l-150 -330l165 -370h-243l-106 260h-61v-260h-220zM642 -40l-40 -160h-190l80 160h150z" />
    <glyph glyph-name="uni03D7" unicode="&#x3d7;" horiz-adv-x="620" 
d="M40 0v560h220v-179h39l70 179h245l-134 -259l140 -301h-248l-68 201h-44v-201h-220zM607 -40l-40 -160h-190l80 160h150z" />
    <glyph glyph-name="Omicron_Upsilon" horiz-adv-x="670" 
d="M30 120v220l80 80l-100 280h235l65 -240h50l65 240h235l-100 -280l80 -80v-220l-120 -120h-370zM250 170h170v120h-170v-120z" />
    <glyph glyph-name="uni0374" unicode="&#x374;" horiz-adv-x="240" 
d="M30 440v260h190l-40 -260h-150z" />
    <glyph glyph-name="uni0375" unicode="&#x375;" horiz-adv-x="240" 
d="M210 100v-260h-190l40 260h150z" />
    <glyph glyph-name="uni037E" unicode="&#x37e;" horiz-adv-x="280" 
d="M40 0v200h200v-200l-115 -140h-125l115 140h-75zM30 360v200h200v-200h-200z" />
    <glyph glyph-name="anoteleia" unicode="&#x387;" horiz-adv-x="280" 
d="M40 360v200h200v-200h-200z" />
    <glyph glyph-name="tonos" unicode="&#x384;" horiz-adv-x="240" 
d="M30 440v260h190l-40 -260h-150z" />
    <glyph glyph-name="tonoscomb" horiz-adv-x="0" 
d="M-80 590v140h190l-40 -140h-150z" />
    <glyph glyph-name="dieresistonos" unicode="&#x385;" horiz-adv-x="540" 
d="M40 600v130h200v-130h-200zM300 600v130h200v-130h-200zM190 760v140h190l-40 -140h-150z" />
    <glyph glyph-name="uni0410" unicode="&#x410;" horiz-adv-x="660" 
d="M5 0l135 700h380l135 -700h-235l-18 130h-144l-18 -130h-235zM280 280h100l-35 250h-30z" />
    <glyph glyph-name="uni0411" unicode="&#x411;" horiz-adv-x="650" 
d="M40 0v700h530v-170h-310v-90h230l140 -140v-160l-140 -140h-450zM260 170h140v110h-140v-110z" />
    <glyph glyph-name="uni0412" unicode="&#x412;" horiz-adv-x="660" 
d="M620 560v-141l-67 -53l87 -70v-156l-140 -140h-460v700h440zM260 425h135v105h-135v-105zM260 170h150v115h-150v-115z" />
    <glyph glyph-name="uni0413" unicode="&#x413;" horiz-adv-x="510" 
d="M40 0v700h460v-200h-240v-500h-220z" />
    <glyph glyph-name="uni0414" unicode="&#x414;" horiz-adv-x="720" 
d="M15 -140v330h60l112 510h458v-510h60v-330h-160v140h-370v-140h-160zM298 170h127v360h-70z" />
    <glyph glyph-name="uni0415" unicode="&#x415;" horiz-adv-x="580" 
d="M40 0v700h500v-180h-280v-80h230v-170h-230v-90h290v-180h-510z" />
    <glyph glyph-name="uni0416" unicode="&#x416;" horiz-adv-x="960" 
d="M590 0h-220v260h-50l-72 -260h-248l130 370l-115 330h245l65 -250h45v250h220v-250h45l65 250h245l-115 -330l130 -370h-248l-72 260h-50v-260z" />
    <glyph glyph-name="uni0417" unicode="&#x417;" horiz-adv-x="630" 
d="M470 0h-440v180h350v90h-270v170h250v80h-320v180h410l140 -140v-141l-67 -53l87 -70v-156z" />
    <glyph glyph-name="uni0418" unicode="&#x418;" horiz-adv-x="680" 
d="M640 0h-215v365l-205 -365h-180v700h215v-365l205 365h180v-700z" />
    <glyph glyph-name="uni0419" unicode="&#x419;" horiz-adv-x="680" 
d="M640 0h-215v365l-205 -365h-180v700h215v-365l205 365h180v-700zM370 880h190l-70 -150h-300l-70 150h190v-80h60v80z" />
    <glyph glyph-name="uni041A" unicode="&#x41a;" horiz-adv-x="670" 
d="M40 0v700h220v-250h56l100 250h239l-150 -330l165 -370h-243l-106 260h-61v-260h-220z" />
    <glyph glyph-name="uni041B" unicode="&#x41b;" horiz-adv-x="675" 
d="M635 700v-700h-220v506h-101l-74 -506h-235l125 700h505z" />
    <glyph glyph-name="uni041C" unicode="&#x41c;" horiz-adv-x="780" 
d="M40 0v700h260l90 -244l90 244h260v-700h-216v417l-94 -237h-80l-94 237v-417h-216z" />
    <glyph glyph-name="uni041D" unicode="&#x41d;" horiz-adv-x="650" 
d="M40 0v700h220v-240h130v240h220v-700h-220v260h-130v-260h-220z" />
    <glyph glyph-name="uni041E" unicode="&#x41e;" horiz-adv-x="680" 
d="M35 150v400l150 150h310l150 -150v-400l-150 -150h-310zM265 510v-320h150v320h-150z" />
    <glyph glyph-name="uni041F" unicode="&#x41f;" horiz-adv-x="650" 
d="M40 0v700h570v-700h-220v510h-130v-510h-220z" />
    <glyph glyph-name="uni0420" unicode="&#x420;" horiz-adv-x="630" 
d="M610 550v-250l-150 -150h-200v-150h-220v700h420zM260 320h130v210h-130v-210z" />
    <glyph glyph-name="uni0421" unicode="&#x421;" horiz-adv-x="560" 
d="M35 150v400l150 150h340v-200h-260v-300h270v-200h-350z" />
    <glyph glyph-name="uni0422" unicode="&#x422;" horiz-adv-x="580" 
d="M180 0v510h-160v190h540v-190h-160v-510h-220z" />
    <glyph glyph-name="uni0423" unicode="&#x423;" 
d="M40 0v180h242l7 40h-175l-109 480h225l50 -310h42l50 310h223l-157 -700h-398z" />
    <glyph glyph-name="uni0424" unicode="&#x424;" horiz-adv-x="870" 
d="M35 200v300l140 140h160v60h200v-60h160l140 -140v-300l-140 -140h-160v-60h-200v60h-160zM245 470v-240h90v240h-90zM625 470h-90v-240h90v240z" />
    <glyph glyph-name="uni0425" unicode="&#x425;" horiz-adv-x="660" 
d="M0 0l140 370l-125 330h235l65 -240h30l65 240h235l-125 -330l140 -370h-238l-72 260h-40l-72 -260h-238z" />
    <glyph glyph-name="uni0426" unicode="&#x426;" horiz-adv-x="700" 
d="M610 700v-510h80v-330h-160v140h-490v700h220v-510h130v510h220z" />
    <glyph glyph-name="uni0427" unicode="&#x427;" horiz-adv-x="640" 
d="M600 700v-700h-220v140h-200l-140 140v420h220v-380h120v380h220z" />
    <glyph glyph-name="uni0428" unicode="&#x428;" horiz-adv-x="980" 
d="M600 700v-510h120v510h220v-700h-900v700h220v-510h120v510h220z" />
    <glyph glyph-name="uni0429" unicode="&#x429;" horiz-adv-x="1030" 
d="M600 700v-510h120v510h220v-510h80v-330h-160v140h-820v700h220v-510h120v510h220z" />
    <glyph glyph-name="uni042A" unicode="&#x42a;" horiz-adv-x="720" 
d="M700 400v-250l-150 -150h-430v470l40 40h-140v190h320v-150h210zM480 380h-140v-210h140v210z" />
    <glyph glyph-name="uni042B" unicode="&#x42b;" horiz-adv-x="940" 
d="M620 400v-250l-150 -150h-430v700h220v-150h210zM680 0v700h220v-700h-220zM400 380h-140v-210h140v210z" />
    <glyph glyph-name="uni042C" unicode="&#x42c;" horiz-adv-x="640" 
d="M620 400v-250l-150 -150h-430v700h220v-150h210zM400 380h-140v-210h140v210z" />
    <glyph glyph-name="uni042D" unicode="&#x42d;" horiz-adv-x="610" 
d="M575 150v400l-150 150h-390v-185h315v-80h-235v-170h235v-80h-325v-185h400z" />
    <glyph glyph-name="uni042E" unicode="&#x42e;" horiz-adv-x="970" 
d="M40 0v700h220v-255h99v105l150 150h276l150 -150v-400l-150 -150h-276l-150 150v105h-99v-255h-220zM575 500v-300h140v300h-140z" />
    <glyph glyph-name="uni042F" unicode="&#x42f;" horiz-adv-x="660" 
d="M30 550v-222l90 -90l-120 -238h248l73 170h79v-170h220v700h-440zM400 340h-150v190h150v-190z" />
    <glyph glyph-name="uni0430" unicode="&#x430;" 
d="M30 140v180l310 10v50h-290v180h370l140 -140v-420h-390zM250 220v-50h90v70z" />
    <glyph glyph-name="uni0431" unicode="&#x431;" horiz-adv-x="620" 
d="M180 0l-140 140v430l130 130h390v-170h-300v-50h240l90 -90v-250l-140 -140h-270zM260 180h110v150h-110v-150z" />
    <glyph glyph-name="uni0432" unicode="&#x432;" horiz-adv-x="610" 
d="M40 560h440l90 -90v-128l-56 -46l76 -66v-140l-90 -90h-460v560zM255 345h105v65h-105v-65zM255 150h115v65h-115v-65z" />
    <glyph glyph-name="uni0433" unicode="&#x433;" horiz-adv-x="470" 
d="M40 0v560h410v-200h-190v-360h-220z" />
    <glyph glyph-name="uni0434" unicode="&#x434;" horiz-adv-x="610" 
d="M60 -140v180h290v40h-190l-130 130v220l130 130h410v-536l-164 -164h-346zM250 380v-130h100v130h-100z" />
    <glyph glyph-name="uni0435" unicode="&#x435;" horiz-adv-x="590" 
d="M30 130v300l130 130h400v-320h-310v-60h290v-180h-380zM250 330l130 10v60h-130v-70z" />
    <glyph glyph-name="uni0436" unicode="&#x436;" horiz-adv-x="940" 
d="M580 0h-220v201h-44l-68 -201h-248l140 301l-130 259h246l63 -179h41v179h220v-179h41l63 179h246l-130 -259l140 -301h-248l-68 201h-44v-201z" />
    <glyph glyph-name="uni0437" unicode="&#x437;" horiz-adv-x="580" 
d="M560 100l-100 -100h-430v170h299v45h-259v130h239v45h-269v170h400l100 -100v-111l-67 -53l87 -70v-126z" />
    <glyph glyph-name="uni0438" unicode="&#x438;" horiz-adv-x="660" 
d="M620 0h-215v275l-165 -275h-200v560h215v-285l165 285h200v-560z" />
    <glyph glyph-name="uni0439" unicode="&#x439;" horiz-adv-x="660" 
d="M620 0h-215v275l-165 -275h-200v560h215v-285l165 285h200v-560zM380 740h170l-100 -150h-240l-100 150h170v-60h100v60z" />
    <glyph glyph-name="uni043A" unicode="&#x43a;" horiz-adv-x="620" 
d="M40 0v560h220v-179h39l70 179h245l-134 -259l140 -301h-248l-68 201h-44v-201h-220z" />
    <glyph glyph-name="uni043B" unicode="&#x43b;" horiz-adv-x="620" 
d="M580 560v-560h-220v386h-67l-43 -386h-235v190h50l25 196h-35v174h525z" />
    <glyph glyph-name="uni043B.loclBGR" horiz-adv-x="580" 
d="M471 560l104 -560h-225l-39 380h-46l-40 -380h-220l104 560h362z" />
    <glyph glyph-name="uni043C" unicode="&#x43c;" horiz-adv-x="708" 
d="M40 0v560h234l80 -214l80 214h234v-560h-200v315l-74 -225h-80l-74 225v-315h-200z" />
    <glyph glyph-name="uni043D" unicode="&#x43d;" horiz-adv-x="630" 
d="M40 0v560h220v-184h110v184h220v-560h-220v188h-110v-188h-220z" />
    <glyph glyph-name="uni043E" unicode="&#x43e;" 
d="M30 130v300l130 130h280l130 -130v-300l-130 -130h-280zM250 170h100v220h-100v-220z" />
    <glyph glyph-name="uni043F" unicode="&#x43f;" horiz-adv-x="620" 
d="M40 0v560h540v-560h-220v370h-100v-370h-220z" />
    <glyph glyph-name="uni0440" unicode="&#x440;" horiz-adv-x="620" 
d="M40 -140v700h400l150 -150v-260l-150 -150h-180v-140h-220zM370 380h-110v-200h110v200z" />
    <glyph glyph-name="uni0441" unicode="&#x441;" horiz-adv-x="520" 
d="M30 130v300l130 130h340v-200h-250v-160h250v-200h-340z" />
    <glyph glyph-name="uni0442" unicode="&#x442;" horiz-adv-x="560" 
d="M390 0h-220v370h-150v190h520v-190h-150v-370z" />
    <glyph glyph-name="uni0443" unicode="&#x443;" 
d="M40 -140v180h242l7 40h-175l-109 480h225l50 -310h42l50 310h223l-157 -700h-398z" />
    <glyph glyph-name="uni0444" unicode="&#x444;" horiz-adv-x="820" 
d="M30 140v290l140 140h150v130h180v-130h150l140 -140v-290l-140 -140h-150v-140h-180v140h-150zM240 390v-210h80v210h-80zM580 390h-80v-210h80v210z" />
    <glyph glyph-name="uni0445" unicode="&#x445;" horiz-adv-x="630" 
d="M10 0l120 291l-114 269h245l43 -189h22l43 189h245l-114 -269l120 -291h-248l-41 191h-32l-41 -191h-248z" />
    <glyph glyph-name="uni0446" unicode="&#x446;" horiz-adv-x="670" 
d="M580 560v-370h80v-330h-160v140h-460v560h220v-370h100v370h220z" />
    <glyph glyph-name="uni0447" unicode="&#x447;" horiz-adv-x="610" 
d="M570 560v-560h-220v120h-180l-140 140v300h220v-260h100v260h220z" />
    <glyph glyph-name="uni0448" unicode="&#x448;" horiz-adv-x="940" 
d="M580 560v-370h100v370h220v-560h-860v560h220v-370h100v370h220z" />
    <glyph glyph-name="uni0449" unicode="&#x449;" horiz-adv-x="990" 
d="M580 560v-370h100v370h220v-370h80v-330h-160v140h-780v560h220v-370h100v370h220z" />
    <glyph glyph-name="uni044A" unicode="&#x44a;" horiz-adv-x="660" 
d="M80 0v320l60 60h-130v180h290v-120h200l130 -130v-180l-130 -130h-420zM300 170h110v100h-110v-100z" />
    <glyph glyph-name="uni044B" unicode="&#x44b;" horiz-adv-x="920" 
d="M40 0v560h220v-120h200l130 -130v-180l-130 -130h-420zM660 0v560h220v-560h-220zM260 170h110v100h-110v-100z" />
    <glyph glyph-name="uni044C" unicode="&#x44c;" horiz-adv-x="610" 
d="M40 0v560h220v-120h200l130 -130v-180l-130 -130h-420zM260 170h110v100h-110v-100z" />
    <glyph glyph-name="uni044D" unicode="&#x44d;" horiz-adv-x="570" 
d="M410 0l130 130v300l-130 130h-380v-170h290v-55h-260v-110h260v-55h-290v-170h380z" />
    <glyph glyph-name="uni044E" unicode="&#x44e;" horiz-adv-x="900" 
d="M40 0v560h220v-195h70v65l130 130h280l130 -130v-300l-130 -130h-280l-130 130v65h-70v-195h-220zM550 170h100v220h-100v-220z" />
    <glyph glyph-name="uni044F" unicode="&#x44f;" horiz-adv-x="630" 
d="M30 240v200l120 120h440v-560h-220v130h-69l-53 -130h-248l107 163zM250 290h120v100h-120v-100z" />
    <glyph glyph-name="uni04D0" unicode="&#x4d0;" horiz-adv-x="660" 
d="M5 0l135 700h380l135 -700h-235l-18 130h-144l-18 -130h-235zM280 280h100l-35 250h-30zM360 880h190l-70 -150h-300l-70 150h190v-80h60v80z" />
    <glyph glyph-name="uni04D1" unicode="&#x4d1;" 
d="M30 140v180l310 10v50h-290v180h370l140 -140v-420h-390zM250 220v-50h90v70zM310 740h190l-70 -150h-300l-70 150h190v-80h60v80z" />
    <glyph glyph-name="uni04D2" unicode="&#x4d2;" horiz-adv-x="660" 
d="M5 0l135 700h380l135 -700h-235l-18 130h-144l-18 -130h-235zM280 280h100l-35 250h-30zM100 740v130h200v-130h-200zM360 740v130h200v-130h-200z" />
    <glyph glyph-name="uni04D3" unicode="&#x4d3;" 
d="M30 140v180l310 10v50h-290v180h370l140 -140v-420h-390zM250 220v-50h90v70zM50 600v130h200v-130h-200zM310 600v130h200v-130h-200z" />
    <glyph glyph-name="uni04D8" unicode="&#x4d8;" horiz-adv-x="650" 
d="M615 570v-440l-130 -130h-320l-130 130v310h360v80h-340v180h430zM395 310l-140 -10v-120h140v130z" />
    <glyph glyph-name="uni04D9" unicode="&#x4d9;" horiz-adv-x="590" 
d="M560 430v-300l-130 -130h-270l-130 130v190h310v60h-290v180h380zM340 230l-120 -10v-60h120v70z" />
    <glyph glyph-name="uni04D4" unicode="&#x4d4;" horiz-adv-x="845" 
d="M5 0l131 700h669v-180h-240v-80h190v-170h-190v-90h250v-180h-460v130h-99l-16 -130h-235zM274 280h81v250h-50z" />
    <glyph glyph-name="uni04D5" unicode="&#x4d5;" horiz-adv-x="900" 
d="M30 140v180l310 10v50h-290v180h310l90 -90l90 90h330v-320h-310v-70h290v-170h-680zM560 330l130 10v60h-130v-70zM250 220v-60h90v80z" />
    <glyph glyph-name="uni0403" unicode="&#x403;" horiz-adv-x="510" 
d="M40 0v700h460v-200h-240v-500h-220zM125 740v100l320 30v-130h-320z" />
    <glyph glyph-name="uni0453" unicode="&#x453;" horiz-adv-x="470" 
d="M40 0v560h410v-200h-190v-360h-220zM120 600v100l320 30v-130h-320z" />
    <glyph glyph-name="uni0490" unicode="&#x490;" horiz-adv-x="510" 
d="M40 0v700h260v130h200v-330h-240v-500h-220z" />
    <glyph glyph-name="uni0491" unicode="&#x491;" horiz-adv-x="470" 
d="M40 0v560h210v130h200v-330h-190v-360h-220z" />
    <glyph glyph-name="uni0492" unicode="&#x492;" horiz-adv-x="510" 
d="M40 0v700h460v-200h-240v-130h140v-150h-140v-220h-220z" />
    <glyph glyph-name="uni0493" unicode="&#x493;" horiz-adv-x="470" 
d="M40 0v140h-35v150h35v270h410v-200h-190v-70h105v-150h-105v-140h-220z" />
    <glyph glyph-name="uni0494" unicode="&#x494;" horiz-adv-x="630" 
d="M40 0v700h540v-180h-310v-130h230l100 -100v-330l-100 -100h-210v180h90v170h-110v-210h-230z" />
    <glyph glyph-name="uni0495" unicode="&#x495;" 
d="M40 0v560h530v-180h-300v-60h200l100 -100v-260l-100 -100h-180v180h80v120h-100v-160h-230z" />
    <glyph glyph-name="uni04F6" unicode="&#x4f6;" horiz-adv-x="510" 
d="M40 0v700h460v-200h-240v-310h90v-330h-160v140h-150z" />
    <glyph glyph-name="uni04F7" unicode="&#x4f7;" horiz-adv-x="470" 
d="M40 0v560h410v-200h-190v-170h90v-330h-160v140h-150z" />
    <glyph glyph-name="uni0402" unicode="&#x402;" horiz-adv-x="720" 
d="M150 0v520h-130v180h580v-180h-230v-80h190l130 -130v-180l-130 -130h-150v170h60v100h-100v-270h-220z" />
    <glyph glyph-name="uni0452" unicode="&#x452;" horiz-adv-x="620" 
d="M40 0v700h220v-60h185v-76h-185v-54h180l140 -140v-406l-124 -124h-146v150h50v340h-100v-330h-220z" />
    <glyph glyph-name="uni0498" unicode="&#x498;" horiz-adv-x="630" 
d="M470 0h-100v-140h-160v140h-180v180h355v90h-295v170h275v80h-325v180h410l140 -140v-141l-67 -53l87 -70v-156z" />
    <glyph glyph-name="uni0499" unicode="&#x499;" horiz-adv-x="580" 
d="M560 100l-100 -100h-85v-140h-160v140h-185v170h299v45h-259v130h239v45h-269v170h400l100 -100v-111l-67 -53l87 -70v-126z" />
    <glyph glyph-name="uni0400" unicode="&#x400;" horiz-adv-x="580" 
d="M40 0v700h500v-180h-280v-80h230v-170h-230v-90h290v-180h-510zM425 740h-320v130l320 -30v-100z" />
    <glyph glyph-name="uni0450" unicode="&#x450;" horiz-adv-x="590" 
d="M30 130v300l130 130h400v-320h-310v-60h290v-180h-380zM250 330l130 10v60h-130v-70zM440 600h-320v130l320 -30v-100z" />
    <glyph glyph-name="uni04D6" unicode="&#x4d6;" horiz-adv-x="580" 
d="M40 0v700h500v-180h-280v-80h230v-170h-230v-90h290v-180h-510zM325 880h190l-70 -150h-300l-70 150h190v-80h60v80z" />
    <glyph glyph-name="uni04D7" unicode="&#x4d7;" horiz-adv-x="590" 
d="M30 130v300l130 130h400v-320h-310v-60h290v-180h-380zM250 330l130 10v60h-130v-70zM340 740h190l-70 -150h-300l-70 150h190v-80h60v80z" />
    <glyph glyph-name="uni0401" unicode="&#x401;" horiz-adv-x="580" 
d="M40 0v700h500v-180h-280v-80h230v-170h-230v-90h290v-180h-510zM65 740v130h200v-130h-200zM325 740v130h200v-130h-200z" />
    <glyph glyph-name="uni0451" unicode="&#x451;" horiz-adv-x="590" 
d="M30 130v300l130 130h400v-320h-310v-60h290v-180h-380zM250 330l130 10v60h-130v-70zM80 600v130h200v-130h-200zM340 600v130h200v-130h-200z" />
    <glyph glyph-name="uni0404" unicode="&#x404;" horiz-adv-x="610" 
d="M35 150v400l150 150h390v-185h-315v-80h235v-170h-235v-80h325v-185h-400z" />
    <glyph glyph-name="uni0454" unicode="&#x454;" horiz-adv-x="570" 
d="M160 0l-130 130v300l130 130h380v-170h-290v-55h260v-110h-260v-55h290v-170h-380z" />
    <glyph glyph-name="uni04C1" unicode="&#x4c1;" horiz-adv-x="960" 
d="M590 0h-220v260h-50l-72 -260h-248l130 370l-115 330h245l65 -250h45v250h220v-250h45l65 250h245l-115 -330l130 -370h-248l-72 260h-50v-260zM510 880h190l-70 -150h-300l-70 150h190v-80h60v80z" />
    <glyph glyph-name="uni04C2" unicode="&#x4c2;" horiz-adv-x="940" 
d="M580 0h-220v201h-44l-68 -201h-248l140 301l-130 259h246l63 -179h41v179h220v-179h41l63 179h246l-130 -259l140 -301h-248l-68 201h-44v-201zM500 740h190l-70 -150h-300l-70 150h190v-80h60v80z" />
    <glyph glyph-name="uni04DC" unicode="&#x4dc;" horiz-adv-x="960" 
d="M590 0h-220v260h-50l-72 -260h-248l130 370l-115 330h245l65 -250h45v250h220v-250h45l65 250h245l-115 -330l130 -370h-248l-72 260h-50v-260zM250 740v130h200v-130h-200zM510 740v130h200v-130h-200z" />
    <glyph glyph-name="uni04DD" unicode="&#x4dd;" horiz-adv-x="940" 
d="M580 0h-220v201h-44l-68 -201h-248l140 301l-130 259h246l63 -179h41v179h220v-179h41l63 179h246l-130 -259l140 -301h-248l-68 201h-44v-201zM240 600v130h200v-130h-200zM500 600v130h200v-130h-200z" />
    <glyph glyph-name="uni0496" unicode="&#x496;" horiz-adv-x="1010" 
d="M590 0h-220v260h-50l-72 -260h-248l130 370l-115 330h245l65 -250h45v250h220v-250h45l65 250h245l-115 -330l63 -180h107v-330h-160v140h-128l-72 260h-50v-260z" />
    <glyph glyph-name="uni0497" unicode="&#x497;" horiz-adv-x="990" 
d="M580 0h-220v201h-44l-68 -201h-248l140 301l-130 259h246l63 -179h41v179h220v-179h41l63 179h246l-130 -259l52 -111h128v-330h-160v140h-128l-68 201h-44v-201z" />
    <glyph glyph-name="uni04DE" unicode="&#x4de;" horiz-adv-x="630" 
d="M470 0h-440v180h350v90h-270v170h250v80h-320v180h410l140 -140v-141l-67 -53l87 -70v-156zM35 740v130h200v-130h-200zM295 740v130h200v-130h-200z" />
    <glyph glyph-name="uni04DF" unicode="&#x4df;" horiz-adv-x="580" 
d="M560 100l-100 -100h-430v170h299v45h-259v130h239v45h-269v170h400l100 -100v-111l-67 -53l87 -70v-126zM25 600v130h200v-130h-200zM285 600v130h200v-130h-200z" />
    <glyph glyph-name="uni0405" unicode="&#x405;" horiz-adv-x="640" 
d="M45 0v190h340v70l-350 33v267l140 140h420v-190h-340v-60l350 -33v-277l-140 -140h-420z" />
    <glyph glyph-name="uni0455" unicode="&#x455;" horiz-adv-x="580" 
d="M30 0v170h300v60h-300v200l130 130h390v-170h-300v-60h300v-203l-127 -127h-393z" />
    <glyph glyph-name="uni040D" unicode="&#x40d;" horiz-adv-x="680" 
d="M640 0h-215v365l-205 -365h-180v700h215v-365l205 365h180v-700zM470 740h-320v130l320 -30v-100z" />
    <glyph glyph-name="uni045D" unicode="&#x45d;" horiz-adv-x="660" 
d="M620 0h-215v275l-165 -275h-200v560h215v-285l165 285h200v-560zM460 600h-320v130l320 -30v-100z" />
    <glyph glyph-name="uni04E4" unicode="&#x4e4;" horiz-adv-x="680" 
d="M640 0h-215v365l-205 -365h-180v700h215v-365l205 365h180v-700zM110 740v130h200v-130h-200zM370 740v130h200v-130h-200z" />
    <glyph glyph-name="uni04E5" unicode="&#x4e5;" horiz-adv-x="660" 
d="M620 0h-215v275l-165 -275h-200v560h215v-285l165 285h200v-560zM100 600v130h200v-130h-200zM360 600v130h200v-130h-200z" />
    <glyph glyph-name="uni04E2" unicode="&#x4e2;" horiz-adv-x="680" 
d="M640 0h-215v365l-205 -365h-180v700h215v-365l205 365h180v-700zM170 740v130h340v-130h-340z" />
    <glyph glyph-name="uni04E3" unicode="&#x4e3;" horiz-adv-x="660" 
d="M620 0h-215v275l-165 -275h-200v560h215v-285l165 285h200v-560zM160 600v130h340v-130h-340z" />
    <glyph glyph-name="uni0406" unicode="&#x406;" horiz-adv-x="430" 
d="M45 -4v165l60 5v368l-60 5v165l170 -8l170 8v-165l-60 -5v-368l60 -5v-165l-170 8z" />
    <glyph glyph-name="uni0456" unicode="&#x456;" horiz-adv-x="300" 
d="M40 600v130h220v-130h-220zM40 0v560h220v-560h-220z" />
    <glyph glyph-name="uni0407" unicode="&#x407;" horiz-adv-x="430" 
d="M45 -4v165l60 5v368l-60 5v165l170 -8l170 8v-165l-60 -5v-368l60 -5v-165l-170 8zM55 740v130h140v-130h-140zM235 740v130h140v-130h-140z" />
    <glyph glyph-name="uni0457" unicode="&#x457;" horiz-adv-x="300" 
d="M40 0v560h220v-560h-220zM-10 600v130h140v-130h-140zM170 600v130h140v-130h-140z" />
    <glyph glyph-name="uni0408" unicode="&#x408;" 
d="M15 150v200h220v-150h110v310h-290v190h510v-550l-150 -150h-250z" />
    <glyph glyph-name="uni0458" unicode="&#x458;" horiz-adv-x="300" 
d="M40 600v130h220v-130h-220zM40 -140v700h220v-700h-220z" />
    <glyph glyph-name="uni040C" unicode="&#x40c;" horiz-adv-x="670" 
d="M40 0v700h220v-250h56l100 250h239l-150 -330l165 -370h-243l-106 260h-61v-260h-220zM195 740v100l320 30v-130h-320z" />
    <glyph glyph-name="uni045C" unicode="&#x45c;" horiz-adv-x="620" 
d="M40 0v560h220v-179h39l70 179h245l-134 -259l140 -301h-248l-68 201h-44v-201h-220zM170 600v100l320 30v-130h-320z" />
    <glyph glyph-name="uni049A" unicode="&#x49a;" horiz-adv-x="700" 
d="M40 0v700h220v-250h45l85 250h245l-135 -330l73 -180h117v-330h-160v140h-128l-92 260h-50v-260h-220z" />
    <glyph glyph-name="uni049B" unicode="&#x49b;" horiz-adv-x="670" 
d="M40 0v560h220v-179h39l70 179h245l-134 -259l52 -111h128v-330h-160v140h-128l-68 201h-44v-201h-220z" />
    <glyph glyph-name="uni04A0" unicode="&#x4a0;" horiz-adv-x="765" 
d="M10 520v180h365v-250h45l85 250h245l-135 -330l150 -370h-248l-92 260h-50v-260h-220v520h-145z" />
    <glyph glyph-name="uni04A1" unicode="&#x4a1;" horiz-adv-x="735" 
d="M10 380v180h365v-179h39l70 179h245l-134 -259l140 -301h-248l-68 201h-44v-201h-220v380h-145z" />
    <glyph glyph-name="uni049C" unicode="&#x49c;" horiz-adv-x="690" 
d="M40 0v700h220v-250h32v140h76v-140h17l51 250h239l-105 -330l120 -370h-242l-58 260h-22v-140h-76v140h-32v-260h-220z" />
    <glyph glyph-name="uni049D" unicode="&#x49d;" horiz-adv-x="670" 
d="M40 0v560h220v-179h32v110h72v-110h15l43 179h237l-97 -259l108 -301h-248l-46 201h-12v-110h-72v110h-32v-201h-220z" />
    <glyph glyph-name="uni051A" unicode="&#x51a;" horiz-adv-x="680" 
d="M35 150v400l150 150h310l150 -150v-343l-122 -78l132 -24v-205l-470 100zM265 175l150 -27v362h-150v-335z" />
    <glyph glyph-name="uni051B" unicode="&#x51b;" horiz-adv-x="620" 
d="M580 560v-700h-220v140h-180l-150 150v260l150 150h400zM360 380h-110v-200h110v200z" />
    <glyph glyph-name="uni0409" unicode="&#x409;" horiz-adv-x="980" 
d="M630 700v-150h180l150 -150v-250l-150 -150h-395v506h-101l-74 -506h-235l125 700h500zM740 380h-110v-210h110v210z" />
    <glyph glyph-name="uni0459" unicode="&#x459;" horiz-adv-x="910" 
d="M15 0v190h50l25 196h-35v174h525v-120h180l130 -130v-180l-130 -130h-400v386h-67l-43 -386h-235zM580 170h90v100h-90v-100z" />
    <glyph glyph-name="uni04A2" unicode="&#x4a2;" horiz-adv-x="700" 
d="M40 0v700h220v-240h130v240h220v-510h80v-330h-160v140h-140v260h-130v-260h-220z" />
    <glyph glyph-name="uni04A3" unicode="&#x4a3;" horiz-adv-x="670" 
d="M40 0v560h220v-170h100v170h220v-370h80v-330h-160v140h-140v190h-100v-190h-220z" />
    <glyph glyph-name="uni04A4" unicode="&#x4a4;" horiz-adv-x="765" 
d="M40 0v700h220v-240h130v240h365v-180h-145v-520h-220v260h-130v-260h-220z" />
    <glyph glyph-name="uni04A5" unicode="&#x4a5;" horiz-adv-x="735" 
d="M40 0v560h220v-170h100v170h365v-180h-145v-380h-220v190h-100v-190h-220z" />
    <glyph glyph-name="uni040A" unicode="&#x40a;" horiz-adv-x="960" 
d="M40 0v700h220v-240h129v240h221v-150h180l150 -150v-250l-150 -150h-401v260h-129v-260h-220zM720 380h-110v-210h110v210z" />
    <glyph glyph-name="uni045A" unicode="&#x45a;" horiz-adv-x="910" 
d="M360 0v190h-100v-190h-220v560h220v-170h100v170h220v-120h180l130 -130v-180l-130 -130h-400zM580 170h90v100h-90v-100z" />
    <glyph glyph-name="uni04E6" unicode="&#x4e6;" horiz-adv-x="680" 
d="M35 150v400l150 150h310l150 -150v-400l-150 -150h-310zM265 510v-320h150v320h-150zM110 740v130h200v-130h-200zM370 740v130h200v-130h-200z" />
    <glyph glyph-name="uni04E7" unicode="&#x4e7;" 
d="M30 130v300l130 130h280l130 -130v-300l-130 -130h-280zM250 170h100v220h-100v-220zM70 600v130h200v-130h-200zM330 600v130h200v-130h-200z" />
    <glyph glyph-name="uni04E8" unicode="&#x4e8;" horiz-adv-x="650" 
d="M35 150v400l150 150h280l150 -150v-400l-150 -150h-280zM255 520v-100h140v100h-140zM255 180h140v100h-140v-100z" />
    <glyph glyph-name="uni04E9" unicode="&#x4e9;" 
d="M30 130v300l130 130h280l130 -130v-300l-130 -130h-280zM245 420v-90h110v90h-110zM245 150h110v90h-110v-90z" />
    <glyph glyph-name="uni04AA" unicode="&#x4aa;" horiz-adv-x="550" 
d="M35 150v400l150 150h340v-205h-250v-290h260v-205h-104v-140h-160v140h-86z" />
    <glyph glyph-name="uni04AB" unicode="&#x4ab;" horiz-adv-x="520" 
d="M30 130v300l130 130h340v-200h-250v-160h250v-200h-92v-140h-160v140h-88z" />
    <glyph glyph-name="uni040B" unicode="&#x40b;" horiz-adv-x="730" 
d="M150 0v520h-130v180h580v-180h-230v-80h180l140 -140v-300h-220v260h-100v-260h-220z" />
    <glyph glyph-name="uni045B" unicode="&#x45b;" horiz-adv-x="620" 
d="M40 0v700h220v-60h185v-76h-185v-54h180l140 -140v-370h-220v330h-100v-330h-220z" />
    <glyph glyph-name="uni040E" unicode="&#x40e;" 
d="M40 0v180h242l7 40h-175l-109 480h225l50 -310h42l50 310h223l-157 -700h-398zM330 880h190l-70 -150h-300l-70 150h190v-80h60v80z" />
    <glyph glyph-name="uni045E" unicode="&#x45e;" 
d="M40 -140v180h242l7 40h-175l-109 480h225l50 -310h42l50 310h223l-157 -700h-398zM330 740h190l-70 -150h-300l-70 150h190v-80h60v80z" />
    <glyph glyph-name="uni04F0" unicode="&#x4f0;" 
d="M40 0v180h242l7 40h-175l-109 480h225l50 -310h42l50 310h223l-157 -700h-398zM70 740v130h200v-130h-200zM330 740v130h200v-130h-200z" />
    <glyph glyph-name="uni04F1" unicode="&#x4f1;" 
d="M40 -140v180h242l7 40h-175l-109 480h225l50 -310h42l50 310h223l-157 -700h-398zM70 600v130h200v-130h-200zM330 600v130h200v-130h-200z" />
    <glyph glyph-name="uni04F2" unicode="&#x4f2;" 
d="M40 0v180h242l7 40h-175l-109 480h225l50 -310h42l50 310h223l-157 -700h-398zM145 730l40 140h160l-80 -140h-120zM310 730l60 140h160l-100 -140h-120z" />
    <glyph glyph-name="uni04F3" unicode="&#x4f3;" 
d="M40 -140v180h242l7 40h-175l-109 480h225l50 -310h42l50 310h223l-157 -700h-398zM145 590l40 140h160l-80 -140h-120zM310 590l60 140h160l-100 -140h-120z" />
    <glyph glyph-name="uni04EE" unicode="&#x4ee;" 
d="M40 0v180h242l7 40h-175l-109 480h225l50 -310h42l50 310h223l-157 -700h-398zM130 740v130h340v-130h-340z" />
    <glyph glyph-name="uni04EF" unicode="&#x4ef;" 
d="M40 -140v180h242l7 40h-175l-109 480h225l50 -310h42l50 310h223l-157 -700h-398zM130 600v130h340v-130h-340z" />
    <glyph glyph-name="uni04AE" unicode="&#x4ae;" horiz-adv-x="640" 
d="M210 0v210h-83l-122 490h235l55 -300h50l55 300h235l-122 -490h-83v-210h-220z" />
    <glyph glyph-name="uni04AF" unicode="&#x4af;" horiz-adv-x="580" 
d="M170 -30l-165 590h225l49 -360h26l50 360h220l-165 -590v-110h-240v110z" />
    <glyph glyph-name="uni04B0" unicode="&#x4b0;" horiz-adv-x="640" 
d="M30 170v180h69l-94 350h235l55 -350h50l55 350h235l-94 -350h69v-180h-180v-170h-220v170h-180z" />
    <glyph glyph-name="uni04B1" unicode="&#x4b1;" horiz-adv-x="580" 
d="M30 -10v190h75l-100 380h225l49 -380h26l50 380h220l-100 -380h75v-190h-140v-130h-240v130h-140z" />
    <glyph glyph-name="uni04B2" unicode="&#x4b2;" horiz-adv-x="710" 
d="M0 0l140 370l-125 330h235l65 -240h30l65 240h235l-125 -330l68 -180h112v-330h-160v140h-118l-72 260h-40l-72 -260h-238z" />
    <glyph glyph-name="uni04B3" unicode="&#x4b3;" horiz-adv-x="680" 
d="M10 0l120 291l-114 269h245l43 -189h22l43 189h245l-114 -269l42 -101h128v-330h-160v140h-138l-41 191h-32l-41 -191h-248z" />
    <glyph glyph-name="uni04BA" unicode="&#x4ba;" horiz-adv-x="640" 
d="M40 0v700h220v-140h200l140 -140v-420h-220v380h-120v-380h-220z" />
    <glyph glyph-name="uni04BB" unicode="&#x4bb;" horiz-adv-x="620" 
d="M40 0v700h220v-140h180l140 -140v-420h-220v380h-100v-380h-220z" />
    <glyph glyph-name="uni04F4" unicode="&#x4f4;" horiz-adv-x="640" 
d="M600 700v-700h-220v140h-200l-140 140v420h220v-380h120v380h220zM90 740v130h200v-130h-200zM350 740v130h200v-130h-200z" />
    <glyph glyph-name="uni04F5" unicode="&#x4f5;" horiz-adv-x="610" 
d="M570 560v-560h-220v120h-180l-140 140v300h220v-260h100v260h220zM70 600v130h200v-130h-200zM330 600v130h200v-130h-200z" />
    <glyph glyph-name="uni04B6" unicode="&#x4b6;" horiz-adv-x="690" 
d="M600 700v-510h80v-330h-160v140h-140v140h-200l-140 140v420h220v-380h120v380h220z" />
    <glyph glyph-name="uni04B7" unicode="&#x4b7;" horiz-adv-x="670" 
d="M580 560v-370h80v-330h-160v140h-140v120h-180l-140 140v300h220v-260h100v260h220z" />
    <glyph glyph-name="uni04CB" unicode="&#x4cb;" horiz-adv-x="640" 
d="M312 -140v290h68v50h-200l-140 140v360h220v-320h120v320h220v-700h-128v-140h-160z" />
    <glyph glyph-name="uni04CC" unicode="&#x4cc;" horiz-adv-x="620" 
d="M250 -140v290h110v50h-180l-140 140v220h220v-180h100v180h220v-560h-170v-140h-160z" />
    <glyph glyph-name="uni04B8" unicode="&#x4b8;" horiz-adv-x="660" 
d="M368 50h-76v90h-112l-140 140v420h220v-380h32v170h76v-170h32v380h220v-700h-220v140h-32v-90z" />
    <glyph glyph-name="uni04B9" unicode="&#x4b9;" horiz-adv-x="640" 
d="M358 50h-76v70h-102l-140 140v300h210v-260h32v140h76v-140h32v260h210v-560h-210v120h-32v-70z" />
    <glyph glyph-name="uni040F" unicode="&#x40f;" horiz-adv-x="650" 
d="M610 700v-700h-205v-140h-160v140h-205v700h220v-510h130v510h220z" />
    <glyph glyph-name="uni045F" unicode="&#x45f;" horiz-adv-x="620" 
d="M580 560v-560h-190v-140h-160v140h-190v560h220v-370h100v370h220z" />
    <glyph glyph-name="uni04F8" unicode="&#x4f8;" horiz-adv-x="940" 
d="M620 400v-250l-150 -150h-430v700h220v-150h210zM680 0v700h220v-700h-220zM400 380h-140v-210h140v210zM240 740v130h200v-130h-200zM500 740v130h200v-130h-200z" />
    <glyph glyph-name="uni04F9" unicode="&#x4f9;" horiz-adv-x="920" 
d="M40 0v560h220v-120h200l130 -130v-180l-130 -130h-420zM660 0v560h220v-560h-220zM260 170h110v100h-110v-100zM230 600v130h200v-130h-200zM490 600v130h200v-130h-200z" />
    <glyph glyph-name="uni0462" unicode="&#x462;" horiz-adv-x="640" 
d="M40 0v700h220v-60h215v-76h-215v-54h210l140 -140v-230l-140 -140h-430zM260 170h130v170h-130v-170z" />
    <glyph glyph-name="uni0463" unicode="&#x463;" horiz-adv-x="610" 
d="M40 0v700h220v-70h185v-76h-185v-54h180l140 -140v-220l-140 -140h-400zM260 170h100v159h-100v-159z" />
    <glyph glyph-name="uni046A" unicode="&#x46a;" horiz-adv-x="960" 
d="M590 0h-220v260h-30l-92 -260h-248l150 370l-135 330h930l-135 -330l150 -370h-248l-92 260h-30v-260zM345 430h270l35 100h-340z" />
    <glyph glyph-name="uni046B" unicode="&#x46b;" horiz-adv-x="860" 
d="M530 0h-200v160h-44l-38 -160h-248l140 260l-130 300h840l-130 -300l140 -260h-248l-38 160h-44v-160zM319 320h222l21 80h-264z" />
    <glyph glyph-name="uni0472" unicode="&#x472;" horiz-adv-x="650" 
d="M35 150v400l150 150h280l150 -150v-400l-150 -150h-280zM255 520v-100h140v100h-140zM255 180h140v100h-140v-100z" />
    <glyph glyph-name="uni0473" unicode="&#x473;" 
d="M30 130v300l130 130h280l130 -130v-300l-130 -130h-280zM245 420v-90h110v90h-110zM245 150h110v90h-110v-90z" />
    <glyph glyph-name="uni0474" unicode="&#x474;" horiz-adv-x="735" 
d="M130 0l-125 700h238l62 -500h30l62 500h328v-180h-122l-93 -520h-380z" />
    <glyph glyph-name="uni0475" unicode="&#x475;" horiz-adv-x="695" 
d="M109 0l-104 560h225l39 -380h46l40 380h330v-180h-143l-71 -380h-362z" />
    <glyph glyph-name="uni051C" unicode="&#x51c;" horiz-adv-x="850" 
d="M112 0l-112 700h240l55 -460h10l58 350h124l58 -350h10l55 460h240l-112 -700h-261l-52 297l-52 -297h-261z" />
    <glyph glyph-name="uni051D" unicode="&#x51d;" horiz-adv-x="840" 
d="M94 0l-79 560h224l35 -380h10l48 320h176l48 -320h10l35 380h224l-79 -560h-274l-52 287l-52 -287h-274z" />
    <glyph glyph-name="uni04C0" unicode="&#x4c0;" horiz-adv-x="430" 
d="M45 -4v165l60 5v368l-60 5v165l170 -8l170 8v-165l-60 -5v-368l60 -5v-165l-170 8z" />
    <glyph glyph-name="uni04CF" unicode="&#x4cf;" horiz-adv-x="300" 
d="M40 0v700h220v-700h-220z" />
    <glyph glyph-name="uni0414.loclBGR" horiz-adv-x="720" 
d="M15 -140v330h60l112 510h346l112 -510h60v-330h-160v140h-370v-140h-160zM298 170h124l-57 360h-10z" />
    <glyph glyph-name="uni041B.loclBGR" horiz-adv-x="640" 
d="M510 700l125 -700h-238l-62 500h-30l-62 -500h-238l125 700h380z" />
    <glyph glyph-name="uni0424.loclBGR" horiz-adv-x="870" 
d="M35 160v380l140 140h160v60h200v-60h160l140 -140v-380l-140 -140h-160v-60h-200v60h-160zM245 510v-320h90v320h-90zM625 510h-90v-320h90v320z" />
    <glyph glyph-name="uni0431.loclSRB" horiz-adv-x="620" 
d="M180 0l-140 140v200l60 60l-60 60v110l130 130h390v-170h-300v-50h240l90 -90v-250l-140 -140h-270zM260 180h110v150h-110v-150z" />
    <glyph glyph-name="uni0432.loclBGR" horiz-adv-x="610" 
d="M40 570l130 130h270l130 -130v-138l-76 -56l96 -76v-170l-130 -130h-420v570zM255 425h105v105h-105v-105zM255 170h115v125h-115v-125z" />
    <glyph glyph-name="uni0433.loclBGR" horiz-adv-x="580" 
d="M550 0v170h-300v60h300v200l-130 130h-390v-170h300v-60h-300v-203l127 -127h393z" />
    <glyph glyph-name="uni0434.loclBGR" horiz-adv-x="610" 
d="M60 -140v180h290v40h-190l-130 130v220l130 130h410v-536l-164 -164h-346zM250 380v-130h100v130h-100z" />
    <glyph glyph-name="uni0436.loclBGR" horiz-adv-x="940" 
d="M580 0h-220v201h-44l-68 -201h-248l140 301l-130 259h246l63 -179h41v319h220v-319h41l63 179h246l-130 -259l140 -301h-248l-68 201h-44v-201z" />
    <glyph glyph-name="uni0437.loclBGR" horiz-adv-x="550" 
d="M530 -40l-100 -100h-405v180h274v85h-244v170h224v85h-249v180h380l100 -100v-181l-67 -53l87 -70v-196z" />
    <glyph glyph-name="uni0438.loclBGR" horiz-adv-x="620" 
d="M580 560v-560h-400l-140 140v420h220v-370h100v370h220z" />
    <glyph glyph-name="uni0439.loclBGR" horiz-adv-x="620" 
d="M580 560v-560h-400l-140 140v420h220v-370h100v370h220zM340 740h190l-70 -150h-300l-70 150h190v-80h60v80z" />
    <glyph glyph-name="uni045D.loclBGR" horiz-adv-x="620" 
d="M580 560v-560h-400l-140 140v420h220v-370h100v370h220zM440 600h-320v130l320 -30v-100z" />
    <glyph glyph-name="uni043A.loclBGR" horiz-adv-x="620" 
d="M40 0v700h220v-319h41l63 179h246l-130 -259l140 -301h-248l-68 201h-44v-201h-220z" />
    <glyph glyph-name="uni043F.loclBGR" horiz-adv-x="620" 
d="M40 0v560h400l140 -140v-420h-220v370h-100v-370h-220z" />
    <glyph glyph-name="uni0442.loclBGR" horiz-adv-x="920" 
d="M40 560h700l140 -140v-420h-215v385h-100v-385h-210v385h-100v-385h-215v560z" />
    <glyph glyph-name="uni0446.loclBGR" horiz-adv-x="670" 
d="M580 560v-370h80v-330h-160v140h-320l-140 140v420h220v-370h100v370h220z" />
    <glyph glyph-name="uni0448.loclBGR" horiz-adv-x="920" 
d="M880 0h-700l-140 140v420h215v-385h100v385h210v-385h100v385h215v-560z" />
    <glyph glyph-name="uni0449.loclBGR" horiz-adv-x="970" 
d="M800 -140v140h-620l-140 140v420h215v-385h100v385h210v-385h100v385h215v-370h80v-330h-160z" />
    <glyph glyph-name="uni044A.loclBGR" horiz-adv-x="660" 
d="M190 0l-110 110v230l40 40h-110v180h290v-120h200l130 -130v-180l-130 -130h-310zM300 170h110v100h-110v-100z" />
    <glyph glyph-name="uni044C.loclBGR" horiz-adv-x="620" 
d="M150 0l-110 110v450h220v-120h200l130 -130v-180l-130 -130h-310zM260 170h110v100h-110v-100z" />
    <glyph glyph-name="uni044E.loclBGR" horiz-adv-x="900" 
d="M40 0v700h220v-335h70v65l130 130h280l130 -130v-300l-130 -130h-280l-130 130v65h-70v-195h-220zM550 170h100v220h-100v-220z" />
    <glyph glyph-name="uni0306.cy" horiz-adv-x="0" 
d="M30 740h190l-70 -150h-300l-70 150h190v-80h60v80z" />
    <glyph glyph-name="Cacute.ss02" horiz-adv-x="630" 
d="M185 0l-150 150v400l150 150h405v-300h-200v110h-125v-320h125v110h200v-300h-405zM245 740v100l320 30v-130h-320z" />
    <glyph glyph-name="Ccircumflex.ss02" horiz-adv-x="630" 
d="M185 0l-150 150v400l150 150h405v-300h-200v110h-125v-320h125v110h200v-300h-405zM185 730v120l190 60l190 -60v-120l-190 60z" />
    <glyph glyph-name="Ccaron.ss02" horiz-adv-x="630" 
d="M185 0l-150 150v400l150 150h405v-300h-200v110h-125v-320h125v110h200v-300h-405zM565 910v-120l-190 -60l-190 60v120l190 -60z" />
    <glyph glyph-name="Cdotaccent.ss02" horiz-adv-x="630" 
d="M185 0l-150 150v400l150 150h405v-300h-200v110h-125v-320h125v110h200v-300h-405zM265 740v130h220v-130h-220z" />
    <glyph glyph-name="Ccedilla.ss02" horiz-adv-x="630" 
d="M185 0l-150 150v400l150 150h405v-300h-200v110h-125v-320h125v110h200v-300h-405zM250 -200l50 150h190l-90 -150h-150z" />
    <glyph glyph-name="uni01F4.ss02" horiz-adv-x="645" 
d="M35 150v400l150 150h420v-250h-200v60h-150v-320h150v65h-90v145h290v-400h-420zM210 740v100l320 30v-130h-320z" />
    <glyph glyph-name="Gbreve.ss02" horiz-adv-x="645" 
d="M35 150v400l150 150h420v-250h-200v60h-150v-320h150v65h-90v145h290v-400h-420zM390 880h170l-100 -150h-240l-100 150h170v-60h100v60z" />
    <glyph glyph-name="Gcircumflex.ss02" horiz-adv-x="645" 
d="M35 150v400l150 150h420v-250h-200v60h-150v-320h150v65h-90v145h290v-400h-420zM150 730v120l190 60l190 -60v-120l-190 60z" />
    <glyph glyph-name="Gcaron.ss02" horiz-adv-x="645" 
d="M35 150v400l150 150h420v-250h-200v60h-150v-320h150v65h-90v145h290v-400h-420zM530 910v-120l-190 -60l-190 60v120l190 -60z" />
    <glyph glyph-name="Gdotaccent.ss02" horiz-adv-x="645" 
d="M35 150v400l150 150h420v-250h-200v60h-150v-320h150v65h-90v145h290v-400h-420zM230 740v130h220v-130h-220z" />
    <glyph glyph-name="uni0122.ss02" horiz-adv-x="645" 
d="M35 150v400l150 150h420v-250h-200v60h-150v-320h150v65h-90v145h290v-400h-420zM215 -200l50 150h190l-90 -150h-150z" />
    <glyph glyph-name="uni0186.ss02" horiz-adv-x="630" 
d="M440 700l150 -150v-400l-150 -150h-405v300h200v-110h125v320h-125v-110h-200v300h405z" />
    <glyph glyph-name="Sacute.ss02" horiz-adv-x="660" 
d="M45 0v230h200v-50h160v75l-370 33v272l140 140h440v-230h-200v50h-160v-75l370 -33v-272l-140 -140h-440zM220 740v100l320 30v-130h-320z" />
    <glyph glyph-name="Scircumflex.ss02" horiz-adv-x="660" 
d="M45 0v230h200v-50h160v75l-370 33v272l140 140h440v-230h-200v50h-160v-75l370 -33v-272l-140 -140h-440zM160 730v120l190 60l190 -60v-120l-190 60z" />
    <glyph glyph-name="Scaron.ss02" horiz-adv-x="660" 
d="M45 0v230h200v-50h160v75l-370 33v272l140 140h440v-230h-200v50h-160v-75l370 -33v-272l-140 -140h-440zM540 910v-120l-190 -60l-190 60v120l190 -60z" />
    <glyph glyph-name="uni1E60.ss02" horiz-adv-x="660" 
d="M45 0v230h200v-50h160v75l-370 33v272l140 140h440v-230h-200v50h-160v-75l370 -33v-272l-140 -140h-440zM240 740v130h220v-130h-220z" />
    <glyph glyph-name="Scedilla.ss02" horiz-adv-x="660" 
d="M45 0v230h200v-50h160v75l-370 33v272l140 140h440v-230h-200v50h-160v-75l370 -33v-272l-140 -140h-440zM185 -200l50 150h190l-90 -150h-150z" />
    <glyph glyph-name="uni1E62.ss02" horiz-adv-x="660" 
d="M45 0v230h200v-50h160v75l-370 33v272l140 140h440v-230h-200v50h-160v-75l370 -33v-272l-140 -140h-440zM200 -190v130h220v-130h-220z" />
    <glyph glyph-name="uni0218.ss02" horiz-adv-x="660" 
d="M45 0v230h200v-50h160v75l-370 33v272l140 140h440v-230h-200v50h-160v-75l370 -33v-272l-140 -140h-440zM185 -200l50 150h190l-90 -150h-150z" />
    <glyph glyph-name="uni0421.ss02" horiz-adv-x="630" 
d="M185 0l-150 150v400l150 150h405v-300h-200v110h-125v-320h125v110h200v-300h-405z" />
    <glyph glyph-name="uni0405.ss02" horiz-adv-x="660" 
d="M45 0v230h200v-50h160v75l-370 33v272l140 140h440v-230h-200v50h-160v-75l370 -33v-272l-140 -140h-440z" />
    <glyph glyph-name="Cacute.ss03" horiz-adv-x="650" 
d="M35 140v420l140 140h315l125 -125v-165h-215v100h-135v-320h135v100h215v-165l-125 -125h-315zM195 740v100l320 30v-130h-320z" />
    <glyph glyph-name="Ccircumflex.ss03" horiz-adv-x="650" 
d="M35 140v420l140 140h315l125 -125v-165h-215v100h-135v-320h135v100h215v-165l-125 -125h-315zM135 730v120l190 60l190 -60v-120l-190 60z" />
    <glyph glyph-name="Ccaron.ss03" horiz-adv-x="650" 
d="M35 140v420l140 140h315l125 -125v-165h-215v100h-135v-320h135v100h215v-165l-125 -125h-315zM515 910v-120l-190 -60l-190 60v120l190 -60z" />
    <glyph glyph-name="Cdotaccent.ss03" horiz-adv-x="650" 
d="M35 140v420l140 140h315l125 -125v-165h-215v100h-135v-320h135v100h215v-165l-125 -125h-315zM215 740v130h220v-130h-220z" />
    <glyph glyph-name="Ccedilla.ss03" horiz-adv-x="650" 
d="M35 140v420l140 140h315l125 -125v-165h-215v100h-135v-320h135v100h215v-165l-125 -125h-315zM200 -200l50 150h190l-90 -150h-150z" />
    <glyph glyph-name="uni01F4.ss03" horiz-adv-x="650" 
d="M35 150v400l150 150h305l125 -125v-125h-215v60h-145v-320h160v65h-100v145h300v-400h-430zM210 740v100l320 30v-130h-320z" />
    <glyph glyph-name="Gbreve.ss03" horiz-adv-x="650" 
d="M35 150v400l150 150h305l125 -125v-125h-215v60h-145v-320h160v65h-100v145h300v-400h-430zM390 880h170l-100 -150h-240l-100 150h170v-60h100v60z" />
    <glyph glyph-name="Gcircumflex.ss03" horiz-adv-x="650" 
d="M35 150v400l150 150h305l125 -125v-125h-215v60h-145v-320h160v65h-100v145h300v-400h-430zM150 730v120l190 60l190 -60v-120l-190 60z" />
    <glyph glyph-name="Gcaron.ss03" horiz-adv-x="650" 
d="M35 150v400l150 150h305l125 -125v-125h-215v60h-145v-320h160v65h-100v145h300v-400h-430zM530 910v-120l-190 -60l-190 60v120l190 -60z" />
    <glyph glyph-name="Gdotaccent.ss03" horiz-adv-x="650" 
d="M35 150v400l150 150h305l125 -125v-125h-215v60h-145v-320h160v65h-100v145h300v-400h-430zM230 740v130h220v-130h-220z" />
    <glyph glyph-name="uni0122.ss03" horiz-adv-x="650" 
d="M35 150v400l150 150h305l125 -125v-125h-215v60h-145v-320h160v65h-100v145h300v-400h-430zM215 -200l50 150h190l-90 -150h-150z" />
    <glyph glyph-name="uni0186.ss03" horiz-adv-x="650" 
d="M615 560v-420l-140 -140h-315l-125 125v165h215v-100h135v320h-135v-100h-215v165l125 125h315z" />
    <glyph glyph-name="Sacute.ss03" horiz-adv-x="650" 
d="M35 130v110h220v-60h140v80l-360 33v277l130 130h320l130 -130v-110h-220v60h-140v-80l360 -33v-277l-130 -130h-320zM195 740v100l320 30v-130h-320z" />
    <glyph glyph-name="Scircumflex.ss03" horiz-adv-x="650" 
d="M35 130v110h220v-60h140v80l-360 33v277l130 130h320l130 -130v-110h-220v60h-140v-80l360 -33v-277l-130 -130h-320zM135 730v120l190 60l190 -60v-120l-190 60z" />
    <glyph glyph-name="Scaron.ss03" horiz-adv-x="650" 
d="M35 130v110h220v-60h140v80l-360 33v277l130 130h320l130 -130v-110h-220v60h-140v-80l360 -33v-277l-130 -130h-320zM515 910v-120l-190 -60l-190 60v120l190 -60z" />
    <glyph glyph-name="uni1E60.ss03" horiz-adv-x="650" 
d="M35 130v110h220v-60h140v80l-360 33v277l130 130h320l130 -130v-110h-220v60h-140v-80l360 -33v-277l-130 -130h-320zM215 740v130h220v-130h-220z" />
    <glyph glyph-name="Scedilla.ss03" horiz-adv-x="650" 
d="M35 130v110h220v-60h140v80l-360 33v277l130 130h320l130 -130v-110h-220v60h-140v-80l360 -33v-277l-130 -130h-320zM190 -200l50 150h190l-90 -150h-150z" />
    <glyph glyph-name="uni1E62.ss03" horiz-adv-x="650" 
d="M35 130v110h220v-60h140v80l-360 33v277l130 130h320l130 -130v-110h-220v60h-140v-80l360 -33v-277l-130 -130h-320zM205 -190v130h220v-130h-220z" />
    <glyph glyph-name="uni0218.ss03" horiz-adv-x="650" 
d="M35 130v110h220v-60h140v80l-360 33v277l130 130h320l130 -130v-110h-220v60h-140v-80l360 -33v-277l-130 -130h-320zM190 -200l50 150h190l-90 -150h-150z" />
    <glyph glyph-name="uni0421.ss03" horiz-adv-x="650" 
d="M35 140v420l140 140h315l125 -125v-165h-215v100h-135v-320h135v100h215v-165l-125 -125h-315z" />
    <glyph glyph-name="uni0405.ss03" horiz-adv-x="650" 
d="M35 130v110h220v-60h140v80l-360 33v277l130 130h320l130 -130v-110h-220v60h-140v-80l360 -33v-277l-130 -130h-320z" />
    <glyph glyph-name="uni1E3E.ss04" horiz-adv-x="920" 
d="M40 0v700h340l80 -390l80 390h340v-700h-210v480h-15l-95 -420h-200l-95 420h-15v-480h-210zM330 740v100l320 30v-130h-320z" />
    <glyph glyph-name="uni1E40.ss04" horiz-adv-x="920" 
d="M40 0v700h340l80 -390l80 390h340v-700h-210v480h-15l-95 -420h-200l-95 420h-15v-480h-210zM350 740v130h220v-130h-220z" />
    <glyph glyph-name="Mu.ss04" horiz-adv-x="920" 
d="M40 0v700h340l80 -390l80 390h340v-700h-210v480h-15l-95 -420h-200l-95 420h-15v-480h-210z" />
    <glyph glyph-name="uni041C.ss04" horiz-adv-x="920" 
d="M40 0v700h340l80 -390l80 390h340v-700h-210v480h-15l-95 -420h-200l-95 420h-15v-480h-210z" />
    <glyph glyph-name="Lslash.ss05" horiz-adv-x="545" 
d="M40 0v700h220v-219l205 99v-180l-205 -99v-101h260v-200h-480z" />
    <glyph glyph-name="Lacute.ss05" horiz-adv-x="545" 
d="M40 0v700h220v-500h260v-200h-480zM40 740v100l320 30v-130h-320z" />
    <glyph glyph-name="Lcaron.ss05" horiz-adv-x="545" 
d="M40 0v700h220v-500h260v-200h-480zM310 460v240h66v-240h-66z" />
    <glyph glyph-name="uni013B.ss05" horiz-adv-x="545" 
d="M40 0v700h220v-500h260v-200h-480zM170 -200l50 150h190l-90 -150h-150z" />
    <glyph glyph-name="uni1E36.ss05" horiz-adv-x="545" 
d="M40 0v700h220v-500h260v-200h-480zM185 -190v130h220v-130h-220z" />
    <glyph glyph-name="uni1E3A.ss05" horiz-adv-x="545" 
d="M40 0v700h220v-500h260v-200h-480zM125 -170v130h340v-130h-340z" />
    <glyph glyph-name="Ldot.ss05" horiz-adv-x="545" 
d="M40 0v700h220v-500h260v-200h-480zM325 350v200h190v-200h-190z" />
    <glyph glyph-name="uni01C7.ss05" horiz-adv-x="1145" 
d="M40 0v700h220v-500h260v-200h-480zM560 150v200h220v-150h110v310h-290v190h510v-550l-150 -150h-250z" />
    <glyph glyph-name="uni01C8.ss05" horiz-adv-x="845" 
d="M40 0v700h220v-500h260v-200h-480zM585 600v130h220v-130h-220zM585 -140v700h220v-700h-220z" />
    </font>
</defs>
</svg>
