<svg width="44" height="44" viewBox="0 0 44 44" fill="none" xmlns="http://www.w3.org/2000/svg">
    <g clip-path="url(#clip0_103_766)">
        <path d="M43.4499 37.235C42.4377 32.7728 40.0526 28.74 36.6299 25.7034C34.9231 27.9697 32.7131 29.8084 30.1743 31.0747C27.6354 32.341 24.837 33.0001 21.9999 33.0001C19.1628 33.0001 16.3645 32.341 13.8256 31.0747C11.2867 29.8084 9.07673 27.9697 7.36991 25.7034C3.94724 28.74 1.56217 32.7728 0.54991 37.235C0.366965 38.0472 0.367486 38.8899 0.551435 39.7018C0.735384 40.5137 1.09813 41.2744 1.61324 41.9284C2.1292 42.5756 2.78459 43.0981 3.53056 43.4568C4.27653 43.8155 5.09385 44.0012 5.92158 44H38.0783C38.906 44.0012 39.7233 43.8155 40.4693 43.4568C41.2153 43.0981 41.8706 42.5756 42.3866 41.9284C42.9017 41.2744 43.2645 40.5137 43.4484 39.7018C43.6324 38.8899 43.6329 38.0472 43.4499 37.235Z" fill="#ACACAC"/>
        <path d="M21.9997 29.3333C30.0998 29.3333 36.6663 22.7668 36.6663 14.6667C36.6663 6.56649 30.0998 0 21.9997 0C13.8995 0 7.33301 6.56649 7.33301 14.6667C7.33301 22.7668 13.8995 29.3333 21.9997 29.3333Z" fill="#ACACAC"/>
    </g>
    <defs>
        <clipPath id="clip0_103_766">
            <rect width="44" height="44" fill="white"/>
        </clipPath>
    </defs>
</svg>
